<?xml version="1.0" encoding="UTF-8" standalone="no"?>
<!DOCTYPE svg PUBLIC "-//W3C//DTD SVG 1.1//EN"
 "http://www.w3.org/Graphics/SVG/1.1/DTD/svg11.dtd">
<!-- Generated by graphviz version 2.40.1 (20161225.0304)
 -->
<!-- Title: g Pages: 1 -->
<svg width="1012pt" height="1055pt"
 viewBox="0.00 0.00 1011.87 1054.89" xmlns="http://www.w3.org/2000/svg" xmlns:xlink="http://www.w3.org/1999/xlink">
<g id="graph0" class="graph" transform="scale(1 1) rotate(0) translate(4 1050.8889)">
<title>g</title>
<polygon fill="#ffffff" stroke="transparent" points="-4,4 -4,-1050.8889 1007.8697,-1050.8889 1007.8697,4 -4,4"/>
<!-- job -->
<g id="node1" class="node">
<title>job</title>
<ellipse fill="#00ff00" stroke="#000000" cx="67" cy="-25.4558" rx="57.5098" ry="25.4118"/>
<text text-anchor="middle" x="67" y="-28.2558" font-family="Times,serif" font-size="14.00" fill="#000000">A job</text>
<text text-anchor="middle" x="67" y="-14.2558" font-family="Times,serif" font-size="14.00" fill="#000000">2018&#45;10&#45;19</text>
</g>
<!-- proof_of_work -->
<g id="node2" class="node">
<title>proof_of_work</title>
<ellipse fill="#00ff00" stroke="#000000" cx="133" cy="-122.267" rx="66.707" ry="25.4118"/>
<text text-anchor="middle" x="133" y="-125.067" font-family="Times,serif" font-size="14.00" fill="#000000">Proof of work</text>
<text text-anchor="middle" x="133" y="-111.067" font-family="Times,serif" font-size="14.00" fill="#000000">2019&#45;01&#45;22</text>
</g>
<!-- proof_of_work&#45;&gt;job -->
<g id="edge1" class="edge">
<title>proof_of_work&#45;&gt;job</title>
<path fill="none" stroke="#000000" d="M116.1746,-97.587C108.1066,-85.7526 98.325,-71.4045 89.6172,-58.6316"/>
<polygon fill="#000000" stroke="#000000" points="92.3195,-56.3819 83.7946,-50.0908 86.5357,-60.325 92.3195,-56.3819"/>
</g>
<!-- passport -->
<g id="node3" class="node">
<title>passport</title>
<ellipse fill="#00ff00" stroke="#000000" cx="591" cy="-122.267" rx="44.7298" ry="25.4118"/>
<text text-anchor="middle" x="591" y="-125.067" font-family="Times,serif" font-size="14.00" fill="#000000">Passport</text>
<text text-anchor="middle" x="591" y="-111.067" font-family="Times,serif" font-size="14.00" fill="#000000">2015</text>
</g>
<!-- danish_phone_number -->
<g id="node4" class="node">
<title>danish_phone_number</title>
<ellipse fill="#00ff00" stroke="#000000" cx="593" cy="-638.725" rx="98.9836" ry="25.4118"/>
<text text-anchor="middle" x="593" y="-641.525" font-family="Times,serif" font-size="14.00" fill="#000000">Danish phone number</text>
<text text-anchor="middle" x="593" y="-627.525" font-family="Times,serif" font-size="14.00" fill="#000000">2019&#45;01&#45;17</text>
</g>
<!-- rejsekort -->
<g id="node5" class="node">
<title>rejsekort</title>
<ellipse fill="#00ff00" stroke="#000000" cx="867" cy="-869.6367" rx="64.2475" ry="25.4118"/>
<text text-anchor="middle" x="867" y="-872.4367" font-family="Times,serif" font-size="14.00" fill="#000000">Rejsekort</text>
<text text-anchor="middle" x="867" y="-858.4367" font-family="Times,serif" font-size="14.00" fill="#000000">2018&#45;10&#45;19 ?</text>
</g>
<!-- place_to_live -->
<g id="node6" class="node">
<title>place_to_live</title>
<ellipse fill="#00ff00" stroke="#000000" cx="683" cy="-25.4558" rx="68.5454" ry="25.4118"/>
<text text-anchor="middle" x="683" y="-28.2558" font-family="Times,serif" font-size="14.00" fill="#000000">A place to live</text>
<text text-anchor="middle" x="683" y="-14.2558" font-family="Times,serif" font-size="14.00" fill="#000000">2019&#45;01&#45;21</text>
</g>
<!-- name_on_postbox -->
<g id="node7" class="node">
<title>name_on_postbox</title>
<ellipse fill="#00ff00" stroke="#000000" cx="797" cy="-122.267" rx="66.9194" ry="35.2113"/>
<text text-anchor="middle" x="797" y="-132.067" font-family="Times,serif" font-size="14.00" fill="#000000">Your name on</text>
<text text-anchor="middle" x="797" y="-118.067" font-family="Times,serif" font-size="14.00" fill="#000000">your postbox</text>
<text text-anchor="middle" x="797" y="-104.067" font-family="Times,serif" font-size="14.00" fill="#000000">2019&#45;01&#45;22</text>
</g>
<!-- name_on_postbox&#45;&gt;place_to_live -->
<g id="edge2" class="edge">
<title>name_on_postbox&#45;&gt;place_to_live</title>
<path fill="none" stroke="#000000" d="M761.5546,-92.166C747.8951,-80.5661 732.2989,-67.3215 718.6227,-55.7074"/>
<polygon fill="#000000" stroke="#000000" points="720.7094,-52.8877 710.8215,-49.0824 716.1782,-58.2233 720.7094,-52.8877"/>
</g>
<!-- can_receive_post -->
<g id="node8" class="node">
<title>can_receive_post</title>
<ellipse fill="#00ff00" stroke="#000000" cx="792" cy="-219.0782" rx="99.6266" ry="25.4118"/>
<text text-anchor="middle" x="792" y="-221.8782" font-family="Times,serif" font-size="14.00" fill="#000000">Ability to receive post</text>
<text text-anchor="middle" x="792" y="-207.8782" font-family="Times,serif" font-size="14.00" fill="#000000">2019&#45;01&#45;22</text>
</g>
<!-- can_receive_post&#45;&gt;place_to_live -->
<g id="edge3" class="edge">
<title>can_receive_post&#45;&gt;place_to_live</title>
<path fill="none" stroke="#000000" d="M756.6557,-195.2123C743.8183,-184.9767 730.2178,-172.0463 721,-157.6224 702.1897,-128.1881 692.4682,-89.2283 687.5907,-61.2453"/>
<polygon fill="#000000" stroke="#000000" points="691.0018,-60.4134 685.9497,-51.1007 684.0916,-61.5313 691.0018,-60.4134"/>
</g>
<!-- can_receive_post&#45;&gt;name_on_postbox -->
<g id="edge4" class="edge">
<title>can_receive_post&#45;&gt;name_on_postbox</title>
<path fill="none" stroke="#000000" d="M793.3268,-193.3888C793.7302,-185.5779 794.1863,-176.7464 794.6365,-168.0296"/>
<polygon fill="#000000" stroke="#000000" points="798.1382,-168.0847 795.1588,-157.9174 791.1475,-167.7236 798.1382,-168.0847"/>
</g>
<!-- pendlerkort -->
<g id="node9" class="node">
<title>pendlerkort</title>
<ellipse fill="none" stroke="#000000" cx="953" cy="-551.8133" rx="50.7397" ry="18"/>
<text text-anchor="middle" x="953" y="-547.6133" font-family="Times,serif" font-size="14.00" fill="#000000">pendlerkort</text>
</g>
<!-- pendlerkort&#45;&gt;place_to_live -->
<g id="edge5" class="edge">
<title>pendlerkort&#45;&gt;place_to_live</title>
<path fill="none" stroke="#000000" d="M949.8024,-533.7682C944.8779,-504.3628 936,-444.2322 936,-392.9016 936,-392.9016 936,-392.9016 936,-219.0782 936,-154.0054 921.9475,-129.7907 873,-86.9117 841.1618,-59.0208 796.4769,-43.755 758.4403,-35.416"/>
<polygon fill="#000000" stroke="#000000" points="758.9182,-31.9408 748.4165,-33.3422 757.5,-38.7956 758.9182,-31.9408"/>
</g>
<!-- eu_residence_document_application -->
<g id="node10" class="node">
<title>eu_residence_document_application</title>
<ellipse fill="#00ff00" stroke="#000000" cx="275" cy="-219.0782" rx="105.7427" ry="25.4118"/>
<text text-anchor="middle" x="275" y="-221.8782" font-family="Times,serif" font-size="14.00" fill="#000000">Application for</text>
<text text-anchor="middle" x="275" y="-207.8782" font-family="Times,serif" font-size="14.00" fill="#000000">EU residence document</text>
</g>
<!-- eu_residence_document_application&#45;&gt;proof_of_work -->
<g id="edge7" class="edge">
<title>eu_residence_document_application&#45;&gt;proof_of_work</title>
<path fill="none" stroke="#000000" d="M239.5337,-194.8984C219.751,-181.4111 195.0094,-164.5431 174.3503,-150.4584"/>
<polygon fill="#000000" stroke="#000000" points="176.3014,-147.5526 166.0673,-144.8113 172.3582,-153.3363 176.3014,-147.5526"/>
</g>
<!-- eu_residence_document_application&#45;&gt;passport -->
<g id="edge8" class="edge">
<title>eu_residence_document_application&#45;&gt;passport</title>
<path fill="none" stroke="#000000" d="M352.7659,-201.7403C422.1474,-186.0654 515.3008,-164.4339 532,-157.6224 539.0695,-154.7388 546.288,-151.0902 553.1401,-147.2386"/>
<polygon fill="#000000" stroke="#000000" points="555.3576,-149.9953 562.2084,-141.9133 551.8129,-143.9591 555.3576,-149.9953"/>
</g>
<!-- eu_residence_document_application&#45;&gt;place_to_live -->
<g id="edge6" class="edge">
<title>eu_residence_document_application&#45;&gt;place_to_live</title>
<path fill="none" stroke="#000000" d="M351.1284,-201.3306C411.2999,-186.7851 487.0936,-167.1081 499,-157.6224 526.9044,-135.391 510.6063,-110.9172 537,-86.9117 559.1967,-66.7235 588.9915,-52.5807 615.8767,-42.9973"/>
<polygon fill="#000000" stroke="#000000" points="617.2961,-46.2112 625.6306,-39.6701 615.0361,-39.586 617.2961,-46.2112"/>
</g>
<!-- od1_form -->
<g id="node11" class="node">
<title>od1_form</title>
<ellipse fill="#00ff00" stroke="#000000" cx="275" cy="-122.267" rx="57.5098" ry="25.4118"/>
<text text-anchor="middle" x="275" y="-125.067" font-family="Times,serif" font-size="14.00" fill="#000000">OD1 form</text>
<text text-anchor="middle" x="275" y="-111.067" font-family="Times,serif" font-size="14.00" fill="#000000">2019&#45;01&#45;22</text>
</g>
<!-- eu_residence_document_application&#45;&gt;od1_form -->
<g id="edge9" class="edge">
<title>eu_residence_document_application&#45;&gt;od1_form</title>
<path fill="none" stroke="#000000" d="M275,-193.3888C275,-182.4707 275,-169.5585 275,-157.7527"/>
<polygon fill="#000000" stroke="#000000" points="278.5001,-157.7406 275,-147.7406 271.5001,-157.7406 278.5001,-157.7406"/>
</g>
<!-- passport_photo -->
<g id="node12" class="node">
<title>passport_photo</title>
<ellipse fill="#00ff00" stroke="#000000" cx="420" cy="-122.267" rx="69.7781" ry="25.4118"/>
<text text-anchor="middle" x="420" y="-125.067" font-family="Times,serif" font-size="14.00" fill="#000000">Passport photo</text>
<text text-anchor="middle" x="420" y="-111.067" font-family="Times,serif" font-size="14.00" fill="#000000">2019&#45;01&#45;23</text>
</g>
<!-- eu_residence_document_application&#45;&gt;passport_photo -->
<g id="edge10" class="edge">
<title>eu_residence_document_application&#45;&gt;passport_photo</title>
<path fill="none" stroke="#000000" d="M311.2156,-194.8984C331.4163,-181.4111 356.6806,-164.5431 377.7761,-150.4584"/>
<polygon fill="#000000" stroke="#000000" points="379.8609,-153.2749 386.2341,-144.8113 375.9739,-147.4532 379.8609,-153.2749"/>
</g>
<!-- eu_residence_document -->
<g id="node13" class="node">
<title>eu_residence_document</title>
<ellipse fill="#ffff00" stroke="#000000" cx="543" cy="-305.9899" rx="94.655" ry="18"/>
<text text-anchor="middle" x="543" y="-301.7899" font-family="Times,serif" font-size="14.00" fill="#000000">EU residence document</text>
</g>
<!-- eu_residence_document&#45;&gt;can_receive_post -->
<g id="edge12" class="edge">
<title>eu_residence_document&#45;&gt;can_receive_post</title>
<path fill="none" stroke="#000000" d="M588.3809,-290.15C626.0696,-276.995 680.2752,-258.075 723.284,-243.063"/>
<polygon fill="#000000" stroke="#000000" points="724.5502,-246.3282 732.8382,-239.7282 722.2433,-239.7193 724.5502,-246.3282"/>
</g>
<!-- eu_residence_document&#45;&gt;eu_residence_document_application -->
<g id="edge11" class="edge">
<title>eu_residence_document&#45;&gt;eu_residence_document_application</title>
<path fill="none" stroke="#ff0000" d="M495.087,-290.4518C454.1837,-277.187 394.7219,-257.9037 347.9131,-242.7237"/>
<polygon fill="#ff0000" stroke="#ff0000" points="348.7199,-239.306 338.1279,-239.5504 346.5605,-245.9646 348.7199,-239.306"/>
</g>
<!-- cpr_number_application -->
<g id="node14" class="node">
<title>cpr_number_application</title>
<ellipse fill="none" stroke="#000000" cx="334" cy="-392.9016" rx="72.138" ry="25.4118"/>
<text text-anchor="middle" x="334" y="-395.7016" font-family="Times,serif" font-size="14.00" fill="#000000">Application for</text>
<text text-anchor="middle" x="334" y="-381.7016" font-family="Times,serif" font-size="14.00" fill="#000000">CPR number</text>
</g>
<!-- cpr_number_application&#45;&gt;proof_of_work -->
<g id="edge14" class="edge">
<title>cpr_number_application&#45;&gt;proof_of_work</title>
<path fill="none" stroke="#000000" d="M293.7321,-371.4782C252.1315,-346.9176 189.2762,-302.465 160,-244.5341 146.2732,-217.3719 139.4852,-183.3517 136.1519,-158.0978"/>
<polygon fill="#000000" stroke="#000000" points="139.5897,-157.3695 134.9247,-147.857 132.6395,-158.2025 139.5897,-157.3695"/>
</g>
<!-- cpr_number_application&#45;&gt;passport -->
<g id="edge16" class="edge">
<title>cpr_number_application&#45;&gt;passport</title>
<path fill="none" stroke="#000000" d="M300.2543,-370.1897C288.0074,-359.9474 275.5735,-346.7074 269,-331.4457 260.0488,-310.6641 255.4724,-298.6725 269,-280.5341 302.5435,-235.5576 338.7195,-267.3017 390,-244.5341 450.9091,-217.4915 515.8259,-175.254 554.9,-148.1752"/>
<polygon fill="#000000" stroke="#000000" points="557.1131,-150.8987 563.3092,-142.3045 553.1061,-145.159 557.1131,-150.8987"/>
</g>
<!-- cpr_number_application&#45;&gt;eu_residence_document -->
<g id="edge13" class="edge">
<title>cpr_number_application&#45;&gt;eu_residence_document</title>
<path fill="none" stroke="#000000" d="M380.9037,-373.3969C414.6765,-359.3526 460.1213,-340.4546 494.2987,-326.2421"/>
<polygon fill="#000000" stroke="#000000" points="495.7311,-329.4371 503.6206,-322.3656 493.0432,-322.9737 495.7311,-329.4371"/>
</g>
<!-- proof_of_address -->
<g id="node15" class="node">
<title>proof_of_address</title>
<ellipse fill="#00ff00" stroke="#000000" cx="354" cy="-305.9899" rx="76.3945" ry="25.4118"/>
<text text-anchor="middle" x="354" y="-308.7899" font-family="Times,serif" font-size="14.00" fill="#000000">Proof of address</text>
<text text-anchor="middle" x="354" y="-294.7899" font-family="Times,serif" font-size="14.00" fill="#000000">2019&#45;01&#45;21</text>
</g>
<!-- cpr_number_application&#45;&gt;proof_of_address -->
<g id="edge15" class="edge">
<title>cpr_number_application&#45;&gt;proof_of_address</title>
<path fill="none" stroke="#000000" d="M339.8925,-367.2953C341.7642,-359.1617 343.8682,-350.0184 345.8688,-341.3248"/>
<polygon fill="#000000" stroke="#000000" points="349.3178,-341.9434 348.1496,-331.4132 342.4961,-340.3736 349.3178,-341.9434"/>
</g>
<!-- proof_of_address&#45;&gt;place_to_live -->
<g id="edge19" class="edge">
<title>proof_of_address&#45;&gt;place_to_live</title>
<path fill="none" stroke="#000000" d="M403.4387,-286.4424C477.4703,-256.2684 611.986,-197.6531 645,-157.6224 667.5937,-130.2266 676.7608,-90.0511 680.4763,-61.1933"/>
<polygon fill="#000000" stroke="#000000" points="683.9698,-61.4476 681.6133,-51.1181 677.0139,-60.6626 683.9698,-61.4476"/>
</g>
<!-- cpr_number -->
<g id="node16" class="node">
<title>cpr_number</title>
<ellipse fill="none" stroke="#000000" cx="334" cy="-472.3574" rx="56.0942" ry="18"/>
<text text-anchor="middle" x="334" y="-468.1574" font-family="Times,serif" font-size="14.00" fill="#000000">CPR number</text>
</g>
<!-- cpr_number&#45;&gt;can_receive_post -->
<g id="edge18" class="edge">
<title>cpr_number&#45;&gt;can_receive_post</title>
<path fill="none" stroke="#000000" d="M371.5557,-458.7756C431.7821,-436.2743 552.7604,-388.0829 647,-331.4457 686.9223,-307.4528 728.5541,-274.2001 756.9127,-250.0983"/>
<polygon fill="#000000" stroke="#000000" points="759.2295,-252.7223 764.5468,-243.5583 754.6754,-247.4062 759.2295,-252.7223"/>
</g>
<!-- cpr_number&#45;&gt;cpr_number_application -->
<g id="edge17" class="edge">
<title>cpr_number&#45;&gt;cpr_number_application</title>
<path fill="none" stroke="#ff0000" d="M334,-454.3277C334,-446.6927 334,-437.5155 334,-428.6104"/>
<polygon fill="#ff0000" stroke="#ff0000" points="337.5001,-428.3903 334,-418.3903 330.5001,-428.3903 337.5001,-428.3903"/>
</g>
<!-- skattekort -->
<g id="node17" class="node">
<title>skattekort</title>
<ellipse fill="none" stroke="#000000" cx="240" cy="-551.8133" rx="46.4132" ry="18"/>
<text text-anchor="middle" x="240" y="-547.6133" font-family="Times,serif" font-size="14.00" fill="#000000">Skattekort</text>
</g>
<!-- skattekort&#45;&gt;cpr_number -->
<g id="edge20" class="edge">
<title>skattekort&#45;&gt;cpr_number</title>
<path fill="none" stroke="#000000" stroke-dasharray="1,5" d="M259.4769,-535.35C272.9074,-523.9975 290.9674,-508.7318 305.9449,-496.0717"/>
<polygon fill="#000000" stroke="#000000" points="308.5218,-498.4764 313.8995,-489.3479 304.0029,-493.1304 308.5218,-498.4764"/>
</g>
<!-- nemid_application -->
<g id="node18" class="node">
<title>nemid_application</title>
<ellipse fill="none" stroke="#000000" cx="528" cy="-551.8133" rx="72.138" ry="25.4118"/>
<text text-anchor="middle" x="528" y="-554.6133" font-family="Times,serif" font-size="14.00" fill="#000000">Application for</text>
<text text-anchor="middle" x="528" y="-540.6133" font-family="Times,serif" font-size="14.00" fill="#000000">Nemid</text>
</g>
<!-- nemid_application&#45;&gt;cpr_number -->
<g id="edge21" class="edge">
<title>nemid_application&#45;&gt;cpr_number</title>
<path fill="none" stroke="#000000" d="M480.5423,-532.3762C449.3665,-519.6076 408.8575,-503.0165 378.3338,-490.515"/>
<polygon fill="#000000" stroke="#000000" points="379.3793,-487.1611 368.7988,-486.6098 376.7262,-493.6389 379.3793,-487.1611"/>
</g>
<!-- nemid -->
<g id="node19" class="node">
<title>nemid</title>
<ellipse fill="none" stroke="#000000" cx="366" cy="-638.725" rx="34.3527" ry="18"/>
<text text-anchor="middle" x="366" y="-634.525" font-family="Times,serif" font-size="14.00" fill="#000000">Nemid</text>
</g>
<!-- nemid&#45;&gt;nemid_application -->
<g id="edge22" class="edge">
<title>nemid&#45;&gt;nemid_application</title>
<path fill="none" stroke="#000000" d="M390.253,-625.7134C413.6906,-613.1393 449.8667,-593.7311 479.2648,-577.9593"/>
<polygon fill="#000000" stroke="#000000" points="480.9918,-581.0048 488.1491,-573.193 477.6825,-574.8364 480.9918,-581.0048"/>
</g>
<!-- danish_bank_account -->
<g id="node20" class="node">
<title>danish_bank_account</title>
<ellipse fill="none" stroke="#000000" cx="428" cy="-718.1808" rx="84.041" ry="18"/>
<text text-anchor="middle" x="428" y="-713.9808" font-family="Times,serif" font-size="14.00" fill="#000000">Danish bank account</text>
</g>
<!-- danish_bank_account&#45;&gt;proof_of_work -->
<g id="edge24" class="edge">
<title>danish_bank_account&#45;&gt;proof_of_work</title>
<path fill="none" stroke="#000000" d="M371.0451,-704.7654C274.7177,-678.3095 90,-609.6751 90,-472.3574 90,-472.3574 90,-472.3574 90,-305.9899 90,-253.1403 107.0777,-193.936 119.7083,-157.3761"/>
<polygon fill="#000000" stroke="#000000" points="123.0997,-158.2836 123.1349,-147.6889 116.5004,-155.9492 123.0997,-158.2836"/>
</g>
<!-- danish_bank_account&#45;&gt;passport -->
<g id="edge26" class="edge">
<title>danish_bank_account&#45;&gt;passport</title>
<path fill="none" stroke="#000000" d="M433.0219,-700.1503C440.4832,-676.6897 456.7441,-636.0172 485,-613.2691 529.7006,-577.2818 564.2994,-613.2565 609,-577.2691 650.3343,-543.9919 666,-525.4224 666,-472.3574 666,-472.3574 666,-472.3574 666,-392.9016 666,-305.1408 628.9211,-206.996 606.9056,-156.4573"/>
<polygon fill="#000000" stroke="#000000" points="609.9678,-154.7282 602.7188,-147.0015 603.5671,-157.5623 609.9678,-154.7282"/>
</g>
<!-- danish_bank_account&#45;&gt;danish_phone_number -->
<g id="edge27" class="edge">
<title>danish_bank_account&#45;&gt;danish_phone_number</title>
<path fill="none" stroke="#000000" d="M462.1881,-701.7175C483.7829,-691.3185 512.1962,-677.6361 537.0234,-665.6805"/>
<polygon fill="#000000" stroke="#000000" points="538.8502,-668.6856 546.3414,-661.1934 535.8131,-662.3787 538.8502,-668.6856"/>
</g>
<!-- danish_bank_account&#45;&gt;cpr_number -->
<g id="edge23" class="edge">
<title>danish_bank_account&#45;&gt;cpr_number</title>
<path fill="none" stroke="#000000" d="M426.4234,-699.9272C424.194,-678.6476 419.1984,-642.6463 409,-613.2691 394.3836,-571.1656 368.5333,-526.3518 351.3317,-498.8487"/>
<polygon fill="#000000" stroke="#000000" points="354.1684,-496.7864 345.8584,-490.2142 348.2562,-500.5341 354.1684,-496.7864"/>
</g>
<!-- danish_bank_account&#45;&gt;nemid -->
<g id="edge25" class="edge">
<title>danish_bank_account&#45;&gt;nemid</title>
<path fill="none" stroke="#000000" stroke-dasharray="1,5" d="M413.9312,-700.151C405.5363,-689.3926 394.7518,-675.5718 385.5391,-663.7652"/>
<polygon fill="#000000" stroke="#000000" points="388.0764,-661.3275 379.1652,-655.5968 382.5577,-665.6338 388.0764,-661.3275"/>
</g>
<!-- activated_nemid -->
<g id="node21" class="node">
<title>activated_nemid</title>
<ellipse fill="none" stroke="#000000" cx="639" cy="-718.1808" rx="70.5271" ry="18"/>
<text text-anchor="middle" x="639" y="-713.9808" font-family="Times,serif" font-size="14.00" fill="#000000">Activated Nemid</text>
</g>
<!-- activated_nemid&#45;&gt;danish_phone_number -->
<g id="edge29" class="edge">
<title>activated_nemid&#45;&gt;danish_phone_number</title>
<path fill="none" stroke="#000000" d="M628.5619,-700.151C623.8613,-692.0318 618.151,-682.1683 612.6942,-672.7428"/>
<polygon fill="#000000" stroke="#000000" points="615.6207,-670.812 607.5813,-663.9113 609.5627,-674.3193 615.6207,-670.812"/>
</g>
<!-- activated_nemid&#45;&gt;nemid -->
<g id="edge28" class="edge">
<title>activated_nemid&#45;&gt;nemid</title>
<path fill="none" stroke="#000000" d="M592.3798,-704.6121C539.807,-689.311 455.2131,-664.6902 405.679,-650.2734"/>
<polygon fill="#000000" stroke="#000000" points="406.5422,-646.8795 395.9625,-647.4455 404.586,-653.6006 406.5422,-646.8795"/>
</g>
<!-- noglekort -->
<g id="node22" class="node">
<title>noglekort</title>
<ellipse fill="none" stroke="#000000" cx="756" cy="-638.725" rx="45.9286" ry="18"/>
<text text-anchor="middle" x="756" y="-634.525" font-family="Times,serif" font-size="14.00" fill="#000000">Nøglekort</text>
</g>
<!-- activated_nemid&#45;&gt;noglekort -->
<g id="edge30" class="edge">
<title>activated_nemid&#45;&gt;noglekort</title>
<path fill="none" stroke="#000000" d="M664.0994,-701.1355C681.8006,-689.1145 705.6376,-672.9266 724.5989,-660.0498"/>
<polygon fill="#000000" stroke="#000000" points="726.6219,-662.9068 732.9282,-654.3932 722.6892,-657.1159 726.6219,-662.9068"/>
</g>
<!-- noglekort&#45;&gt;can_receive_post -->
<g id="edge32" class="edge">
<title>noglekort&#45;&gt;can_receive_post</title>
<path fill="none" stroke="#000000" stroke-dasharray="1,5" d="M759.3015,-620.3312C764.4979,-589.7328 774,-526.3938 774,-472.3574 774,-472.3574 774,-472.3574 774,-392.9016 774,-344.9232 780.8688,-289.8901 786.1201,-254.8266"/>
<polygon fill="#000000" stroke="#000000" points="789.6297,-255.0314 787.6886,-244.6159 782.7108,-253.9686 789.6297,-255.0314"/>
</g>
<!-- noglekort&#45;&gt;nemid_application -->
<g id="edge31" class="edge">
<title>noglekort&#45;&gt;nemid_application</title>
<path fill="none" stroke="#ff0000" stroke-dasharray="1,5" d="M726.8201,-624.6122C718.5425,-620.775 709.4756,-616.7273 701,-613.2691 664.8732,-598.5286 623.7385,-583.8328 590.6461,-572.5096"/>
<polygon fill="#ff0000" stroke="#ff0000" points="591.6883,-569.1672 581.0938,-569.2582 589.4326,-575.7939 591.6883,-569.1672"/>
</g>
<!-- ehic -->
<g id="node23" class="node">
<title>ehic</title>
<ellipse fill="none" stroke="#000000" cx="154" cy="-718.1808" rx="58.0063" ry="18"/>
<text text-anchor="middle" x="154" y="-713.9808" font-family="Times,serif" font-size="14.00" fill="#000000">Danish EHIC</text>
</g>
<!-- ehic&#45;&gt;place_to_live -->
<g id="edge35" class="edge">
<title>ehic&#45;&gt;place_to_live</title>
<path fill="none" stroke="#000000" d="M113.2462,-705.0683C93.2358,-696.5486 70.5699,-683.3844 57,-664.1808 27.7703,-622.816 38,-602.4633 38,-551.8133 38,-551.8133 38,-551.8133 38,-219.0782 38,-159.7337 14.1052,-127.9216 57,-86.9117 95.8116,-49.8055 444.4927,-33.4405 603.9964,-27.8488"/>
<polygon fill="#000000" stroke="#000000" points="604.3504,-31.3387 614.2237,-27.4959 604.1089,-24.3429 604.3504,-31.3387"/>
</g>
<!-- ehic&#45;&gt;cpr_number -->
<g id="edge33" class="edge">
<title>ehic&#45;&gt;cpr_number</title>
<path fill="none" stroke="#000000" d="M151.3935,-700.1847C147.0818,-663.1077 142.7198,-577.4122 185,-526.3574 197.485,-511.2814 242.12,-496.2825 279.3102,-485.9322"/>
<polygon fill="#000000" stroke="#000000" points="280.3455,-489.2778 289.0737,-483.2721 278.5053,-482.524 280.3455,-489.2778"/>
</g>
<!-- ehic&#45;&gt;nemid -->
<g id="edge34" class="edge">
<title>ehic&#45;&gt;nemid</title>
<path fill="none" stroke="#000000" d="M191.4133,-704.1586C229.932,-689.7221 289.6261,-667.3493 328.2629,-652.8685"/>
<polygon fill="#000000" stroke="#000000" points="329.9507,-655.9737 338.0863,-649.1868 327.494,-649.419 329.9507,-655.9737"/>
</g>
<!-- doctor -->
<g id="node24" class="node">
<title>doctor</title>
<ellipse fill="none" stroke="#000000" cx="101" cy="-638.725" rx="34.8285" ry="18"/>
<text text-anchor="middle" x="101" y="-634.525" font-family="Times,serif" font-size="14.00" fill="#000000">Doctor</text>
</g>
<!-- doctor&#45;&gt;cpr_number -->
<g id="edge36" class="edge">
<title>doctor&#45;&gt;cpr_number</title>
<path fill="none" stroke="#000000" d="M104.3102,-620.7626C109.8209,-595.9454 123.2449,-551.4042 152,-526.3574 170.6967,-510.072 230.2845,-494.2762 276.2389,-484.0201"/>
<polygon fill="#000000" stroke="#000000" points="277.0952,-487.4156 286.1129,-481.8539 275.5951,-480.5782 277.0952,-487.4156"/>
</g>
<!-- get_paid -->
<g id="node25" class="node">
<title>get_paid</title>
<ellipse fill="none" stroke="#000000" cx="278" cy="-790.1808" rx="40.1247" ry="18"/>
<text text-anchor="middle" x="278" y="-785.9808" font-family="Times,serif" font-size="14.00" fill="#000000">Get paid</text>
</g>
<!-- get_paid&#45;&gt;job -->
<g id="edge37" class="edge">
<title>get_paid&#45;&gt;job</title>
<path fill="none" stroke="#000000" d="M241.2335,-782.3663C193.3474,-771.752 112.7122,-752.2573 87,-736.1808 37.769,-705.3993 0,-696.7869 0,-638.725 0,-638.725 0,-638.725 0,-219.0782 0,-159.0338 5.3318,-142.5128 28,-86.9117 31.9715,-77.1703 37.4843,-67.2655 43.116,-58.3338"/>
<polygon fill="#000000" stroke="#000000" points="46.1761,-60.0499 48.7346,-49.7686 40.323,-56.2104 46.1761,-60.0499"/>
</g>
<!-- get_paid&#45;&gt;skattekort -->
<g id="edge38" class="edge">
<title>get_paid&#45;&gt;skattekort</title>
<path fill="none" stroke="#000000" d="M275.0813,-771.8723C268.4753,-730.4339 252.3425,-629.2357 244.4693,-579.8484"/>
<polygon fill="#000000" stroke="#000000" points="247.9074,-579.1821 242.8766,-569.8579 240.9947,-580.2842 247.9074,-579.1821"/>
</g>
<!-- get_paid&#45;&gt;nemid -->
<g id="edge40" class="edge">
<title>get_paid&#45;&gt;nemid</title>
<path fill="none" stroke="#000000" d="M288.2669,-772.5105C303.6339,-746.0625 332.7202,-696.0025 350.6275,-665.1825"/>
<polygon fill="#000000" stroke="#000000" points="353.8008,-666.6876 355.7984,-656.2827 347.7483,-663.1709 353.8008,-666.6876"/>
</g>
<!-- get_paid&#45;&gt;danish_bank_account -->
<g id="edge39" class="edge">
<title>get_paid&#45;&gt;danish_bank_account</title>
<path fill="none" stroke="#000000" d="M305.5123,-776.9749C327.5831,-766.3809 358.9744,-751.3131 384.4521,-739.0838"/>
<polygon fill="#000000" stroke="#000000" points="386.0422,-742.2029 393.5429,-734.7202 383.013,-735.8923 386.0422,-742.2029"/>
</g>
<!-- danish_lessions -->
<g id="node26" class="node">
<title>danish_lessions</title>
<ellipse fill="none" stroke="#000000" cx="722" cy="-869.6367" rx="62.8431" ry="18"/>
<text text-anchor="middle" x="722" y="-865.4367" font-family="Times,serif" font-size="14.00" fill="#000000">Danish lessons</text>
</g>
<!-- danish_lessions&#45;&gt;cpr_number -->
<g id="edge41" class="edge">
<title>danish_lessions&#45;&gt;cpr_number</title>
<path fill="none" stroke="#000000" d="M738.0665,-852.1374C775.9553,-808.6773 863.852,-693.5455 811,-613.2691 764.9186,-543.2766 514.5186,-498.417 396.1079,-480.8138"/>
<polygon fill="#000000" stroke="#000000" points="396.5015,-477.3342 386.099,-479.3442 395.4845,-484.2599 396.5015,-477.3342"/>
</g>
<!-- danish_bank_card -->
<g id="node27" class="node">
<title>danish_bank_card</title>
<ellipse fill="none" stroke="#000000" cx="531" cy="-790.1808" rx="71.979" ry="18"/>
<text text-anchor="middle" x="531" y="-785.9808" font-family="Times,serif" font-size="14.00" fill="#000000">Danish bank card</text>
</g>
<!-- danish_lessions&#45;&gt;danish_bank_card -->
<g id="edge42" class="edge">
<title>danish_lessions&#45;&gt;danish_bank_card</title>
<path fill="none" stroke="#000000" d="M686.0744,-854.6916C655.4863,-841.967 611.3222,-823.5948 577.942,-809.7086"/>
<polygon fill="#000000" stroke="#000000" points="578.9729,-806.3468 568.3956,-805.7373 576.2842,-812.8098 578.9729,-806.3468"/>
</g>
<!-- danish_bank_card&#45;&gt;can_receive_post -->
<g id="edge44" class="edge">
<title>danish_bank_card&#45;&gt;can_receive_post</title>
<path fill="none" stroke="#000000" d="M584.027,-777.9704C678.9308,-754.5663 868,-700.2231 868,-638.725 868,-638.725 868,-638.725 868,-392.9016 868,-340.5963 838.753,-286.2934 816.5455,-252.6"/>
<polygon fill="#000000" stroke="#000000" points="819.2853,-250.4033 810.7865,-244.0771 813.4853,-254.3225 819.2853,-250.4033"/>
</g>
<!-- danish_bank_card&#45;&gt;danish_bank_account -->
<g id="edge43" class="edge">
<title>danish_bank_card&#45;&gt;danish_bank_account</title>
<path fill="none" stroke="#ff0000" d="M506.5904,-773.1178C493.0641,-763.6625 476.0522,-751.7707 461.3182,-741.4712"/>
<polygon fill="#ff0000" stroke="#ff0000" points="463.1512,-738.4822 452.9499,-735.6215 459.1407,-744.2194 463.1512,-738.4822"/>
</g>
<!-- spend_lovely_dkk -->
<g id="node28" class="node">
<title>spend_lovely_dkk</title>
<ellipse fill="none" stroke="#000000" cx="333" cy="-869.6367" rx="99.0344" ry="18"/>
<text text-anchor="middle" x="333" y="-865.4367" font-family="Times,serif" font-size="14.00" fill="#000000">Spend your lovely DKK!</text>
</g>
<!-- spend_lovely_dkk&#45;&gt;get_paid -->
<g id="edge45" class="edge">
<title>spend_lovely_dkk&#45;&gt;get_paid</title>
<path fill="none" stroke="#000000" d="M320.5196,-851.6069C313.2459,-841.0988 303.9498,-827.6693 295.9059,-816.0486"/>
<polygon fill="#000000" stroke="#000000" points="298.6224,-813.8234 290.053,-807.5932 292.8668,-817.8075 298.6224,-813.8234"/>
</g>
<!-- spend_lovely_dkk&#45;&gt;danish_bank_card -->
<g id="edge46" class="edge">
<title>spend_lovely_dkk&#45;&gt;danish_bank_card</title>
<path fill="none" stroke="#000000" d="M374.0257,-853.1733C405.7791,-840.431 449.8183,-822.7584 483.1711,-809.3742"/>
<polygon fill="#000000" stroke="#000000" points="484.7365,-812.5174 492.7136,-805.5448 482.1295,-806.0209 484.7365,-812.5174"/>
</g>
<!-- mobilepay -->
<g id="node29" class="node">
<title>mobilepay</title>
<ellipse fill="none" stroke="#000000" cx="393" cy="-790.1808" rx="48.3427" ry="18"/>
<text text-anchor="middle" x="393" y="-785.9808" font-family="Times,serif" font-size="14.00" fill="#000000">Mobilepay</text>
</g>
<!-- mobilepay&#45;&gt;danish_phone_number -->
<g id="edge48" class="edge">
<title>mobilepay&#45;&gt;danish_phone_number</title>
<path fill="none" stroke="#000000" d="M428.3298,-777.6804C460.7793,-765.7736 506.0281,-747.9661 521,-736.1808 542.886,-718.953 561.3932,-693.4758 574.162,-672.8912"/>
<polygon fill="#000000" stroke="#000000" points="577.2855,-674.4889 579.446,-664.1167 571.2888,-670.8777 577.2855,-674.4889"/>
</g>
<!-- mobilepay&#45;&gt;cpr_number -->
<g id="edge47" class="edge">
<title>mobilepay&#45;&gt;cpr_number</title>
<path fill="none" stroke="#000000" d="M369.6688,-774.3611C357.3847,-764.7706 343.2061,-751.4506 335,-736.1808 293.7056,-659.3406 313.3003,-550.8131 326.0416,-500.2752"/>
<polygon fill="#000000" stroke="#000000" points="329.4792,-500.9643 328.6321,-490.4034 322.7084,-499.1875 329.4792,-500.9643"/>
</g>
<!-- mobilepay&#45;&gt;danish_bank_account -->
<g id="edge49" class="edge">
<title>mobilepay&#45;&gt;danish_bank_account</title>
<path fill="none" stroke="#000000" d="M401.6517,-772.3831C405.6181,-764.2236 410.4074,-754.3712 414.809,-745.3166"/>
<polygon fill="#000000" stroke="#000000" points="417.9805,-746.7978 419.2047,-736.2739 411.685,-743.7374 417.9805,-746.7978"/>
</g>
<!-- hygge -->
<g id="node30" class="node">
<title>hygge</title>
<ellipse fill="none" stroke="#000000" cx="524" cy="-1024.9907" rx="101.1913" ry="21.7969"/>
<text text-anchor="middle" x="524" y="-1025.2751" font-family="Times,serif" font-size="14.00" fill="#000000">🇩🇰 😊 Hygge 😊 🇩🇰</text>
</g>
<!-- helbred -->
<g id="node31" class="node">
<title>helbred</title>
<ellipse fill="none" stroke="#000000" cx="154" cy="-790.1808" rx="33.8596" ry="18"/>
<text text-anchor="middle" x="154" y="-785.9808" font-family="Times,serif" font-size="14.00" fill="#000000">Health</text>
</g>
<!-- hygge&#45;&gt;helbred -->
<g id="edge50" class="edge">
<title>hygge&#45;&gt;helbred</title>
<path fill="none" stroke="#000000" d="M458.4855,-1008.2017C393.7435,-989.1003 294.5673,-952.8418 225,-895.0925 199.1212,-873.6099 178.824,-840.3547 166.675,-817.0586"/>
<polygon fill="#000000" stroke="#000000" points="169.7584,-815.4 162.1241,-808.0536 163.5109,-818.5573 169.7584,-815.4"/>
</g>
<!-- penge -->
<g id="node32" class="node">
<title>penge</title>
<ellipse fill="none" stroke="#000000" cx="460" cy="-949.0925" rx="35.3216" ry="18"/>
<text text-anchor="middle" x="460" y="-944.8925" font-family="Times,serif" font-size="14.00" fill="#000000">Money</text>
</g>
<!-- hygge&#45;&gt;penge -->
<g id="edge53" class="edge">
<title>hygge&#45;&gt;penge</title>
<path fill="none" stroke="#000000" d="M505.8314,-1003.4443C497.9783,-994.1314 488.7491,-983.1864 480.6388,-973.5683"/>
<polygon fill="#000000" stroke="#000000" points="483.2663,-971.2548 474.1441,-965.8662 477.9149,-975.7673 483.2663,-971.2548"/>
</g>
<!-- rejser -->
<g id="node33" class="node">
<title>rejser</title>
<ellipse fill="none" stroke="#000000" cx="867" cy="-949.0925" rx="41.1266" ry="18"/>
<text text-anchor="middle" x="867" y="-944.8925" font-family="Times,serif" font-size="14.00" fill="#000000">Mobility</text>
</g>
<!-- hygge&#45;&gt;rejser -->
<g id="edge56" class="edge">
<title>hygge&#45;&gt;rejser</title>
<path fill="none" stroke="#000000" d="M595.0698,-1009.2646C662.635,-994.3139 762.3099,-972.2581 820.3483,-959.4155"/>
<polygon fill="#000000" stroke="#000000" points="821.3286,-962.7833 830.3362,-957.2054 819.8162,-955.9486 821.3286,-962.7833"/>
</g>
<!-- faa_ting_gjort -->
<g id="node34" class="node">
<title>faa_ting_gjort</title>
<ellipse fill="none" stroke="#000000" cx="631" cy="-949.0925" rx="75.0675" ry="18"/>
<text text-anchor="middle" x="631" y="-944.8925" font-family="Times,serif" font-size="14.00" fill="#000000">Can get stuff done</text>
</g>
<!-- hygge&#45;&gt;faa_ting_gjort -->
<g id="edge59" class="edge">
<title>hygge&#45;&gt;faa_ting_gjort</title>
<path fill="none" stroke="#000000" d="M553.8055,-1003.8488C567.6318,-994.0414 584.104,-982.3572 598.2743,-972.3058"/>
<polygon fill="#000000" stroke="#000000" points="600.6241,-974.9301 606.7556,-966.2898 596.5742,-969.2206 600.6241,-974.9301"/>
</g>
<!-- helbred&#45;&gt;ehic -->
<g id="edge52" class="edge">
<title>helbred&#45;&gt;ehic</title>
<path fill="none" stroke="#000000" d="M154,-772.0122C154,-764.3118 154,-755.1552 154,-746.5974"/>
<polygon fill="#000000" stroke="#000000" points="157.5001,-746.594 154,-736.5941 150.5001,-746.5941 157.5001,-746.594"/>
</g>
<!-- helbred&#45;&gt;doctor -->
<g id="edge51" class="edge">
<title>helbred&#45;&gt;doctor</title>
<path fill="none" stroke="#000000" d="M129.4164,-777.7906C114.1294,-768.604 95.7682,-754.5093 87,-736.1808 76.4616,-714.152 82.0453,-686.3593 89.039,-666.0962"/>
<polygon fill="#000000" stroke="#000000" points="92.3906,-667.1269 92.6335,-656.5348 85.8383,-664.6636 92.3906,-667.1269"/>
</g>
<!-- penge&#45;&gt;spend_lovely_dkk -->
<g id="edge54" class="edge">
<title>penge&#45;&gt;spend_lovely_dkk</title>
<path fill="none" stroke="#000000" d="M437.5873,-935.0703C418.8114,-923.3234 391.6366,-906.3219 369.6931,-892.5932"/>
<polygon fill="#000000" stroke="#000000" points="371.2906,-889.4641 360.9566,-887.1273 367.5778,-895.3984 371.2906,-889.4641"/>
</g>
<!-- penge&#45;&gt;mobilepay -->
<g id="edge55" class="edge">
<title>penge&#45;&gt;mobilepay</title>
<path fill="none" stroke="#000000" d="M459.6511,-930.724C458.5841,-909.0204 454.6883,-872.3091 441,-844.1808 435.6511,-833.1893 427.4187,-822.7409 419.2733,-814.0148"/>
<polygon fill="#000000" stroke="#000000" points="421.7146,-811.5054 412.2123,-806.8195 416.7184,-816.4084 421.7146,-811.5054"/>
</g>
<!-- rejser&#45;&gt;rejsekort -->
<g id="edge58" class="edge">
<title>rejser&#45;&gt;rejsekort</title>
<path fill="none" stroke="#000000" d="M867,-931.0627C867,-923.4278 867,-914.2506 867,-905.3455"/>
<polygon fill="#000000" stroke="#000000" points="870.5001,-905.1253 867,-895.1254 863.5001,-905.1254 870.5001,-905.1253"/>
</g>
<!-- rejser&#45;&gt;pendlerkort -->
<g id="edge57" class="edge">
<title>rejser&#45;&gt;pendlerkort</title>
<path fill="none" stroke="#000000" d="M894.4144,-935.5833C910.2313,-926.3565 929.0911,-912.6272 940,-895.0925 965.0314,-854.8575 959,-837.5667 959,-790.1808 959,-790.1808 959,-790.1808 959,-718.1808 959,-669.8828 956.4433,-613.749 954.6678,-580.5896"/>
<polygon fill="#000000" stroke="#000000" points="958.1442,-580.0623 954.1005,-570.2696 951.1548,-580.4466 958.1442,-580.0623"/>
</g>
<!-- faa_ting_gjort&#45;&gt;activated_nemid -->
<g id="edge60" class="edge">
<title>faa_ting_gjort&#45;&gt;activated_nemid</title>
<path fill="none" stroke="#000000" d="M631.6277,-930.9732C633.0181,-890.8428 636.3652,-794.2326 638.0283,-746.2281"/>
<polygon fill="#000000" stroke="#000000" points="641.5267,-746.3311 638.3752,-736.2159 634.5309,-746.0887 641.5267,-746.3311"/>
</g>
<!-- faa_ting_gjort&#45;&gt;danish_lessions -->
<g id="edge61" class="edge">
<title>faa_ting_gjort&#45;&gt;danish_lessions</title>
<path fill="none" stroke="#000000" d="M651.1958,-931.4587C663.8895,-920.3753 680.4359,-905.9279 694.341,-893.7869"/>
<polygon fill="#000000" stroke="#000000" points="696.943,-896.1614 702.1737,-886.9478 692.339,-890.8885 696.943,-896.1614"/>
</g>
</g>
</svg>
