<?xml version="1.0" encoding="UTF-8" standalone="no"?>
<!DOCTYPE svg PUBLIC "-//W3C//DTD SVG 1.1//EN"
 "http://www.w3.org/Graphics/SVG/1.1/DTD/svg11.dtd">
<!-- Generated by graphviz version 2.40.1 (20161225.0304)
 -->
<!-- Title: g Pages: 1 -->
<svg width="1030pt" height="903pt"
 viewBox="0.00 0.00 1029.50 903.09" xmlns="http://www.w3.org/2000/svg" xmlns:xlink="http://www.w3.org/1999/xlink">
<g id="graph0" class="graph" transform="scale(1 1) rotate(0) translate(4 899.0925)">
<title>g</title>
<polygon fill="#ffffff" stroke="transparent" points="-4,4 -4,-899.0925 1025.5049,-899.0925 1025.5049,4 -4,4"/>
<!-- job -->
<g id="node1" class="node">
<title>job</title>
<ellipse fill="#00ff00" stroke="#000000" cx="964" cy="-25.4558" rx="57.5098" ry="25.4118"/>
<text text-anchor="middle" x="964" y="-28.2558" font-family="Times,serif" font-size="14.00" fill="#000000">A job</text>
<text text-anchor="middle" x="964" y="-14.2558" font-family="Times,serif" font-size="14.00" fill="#000000">2018&#45;10&#45;19</text>
</g>
<!-- proof_of_work -->
<g id="node2" class="node">
<title>proof_of_work</title>
<ellipse fill="#00ff00" stroke="#000000" cx="917" cy="-122.267" rx="66.707" ry="25.4118"/>
<text text-anchor="middle" x="917" y="-125.067" font-family="Times,serif" font-size="14.00" fill="#000000">Proof of work</text>
<text text-anchor="middle" x="917" y="-111.067" font-family="Times,serif" font-size="14.00" fill="#000000">2019&#45;01&#45;22</text>
</g>
<!-- proof_of_work&#45;&gt;job -->
<g id="edge1" class="edge">
<title>proof_of_work&#45;&gt;job</title>
<path fill="none" stroke="#000000" d="M929.226,-97.0838C934.7746,-85.6547 941.4221,-71.9621 947.412,-59.624"/>
<polygon fill="#000000" stroke="#000000" points="950.6164,-61.0375 951.8352,-50.513 944.3192,-57.9804 950.6164,-61.0375"/>
</g>
<!-- passport -->
<g id="node3" class="node">
<title>passport</title>
<ellipse fill="#00ff00" stroke="#000000" cx="787" cy="-122.267" rx="44.7298" ry="25.4118"/>
<text text-anchor="middle" x="787" y="-125.067" font-family="Times,serif" font-size="14.00" fill="#000000">Passport</text>
<text text-anchor="middle" x="787" y="-111.067" font-family="Times,serif" font-size="14.00" fill="#000000">2015</text>
</g>
<!-- danish_phone_number -->
<g id="node4" class="node">
<title>danish_phone_number</title>
<ellipse fill="#00ff00" stroke="#000000" cx="695" cy="-638.725" rx="98.9836" ry="25.4118"/>
<text text-anchor="middle" x="695" y="-641.525" font-family="Times,serif" font-size="14.00" fill="#000000">Danish phone number</text>
<text text-anchor="middle" x="695" y="-627.525" font-family="Times,serif" font-size="14.00" fill="#000000">2019&#45;01&#45;17</text>
</g>
<!-- rejsekort -->
<g id="node5" class="node">
<title>rejsekort</title>
<ellipse fill="#00ff00" stroke="#000000" cx="680" cy="-869.6367" rx="64.2475" ry="25.4118"/>
<text text-anchor="middle" x="680" y="-872.4367" font-family="Times,serif" font-size="14.00" fill="#000000">Rejsekort</text>
<text text-anchor="middle" x="680" y="-858.4367" font-family="Times,serif" font-size="14.00" fill="#000000">2018&#45;10&#45;19 ?</text>
</g>
<!-- place_to_live -->
<g id="node6" class="node">
<title>place_to_live</title>
<ellipse fill="#00ff00" stroke="#000000" cx="247" cy="-25.4558" rx="68.5454" ry="25.4118"/>
<text text-anchor="middle" x="247" y="-28.2558" font-family="Times,serif" font-size="14.00" fill="#000000">A place to live</text>
<text text-anchor="middle" x="247" y="-14.2558" font-family="Times,serif" font-size="14.00" fill="#000000">2019&#45;01&#45;21</text>
</g>
<!-- name_on_postbox -->
<g id="node7" class="node">
<title>name_on_postbox</title>
<ellipse fill="#00ff00" stroke="#000000" cx="133" cy="-122.267" rx="66.9194" ry="35.2113"/>
<text text-anchor="middle" x="133" y="-132.067" font-family="Times,serif" font-size="14.00" fill="#000000">Your name on</text>
<text text-anchor="middle" x="133" y="-118.067" font-family="Times,serif" font-size="14.00" fill="#000000">your postbox</text>
<text text-anchor="middle" x="133" y="-104.067" font-family="Times,serif" font-size="14.00" fill="#000000">2019&#45;01&#45;22</text>
</g>
<!-- name_on_postbox&#45;&gt;place_to_live -->
<g id="edge2" class="edge">
<title>name_on_postbox&#45;&gt;place_to_live</title>
<path fill="none" stroke="#000000" d="M168.4454,-92.166C182.1049,-80.5661 197.7011,-67.3215 211.3773,-55.7074"/>
<polygon fill="#000000" stroke="#000000" points="213.8218,-58.2233 219.1785,-49.0824 209.2906,-52.8877 213.8218,-58.2233"/>
</g>
<!-- can_receive_post -->
<g id="node8" class="node">
<title>can_receive_post</title>
<ellipse fill="#00ff00" stroke="#000000" cx="166" cy="-219.0782" rx="99.6266" ry="25.4118"/>
<text text-anchor="middle" x="166" y="-221.8782" font-family="Times,serif" font-size="14.00" fill="#000000">Ability to receive post</text>
<text text-anchor="middle" x="166" y="-207.8782" font-family="Times,serif" font-size="14.00" fill="#000000">2019&#45;01&#45;22</text>
</g>
<!-- can_receive_post&#45;&gt;place_to_live -->
<g id="edge3" class="edge">
<title>can_receive_post&#45;&gt;place_to_live</title>
<path fill="none" stroke="#000000" d="M186.425,-193.9336C194.3437,-183.2358 202.9432,-170.3148 209,-157.6224 223.9073,-126.3831 234.1174,-88.1383 240.1693,-60.8418"/>
<polygon fill="#000000" stroke="#000000" points="243.6152,-61.4648 242.2864,-50.9536 236.7703,-59.9992 243.6152,-61.4648"/>
</g>
<!-- can_receive_post&#45;&gt;name_on_postbox -->
<g id="edge4" class="edge">
<title>can_receive_post&#45;&gt;name_on_postbox</title>
<path fill="none" stroke="#000000" d="M157.3296,-193.6422C154.5529,-185.4962 151.3911,-176.2204 148.2868,-167.1135"/>
<polygon fill="#000000" stroke="#000000" points="151.5012,-165.6952 144.9619,-157.3592 144.8755,-167.9537 151.5012,-165.6952"/>
</g>
<!-- pendlerkort -->
<g id="node9" class="node">
<title>pendlerkort</title>
<ellipse fill="none" stroke="#000000" cx="383" cy="-122.267" rx="50.7397" ry="18"/>
<text text-anchor="middle" x="383" y="-118.067" font-family="Times,serif" font-size="14.00" fill="#000000">pendlerkort</text>
</g>
<!-- pendlerkort&#45;&gt;place_to_live -->
<g id="edge5" class="edge">
<title>pendlerkort&#45;&gt;place_to_live</title>
<path fill="none" stroke="#000000" d="M360.2367,-106.063C340.2824,-91.8586 310.8168,-70.8836 286.9449,-53.8905"/>
<polygon fill="#000000" stroke="#000000" points="288.9357,-51.0114 278.7592,-48.0635 284.8762,-56.7142 288.9357,-51.0114"/>
</g>
<!-- eu_residence_document_application -->
<g id="node10" class="node">
<title>eu_residence_document_application</title>
<ellipse fill="none" stroke="#000000" cx="608" cy="-219.0782" rx="105.7427" ry="25.4118"/>
<text text-anchor="middle" x="608" y="-221.8782" font-family="Times,serif" font-size="14.00" fill="#000000">Application for</text>
<text text-anchor="middle" x="608" y="-207.8782" font-family="Times,serif" font-size="14.00" fill="#000000">EU residence document</text>
</g>
<!-- eu_residence_document_application&#45;&gt;proof_of_work -->
<g id="edge7" class="edge">
<title>eu_residence_document_application&#45;&gt;proof_of_work</title>
<path fill="none" stroke="#000000" d="M686.7276,-201.9953C732.3868,-191.1796 790.6368,-175.8157 841,-157.6224 849.644,-154.4998 858.6485,-150.7661 867.3096,-146.9129"/>
<polygon fill="#000000" stroke="#000000" points="868.8905,-150.0388 876.5398,-142.708 865.9886,-143.6687 868.8905,-150.0388"/>
</g>
<!-- eu_residence_document_application&#45;&gt;passport -->
<g id="edge8" class="edge">
<title>eu_residence_document_application&#45;&gt;passport</title>
<path fill="none" stroke="#000000" d="M657.4008,-196.5107C680.6832,-185.4408 708.6329,-171.5196 733,-157.6224 738.4935,-154.4892 744.1894,-151.0192 749.7314,-147.5131"/>
<polygon fill="#000000" stroke="#000000" points="751.7514,-150.3752 758.2623,-142.0171 747.9603,-144.4907 751.7514,-150.3752"/>
</g>
<!-- eu_residence_document_application&#45;&gt;place_to_live -->
<g id="edge6" class="edge">
<title>eu_residence_document_application&#45;&gt;place_to_live</title>
<path fill="none" stroke="#000000" d="M514.0585,-207.1801C443.1685,-196.6831 353.1488,-179.6348 323,-157.6224 318.492,-154.331 286.9205,-97.9808 265.9127,-59.9323"/>
<polygon fill="#000000" stroke="#000000" points="268.7147,-57.765 260.8223,-50.6967 262.5842,-61.1441 268.7147,-57.765"/>
</g>
<!-- od1_form -->
<g id="node11" class="node">
<title>od1_form</title>
<ellipse fill="#00ff00" stroke="#000000" cx="509" cy="-122.267" rx="57.5098" ry="25.4118"/>
<text text-anchor="middle" x="509" y="-125.067" font-family="Times,serif" font-size="14.00" fill="#000000">OD1 form</text>
<text text-anchor="middle" x="509" y="-111.067" font-family="Times,serif" font-size="14.00" fill="#000000">2019&#45;01&#45;22</text>
</g>
<!-- eu_residence_document_application&#45;&gt;od1_form -->
<g id="edge9" class="edge">
<title>eu_residence_document_application&#45;&gt;od1_form</title>
<path fill="none" stroke="#000000" d="M582.505,-194.1469C569.6468,-181.573 553.9371,-166.2106 540.3467,-152.9207"/>
<polygon fill="#000000" stroke="#000000" points="542.6428,-150.2707 533.0461,-145.7815 537.7487,-155.2755 542.6428,-150.2707"/>
</g>
<!-- passport_photo -->
<g id="node12" class="node">
<title>passport_photo</title>
<ellipse fill="#00ff00" stroke="#000000" cx="654" cy="-122.267" rx="69.7781" ry="25.4118"/>
<text text-anchor="middle" x="654" y="-125.067" font-family="Times,serif" font-size="14.00" fill="#000000">Passport photo</text>
<text text-anchor="middle" x="654" y="-111.067" font-family="Times,serif" font-size="14.00" fill="#000000">2019&#45;01&#45;23</text>
</g>
<!-- eu_residence_document_application&#45;&gt;passport_photo -->
<g id="edge10" class="edge">
<title>eu_residence_document_application&#45;&gt;passport_photo</title>
<path fill="none" stroke="#000000" d="M620.086,-193.6422C625.421,-182.4141 631.776,-169.0395 637.5349,-156.9193"/>
<polygon fill="#000000" stroke="#000000" points="640.8643,-158.0675 641.9948,-147.5331 634.5417,-155.0633 640.8643,-158.0675"/>
</g>
<!-- eu_residence_document -->
<g id="node13" class="node">
<title>eu_residence_document</title>
<ellipse fill="none" stroke="#000000" cx="605" cy="-305.9899" rx="94.655" ry="18"/>
<text text-anchor="middle" x="605" y="-301.7899" font-family="Times,serif" font-size="14.00" fill="#000000">EU residence document</text>
</g>
<!-- eu_residence_document&#45;&gt;can_receive_post -->
<g id="edge12" class="edge">
<title>eu_residence_document&#45;&gt;can_receive_post</title>
<path fill="none" stroke="#000000" d="M547.913,-291.5364C532.4079,-287.7786 515.5937,-283.8562 500,-280.5341 419.0967,-263.2981 326.554,-246.496 259.4286,-234.8291"/>
<polygon fill="#000000" stroke="#000000" points="259.7477,-231.3323 249.297,-233.0735 258.5526,-238.2295 259.7477,-231.3323"/>
</g>
<!-- eu_residence_document&#45;&gt;eu_residence_document_application -->
<g id="edge11" class="edge">
<title>eu_residence_document&#45;&gt;eu_residence_document_application</title>
<path fill="none" stroke="#ff0000" d="M605.6216,-287.9817C605.9527,-278.3888 606.372,-266.2412 606.766,-254.8266"/>
<polygon fill="#ff0000" stroke="#ff0000" points="610.2704,-254.759 607.1175,-244.6442 603.2745,-254.5175 610.2704,-254.759"/>
</g>
<!-- cpr_number_application -->
<g id="node14" class="node">
<title>cpr_number_application</title>
<ellipse fill="none" stroke="#000000" cx="605" cy="-392.9016" rx="72.138" ry="25.4118"/>
<text text-anchor="middle" x="605" y="-395.7016" font-family="Times,serif" font-size="14.00" fill="#000000">Application for</text>
<text text-anchor="middle" x="605" y="-381.7016" font-family="Times,serif" font-size="14.00" fill="#000000">CPR number</text>
</g>
<!-- cpr_number_application&#45;&gt;proof_of_work -->
<g id="edge14" class="edge">
<title>cpr_number_application&#45;&gt;proof_of_work</title>
<path fill="none" stroke="#000000" d="M656.7979,-375.0234C682.6614,-364.6443 713.561,-349.9442 738,-331.4457 805.1702,-280.603 864.6962,-200.6176 895.265,-155.7171"/>
<polygon fill="#000000" stroke="#000000" points="898.3022,-157.473 900.9864,-147.2238 892.4966,-153.5622 898.3022,-157.473"/>
</g>
<!-- cpr_number_application&#45;&gt;passport -->
<g id="edge16" class="edge">
<title>cpr_number_application&#45;&gt;passport</title>
<path fill="none" stroke="#000000" d="M652.3869,-373.5383C672.1309,-363.4709 693.922,-349.4565 709,-331.4457 752.0475,-280.0254 772.5364,-202.5593 781.2959,-157.7432"/>
<polygon fill="#000000" stroke="#000000" points="784.7402,-158.3649 783.1345,-147.8925 777.8591,-157.0805 784.7402,-158.3649"/>
</g>
<!-- cpr_number_application&#45;&gt;eu_residence_document -->
<g id="edge13" class="edge">
<title>cpr_number_application&#45;&gt;eu_residence_document</title>
<path fill="none" stroke="#000000" d="M605,-367.2953C605,-356.9304 605,-344.9258 605,-334.3015"/>
<polygon fill="#000000" stroke="#000000" points="608.5001,-334.2491 605,-324.2492 601.5001,-334.2492 608.5001,-334.2491"/>
</g>
<!-- proof_of_address -->
<g id="node15" class="node">
<title>proof_of_address</title>
<ellipse fill="#00ff00" stroke="#000000" cx="415" cy="-305.9899" rx="76.3945" ry="25.4118"/>
<text text-anchor="middle" x="415" y="-308.7899" font-family="Times,serif" font-size="14.00" fill="#000000">Proof of address</text>
<text text-anchor="middle" x="415" y="-294.7899" font-family="Times,serif" font-size="14.00" fill="#000000">2019&#45;01&#45;21</text>
</g>
<!-- cpr_number_application&#45;&gt;proof_of_address -->
<g id="edge15" class="edge">
<title>cpr_number_application&#45;&gt;proof_of_address</title>
<path fill="none" stroke="#000000" d="M560.9326,-372.7438C533.6309,-360.2552 498.3611,-344.1218 469.3346,-330.8442"/>
<polygon fill="#000000" stroke="#000000" points="470.6975,-327.6188 460.1478,-326.6419 467.7856,-333.9845 470.6975,-327.6188"/>
</g>
<!-- proof_of_address&#45;&gt;place_to_live -->
<g id="edge19" class="edge">
<title>proof_of_address&#45;&gt;place_to_live</title>
<path fill="none" stroke="#000000" d="M386.232,-282.28C355.3607,-255.2738 307.1175,-208.283 280,-157.6224 263.72,-127.2083 255.2786,-88.5446 251.0285,-60.9064"/>
<polygon fill="#000000" stroke="#000000" points="254.4772,-60.2979 249.5973,-50.8938 247.5476,-61.2885 254.4772,-60.2979"/>
</g>
<!-- cpr_number -->
<g id="node16" class="node">
<title>cpr_number</title>
<ellipse fill="none" stroke="#000000" cx="509" cy="-472.3574" rx="56.0942" ry="18"/>
<text text-anchor="middle" x="509" y="-468.1574" font-family="Times,serif" font-size="14.00" fill="#000000">CPR number</text>
</g>
<!-- cpr_number&#45;&gt;can_receive_post -->
<g id="edge18" class="edge">
<title>cpr_number&#45;&gt;can_receive_post</title>
<path fill="none" stroke="#000000" d="M487.4866,-455.6216C444.0024,-421.9034 342.3499,-343.6327 255,-280.5341 240.3674,-269.964 224.1742,-258.6663 209.6558,-248.6779"/>
<polygon fill="#000000" stroke="#000000" points="211.5518,-245.7342 201.3256,-242.9637 207.592,-251.5066 211.5518,-245.7342"/>
</g>
<!-- cpr_number&#45;&gt;cpr_number_application -->
<g id="edge17" class="edge">
<title>cpr_number&#45;&gt;cpr_number_application</title>
<path fill="none" stroke="#ff0000" d="M529.3591,-455.5069C540.7539,-446.0758 555.3012,-434.0355 568.5885,-423.0381"/>
<polygon fill="#ff0000" stroke="#ff0000" points="571.1874,-425.4305 576.6594,-416.3581 566.7241,-420.0379 571.1874,-425.4305"/>
</g>
<!-- skattekort -->
<g id="node17" class="node">
<title>skattekort</title>
<ellipse fill="none" stroke="#000000" cx="608" cy="-551.8133" rx="46.4132" ry="18"/>
<text text-anchor="middle" x="608" y="-547.6133" font-family="Times,serif" font-size="14.00" fill="#000000">Skattekort</text>
</g>
<!-- skattekort&#45;&gt;cpr_number -->
<g id="edge20" class="edge">
<title>skattekort&#45;&gt;cpr_number</title>
<path fill="none" stroke="#000000" stroke-dasharray="1,5" d="M587.4871,-535.35C573.1148,-523.815 553.7086,-508.2399 537.7891,-495.4631"/>
<polygon fill="#000000" stroke="#000000" points="539.8168,-492.6027 529.8272,-489.073 535.4353,-498.0619 539.8168,-492.6027"/>
</g>
<!-- nemid_application -->
<g id="node18" class="node">
<title>nemid_application</title>
<ellipse fill="none" stroke="#000000" cx="384" cy="-551.8133" rx="72.138" ry="25.4118"/>
<text text-anchor="middle" x="384" y="-554.6133" font-family="Times,serif" font-size="14.00" fill="#000000">Application for</text>
<text text-anchor="middle" x="384" y="-540.6133" font-family="Times,serif" font-size="14.00" fill="#000000">Nemid</text>
</g>
<!-- nemid_application&#45;&gt;cpr_number -->
<g id="edge21" class="edge">
<title>nemid_application&#45;&gt;cpr_number</title>
<path fill="none" stroke="#000000" d="M419.1521,-529.4689C436.6158,-518.3682 457.628,-505.0119 474.94,-494.0076"/>
<polygon fill="#000000" stroke="#000000" points="477.0555,-496.8101 483.6173,-488.4919 473.3004,-490.9026 477.0555,-496.8101"/>
</g>
<!-- nemid -->
<g id="node19" class="node">
<title>nemid</title>
<ellipse fill="none" stroke="#000000" cx="370" cy="-638.725" rx="34.3527" ry="18"/>
<text text-anchor="middle" x="370" y="-634.525" font-family="Times,serif" font-size="14.00" fill="#000000">Nemid</text>
</g>
<!-- nemid&#45;&gt;nemid_application -->
<g id="edge22" class="edge">
<title>nemid&#45;&gt;nemid_application</title>
<path fill="none" stroke="#000000" d="M372.9008,-620.7168C374.4461,-611.1238 376.4028,-598.9763 378.2415,-587.5617"/>
<polygon fill="#000000" stroke="#000000" points="381.7468,-587.8087 379.8817,-577.3793 374.8359,-586.6954 381.7468,-587.8087"/>
</g>
<!-- danish_bank_account -->
<g id="node20" class="node">
<title>danish_bank_account</title>
<ellipse fill="none" stroke="#000000" cx="741" cy="-718.1808" rx="84.041" ry="18"/>
<text text-anchor="middle" x="741" y="-713.9808" font-family="Times,serif" font-size="14.00" fill="#000000">Danish bank account</text>
</g>
<!-- danish_bank_account&#45;&gt;proof_of_work -->
<g id="edge24" class="edge">
<title>danish_bank_account&#45;&gt;proof_of_work</title>
<path fill="none" stroke="#000000" d="M787.825,-703.1095C808.7224,-694.4518 832.334,-681.7445 849,-664.1808 886.502,-624.6588 898,-606.2962 898,-551.8133 898,-551.8133 898,-551.8133 898,-305.9899 898,-254.3316 905.5241,-194.9344 911.1026,-157.9951"/>
<polygon fill="#000000" stroke="#000000" points="914.6188,-158.159 912.6886,-147.7415 907.701,-157.0889 914.6188,-158.159"/>
</g>
<!-- danish_bank_account&#45;&gt;passport -->
<g id="edge26" class="edge">
<title>danish_bank_account&#45;&gt;passport</title>
<path fill="none" stroke="#000000" d="M774.6875,-701.5596C790.314,-692.3945 808.0335,-679.7084 820,-664.1808 852.3591,-622.1921 860,-604.8243 860,-551.8133 860,-551.8133 860,-551.8133 860,-392.9016 860,-305.3056 823.9099,-207.0939 802.4814,-156.5009"/>
<polygon fill="#000000" stroke="#000000" points="805.5751,-154.8356 798.4063,-147.0345 799.1456,-157.6035 805.5751,-154.8356"/>
</g>
<!-- danish_bank_account&#45;&gt;danish_phone_number -->
<g id="edge27" class="edge">
<title>danish_bank_account&#45;&gt;danish_phone_number</title>
<path fill="none" stroke="#000000" d="M730.5619,-700.151C725.8613,-692.0318 720.151,-682.1683 714.6942,-672.7428"/>
<polygon fill="#000000" stroke="#000000" points="717.6207,-670.812 709.5813,-663.9113 711.5627,-674.3193 717.6207,-670.812"/>
</g>
<!-- danish_bank_account&#45;&gt;cpr_number -->
<g id="edge23" class="edge">
<title>danish_bank_account&#45;&gt;cpr_number</title>
<path fill="none" stroke="#000000" d="M769.8673,-701.1528C782.5366,-691.9669 796.0816,-679.3812 803,-664.1808 812.3736,-643.5862 813.999,-633.0434 803,-613.2691 756.3871,-529.4674 642.7084,-494.8694 571.1455,-481.0524"/>
<polygon fill="#000000" stroke="#000000" points="571.375,-477.5357 560.9057,-479.1613 570.1037,-484.4193 571.375,-477.5357"/>
</g>
<!-- danish_bank_account&#45;&gt;nemid -->
<g id="edge25" class="edge">
<title>danish_bank_account&#45;&gt;nemid</title>
<path fill="none" stroke="#000000" stroke-dasharray="1,5" d="M659.6898,-713.2007C591.9941,-707.0889 493.9458,-693.6221 413,-664.1808 408.6637,-662.6036 404.2732,-660.583 400.038,-658.3712"/>
<polygon fill="#000000" stroke="#000000" points="401.525,-655.1915 391.0964,-653.3221 398.0831,-661.2868 401.525,-655.1915"/>
</g>
<!-- activated_nemid -->
<g id="node21" class="node">
<title>activated_nemid</title>
<ellipse fill="none" stroke="#000000" cx="469" cy="-718.1808" rx="70.5271" ry="18"/>
<text text-anchor="middle" x="469" y="-713.9808" font-family="Times,serif" font-size="14.00" fill="#000000">Activated Nemid</text>
</g>
<!-- activated_nemid&#45;&gt;danish_phone_number -->
<g id="edge29" class="edge">
<title>activated_nemid&#45;&gt;danish_phone_number</title>
<path fill="none" stroke="#000000" d="M510.7153,-703.5148C543.2843,-692.0644 589.2066,-675.9192 627.0609,-662.6106"/>
<polygon fill="#000000" stroke="#000000" points="628.2249,-665.9115 636.498,-659.2928 625.9032,-659.3077 628.2249,-665.9115"/>
</g>
<!-- activated_nemid&#45;&gt;nemid -->
<g id="edge28" class="edge">
<title>activated_nemid&#45;&gt;nemid</title>
<path fill="none" stroke="#000000" d="M447.5185,-700.9401C432.6029,-688.9691 412.6266,-672.9364 396.6886,-660.1448"/>
<polygon fill="#000000" stroke="#000000" points="398.7599,-657.3194 388.7703,-653.7897 394.3784,-662.7786 398.7599,-657.3194"/>
</g>
<!-- noglekort -->
<g id="node22" class="node">
<title>noglekort</title>
<ellipse fill="none" stroke="#000000" cx="468" cy="-638.725" rx="45.9286" ry="18"/>
<text text-anchor="middle" x="468" y="-634.525" font-family="Times,serif" font-size="14.00" fill="#000000">Nøglekort</text>
</g>
<!-- activated_nemid&#45;&gt;noglekort -->
<g id="edge30" class="edge">
<title>activated_nemid&#45;&gt;noglekort</title>
<path fill="none" stroke="#000000" d="M468.7731,-700.151C468.6499,-690.3663 468.4949,-678.0484 468.3561,-667.0166"/>
<polygon fill="#000000" stroke="#000000" points="471.8551,-666.9135 468.2295,-656.9584 464.8557,-667.0017 471.8551,-666.9135"/>
</g>
<!-- noglekort&#45;&gt;can_receive_post -->
<g id="edge32" class="edge">
<title>noglekort&#45;&gt;can_receive_post</title>
<path fill="none" stroke="#000000" stroke-dasharray="1,5" d="M439.1609,-624.6053C430.8077,-620.7269 421.6161,-616.6595 413,-613.2691 365.132,-594.4336 343.1064,-609.4809 303,-577.2691 260.7724,-543.3537 241,-526.5185 241,-472.3574 241,-472.3574 241,-472.3574 241,-392.9016 241,-340.7061 212.1378,-286.3768 190.2225,-252.6475"/>
<polygon fill="#000000" stroke="#000000" points="192.9959,-250.4975 184.5393,-244.1149 187.1698,-254.378 192.9959,-250.4975"/>
</g>
<!-- noglekort&#45;&gt;nemid_application -->
<g id="edge31" class="edge">
<title>noglekort&#45;&gt;nemid_application</title>
<path fill="none" stroke="#ff0000" stroke-dasharray="1,5" d="M451.4043,-621.554C440.9325,-610.7193 427.0859,-596.3926 414.6678,-583.5441"/>
<polygon fill="#ff0000" stroke="#ff0000" points="417.0239,-580.9455 407.5575,-576.1874 411.9905,-585.8103 417.0239,-580.9455"/>
</g>
<!-- ehic -->
<g id="node23" class="node">
<title>ehic</title>
<ellipse fill="none" stroke="#000000" cx="284" cy="-718.1808" rx="58.0063" ry="18"/>
<text text-anchor="middle" x="284" y="-713.9808" font-family="Times,serif" font-size="14.00" fill="#000000">Danish EHIC</text>
</g>
<!-- ehic&#45;&gt;place_to_live -->
<g id="edge35" class="edge">
<title>ehic&#45;&gt;place_to_live</title>
<path fill="none" stroke="#000000" d="M235.3983,-708.3282C163.7064,-690.6372 38,-646.1647 38,-551.8133 38,-551.8133 38,-551.8133 38,-219.0782 38,-159.7337 18.7523,-132.2867 57,-86.9117 72.8017,-68.1655 129.1408,-51.3741 176.4002,-40.0998"/>
<polygon fill="#000000" stroke="#000000" points="177.3882,-43.4633 186.3291,-37.7791 175.7949,-36.647 177.3882,-43.4633"/>
</g>
<!-- ehic&#45;&gt;cpr_number -->
<g id="edge33" class="edge">
<title>ehic&#45;&gt;cpr_number</title>
<path fill="none" stroke="#000000" d="M279.6831,-700.0164C271.9598,-662.6249 260.3063,-576.3737 303,-526.3574 321.604,-504.5626 393.2059,-489.3631 446.8035,-480.7627"/>
<polygon fill="#000000" stroke="#000000" points="447.583,-484.1835 456.9231,-479.1821 446.5027,-477.2674 447.583,-484.1835"/>
</g>
<!-- ehic&#45;&gt;nemid -->
<g id="edge34" class="edge">
<title>ehic&#45;&gt;nemid</title>
<path fill="none" stroke="#000000" d="M302.6607,-700.9401C315.1321,-689.4177 331.6765,-674.1322 345.2452,-661.596"/>
<polygon fill="#000000" stroke="#000000" points="347.8673,-663.9387 352.8371,-654.5818 343.117,-658.7972 347.8673,-663.9387"/>
</g>
<!-- doctor -->
<g id="node24" class="node">
<title>doctor</title>
<ellipse fill="none" stroke="#000000" cx="509" cy="-551.8133" rx="34.8285" ry="18"/>
<text text-anchor="middle" x="509" y="-547.6133" font-family="Times,serif" font-size="14.00" fill="#000000">Doctor</text>
</g>
<!-- doctor&#45;&gt;cpr_number -->
<g id="edge36" class="edge">
<title>doctor&#45;&gt;cpr_number</title>
<path fill="none" stroke="#000000" d="M509,-533.7835C509,-523.9987 509,-511.6808 509,-500.649"/>
<polygon fill="#000000" stroke="#000000" points="512.5001,-500.5908 509,-490.5909 505.5001,-500.5909 512.5001,-500.5908"/>
</g>
<!-- get_paid -->
<g id="node25" class="node">
<title>get_paid</title>
<ellipse fill="none" stroke="#000000" cx="568" cy="-790.1808" rx="40.1247" ry="18"/>
<text text-anchor="middle" x="568" y="-785.9808" font-family="Times,serif" font-size="14.00" fill="#000000">Get paid</text>
</g>
<!-- get_paid&#45;&gt;job -->
<g id="edge37" class="edge">
<title>get_paid&#45;&gt;job</title>
<path fill="none" stroke="#000000" d="M607.3105,-785.89C671.9802,-778.231 797.31,-760.6816 834,-736.1808 951.6307,-657.6297 1012,-613.8045 1012,-472.3574 1012,-472.3574 1012,-472.3574 1012,-219.0782 1012,-159.7337 1010.0744,-143.7469 993,-86.9117 990.2331,-77.7014 986.2879,-68.1255 982.1953,-59.3506"/>
<polygon fill="#000000" stroke="#000000" points="985.2658,-57.6615 977.7454,-50.1986 978.9705,-60.7224 985.2658,-57.6615"/>
</g>
<!-- get_paid&#45;&gt;skattekort -->
<g id="edge38" class="edge">
<title>get_paid&#45;&gt;skattekort</title>
<path fill="none" stroke="#000000" d="M568.6158,-772.139C570.0078,-739.8987 574.3323,-670.4194 587,-613.2691 589.5147,-601.924 593.4082,-589.7532 597.1628,-579.2602"/>
<polygon fill="#000000" stroke="#000000" points="600.4771,-580.3888 600.6705,-569.7957 593.9134,-577.9562 600.4771,-580.3888"/>
</g>
<!-- get_paid&#45;&gt;nemid -->
<g id="edge40" class="edge">
<title>get_paid&#45;&gt;nemid</title>
<path fill="none" stroke="#000000" d="M530.4991,-783.5561C483.8276,-774.546 407.941,-757.1268 389,-736.1808 372.1857,-717.5867 368.3436,-688.6677 368.1614,-667.1553"/>
<polygon fill="#000000" stroke="#000000" points="371.664,-667.0306 368.3376,-656.9715 364.6651,-666.9094 371.664,-667.0306"/>
</g>
<!-- get_paid&#45;&gt;danish_bank_account -->
<g id="edge39" class="edge">
<title>get_paid&#45;&gt;danish_bank_account</title>
<path fill="none" stroke="#000000" d="M597.7398,-777.8036C623.8047,-766.9558 662.1802,-750.9844 692.6543,-738.3015"/>
<polygon fill="#000000" stroke="#000000" points="694.3578,-741.3837 702.2453,-734.3099 691.6681,-734.921 694.3578,-741.3837"/>
</g>
<!-- danish_lessions -->
<g id="node26" class="node">
<title>danish_lessions</title>
<ellipse fill="none" stroke="#000000" cx="248" cy="-869.6367" rx="62.8431" ry="18"/>
<text text-anchor="middle" x="248" y="-865.4367" font-family="Times,serif" font-size="14.00" fill="#000000">Danish lessons</text>
</g>
<!-- danish_lessions&#45;&gt;cpr_number -->
<g id="edge41" class="edge">
<title>danish_lessions&#45;&gt;cpr_number</title>
<path fill="none" stroke="#000000" d="M237.8818,-851.6202C223.2716,-823.8668 198,-768.577 198,-718.1808 198,-718.1808 198,-718.1808 198,-638.725 198,-578.1834 224.9789,-560.4627 275,-526.3574 302.7199,-507.4575 388.0693,-490.979 447.6327,-481.3471"/>
<polygon fill="#000000" stroke="#000000" points="448.3698,-484.7739 457.6951,-479.7451 447.2692,-477.861 448.3698,-484.7739"/>
</g>
<!-- danish_bank_card -->
<g id="node27" class="node">
<title>danish_bank_card</title>
<ellipse fill="none" stroke="#000000" cx="368" cy="-790.1808" rx="71.979" ry="18"/>
<text text-anchor="middle" x="368" y="-785.9808" font-family="Times,serif" font-size="14.00" fill="#000000">Danish bank card</text>
</g>
<!-- danish_lessions&#45;&gt;danish_bank_card -->
<g id="edge42" class="edge">
<title>danish_lessions&#45;&gt;danish_bank_card</title>
<path fill="none" stroke="#000000" d="M273.1559,-852.9801C290.7971,-841.2993 314.5883,-825.5464 333.9289,-812.7404"/>
<polygon fill="#000000" stroke="#000000" points="336.0583,-815.5282 342.4639,-807.0891 332.1937,-809.6917 336.0583,-815.5282"/>
</g>
<!-- danish_bank_card&#45;&gt;can_receive_post -->
<g id="edge44" class="edge">
<title>danish_bank_card&#45;&gt;can_receive_post</title>
<path fill="none" stroke="#000000" d="M310.9038,-779.037C207.5394,-757.2167 0,-705.136 0,-638.725 0,-638.725 0,-638.725 0,-392.9016 0,-327.1021 62.9813,-276.4126 111.3562,-247.1836"/>
<polygon fill="#000000" stroke="#000000" points="113.3585,-250.0663 120.2003,-241.9768 109.8071,-244.034 113.3585,-250.0663"/>
</g>
<!-- danish_bank_card&#45;&gt;danish_bank_account -->
<g id="edge43" class="edge">
<title>danish_bank_card&#45;&gt;danish_bank_account</title>
<path fill="none" stroke="#ff0000" d="M425.0567,-779.1672C490.2185,-766.589 596.9806,-745.9808 668.1148,-732.2498"/>
<polygon fill="#ff0000" stroke="#ff0000" points="669.187,-735.6075 678.3423,-730.2756 667.8602,-728.7344 669.187,-735.6075"/>
</g>
<!-- spend_lovely_dkk -->
<g id="node28" class="node">
<title>spend_lovely_dkk</title>
<ellipse fill="none" stroke="#000000" cx="498" cy="-869.6367" rx="99.0344" ry="18"/>
<text text-anchor="middle" x="498" y="-865.4367" font-family="Times,serif" font-size="14.00" fill="#000000">Spend your lovely DKK!</text>
</g>
<!-- spend_lovely_dkk&#45;&gt;get_paid -->
<g id="edge45" class="edge">
<title>spend_lovely_dkk&#45;&gt;get_paid</title>
<path fill="none" stroke="#000000" d="M513.8841,-851.6069C523.4542,-840.744 535.7749,-826.759 546.2422,-814.8777"/>
<polygon fill="#000000" stroke="#000000" points="549.1518,-816.8698 553.1361,-807.0526 543.8993,-812.2424 549.1518,-816.8698"/>
</g>
<!-- spend_lovely_dkk&#45;&gt;danish_bank_card -->
<g id="edge46" class="edge">
<title>spend_lovely_dkk&#45;&gt;danish_bank_card</title>
<path fill="none" stroke="#000000" d="M469.4709,-852.1997C450.3295,-840.5005 424.9493,-824.9881 404.3606,-812.4044"/>
<polygon fill="#000000" stroke="#000000" points="405.9287,-809.2608 395.5709,-807.0321 402.2781,-815.2336 405.9287,-809.2608"/>
</g>
<!-- mobilepay -->
<g id="node29" class="node">
<title>mobilepay</title>
<ellipse fill="none" stroke="#000000" cx="936" cy="-790.1808" rx="48.3427" ry="18"/>
<text text-anchor="middle" x="936" y="-785.9808" font-family="Times,serif" font-size="14.00" fill="#000000">Mobilepay</text>
</g>
<!-- mobilepay&#45;&gt;danish_phone_number -->
<g id="edge48" class="edge">
<title>mobilepay&#45;&gt;danish_phone_number</title>
<path fill="none" stroke="#000000" d="M919.9718,-773.1733C900.8974,-753.6516 867.4105,-721.5786 834,-700.1808 811.6386,-685.8594 785.3766,-673.3003 761.7368,-663.3313"/>
<polygon fill="#000000" stroke="#000000" points="763.0551,-660.089 752.4766,-659.5002 760.379,-666.5573 763.0551,-660.089"/>
</g>
<!-- mobilepay&#45;&gt;cpr_number -->
<g id="edge47" class="edge">
<title>mobilepay&#45;&gt;cpr_number</title>
<path fill="none" stroke="#000000" d="M929.3508,-772.0608C910.4245,-723.262 851.2616,-588.5792 754,-526.3574 724.1105,-507.236 633.027,-490.5807 570.7497,-480.9978"/>
<polygon fill="#000000" stroke="#000000" points="571.0438,-477.5025 560.6321,-479.4639 569.9945,-484.4234 571.0438,-477.5025"/>
</g>
<!-- mobilepay&#45;&gt;danish_bank_account -->
<g id="edge49" class="edge">
<title>mobilepay&#45;&gt;danish_bank_account</title>
<path fill="none" stroke="#000000" d="M901.5868,-777.4744C871.4046,-766.3302 827.0876,-749.967 792.6511,-737.252"/>
<polygon fill="#000000" stroke="#000000" points="793.8134,-733.9502 783.2201,-733.7698 791.3888,-740.5169 793.8134,-733.9502"/>
</g>
</g>
</svg>
