<?xml version="1.0" encoding="UTF-8" standalone="no"?>
<!DOCTYPE svg PUBLIC "-//W3C//DTD SVG 1.1//EN"
 "http://www.w3.org/Graphics/SVG/1.1/DTD/svg11.dtd">
<!-- Generated by graphviz version 2.40.1 (20161225.0304)
 -->
<!-- Title: g Pages: 1 -->
<svg width="1563pt" height="1323pt"
 viewBox="0.00 0.00 1562.88 1322.82" xmlns="http://www.w3.org/2000/svg" xmlns:xlink="http://www.w3.org/1999/xlink">
<g id="graph0" class="graph" transform="scale(1 1) rotate(0) translate(4 1318.8199)">
<title>g</title>
<polygon fill="#ffffff" stroke="transparent" points="-4,4 -4,-1318.8199 1558.8786,-1318.8199 1558.8786,4 -4,4"/>
<!-- job -->
<g id="node1" class="node">
<title>job</title>
<ellipse fill="#00ff00" stroke="#000000" cx="337.3736" cy="-25.4558" rx="57.5098" ry="25.4118"/>
<text text-anchor="middle" x="337.3736" y="-28.2558" font-family="Times,serif" font-size="14.00" fill="#000000">A job</text>
<text text-anchor="middle" x="337.3736" y="-14.2558" font-family="Times,serif" font-size="14.00" fill="#000000">2018&#45;10&#45;19</text>
</g>
<!-- proof_of_work -->
<g id="node2" class="node">
<title>proof_of_work</title>
<ellipse fill="#00ff00" stroke="#000000" cx="456.3736" cy="-122.267" rx="66.707" ry="25.4118"/>
<text text-anchor="middle" x="456.3736" y="-125.067" font-family="Times,serif" font-size="14.00" fill="#000000">Proof of work</text>
<text text-anchor="middle" x="456.3736" y="-111.067" font-family="Times,serif" font-size="14.00" fill="#000000">2019&#45;01&#45;22</text>
</g>
<!-- proof_of_work&#45;&gt;job -->
<g id="edge1" class="edge">
<title>proof_of_work&#45;&gt;job</title>
<path fill="none" stroke="#000000" d="M427.8702,-99.0783C411.4129,-85.6897 390.5663,-68.7301 373.0303,-54.464"/>
<polygon fill="#000000" stroke="#000000" points="375.1999,-51.7171 365.2339,-48.1213 370.7824,-57.1471 375.1999,-51.7171"/>
</g>
<!-- passport -->
<g id="node3" class="node">
<title>passport</title>
<ellipse fill="#00ff00" stroke="#000000" cx="586.3736" cy="-122.267" rx="44.7298" ry="25.4118"/>
<text text-anchor="middle" x="586.3736" y="-125.067" font-family="Times,serif" font-size="14.00" fill="#000000">Passport</text>
<text text-anchor="middle" x="586.3736" y="-111.067" font-family="Times,serif" font-size="14.00" fill="#000000">2015</text>
</g>
<!-- danish_phone_number -->
<g id="node4" class="node">
<title>danish_phone_number</title>
<ellipse fill="#00ff00" stroke="#000000" cx="345.3736" cy="-519.4113" rx="98.9836" ry="25.4118"/>
<text text-anchor="middle" x="345.3736" y="-522.2113" font-family="Times,serif" font-size="14.00" fill="#000000">Danish phone number</text>
<text text-anchor="middle" x="345.3736" y="-508.2113" font-family="Times,serif" font-size="14.00" fill="#000000">2019&#45;01&#45;17</text>
</g>
<!-- rejsekort -->
<g id="node5" class="node">
<title>rejsekort</title>
<ellipse fill="#00ff00" stroke="#000000" cx="64.3736" cy="-993.5677" rx="64.2475" ry="25.4118"/>
<text text-anchor="middle" x="64.3736" y="-996.3677" font-family="Times,serif" font-size="14.00" fill="#000000">Rejsekort</text>
<text text-anchor="middle" x="64.3736" y="-982.3677" font-family="Times,serif" font-size="14.00" fill="#000000">2018&#45;10&#45;19 ?</text>
</g>
<!-- place_to_live -->
<g id="node6" class="node">
<title>place_to_live</title>
<ellipse fill="#00ff00" stroke="#000000" cx="1034.3736" cy="-25.4558" rx="68.5454" ry="25.4118"/>
<text text-anchor="middle" x="1034.3736" y="-28.2558" font-family="Times,serif" font-size="14.00" fill="#000000">A place to live</text>
<text text-anchor="middle" x="1034.3736" y="-14.2558" font-family="Times,serif" font-size="14.00" fill="#000000">2019&#45;01&#45;21</text>
</g>
<!-- name_on_postbox -->
<g id="node7" class="node">
<title>name_on_postbox</title>
<ellipse fill="#00ff00" stroke="#000000" cx="1082.3736" cy="-122.267" rx="66.9194" ry="35.2113"/>
<text text-anchor="middle" x="1082.3736" y="-132.067" font-family="Times,serif" font-size="14.00" fill="#000000">Your name on</text>
<text text-anchor="middle" x="1082.3736" y="-118.067" font-family="Times,serif" font-size="14.00" fill="#000000">your postbox</text>
<text text-anchor="middle" x="1082.3736" y="-104.067" font-family="Times,serif" font-size="14.00" fill="#000000">2019&#45;01&#45;22</text>
</g>
<!-- name_on_postbox&#45;&gt;place_to_live -->
<g id="edge2" class="edge">
<title>name_on_postbox&#45;&gt;place_to_live</title>
<path fill="none" stroke="#000000" d="M1065.3155,-87.8624C1060.7956,-78.7464 1055.9164,-68.9054 1051.3983,-59.7929"/>
<polygon fill="#000000" stroke="#000000" points="1054.4289,-58.0259 1046.851,-50.6214 1048.1574,-61.1354 1054.4289,-58.0259"/>
</g>
<!-- can_receive_post -->
<g id="node8" class="node">
<title>can_receive_post</title>
<ellipse fill="#00ff00" stroke="#000000" cx="1148.3736" cy="-228.9777" rx="99.6266" ry="25.4118"/>
<text text-anchor="middle" x="1148.3736" y="-231.7777" font-family="Times,serif" font-size="14.00" fill="#000000">Ability to receive post</text>
<text text-anchor="middle" x="1148.3736" y="-217.7777" font-family="Times,serif" font-size="14.00" fill="#000000">2019&#45;01&#45;22</text>
</g>
<!-- can_receive_post&#45;&gt;place_to_live -->
<g id="edge3" class="edge">
<title>can_receive_post&#45;&gt;place_to_live</title>
<path fill="none" stroke="#000000" d="M1158.5952,-203.4769C1168.9216,-173.2574 1180.4693,-122.5231 1158.3736,-86.9117 1145.5716,-66.2787 1123.5523,-52.3587 1101.5884,-43.0672"/>
<polygon fill="#000000" stroke="#000000" points="1102.7924,-39.7796 1092.2057,-39.3623 1100.2215,-46.2905 1102.7924,-39.7796"/>
</g>
<!-- can_receive_post&#45;&gt;name_on_postbox -->
<g id="edge4" class="edge">
<title>can_receive_post&#45;&gt;name_on_postbox</title>
<path fill="none" stroke="#000000" d="M1132.7326,-203.6888C1125.609,-192.1712 1116.9768,-178.2144 1108.8862,-165.1333"/>
<polygon fill="#000000" stroke="#000000" points="1111.6336,-162.9215 1103.3968,-156.2578 1105.6803,-166.6037 1111.6336,-162.9215"/>
</g>
<!-- pendlerkort -->
<g id="node9" class="node">
<title>pendlerkort</title>
<ellipse fill="#00ff00" stroke="#000000" cx="132.3736" cy="-422.6001" rx="57.5098" ry="25.4118"/>
<text text-anchor="middle" x="132.3736" y="-425.4001" font-family="Times,serif" font-size="14.00" fill="#000000">Pendlerkort</text>
<text text-anchor="middle" x="132.3736" y="-411.4001" font-family="Times,serif" font-size="14.00" fill="#000000">2019&#45;02&#45;05</text>
</g>
<!-- pendlerkort&#45;&gt;place_to_live -->
<g id="edge5" class="edge">
<title>pendlerkort&#45;&gt;place_to_live</title>
<path fill="none" stroke="#000000" d="M142.382,-397.1133C169.4141,-332.1124 250.7193,-160.1352 380.3736,-86.9117 429.4428,-59.1994 792.623,-37.6438 955.6049,-29.2585"/>
<polygon fill="#000000" stroke="#000000" points="956.2369,-32.7308 966.0453,-28.7252 955.8798,-25.7399 956.2369,-32.7308"/>
</g>
<!-- eu_residence_document_application -->
<g id="node10" class="node">
<title>eu_residence_document_application</title>
<ellipse fill="#00ff00" stroke="#000000" cx="786.3736" cy="-228.9777" rx="105.7427" ry="35.2113"/>
<text text-anchor="middle" x="786.3736" y="-238.7777" font-family="Times,serif" font-size="14.00" fill="#000000">Application for</text>
<text text-anchor="middle" x="786.3736" y="-224.7777" font-family="Times,serif" font-size="14.00" fill="#000000">EU residence document</text>
<text text-anchor="middle" x="786.3736" y="-210.7777" font-family="Times,serif" font-size="14.00" fill="#000000">2019&#45;01&#45;23</text>
</g>
<!-- eu_residence_document_application&#45;&gt;proof_of_work -->
<g id="edge7" class="edge">
<title>eu_residence_document_application&#45;&gt;proof_of_work</title>
<path fill="none" stroke="#000000" d="M700.0256,-208.4201C650.3586,-195.6813 587.1398,-177.9024 532.3736,-157.6224 523.7549,-154.4308 514.7631,-150.6622 506.107,-146.7954"/>
<polygon fill="#000000" stroke="#000000" points="507.4299,-143.552 496.8793,-142.5838 504.5233,-149.92 507.4299,-143.552"/>
</g>
<!-- eu_residence_document_application&#45;&gt;passport -->
<g id="edge8" class="edge">
<title>eu_residence_document_application&#45;&gt;passport</title>
<path fill="none" stroke="#000000" d="M722.8087,-200.4444C696.5583,-188.0669 666.0835,-172.9189 639.3736,-157.6224 634.1471,-154.6292 628.7461,-151.3097 623.4812,-147.9381"/>
<polygon fill="#000000" stroke="#000000" points="625.0891,-144.8077 614.8043,-142.2634 621.2577,-150.666 625.0891,-144.8077"/>
</g>
<!-- eu_residence_document_application&#45;&gt;place_to_live -->
<g id="edge6" class="edge">
<title>eu_residence_document_application&#45;&gt;place_to_live</title>
<path fill="none" stroke="#000000" d="M858.3466,-202.9589C883.0766,-191.6454 909.7092,-176.5762 930.3736,-157.6224 957.4799,-132.76 950.7056,-115.878 973.3736,-86.9117 981.6344,-76.3557 991.5407,-65.6977 1000.9442,-56.2893"/>
<polygon fill="#000000" stroke="#000000" points="1003.6489,-58.539 1008.3367,-49.0377 998.747,-53.5418 1003.6489,-58.539"/>
</g>
<!-- od1_form -->
<g id="node11" class="node">
<title>od1_form</title>
<ellipse fill="#00ff00" stroke="#000000" cx="706.3736" cy="-122.267" rx="57.5098" ry="25.4118"/>
<text text-anchor="middle" x="706.3736" y="-125.067" font-family="Times,serif" font-size="14.00" fill="#000000">OD1 form</text>
<text text-anchor="middle" x="706.3736" y="-111.067" font-family="Times,serif" font-size="14.00" fill="#000000">2019&#45;01&#45;22</text>
</g>
<!-- eu_residence_document_application&#45;&gt;od1_form -->
<g id="edge9" class="edge">
<title>eu_residence_document_application&#45;&gt;od1_form</title>
<path fill="none" stroke="#000000" d="M760.6208,-194.6264C751.12,-181.9535 740.3857,-167.6352 730.9881,-155.0999"/>
<polygon fill="#000000" stroke="#000000" points="733.5261,-152.6504 724.7273,-146.7486 727.9253,-156.8493 733.5261,-152.6504"/>
</g>
<!-- passport_photo -->
<g id="node12" class="node">
<title>passport_photo</title>
<ellipse fill="#00ff00" stroke="#000000" cx="851.3736" cy="-122.267" rx="69.7781" ry="25.4118"/>
<text text-anchor="middle" x="851.3736" y="-125.067" font-family="Times,serif" font-size="14.00" fill="#000000">Passport photo</text>
<text text-anchor="middle" x="851.3736" y="-111.067" font-family="Times,serif" font-size="14.00" fill="#000000">2019&#45;01&#45;23</text>
</g>
<!-- eu_residence_document_application&#45;&gt;passport_photo -->
<g id="edge10" class="edge">
<title>eu_residence_document_application&#45;&gt;passport_photo</title>
<path fill="none" stroke="#000000" d="M807.4773,-194.3318C814.9943,-181.9911 823.4426,-168.1215 830.9054,-155.8698"/>
<polygon fill="#000000" stroke="#000000" points="833.9248,-157.6408 836.1379,-147.2796 827.9466,-153.9992 833.9248,-157.6408"/>
</g>
<!-- eu_residence_document -->
<g id="node13" class="node">
<title>eu_residence_document</title>
<ellipse fill="#00ff00" stroke="#000000" cx="890.3736" cy="-325.7889" rx="105.7427" ry="25.4118"/>
<text text-anchor="middle" x="890.3736" y="-328.5889" font-family="Times,serif" font-size="14.00" fill="#000000">EU residence document</text>
<text text-anchor="middle" x="890.3736" y="-314.5889" font-family="Times,serif" font-size="14.00" fill="#000000">2019&#45;01&#45;31</text>
</g>
<!-- eu_residence_document&#45;&gt;can_receive_post -->
<g id="edge12" class="edge">
<title>eu_residence_document&#45;&gt;can_receive_post</title>
<path fill="none" stroke="#000000" d="M947.6322,-304.3033C987.5729,-289.3161 1040.9674,-269.2805 1082.6479,-253.6405"/>
<polygon fill="#000000" stroke="#000000" points="1084.0299,-256.8602 1092.1628,-250.0701 1081.5706,-250.3064 1084.0299,-256.8602"/>
</g>
<!-- eu_residence_document&#45;&gt;eu_residence_document_application -->
<g id="edge11" class="edge">
<title>eu_residence_document&#45;&gt;eu_residence_document_application</title>
<path fill="none" stroke="#ff0000" d="M863.861,-301.1088C853.4939,-291.4584 841.3311,-280.1364 829.7547,-269.3601"/>
<polygon fill="#ff0000" stroke="#ff0000" points="831.961,-266.6322 822.2567,-262.3804 827.1915,-271.7558 831.961,-266.6322"/>
</g>
<!-- cpr_number_application -->
<g id="node14" class="node">
<title>cpr_number_application</title>
<ellipse fill="#00ff00" stroke="#000000" cx="690.3736" cy="-422.6001" rx="72.138" ry="35.2113"/>
<text text-anchor="middle" x="690.3736" y="-432.4001" font-family="Times,serif" font-size="14.00" fill="#000000">Application for</text>
<text text-anchor="middle" x="690.3736" y="-418.4001" font-family="Times,serif" font-size="14.00" fill="#000000">CPR number</text>
<text text-anchor="middle" x="690.3736" y="-404.4001" font-family="Times,serif" font-size="14.00" fill="#000000">2019&#45;02&#45;06</text>
</g>
<!-- cpr_number_application&#45;&gt;proof_of_work -->
<g id="edge14" class="edge">
<title>cpr_number_application&#45;&gt;proof_of_work</title>
<path fill="none" stroke="#000000" d="M641.0918,-396.576C621.5111,-384.5926 599.7898,-369.0608 583.3736,-351.2447 554.6187,-320.0376 500.2579,-212.5625 472.9336,-156.6611"/>
<polygon fill="#000000" stroke="#000000" points="475.9981,-154.9599 468.473,-147.5018 469.7047,-158.0248 475.9981,-154.9599"/>
</g>
<!-- cpr_number_application&#45;&gt;passport -->
<g id="edge16" class="edge">
<title>cpr_number_application&#45;&gt;passport</title>
<path fill="none" stroke="#000000" d="M644.9097,-395.1494C629.7362,-383.5713 614.4073,-368.6982 605.3736,-351.2447 573.2408,-289.1625 576.1977,-204.7751 581.2605,-157.7135"/>
<polygon fill="#000000" stroke="#000000" points="584.746,-158.0408 582.4311,-147.702 577.7934,-157.2278 584.746,-158.0408"/>
</g>
<!-- cpr_number_application&#45;&gt;eu_residence_document -->
<g id="edge13" class="edge">
<title>cpr_number_application&#45;&gt;eu_residence_document</title>
<path fill="none" stroke="#000000" d="M741.8786,-397.6688C770.0765,-384.0194 805.0623,-367.0843 833.9912,-353.0812"/>
<polygon fill="#000000" stroke="#000000" points="835.6786,-356.1529 843.1546,-348.6456 832.6287,-349.8523 835.6786,-356.1529"/>
</g>
<!-- proof_of_address -->
<g id="node15" class="node">
<title>proof_of_address</title>
<ellipse fill="#00ff00" stroke="#000000" cx="690.3736" cy="-325.7889" rx="76.3945" ry="25.4118"/>
<text text-anchor="middle" x="690.3736" y="-328.5889" font-family="Times,serif" font-size="14.00" fill="#000000">Proof of address</text>
<text text-anchor="middle" x="690.3736" y="-314.5889" font-family="Times,serif" font-size="14.00" fill="#000000">2019&#45;01&#45;21</text>
</g>
<!-- cpr_number_application&#45;&gt;proof_of_address -->
<g id="edge15" class="edge">
<title>cpr_number_application&#45;&gt;proof_of_address</title>
<path fill="none" stroke="#000000" d="M690.3736,-387.1009C690.3736,-378.7532 690.3736,-369.8531 690.3736,-361.4964"/>
<polygon fill="#000000" stroke="#000000" points="693.8737,-361.2842 690.3736,-351.2842 686.8737,-361.2843 693.8737,-361.2842"/>
</g>
<!-- proof_of_address&#45;&gt;place_to_live -->
<g id="edge21" class="edge">
<title>proof_of_address&#45;&gt;place_to_live</title>
<path fill="none" stroke="#000000" d="M747.0392,-308.7098C756.495,-305.891 766.2072,-303.015 775.3736,-300.333 831.2711,-283.9783 855.1656,-299.7846 901.3736,-264.333 919.4632,-250.4545 985.3182,-122.8487 1017.0496,-60.0459"/>
<polygon fill="#000000" stroke="#000000" points="1020.2787,-61.4154 1021.6555,-50.9104 1014.0282,-58.264 1020.2787,-61.4154"/>
</g>
<!-- cpr_number -->
<g id="node16" class="node">
<title>cpr_number</title>
<ellipse fill="#00ff00" stroke="#000000" cx="824.3736" cy="-519.4113" rx="62.9806" ry="25.4118"/>
<text text-anchor="middle" x="824.3736" y="-522.2113" font-family="Times,serif" font-size="14.00" fill="#000000">CPR number</text>
<text text-anchor="middle" x="824.3736" y="-508.2113" font-family="Times,serif" font-size="14.00" fill="#000000">2019&#45;02&#45;06</text>
</g>
<!-- cpr_number&#45;&gt;can_receive_post -->
<g id="edge18" class="edge">
<title>cpr_number&#45;&gt;can_receive_post</title>
<path fill="none" stroke="#000000" d="M860.8528,-498.3777C879.4822,-487.1239 902.2009,-472.5938 921.3736,-457.9554 1001.2849,-396.9431 1080.8036,-308.8309 1121.145,-261.6781"/>
<polygon fill="#000000" stroke="#000000" points="1123.9319,-263.8036 1127.7455,-253.9189 1118.6001,-259.268 1123.9319,-263.8036"/>
</g>
<!-- cpr_number&#45;&gt;cpr_number_application -->
<g id="edge17" class="edge">
<title>cpr_number&#45;&gt;cpr_number_application</title>
<path fill="none" stroke="#ff0000" d="M793.6313,-497.2008C777.4829,-485.534 757.3131,-470.9619 739.0955,-457.8002"/>
<polygon fill="#ff0000" stroke="#ff0000" points="741.0397,-454.887 730.8841,-451.8677 736.9403,-460.5611 741.0397,-454.887"/>
</g>
<!-- cpr_card -->
<g id="node17" class="node">
<title>cpr_card</title>
<ellipse fill="#00ff00" stroke="#000000" cx="1215.3736" cy="-616.2224" rx="78.9044" ry="25.4118"/>
<text text-anchor="middle" x="1215.3736" y="-619.0224" font-family="Times,serif" font-size="14.00" fill="#000000">CPR yellow card</text>
<text text-anchor="middle" x="1215.3736" y="-605.0224" font-family="Times,serif" font-size="14.00" fill="#000000">2019&#45;02&#45;??</text>
</g>
<!-- cpr_card&#45;&gt;can_receive_post -->
<g id="edge20" class="edge">
<title>cpr_card&#45;&gt;can_receive_post</title>
<path fill="none" stroke="#000000" d="M1210.9257,-590.5143C1199.2856,-523.2371 1167.9056,-341.8681 1154.5389,-264.6115"/>
<polygon fill="#000000" stroke="#000000" points="1157.93,-263.6808 1152.7763,-254.4239 1151.0324,-264.8742 1157.93,-263.6808"/>
</g>
<!-- cpr_card&#45;&gt;cpr_number -->
<g id="edge19" class="edge">
<title>cpr_card&#45;&gt;cpr_number</title>
<path fill="none" stroke="#000000" d="M1166.6421,-596.0183C1152.518,-590.6222 1136.968,-585.1165 1122.3736,-580.8671 1044.9027,-558.3101 953.7892,-540.7922 892.8937,-530.3305"/>
<polygon fill="#000000" stroke="#000000" points="893.4574,-526.8762 883.012,-528.6493 892.2833,-533.7771 893.4574,-526.8762"/>
</g>
<!-- skattekort -->
<g id="node18" class="node">
<title>skattekort</title>
<ellipse fill="#00ff00" stroke="#000000" cx="744.3736" cy="-819.7443" rx="57.5098" ry="25.4118"/>
<text text-anchor="middle" x="744.3736" y="-822.5443" font-family="Times,serif" font-size="14.00" fill="#000000">Skattekort</text>
<text text-anchor="middle" x="744.3736" y="-808.5443" font-family="Times,serif" font-size="14.00" fill="#000000">2019&#45;02&#45;07</text>
</g>
<!-- skattekort&#45;&gt;cpr_number -->
<g id="edge22" class="edge">
<title>skattekort&#45;&gt;cpr_number</title>
<path fill="none" stroke="#000000" stroke-dasharray="1,5" d="M733.1491,-794.5618C728.8675,-783.6443 724.5058,-770.5705 722.3736,-758.2885 716.9984,-727.3246 713.9121,-717.8442 722.3736,-687.5778 736.8896,-635.655 772.2999,-583.8106 797.3092,-551.699"/>
<polygon fill="#000000" stroke="#000000" points="800.277,-553.5892 803.7423,-543.5771 794.7897,-549.2429 800.277,-553.5892"/>
</g>
<!-- nemid_application -->
<g id="node19" class="node">
<title>nemid_application</title>
<ellipse fill="#00ff00" stroke="#000000" cx="887.3736" cy="-616.2224" rx="72.138" ry="35.2113"/>
<text text-anchor="middle" x="887.3736" y="-626.0224" font-family="Times,serif" font-size="14.00" fill="#000000">Application for</text>
<text text-anchor="middle" x="887.3736" y="-612.0224" font-family="Times,serif" font-size="14.00" fill="#000000">Nemid</text>
<text text-anchor="middle" x="887.3736" y="-598.0224" font-family="Times,serif" font-size="14.00" fill="#000000">2019&#45;02&#45;06</text>
</g>
<!-- nemid_application&#45;&gt;cpr_number -->
<g id="edge23" class="edge">
<title>nemid_application&#45;&gt;cpr_number</title>
<path fill="none" stroke="#000000" d="M865.3393,-582.3626C859.0909,-572.7608 852.2948,-562.3173 846.0668,-552.7468"/>
<polygon fill="#000000" stroke="#000000" points="848.9268,-550.7247 840.5389,-544.2522 843.0597,-554.5428 848.9268,-550.7247"/>
</g>
<!-- nemid_userid -->
<g id="node20" class="node">
<title>nemid_userid</title>
<ellipse fill="#00ff00" stroke="#000000" cx="804.3736" cy="-722.9331" rx="72.7816" ry="25.4118"/>
<text text-anchor="middle" x="804.3736" y="-725.7331" font-family="Times,serif" font-size="14.00" fill="#000000">NemID user ID</text>
<text text-anchor="middle" x="804.3736" y="-711.7331" font-family="Times,serif" font-size="14.00" fill="#000000">2019&#45;02&#45;06</text>
</g>
<!-- nemid_userid&#45;&gt;nemid_application -->
<g id="edge24" class="edge">
<title>nemid_userid&#45;&gt;nemid_application</title>
<path fill="none" stroke="#000000" d="M823.6241,-698.1833C833.0717,-686.0369 844.7034,-671.0823 855.4335,-657.287"/>
<polygon fill="#000000" stroke="#000000" points="858.2468,-659.3708 861.6236,-649.3285 852.7214,-655.0731 858.2468,-659.3708"/>
</g>
<!-- danish_bank_account -->
<g id="node21" class="node">
<title>danish_bank_account</title>
<ellipse fill="#00ff00" stroke="#000000" cx="467.3736" cy="-616.2224" rx="94.1666" ry="25.4118"/>
<text text-anchor="middle" x="467.3736" y="-619.0224" font-family="Times,serif" font-size="14.00" fill="#000000">Danish bank account</text>
<text text-anchor="middle" x="467.3736" y="-605.0224" font-family="Times,serif" font-size="14.00" fill="#000000">2019&#45;02&#45;07</text>
</g>
<!-- danish_bank_account&#45;&gt;proof_of_work -->
<g id="edge26" class="edge">
<title>danish_bank_account&#45;&gt;proof_of_work</title>
<path fill="none" stroke="#000000" d="M468.4586,-590.5456C469.9291,-553.472 472.3736,-482.791 472.3736,-422.6001 472.3736,-422.6001 472.3736,-422.6001 472.3736,-325.7889 472.3736,-266.7748 465.605,-198.4304 460.8726,-157.858"/>
<polygon fill="#000000" stroke="#000000" points="464.347,-157.4343 459.6889,-147.9185 457.3961,-158.2622 464.347,-157.4343"/>
</g>
<!-- danish_bank_account&#45;&gt;passport -->
<g id="edge27" class="edge">
<title>danish_bank_account&#45;&gt;passport</title>
<path fill="none" stroke="#000000" d="M473.8655,-590.8128C477.3235,-577.1967 481.6253,-560.1282 485.3736,-544.8671 520.6164,-401.3807 561.0544,-230.0742 578.1071,-157.5134"/>
<polygon fill="#000000" stroke="#000000" points="581.5705,-158.0747 580.45,-147.5392 574.756,-156.4739 581.5705,-158.0747"/>
</g>
<!-- danish_bank_account&#45;&gt;danish_phone_number -->
<g id="edge28" class="edge">
<title>danish_bank_account&#45;&gt;danish_phone_number</title>
<path fill="none" stroke="#000000" d="M436.9026,-592.0426C421.0117,-579.4326 401.3966,-563.8674 384.4058,-550.3846"/>
<polygon fill="#000000" stroke="#000000" points="386.3125,-547.4296 376.3035,-543.9552 381.9613,-552.9129 386.3125,-547.4296"/>
</g>
<!-- danish_bank_account&#45;&gt;cpr_number -->
<g id="edge25" class="edge">
<title>danish_bank_account&#45;&gt;cpr_number</title>
<path fill="none" stroke="#000000" d="M525.9829,-596.1575C541.9312,-590.9383 559.2531,-585.4882 575.3736,-580.8671 637.3704,-563.0953 708.9232,-545.7603 759.3719,-534.0571"/>
<polygon fill="#000000" stroke="#000000" points="760.2157,-537.4545 769.1711,-531.7931 758.6399,-530.6341 760.2157,-537.4545"/>
</g>
<!-- activated_nemid -->
<g id="node22" class="node">
<title>activated_nemid</title>
<ellipse fill="#00ff00" stroke="#000000" cx="899.3736" cy="-819.7443" rx="79.427" ry="25.4118"/>
<text text-anchor="middle" x="899.3736" y="-822.5443" font-family="Times,serif" font-size="14.00" fill="#000000">Activated Nemid</text>
<text text-anchor="middle" x="899.3736" y="-808.5443" font-family="Times,serif" font-size="14.00" fill="#000000">2019&#45;02&#45;19</text>
</g>
<!-- activated_nemid&#45;&gt;danish_phone_number -->
<g id="edge30" class="edge">
<title>activated_nemid&#45;&gt;danish_phone_number</title>
<path fill="none" stroke="#000000" d="M843.4579,-801.6498C832.8934,-798.7801 821.8656,-796.1495 811.3736,-794.2885 754.6752,-784.2314 333.6517,-800.3966 294.3736,-758.2885 241.7092,-701.8294 289.7516,-604.8513 321.8927,-553.5464"/>
<polygon fill="#000000" stroke="#000000" points="325.0374,-555.1261 327.4849,-544.8178 319.1433,-551.3499 325.0374,-555.1261"/>
</g>
<!-- activated_nemid&#45;&gt;nemid_userid -->
<g id="edge29" class="edge">
<title>activated_nemid&#45;&gt;nemid_userid</title>
<path fill="none" stroke="#000000" d="M875.4011,-795.3148C863.1573,-782.8375 848.1232,-767.5168 835.0442,-754.1884"/>
<polygon fill="#000000" stroke="#000000" points="837.5116,-751.7056 828.0094,-747.0195 832.5153,-756.6084 837.5116,-751.7056"/>
</g>
<!-- noglekort -->
<g id="node23" class="node">
<title>noglekort</title>
<ellipse fill="#00ff00" stroke="#000000" cx="1237.3736" cy="-722.9331" rx="69.7588" ry="35.2113"/>
<text text-anchor="middle" x="1237.3736" y="-732.7331" font-family="Times,serif" font-size="14.00" fill="#000000">Nøglekort</text>
<text text-anchor="middle" x="1237.3736" y="-718.7331" font-family="Times,serif" font-size="14.00" fill="#000000">2019&#45;02&#45;06</text>
<text text-anchor="middle" x="1237.3736" y="-704.7331" font-family="Times,serif" font-size="14.00" fill="#000000">og 2019&#45;02&#45;07</text>
</g>
<!-- activated_nemid&#45;&gt;noglekort -->
<g id="edge31" class="edge">
<title>activated_nemid&#45;&gt;noglekort</title>
<path fill="none" stroke="#000000" d="M968.2548,-807.073C1021.0213,-796.489 1095.2404,-779.6939 1158.3736,-758.2885 1164.4438,-756.2304 1170.6845,-753.8765 1176.8703,-751.3826"/>
<polygon fill="#000000" stroke="#000000" points="1178.6248,-754.4435 1186.5132,-747.3707 1175.9359,-747.9805 1178.6248,-754.4435"/>
</g>
<!-- midlertidlig_nemid_adgangskode -->
<g id="node24" class="node">
<title>midlertidlig_nemid_adgangskode</title>
<ellipse fill="#00ff00" stroke="#000000" cx="1022.3736" cy="-722.9331" rx="126.7645" ry="25.4118"/>
<text text-anchor="middle" x="1022.3736" y="-725.7331" font-family="Times,serif" font-size="14.00" fill="#000000">Temporary NemID password</text>
<text text-anchor="middle" x="1022.3736" y="-711.7331" font-family="Times,serif" font-size="14.00" fill="#000000">2019&#45;02&#45;19</text>
</g>
<!-- activated_nemid&#45;&gt;midlertidlig_nemid_adgangskode -->
<g id="edge32" class="edge">
<title>activated_nemid&#45;&gt;midlertidlig_nemid_adgangskode</title>
<path fill="none" stroke="#000000" d="M929.4628,-796.0616C945.4762,-783.4578 965.3733,-767.7971 982.6416,-754.2055"/>
<polygon fill="#000000" stroke="#000000" points="985.1857,-756.6572 990.879,-747.722 980.8563,-751.1566 985.1857,-756.6572"/>
</g>
<!-- noglekort&#45;&gt;can_receive_post -->
<g id="edge35" class="edge">
<title>noglekort&#45;&gt;can_receive_post</title>
<path fill="none" stroke="#000000" stroke-dasharray="1,5" d="M1286.9077,-697.8738C1305.1752,-686.2142 1324.3317,-670.6596 1336.3736,-651.5778 1368.2353,-601.0894 1360.3736,-579.1126 1360.3736,-519.4113 1360.3736,-519.4113 1360.3736,-519.4113 1360.3736,-422.6001 1360.3736,-367.2222 1372.0887,-342.655 1336.3736,-300.333 1312.91,-272.5289 1277.3951,-255.5371 1243.5289,-245.1623"/>
<polygon fill="#000000" stroke="#000000" points="1244.14,-241.6957 1233.5613,-242.2794 1242.195,-248.4201 1244.14,-241.6957"/>
</g>
<!-- noglekort&#45;&gt;nemid_application -->
<g id="edge33" class="edge">
<title>noglekort&#45;&gt;nemid_application</title>
<path fill="none" stroke="#ff0000" stroke-dasharray="1,5" d="M1186.4479,-698.6842C1177.2107,-694.7054 1167.5843,-690.8269 1158.3736,-687.5778 1093.8004,-664.7989 1018.3197,-645.4995 963.4414,-632.7385"/>
<polygon fill="#ff0000" stroke="#ff0000" points="963.9722,-629.2691 953.4414,-630.4325 962.3992,-636.0901 963.9722,-629.2691"/>
</g>
<!-- midlertidlig_nemid_adgangskode&#45;&gt;can_receive_post -->
<g id="edge36" class="edge">
<title>midlertidlig_nemid_adgangskode&#45;&gt;can_receive_post</title>
<path fill="none" stroke="#000000" stroke-dasharray="1,5" d="M1099.6515,-702.6864C1118.8288,-697.7053 1139.3399,-692.4145 1158.3736,-687.5778 1222.7293,-671.2242 1258.8406,-700.8311 1303.3736,-651.5778 1343.1742,-607.5586 1322.3736,-578.7558 1322.3736,-519.4113 1322.3736,-519.4113 1322.3736,-519.4113 1322.3736,-422.6001 1322.3736,-348.69 1251.3648,-290.1944 1200.0715,-257.5814"/>
<polygon fill="#000000" stroke="#000000" points="1201.7259,-254.4888 1191.3849,-252.1832 1198.0311,-260.4343 1201.7259,-254.4888"/>
</g>
<!-- midlertidlig_nemid_adgangskode&#45;&gt;nemid_application -->
<g id="edge34" class="edge">
<title>midlertidlig_nemid_adgangskode&#45;&gt;nemid_application</title>
<path fill="none" stroke="#ff0000" stroke-dasharray="1,5" d="M991.0626,-698.1833C974.0239,-684.7151 952.6173,-667.7943 933.6854,-652.8296"/>
<polygon fill="#ff0000" stroke="#ff0000" points="935.7588,-650.007 925.7432,-646.5516 931.4179,-655.4986 935.7588,-650.007"/>
</g>
<!-- ehic -->
<g id="node25" class="node">
<title>ehic</title>
<ellipse fill="#00ff00" stroke="#000000" cx="1014.3736" cy="-906.656" rx="110.6617" ry="25.4118"/>
<text text-anchor="middle" x="1014.3736" y="-909.456" font-family="Times,serif" font-size="14.00" fill="#000000">Danish EHIC (&#39;blåt kort&#39;)</text>
<text text-anchor="middle" x="1014.3736" y="-895.456" font-family="Times,serif" font-size="14.00" fill="#000000">2019&#45;02&#45;26</text>
</g>
<!-- ehic&#45;&gt;place_to_live -->
<g id="edge39" class="edge">
<title>ehic&#45;&gt;place_to_live</title>
<path fill="none" stroke="#000000" d="M1093.516,-888.7869C1159.8654,-873.5053 1246.1586,-852.812 1261.3736,-845.2001 1338.2929,-806.7188 1411.3736,-808.9411 1411.3736,-722.9331 1411.3736,-722.9331 1411.3736,-722.9331 1411.3736,-228.9777 1411.3736,-93.9179 1221.7015,-48.0607 1111.4268,-32.8128"/>
<polygon fill="#000000" stroke="#000000" points="1111.7132,-29.3202 1101.3393,-31.4725 1110.7911,-36.2592 1111.7132,-29.3202"/>
</g>
<!-- ehic&#45;&gt;cpr_number -->
<g id="edge37" class="edge">
<title>ehic&#45;&gt;cpr_number</title>
<path fill="none" stroke="#000000" d="M1086.4426,-887.2664C1198.7683,-853.6598 1394.9723,-779.3134 1316.3736,-687.5778 1282.4281,-647.9586 1133.3708,-669.5013 1084.3736,-651.5778 1027.6695,-630.835 1022.0572,-608.5024 968.3736,-580.8671 939.7292,-566.1215 906.7412,-551.8564 879.5718,-540.7877"/>
<polygon fill="#000000" stroke="#000000" points="880.804,-537.5107 870.221,-537.0103 878.1821,-544.0011 880.804,-537.5107"/>
</g>
<!-- ehic&#45;&gt;activated_nemid -->
<g id="edge38" class="edge">
<title>ehic&#45;&gt;activated_nemid</title>
<path fill="none" stroke="#000000" d="M982.0337,-882.2149C968.5943,-872.0581 952.8708,-860.175 938.7661,-849.5153"/>
<polygon fill="#000000" stroke="#000000" points="940.7662,-846.6398 930.678,-843.4027 936.5457,-852.2244 940.7662,-846.6398"/>
</g>
<!-- doctor -->
<g id="node26" class="node">
<title>doctor</title>
<ellipse fill="#00ff00" stroke="#000000" cx="1497.3736" cy="-819.7443" rx="57.5098" ry="25.4118"/>
<text text-anchor="middle" x="1497.3736" y="-822.5443" font-family="Times,serif" font-size="14.00" fill="#000000">Doctor</text>
<text text-anchor="middle" x="1497.3736" y="-808.5443" font-family="Times,serif" font-size="14.00" fill="#000000">2019&#45;02&#45;06</text>
</g>
<!-- doctor&#45;&gt;cpr_number -->
<g id="edge40" class="edge">
<title>doctor&#45;&gt;cpr_number</title>
<path fill="none" stroke="#000000" d="M1478.201,-795.6898C1452.4081,-765.1597 1403.4804,-713.3717 1349.3736,-687.5778 1259.1464,-644.5644 1210.286,-707.4048 1127.3736,-651.5778 1096.8636,-631.0346 1114.1316,-602.4854 1084.3736,-580.8671 1054.302,-559.0209 959.9752,-540.441 893.6358,-529.6002"/>
<polygon fill="#000000" stroke="#000000" points="894.0823,-526.1271 883.653,-527.9925 892.9692,-533.0381 894.0823,-526.1271"/>
</g>
<!-- get_paid -->
<g id="node27" class="node">
<title>get_paid</title>
<ellipse fill="none" stroke="#000000" cx="447.3736" cy="-906.656" rx="40.1247" ry="18"/>
<text text-anchor="middle" x="447.3736" y="-902.456" font-family="Times,serif" font-size="14.00" fill="#000000">Get paid</text>
</g>
<!-- get_paid&#45;&gt;job -->
<g id="edge41" class="edge">
<title>get_paid&#45;&gt;job</title>
<path fill="none" stroke="#000000" d="M413.09,-896.7869C349.2067,-876.0564 218.3736,-821.561 218.3736,-722.9331 218.3736,-722.9331 218.3736,-722.9331 218.3736,-228.9777 218.3736,-159.8135 270.2226,-93.2815 305.4716,-56.042"/>
<polygon fill="#000000" stroke="#000000" points="308.2813,-58.1714 312.7168,-48.5497 303.2492,-53.3053 308.2813,-58.1714"/>
</g>
<!-- get_paid&#45;&gt;skattekort -->
<g id="edge42" class="edge">
<title>get_paid&#45;&gt;skattekort</title>
<path fill="none" stroke="#000000" d="M482.1102,-897.321C500.0938,-892.4951 522.409,-886.5173 542.3736,-881.2001 602.7937,-865.1084 618.8938,-864.4792 678.3736,-845.2001 682.8824,-843.7387 687.5318,-842.1394 692.1769,-840.4769"/>
<polygon fill="#000000" stroke="#000000" points="693.4753,-843.7288 701.659,-836.9999 691.0653,-837.1567 693.4753,-843.7288"/>
</g>
<!-- get_paid&#45;&gt;danish_bank_account -->
<g id="edge43" class="edge">
<title>get_paid&#45;&gt;danish_bank_account</title>
<path fill="none" stroke="#000000" d="M448.6247,-888.4881C451.8664,-841.413 460.5852,-714.8016 464.894,-652.2309"/>
<polygon fill="#000000" stroke="#000000" points="468.4003,-652.2592 465.5956,-642.0423 461.4168,-651.7782 468.4003,-652.2592"/>
</g>
<!-- get_paid&#45;&gt;activated_nemid -->
<g id="edge44" class="edge">
<title>get_paid&#45;&gt;activated_nemid</title>
<path fill="none" stroke="#000000" d="M480.9796,-896.5183C499.0443,-891.3569 521.7795,-885.3195 542.3736,-881.2001 660.6521,-857.5412 693.335,-870.0276 811.3736,-845.2001 818.3286,-843.7373 825.537,-842.0095 832.6983,-840.1537"/>
<polygon fill="#000000" stroke="#000000" points="833.6505,-843.5222 842.4063,-837.5569 831.8415,-836.7599 833.6505,-843.5222"/>
</g>
<!-- danish_lessions -->
<g id="node28" class="node">
<title>danish_lessions</title>
<ellipse fill="none" stroke="#000000" cx="606.3736" cy="-819.7443" rx="62.8431" ry="18"/>
<text text-anchor="middle" x="606.3736" y="-815.5443" font-family="Times,serif" font-size="14.00" fill="#000000">Danish lessons</text>
</g>
<!-- danish_lessions&#45;&gt;cpr_number -->
<g id="edge45" class="edge">
<title>danish_lessions&#45;&gt;cpr_number</title>
<path fill="none" stroke="#000000" d="M618.6851,-802.083C626.9115,-789.9885 637.7616,-773.4544 646.3736,-758.2885 689.7406,-681.9185 675.7046,-647.1041 733.3736,-580.8671 745.5124,-566.9249 761.5116,-554.7273 776.7052,-544.9531"/>
<polygon fill="#000000" stroke="#000000" points="778.8698,-547.7291 785.5225,-539.4834 775.1797,-541.7807 778.8698,-547.7291"/>
</g>
<!-- danish_bank_card -->
<g id="node29" class="node">
<title>danish_bank_card</title>
<ellipse fill="#00ff00" stroke="#000000" cx="556.3736" cy="-722.9331" rx="80.6721" ry="25.4118"/>
<text text-anchor="middle" x="556.3736" y="-725.7331" font-family="Times,serif" font-size="14.00" fill="#000000">Danish bank card</text>
<text text-anchor="middle" x="556.3736" y="-711.7331" font-family="Times,serif" font-size="14.00" fill="#000000">2019&#45;02&#45;16</text>
</g>
<!-- danish_lessions&#45;&gt;danish_bank_card -->
<g id="edge46" class="edge">
<title>danish_lessions&#45;&gt;danish_bank_card</title>
<path fill="none" stroke="#000000" d="M596.969,-801.5349C590.5502,-789.1065 581.8475,-772.2563 574.1461,-757.3445"/>
<polygon fill="#000000" stroke="#000000" points="577.2082,-755.646 569.5095,-748.3671 570.9887,-758.8582 577.2082,-755.646"/>
</g>
<!-- danish_bank_card&#45;&gt;can_receive_post -->
<g id="edge48" class="edge">
<title>danish_bank_card&#45;&gt;can_receive_post</title>
<path fill="none" stroke="#000000" d="M573.9962,-697.738C606.009,-653.1217 677.3694,-558.8191 752.3736,-493.9554 819.5645,-435.8488 842.7475,-428.5838 921.3736,-387.2447 957.3249,-368.3427 974.3155,-377.4204 1005.3736,-351.2447 1025.9925,-333.8673 1019.3099,-319.4036 1038.3736,-300.333 1054.9811,-283.7197 1076.0739,-268.9054 1095.3372,-257.1392"/>
<polygon fill="#000000" stroke="#000000" points="1097.2399,-260.0797 1104.0365,-251.9522 1093.6549,-254.0674 1097.2399,-260.0797"/>
</g>
<!-- danish_bank_card&#45;&gt;danish_bank_account -->
<g id="edge47" class="edge">
<title>danish_bank_card&#45;&gt;danish_bank_account</title>
<path fill="none" stroke="#ff0000" d="M535.7316,-698.1833C523.5751,-683.6078 508.0462,-664.9887 494.8623,-649.1813"/>
<polygon fill="#ff0000" stroke="#ff0000" points="497.305,-646.6455 488.2121,-641.2077 491.9293,-651.129 497.305,-646.6455"/>
</g>
<!-- spend_lovely_dkk -->
<g id="node30" class="node">
<title>spend_lovely_dkk</title>
<ellipse fill="none" stroke="#000000" cx="499.3736" cy="-993.5677" rx="99.0344" ry="18"/>
<text text-anchor="middle" x="499.3736" y="-989.3677" font-family="Times,serif" font-size="14.00" fill="#000000">Spend your lovely DKK!</text>
</g>
<!-- spend_lovely_dkk&#45;&gt;get_paid -->
<g id="edge49" class="edge">
<title>spend_lovely_dkk&#45;&gt;get_paid</title>
<path fill="none" stroke="#000000" d="M488.5992,-975.5595C481.1807,-963.1604 471.2089,-946.4937 462.9308,-932.658"/>
<polygon fill="#000000" stroke="#000000" points="465.9172,-930.8323 457.7794,-924.048 459.9103,-934.4264 465.9172,-930.8323"/>
</g>
<!-- spend_lovely_dkk&#45;&gt;danish_bank_card -->
<g id="edge50" class="edge">
<title>spend_lovely_dkk&#45;&gt;danish_bank_card</title>
<path fill="none" stroke="#000000" d="M501.7662,-975.5493C506.6024,-940.4063 518.4505,-860.3671 534.3736,-794.2885 537.2393,-782.3966 540.9813,-769.5769 544.5644,-758.1289"/>
<polygon fill="#000000" stroke="#000000" points="547.9378,-759.0704 547.6462,-748.4796 541.2696,-756.9407 547.9378,-759.0704"/>
</g>
<!-- mobilepay -->
<g id="node31" class="node">
<title>mobilepay</title>
<ellipse fill="#00ff00" stroke="#000000" cx="361.3736" cy="-722.9331" rx="57.5098" ry="25.4118"/>
<text text-anchor="middle" x="361.3736" y="-725.7331" font-family="Times,serif" font-size="14.00" fill="#000000">Mobilepay</text>
<text text-anchor="middle" x="361.3736" y="-711.7331" font-family="Times,serif" font-size="14.00" fill="#000000">2019&#45;02&#45;18</text>
</g>
<!-- mobilepay&#45;&gt;danish_phone_number -->
<g id="edge52" class="edge">
<title>mobilepay&#45;&gt;danish_phone_number</title>
<path fill="none" stroke="#000000" d="M359.3472,-697.1569C356.516,-661.1435 351.3657,-595.6309 348.1707,-554.9901"/>
<polygon fill="#000000" stroke="#000000" points="351.6567,-554.673 347.3836,-544.9781 344.6782,-555.2217 351.6567,-554.673"/>
</g>
<!-- mobilepay&#45;&gt;cpr_number -->
<g id="edge51" class="edge">
<title>mobilepay&#45;&gt;cpr_number</title>
<path fill="none" stroke="#000000" d="M407.2381,-707.5192C467.6381,-687.1854 566.6895,-653.7036 570.3736,-651.5778 611.765,-627.6946 610.1302,-605.0049 651.3736,-580.8671 685.4242,-560.9389 726.9925,-545.9142 760.8478,-535.7102"/>
<polygon fill="#000000" stroke="#000000" points="762.0291,-539.011 770.6335,-532.8292 760.0521,-532.2959 762.0291,-539.011"/>
</g>
<!-- mobilepay&#45;&gt;danish_bank_account -->
<g id="edge53" class="edge">
<title>mobilepay&#45;&gt;danish_bank_account</title>
<path fill="none" stroke="#000000" d="M384.6358,-699.515C399.5392,-684.5117 419.0811,-664.8388 435.4305,-648.3798"/>
<polygon fill="#000000" stroke="#000000" points="438.1253,-650.6333 442.6896,-641.072 433.159,-645.7001 438.1253,-650.6333"/>
</g>
<!-- hygge -->
<g id="node32" class="node">
<title>hygge</title>
<ellipse fill="none" stroke="#000000" cx="703.3736" cy="-1292.9217" rx="101.1913" ry="21.7969"/>
<text text-anchor="middle" x="703.3736" y="-1293.2061" font-family="Times,serif" font-size="14.00" fill="#000000">🇩🇰 😊 Hygge 😊 🇩🇰</text>
</g>
<!-- magi4 -->
<g id="node33" class="node">
<title>magi4</title>
<ellipse fill="none" stroke="#000000" cx="763.3736" cy="-1073.0235" rx="27" ry="18"/>
<text text-anchor="middle" x="763.3736" y="-1068.8235" font-family="Times,serif" font-size="14.00" fill="#000000">????</text>
</g>
<!-- hygge&#45;&gt;magi4 -->
<g id="edge54" class="edge">
<title>hygge&#45;&gt;magi4</title>
<path fill="none" stroke="#000000" stroke-dasharray="5,2" d="M709.346,-1271.0331C720.35,-1230.704 743.8007,-1144.7579 755.8633,-1100.5486"/>
<polygon fill="#000000" stroke="#000000" points="759.2768,-1101.3344 758.5326,-1090.7657 752.5237,-1099.4917 759.2768,-1101.3344"/>
</g>
<!-- magi1 -->
<g id="node34" class="node">
<title>magi1</title>
<ellipse fill="none" stroke="#000000" cx="676.3736" cy="-1217.0235" rx="27" ry="18"/>
<text text-anchor="middle" x="676.3736" y="-1212.8235" font-family="Times,serif" font-size="14.00" fill="#000000">?</text>
</g>
<!-- hygge&#45;&gt;magi1 -->
<g id="edge55" class="edge">
<title>hygge&#45;&gt;magi1</title>
<path fill="none" stroke="#000000" d="M695.5641,-1270.9688C692.5768,-1262.5712 689.1343,-1252.8944 685.9971,-1244.0754"/>
<polygon fill="#000000" stroke="#000000" points="689.2745,-1242.8455 682.6252,-1234.597 682.6794,-1245.1917 689.2745,-1242.8455"/>
</g>
<!-- helbred -->
<g id="node37" class="node">
<title>helbred</title>
<ellipse fill="none" stroke="#000000" cx="889.3736" cy="-993.5677" rx="33.8596" ry="18"/>
<text text-anchor="middle" x="889.3736" y="-989.3677" font-family="Times,serif" font-size="14.00" fill="#000000">Health</text>
</g>
<!-- magi4&#45;&gt;helbred -->
<g id="edge61" class="edge">
<title>magi4&#45;&gt;helbred</title>
<path fill="none" stroke="#000000" stroke-dasharray="1,5" d="M783.0611,-1060.6085C803.3143,-1047.8369 835.1425,-1027.7659 858.6998,-1012.9107"/>
<polygon fill="#000000" stroke="#000000" points="860.6902,-1015.7933 867.2819,-1007.4988 856.9564,-1009.8723 860.6902,-1015.7933"/>
</g>
<!-- magi2 -->
<g id="node35" class="node">
<title>magi2</title>
<ellipse fill="none" stroke="#000000" cx="540.3736" cy="-1145.0235" rx="27" ry="18"/>
<text text-anchor="middle" x="540.3736" y="-1140.8235" font-family="Times,serif" font-size="14.00" fill="#000000">??</text>
</g>
<!-- magi1&#45;&gt;magi2 -->
<g id="edge57" class="edge">
<title>magi1&#45;&gt;magi2</title>
<path fill="none" stroke="#000000" d="M655.1236,-1205.7735C632.5014,-1193.797 596.4997,-1174.7373 570.8576,-1161.1621"/>
<polygon fill="#000000" stroke="#000000" points="572.3988,-1158.0178 561.9233,-1156.4321 569.1235,-1164.2043 572.3988,-1158.0178"/>
</g>
<!-- magi3 -->
<g id="node36" class="node">
<title>magi3</title>
<ellipse fill="none" stroke="#000000" cx="653.3736" cy="-1145.0235" rx="27" ry="18"/>
<text text-anchor="middle" x="653.3736" y="-1140.8235" font-family="Times,serif" font-size="14.00" fill="#000000">????</text>
</g>
<!-- magi1&#45;&gt;magi3 -->
<g id="edge58" class="edge">
<title>magi1&#45;&gt;magi3</title>
<path fill="none" stroke="#000000" stroke-dasharray="5,2" d="M670.6883,-1199.2258C668.1173,-1191.1776 665.0202,-1181.4823 662.1605,-1172.5302"/>
<polygon fill="#000000" stroke="#000000" points="665.4504,-1171.3268 659.0734,-1162.8661 658.7824,-1173.4569 665.4504,-1171.3268"/>
</g>
<!-- magi1&#45;&gt;helbred -->
<g id="edge59" class="edge">
<title>magi1&#45;&gt;helbred</title>
<path fill="none" stroke="#000000" stroke-dasharray="1,5" d="M681.0949,-1198.998C691.6908,-1159.0555 717.228,-1065.771 727.3736,-1055.0235 758.7998,-1021.7333 810.1156,-1006.3048 846.5656,-999.2662"/>
<polygon fill="#000000" stroke="#000000" points="847.1995,-1002.7084 856.4232,-997.4956 845.9619,-995.8187 847.1995,-1002.7084"/>
</g>
<!-- penge -->
<g id="node38" class="node">
<title>penge</title>
<ellipse fill="none" stroke="#000000" cx="519.3736" cy="-1073.0235" rx="35.3216" ry="18"/>
<text text-anchor="middle" x="519.3736" y="-1068.8235" font-family="Times,serif" font-size="14.00" fill="#000000">Money</text>
</g>
<!-- magi2&#45;&gt;penge -->
<g id="edge60" class="edge">
<title>magi2&#45;&gt;penge</title>
<path fill="none" stroke="#000000" stroke-dasharray="1,5" d="M535.1826,-1127.2258C532.8353,-1119.1776 530.0075,-1109.4823 527.3964,-1100.5302"/>
<polygon fill="#000000" stroke="#000000" points="530.7378,-1099.486 524.5777,-1090.8661 524.0178,-1101.4461 530.7378,-1099.486"/>
</g>
<!-- rejser -->
<g id="node39" class="node">
<title>rejser</title>
<ellipse fill="#00ff00" stroke="#000000" cx="156.3736" cy="-1073.0235" rx="41.1266" ry="18"/>
<text text-anchor="middle" x="156.3736" y="-1068.8235" font-family="Times,serif" font-size="14.00" fill="#000000">Mobility</text>
</g>
<!-- magi2&#45;&gt;rejser -->
<g id="edge67" class="edge">
<title>magi2&#45;&gt;rejser</title>
<path fill="none" stroke="#000000" stroke-dasharray="1,5" d="M514.2817,-1140.1313C450.5814,-1128.1875 286.358,-1097.3956 204.392,-1082.027"/>
<polygon fill="#000000" stroke="#000000" points="204.8144,-1078.5453 194.3407,-1080.1423 203.5244,-1085.4254 204.8144,-1078.5453"/>
</g>
<!-- faa_ting_gjort -->
<g id="node40" class="node">
<title>faa_ting_gjort</title>
<ellipse fill="none" stroke="#000000" cx="626.3736" cy="-906.656" rx="75.0675" ry="18"/>
<text text-anchor="middle" x="626.3736" y="-902.456" font-family="Times,serif" font-size="14.00" fill="#000000">Can get stuff done</text>
</g>
<!-- magi2&#45;&gt;faa_ting_gjort -->
<g id="edge70" class="edge">
<title>magi2&#45;&gt;faa_ting_gjort</title>
<path fill="none" stroke="#000000" stroke-dasharray="1,5" d="M551.5397,-1128.292C566.6229,-1104.8782 593.2419,-1060.5365 607.3736,-1019.0235 616.7858,-991.3746 621.6609,-958.2485 624.1017,-935.1558"/>
<polygon fill="#000000" stroke="#000000" points="627.6049,-935.2919 625.0866,-925.0007 620.6376,-934.6162 627.6049,-935.2919"/>
</g>
<!-- magi3&#45;&gt;magi4 -->
<g id="edge56" class="edge">
<title>magi3&#45;&gt;magi4</title>
<path fill="none" stroke="#000000" d="M672.7862,-1132.3171C690.1156,-1120.9742 715.7054,-1104.2245 735.2708,-1091.4181"/>
<polygon fill="#000000" stroke="#000000" points="737.3349,-1094.2502 743.7851,-1085.8451 733.5013,-1088.3933 737.3349,-1094.2502"/>
</g>
<!-- magi3&#45;&gt;penge -->
<g id="edge64" class="edge">
<title>magi3&#45;&gt;penge</title>
<path fill="none" stroke="#000000" stroke-dasharray="1,5" d="M632.1409,-1133.6149C610.8083,-1122.1526 577.6181,-1104.319 552.7597,-1090.9623"/>
<polygon fill="#000000" stroke="#000000" points="554.1481,-1087.7351 543.6825,-1086.085 550.8348,-1093.9013 554.1481,-1087.7351"/>
</g>
<!-- helbred&#45;&gt;ehic -->
<g id="edge63" class="edge">
<title>helbred&#45;&gt;ehic</title>
<path fill="none" stroke="#000000" d="M910.0149,-979.216C926.5921,-967.6899 950.4405,-951.1083 971.1559,-936.705"/>
<polygon fill="#000000" stroke="#000000" points="973.3002,-939.477 979.5126,-930.8946 969.3041,-933.7297 973.3002,-939.477"/>
</g>
<!-- helbred&#45;&gt;doctor -->
<g id="edge62" class="edge">
<title>helbred&#45;&gt;doctor</title>
<path fill="none" stroke="#000000" d="M920.4295,-986.246C967.0524,-975.1486 1057.8341,-953.1301 1134.3736,-932.1118 1264.5337,-896.369 1297.038,-887.0231 1425.3736,-845.2001 1431.0265,-843.3579 1436.9083,-841.38 1442.7653,-839.3705"/>
<polygon fill="#000000" stroke="#000000" points="1444.252,-842.5595 1452.554,-835.9771 1441.9592,-835.9456 1444.252,-842.5595"/>
</g>
<!-- penge&#45;&gt;spend_lovely_dkk -->
<g id="edge65" class="edge">
<title>penge&#45;&gt;spend_lovely_dkk</title>
<path fill="none" stroke="#000000" d="M514.8353,-1054.9938C512.347,-1045.1081 509.2078,-1032.6368 506.4092,-1021.5185"/>
<polygon fill="#000000" stroke="#000000" points="509.7984,-1020.6443 503.9632,-1011.8011 503.0102,-1022.353 509.7984,-1020.6443"/>
</g>
<!-- penge&#45;&gt;mobilepay -->
<g id="edge66" class="edge">
<title>penge&#45;&gt;mobilepay</title>
<path fill="none" stroke="#000000" d="M485.1167,-1068.365C455.2814,-1062.3713 413.4442,-1048.8982 391.3736,-1019.0235 333.8836,-941.205 344.4467,-818.807 354.2652,-758.6838"/>
<polygon fill="#000000" stroke="#000000" points="357.7622,-758.9998 356.0108,-748.5508 350.8638,-757.8114 357.7622,-758.9998"/>
</g>
<!-- rejser&#45;&gt;rejsekort -->
<g id="edge69" class="edge">
<title>rejser&#45;&gt;rejsekort</title>
<path fill="none" stroke="#000000" d="M137.7561,-1056.9444C126.6077,-1047.3162 112.0857,-1034.7742 98.9054,-1023.391"/>
<polygon fill="#000000" stroke="#000000" points="101.1916,-1020.7409 91.3357,-1016.8535 96.6162,-1026.0386 101.1916,-1020.7409"/>
</g>
<!-- rejser&#45;&gt;pendlerkort -->
<g id="edge68" class="edge">
<title>rejser&#45;&gt;pendlerkort</title>
<path fill="none" stroke="#000000" d="M156.3736,-1054.5594C156.3736,-1023.8599 156.3736,-960.3788 156.3736,-906.656 156.3736,-906.656 156.3736,-906.656 156.3736,-616.2224 156.3736,-560.8016 146.57,-497.1308 139.4943,-458.3943"/>
<polygon fill="#000000" stroke="#000000" points="142.8587,-457.3443 137.5813,-448.1574 135.9778,-458.6302 142.8587,-457.3443"/>
</g>
<!-- faa_ting_gjort&#45;&gt;activated_nemid -->
<g id="edge71" class="edge">
<title>faa_ting_gjort&#45;&gt;activated_nemid</title>
<path fill="none" stroke="#000000" d="M671.7605,-892.2067C715.8246,-878.1786 783.2018,-856.7285 833.2284,-840.8022"/>
<polygon fill="#000000" stroke="#000000" points="834.5233,-844.0631 842.9903,-837.6944 832.3997,-837.3929 834.5233,-844.0631"/>
</g>
<!-- faa_ting_gjort&#45;&gt;danish_lessions -->
<g id="edge72" class="edge">
<title>faa_ting_gjort&#45;&gt;danish_lessions</title>
<path fill="none" stroke="#000000" d="M622.2296,-888.6478C619.4944,-876.7615 615.8566,-860.9532 612.7554,-847.4768"/>
<polygon fill="#000000" stroke="#000000" points="616.1659,-846.6898 610.5124,-837.7294 609.3441,-848.2596 616.1659,-846.6898"/>
</g>
</g>
</svg>
