<?xml version="1.0" encoding="UTF-8" standalone="no"?>
<!DOCTYPE svg PUBLIC "-//W3C//DTD SVG 1.1//EN"
 "http://www.w3.org/Graphics/SVG/1.1/DTD/svg11.dtd">
<!-- Generated by graphviz version 2.40.1 (20161225.0304)
 -->
<!-- Title: g Pages: 1 -->
<svg width="1563pt" height="1338pt"
 viewBox="0.00 0.00 1562.88 1337.73" xmlns="http://www.w3.org/2000/svg" xmlns:xlink="http://www.w3.org/1999/xlink">
<g id="graph0" class="graph" transform="scale(1 1) rotate(0) translate(4 1333.7316)">
<title>g</title>
<polygon fill="#ffffff" stroke="transparent" points="-4,4 -4,-1333.7316 1558.8786,-1333.7316 1558.8786,4 -4,4"/>
<!-- job -->
<g id="node1" class="node">
<title>job</title>
<ellipse fill="#00ff00" stroke="#000000" cx="337.3736" cy="-25.4558" rx="57.5098" ry="25.4118"/>
<text text-anchor="middle" x="337.3736" y="-28.2558" font-family="Times,serif" font-size="14.00" fill="#000000">A job</text>
<text text-anchor="middle" x="337.3736" y="-14.2558" font-family="Times,serif" font-size="14.00" fill="#000000">2018&#45;10&#45;19</text>
</g>
<!-- proof_of_work -->
<g id="node2" class="node">
<title>proof_of_work</title>
<ellipse fill="#00ff00" stroke="#000000" cx="456.3736" cy="-122.267" rx="66.707" ry="25.4118"/>
<text text-anchor="middle" x="456.3736" y="-125.067" font-family="Times,serif" font-size="14.00" fill="#000000">Proof of work</text>
<text text-anchor="middle" x="456.3736" y="-111.067" font-family="Times,serif" font-size="14.00" fill="#000000">2019&#45;01&#45;22</text>
</g>
<!-- proof_of_work&#45;&gt;job -->
<g id="edge1" class="edge">
<title>proof_of_work&#45;&gt;job</title>
<path fill="none" stroke="#000000" d="M427.8702,-99.0783C411.4129,-85.6897 390.5663,-68.7301 373.0303,-54.464"/>
<polygon fill="#000000" stroke="#000000" points="375.1999,-51.7171 365.2339,-48.1213 370.7824,-57.1471 375.1999,-51.7171"/>
</g>
<!-- passport -->
<g id="node3" class="node">
<title>passport</title>
<ellipse fill="#00ff00" stroke="#000000" cx="586.3736" cy="-122.267" rx="44.7298" ry="25.4118"/>
<text text-anchor="middle" x="586.3736" y="-125.067" font-family="Times,serif" font-size="14.00" fill="#000000">Passport</text>
<text text-anchor="middle" x="586.3736" y="-111.067" font-family="Times,serif" font-size="14.00" fill="#000000">2015</text>
</g>
<!-- danish_phone_number -->
<g id="node4" class="node">
<title>danish_phone_number</title>
<ellipse fill="#00ff00" stroke="#000000" cx="345.3736" cy="-519.4113" rx="98.9836" ry="25.4118"/>
<text text-anchor="middle" x="345.3736" y="-522.2113" font-family="Times,serif" font-size="14.00" fill="#000000">Danish phone number</text>
<text text-anchor="middle" x="345.3736" y="-508.2113" font-family="Times,serif" font-size="14.00" fill="#000000">2019&#45;01&#45;17</text>
</g>
<!-- rejsekort -->
<g id="node5" class="node">
<title>rejsekort</title>
<ellipse fill="#00ff00" stroke="#000000" cx="64.3736" cy="-993.5677" rx="64.2475" ry="25.4118"/>
<text text-anchor="middle" x="64.3736" y="-996.3677" font-family="Times,serif" font-size="14.00" fill="#000000">Rejsekort</text>
<text text-anchor="middle" x="64.3736" y="-982.3677" font-family="Times,serif" font-size="14.00" fill="#000000">2018&#45;10&#45;19 ?</text>
</g>
<!-- place_to_live -->
<g id="node6" class="node">
<title>place_to_live</title>
<ellipse fill="#00ff00" stroke="#000000" cx="1034.3736" cy="-25.4558" rx="68.5454" ry="25.4118"/>
<text text-anchor="middle" x="1034.3736" y="-28.2558" font-family="Times,serif" font-size="14.00" fill="#000000">A place to live</text>
<text text-anchor="middle" x="1034.3736" y="-14.2558" font-family="Times,serif" font-size="14.00" fill="#000000">2019&#45;01&#45;21</text>
</g>
<!-- name_on_postbox -->
<g id="node7" class="node">
<title>name_on_postbox</title>
<ellipse fill="#00ff00" stroke="#000000" cx="1082.3736" cy="-122.267" rx="66.9194" ry="35.2113"/>
<text text-anchor="middle" x="1082.3736" y="-132.067" font-family="Times,serif" font-size="14.00" fill="#000000">Your name on</text>
<text text-anchor="middle" x="1082.3736" y="-118.067" font-family="Times,serif" font-size="14.00" fill="#000000">your postbox</text>
<text text-anchor="middle" x="1082.3736" y="-104.067" font-family="Times,serif" font-size="14.00" fill="#000000">2019&#45;01&#45;22</text>
</g>
<!-- name_on_postbox&#45;&gt;place_to_live -->
<g id="edge2" class="edge">
<title>name_on_postbox&#45;&gt;place_to_live</title>
<path fill="none" stroke="#000000" d="M1065.3155,-87.8624C1060.7956,-78.7464 1055.9164,-68.9054 1051.3983,-59.7929"/>
<polygon fill="#000000" stroke="#000000" points="1054.4289,-58.0259 1046.851,-50.6214 1048.1574,-61.1354 1054.4289,-58.0259"/>
</g>
<!-- can_receive_post -->
<g id="node8" class="node">
<title>can_receive_post</title>
<ellipse fill="#00ff00" stroke="#000000" cx="1146.3736" cy="-228.9777" rx="99.6266" ry="25.4118"/>
<text text-anchor="middle" x="1146.3736" y="-231.7777" font-family="Times,serif" font-size="14.00" fill="#000000">Ability to receive post</text>
<text text-anchor="middle" x="1146.3736" y="-217.7777" font-family="Times,serif" font-size="14.00" fill="#000000">2019&#45;01&#45;22</text>
</g>
<!-- can_receive_post&#45;&gt;place_to_live -->
<g id="edge3" class="edge">
<title>can_receive_post&#45;&gt;place_to_live</title>
<path fill="none" stroke="#000000" d="M1157.1341,-203.4901C1168.061,-173.2835 1180.4933,-122.5617 1158.3736,-86.9117 1145.5716,-66.2787 1123.5523,-52.3587 1101.5884,-43.0672"/>
<polygon fill="#000000" stroke="#000000" points="1102.7924,-39.7796 1092.2057,-39.3623 1100.2215,-46.2905 1102.7924,-39.7796"/>
</g>
<!-- can_receive_post&#45;&gt;name_on_postbox -->
<g id="edge4" class="edge">
<title>can_receive_post&#45;&gt;name_on_postbox</title>
<path fill="none" stroke="#000000" d="M1131.2065,-203.6888C1124.2989,-192.1712 1115.9282,-178.2144 1108.0828,-165.1333"/>
<polygon fill="#000000" stroke="#000000" points="1110.9047,-163.0335 1102.7597,-156.2578 1104.9016,-166.6339 1110.9047,-163.0335"/>
</g>
<!-- pendlerkort -->
<g id="node9" class="node">
<title>pendlerkort</title>
<ellipse fill="#00ff00" stroke="#000000" cx="132.3736" cy="-422.6001" rx="57.5098" ry="25.4118"/>
<text text-anchor="middle" x="132.3736" y="-425.4001" font-family="Times,serif" font-size="14.00" fill="#000000">Pendlerkort</text>
<text text-anchor="middle" x="132.3736" y="-411.4001" font-family="Times,serif" font-size="14.00" fill="#000000">2019&#45;02&#45;05</text>
</g>
<!-- pendlerkort&#45;&gt;place_to_live -->
<g id="edge5" class="edge">
<title>pendlerkort&#45;&gt;place_to_live</title>
<path fill="none" stroke="#000000" d="M142.382,-397.1133C169.4141,-332.1124 250.7193,-160.1352 380.3736,-86.9117 429.4428,-59.1994 792.623,-37.6438 955.6049,-29.2585"/>
<polygon fill="#000000" stroke="#000000" points="956.2369,-32.7308 966.0453,-28.7252 955.8798,-25.7399 956.2369,-32.7308"/>
</g>
<!-- eu_residence_document_application -->
<g id="node10" class="node">
<title>eu_residence_document_application</title>
<ellipse fill="#00ff00" stroke="#000000" cx="785.3736" cy="-228.9777" rx="105.7427" ry="35.2113"/>
<text text-anchor="middle" x="785.3736" y="-238.7777" font-family="Times,serif" font-size="14.00" fill="#000000">Application for</text>
<text text-anchor="middle" x="785.3736" y="-224.7777" font-family="Times,serif" font-size="14.00" fill="#000000">EU residence document</text>
<text text-anchor="middle" x="785.3736" y="-210.7777" font-family="Times,serif" font-size="14.00" fill="#000000">2019&#45;01&#45;23</text>
</g>
<!-- eu_residence_document_application&#45;&gt;proof_of_work -->
<g id="edge7" class="edge">
<title>eu_residence_document_application&#45;&gt;proof_of_work</title>
<path fill="none" stroke="#000000" d="M699.0785,-208.3103C649.6526,-195.5655 586.8226,-177.8168 532.3736,-157.6224 523.7565,-154.4264 514.7656,-150.6555 506.1098,-146.7879"/>
<polygon fill="#000000" stroke="#000000" points="507.4328,-143.5445 496.8823,-142.5758 504.5259,-149.9124 507.4328,-143.5445"/>
</g>
<!-- eu_residence_document_application&#45;&gt;passport -->
<g id="edge8" class="edge">
<title>eu_residence_document_application&#45;&gt;passport</title>
<path fill="none" stroke="#000000" d="M722.2553,-200.3961C696.1857,-188.011 665.9161,-172.8705 639.3736,-157.6224 634.1511,-154.6221 628.7524,-151.2986 623.4887,-147.9251"/>
<polygon fill="#000000" stroke="#000000" points="625.0971,-144.7948 614.8127,-142.2487 621.2646,-150.6525 625.0971,-144.7948"/>
</g>
<!-- eu_residence_document_application&#45;&gt;place_to_live -->
<g id="edge6" class="edge">
<title>eu_residence_document_application&#45;&gt;place_to_live</title>
<path fill="none" stroke="#000000" d="M857.8487,-203.0444C882.7506,-191.7392 909.5677,-176.6534 930.3736,-157.6224 957.5141,-132.7973 950.7056,-115.878 973.3736,-86.9117 981.6344,-76.3557 991.5407,-65.6977 1000.9442,-56.2893"/>
<polygon fill="#000000" stroke="#000000" points="1003.6489,-58.539 1008.3367,-49.0377 998.747,-53.5418 1003.6489,-58.539"/>
</g>
<!-- od1_form -->
<g id="node11" class="node">
<title>od1_form</title>
<ellipse fill="#00ff00" stroke="#000000" cx="706.3736" cy="-122.267" rx="57.5098" ry="25.4118"/>
<text text-anchor="middle" x="706.3736" y="-125.067" font-family="Times,serif" font-size="14.00" fill="#000000">OD1 form</text>
<text text-anchor="middle" x="706.3736" y="-111.067" font-family="Times,serif" font-size="14.00" fill="#000000">2019&#45;01&#45;22</text>
</g>
<!-- eu_residence_document_application&#45;&gt;od1_form -->
<g id="edge9" class="edge">
<title>eu_residence_document_application&#45;&gt;od1_form</title>
<path fill="none" stroke="#000000" d="M759.9427,-194.6264C750.5607,-181.9535 739.9606,-167.6352 730.6805,-155.0999"/>
<polygon fill="#000000" stroke="#000000" points="733.261,-152.7033 724.4978,-146.7486 727.6349,-156.8684 733.261,-152.7033"/>
</g>
<!-- passport_photo -->
<g id="node12" class="node">
<title>passport_photo</title>
<ellipse fill="#00ff00" stroke="#000000" cx="851.3736" cy="-122.267" rx="69.7781" ry="25.4118"/>
<text text-anchor="middle" x="851.3736" y="-125.067" font-family="Times,serif" font-size="14.00" fill="#000000">Passport photo</text>
<text text-anchor="middle" x="851.3736" y="-111.067" font-family="Times,serif" font-size="14.00" fill="#000000">2019&#45;01&#45;23</text>
</g>
<!-- eu_residence_document_application&#45;&gt;passport_photo -->
<g id="edge10" class="edge">
<title>eu_residence_document_application&#45;&gt;passport_photo</title>
<path fill="none" stroke="#000000" d="M806.802,-194.3318C814.4346,-181.9911 823.0129,-168.1215 830.5905,-155.8698"/>
<polygon fill="#000000" stroke="#000000" points="833.62,-157.6255 835.9035,-147.2796 827.6666,-153.9433 833.62,-157.6255"/>
</g>
<!-- eu_residence_document -->
<g id="node13" class="node">
<title>eu_residence_document</title>
<ellipse fill="#00ff00" stroke="#000000" cx="890.3736" cy="-325.7889" rx="105.7427" ry="25.4118"/>
<text text-anchor="middle" x="890.3736" y="-328.5889" font-family="Times,serif" font-size="14.00" fill="#000000">EU residence document</text>
<text text-anchor="middle" x="890.3736" y="-314.5889" font-family="Times,serif" font-size="14.00" fill="#000000">2019&#45;01&#45;31</text>
</g>
<!-- eu_residence_document&#45;&gt;can_receive_post -->
<g id="edge12" class="edge">
<title>eu_residence_document&#45;&gt;can_receive_post</title>
<path fill="none" stroke="#000000" d="M947.1883,-304.3033C986.8195,-289.3161 1039.8,-269.2805 1081.1574,-253.6405"/>
<polygon fill="#000000" stroke="#000000" points="1082.4831,-256.8811 1090.5986,-250.0701 1080.007,-250.3336 1082.4831,-256.8811"/>
</g>
<!-- eu_residence_document&#45;&gt;eu_residence_document_application -->
<g id="edge11" class="edge">
<title>eu_residence_document&#45;&gt;eu_residence_document_application</title>
<path fill="none" stroke="#ff0000" d="M863.606,-301.1088C853.1393,-291.4584 840.8596,-280.1364 829.1718,-269.3601"/>
<polygon fill="#ff0000" stroke="#ff0000" points="831.3262,-266.5858 821.6017,-262.3804 826.5812,-271.7322 831.3262,-266.5858"/>
</g>
<!-- cpr_number_application -->
<g id="node14" class="node">
<title>cpr_number_application</title>
<ellipse fill="#00ff00" stroke="#000000" cx="690.3736" cy="-422.6001" rx="72.138" ry="35.2113"/>
<text text-anchor="middle" x="690.3736" y="-432.4001" font-family="Times,serif" font-size="14.00" fill="#000000">Application for</text>
<text text-anchor="middle" x="690.3736" y="-418.4001" font-family="Times,serif" font-size="14.00" fill="#000000">CPR number</text>
<text text-anchor="middle" x="690.3736" y="-404.4001" font-family="Times,serif" font-size="14.00" fill="#000000">2019&#45;02&#45;06</text>
</g>
<!-- cpr_number_application&#45;&gt;proof_of_work -->
<g id="edge14" class="edge">
<title>cpr_number_application&#45;&gt;proof_of_work</title>
<path fill="none" stroke="#000000" d="M641.0918,-396.576C621.5111,-384.5926 599.7898,-369.0608 583.3736,-351.2447 554.6187,-320.0376 500.2579,-212.5625 472.9336,-156.6611"/>
<polygon fill="#000000" stroke="#000000" points="475.9981,-154.9599 468.473,-147.5018 469.7047,-158.0248 475.9981,-154.9599"/>
</g>
<!-- cpr_number_application&#45;&gt;passport -->
<g id="edge16" class="edge">
<title>cpr_number_application&#45;&gt;passport</title>
<path fill="none" stroke="#000000" d="M644.9097,-395.1494C629.7362,-383.5713 614.4073,-368.6982 605.3736,-351.2447 573.2408,-289.1625 576.1977,-204.7751 581.2605,-157.7135"/>
<polygon fill="#000000" stroke="#000000" points="584.746,-158.0408 582.4311,-147.702 577.7934,-157.2278 584.746,-158.0408"/>
</g>
<!-- cpr_number_application&#45;&gt;eu_residence_document -->
<g id="edge13" class="edge">
<title>cpr_number_application&#45;&gt;eu_residence_document</title>
<path fill="none" stroke="#000000" d="M741.8786,-397.6688C770.0765,-384.0194 805.0623,-367.0843 833.9912,-353.0812"/>
<polygon fill="#000000" stroke="#000000" points="835.6786,-356.1529 843.1546,-348.6456 832.6287,-349.8523 835.6786,-356.1529"/>
</g>
<!-- proof_of_address -->
<g id="node15" class="node">
<title>proof_of_address</title>
<ellipse fill="#00ff00" stroke="#000000" cx="690.3736" cy="-325.7889" rx="76.3945" ry="25.4118"/>
<text text-anchor="middle" x="690.3736" y="-328.5889" font-family="Times,serif" font-size="14.00" fill="#000000">Proof of address</text>
<text text-anchor="middle" x="690.3736" y="-314.5889" font-family="Times,serif" font-size="14.00" fill="#000000">2019&#45;01&#45;21</text>
</g>
<!-- cpr_number_application&#45;&gt;proof_of_address -->
<g id="edge15" class="edge">
<title>cpr_number_application&#45;&gt;proof_of_address</title>
<path fill="none" stroke="#000000" d="M690.3736,-387.1009C690.3736,-378.7532 690.3736,-369.8531 690.3736,-361.4964"/>
<polygon fill="#000000" stroke="#000000" points="693.8737,-361.2842 690.3736,-351.2842 686.8737,-361.2843 693.8737,-361.2842"/>
</g>
<!-- proof_of_address&#45;&gt;place_to_live -->
<g id="edge21" class="edge">
<title>proof_of_address&#45;&gt;place_to_live</title>
<path fill="none" stroke="#000000" d="M747.0441,-308.7264C756.4993,-305.9057 766.21,-303.0247 775.3736,-300.333 830.8439,-284.0397 854.4211,-299.4155 900.3736,-264.333 918.5284,-250.4728 984.914,-122.8579 1016.9061,-60.0493"/>
<polygon fill="#000000" stroke="#000000" points="1020.1388,-61.4135 1021.5499,-50.913 1013.8987,-58.2416 1020.1388,-61.4135"/>
</g>
<!-- cpr_number -->
<g id="node16" class="node">
<title>cpr_number</title>
<ellipse fill="#00ff00" stroke="#000000" cx="780.3736" cy="-519.4113" rx="62.9806" ry="25.4118"/>
<text text-anchor="middle" x="780.3736" y="-522.2113" font-family="Times,serif" font-size="14.00" fill="#000000">CPR number</text>
<text text-anchor="middle" x="780.3736" y="-508.2113" font-family="Times,serif" font-size="14.00" fill="#000000">2019&#45;02&#45;06</text>
</g>
<!-- cpr_number&#45;&gt;can_receive_post -->
<g id="edge18" class="edge">
<title>cpr_number&#45;&gt;can_receive_post</title>
<path fill="none" stroke="#000000" d="M828.3799,-503.0044C856.6171,-492.2741 892.3581,-476.7684 921.3736,-457.9554 1006.0288,-403.0669 1083.4682,-311.3069 1121.5655,-262.2686"/>
<polygon fill="#000000" stroke="#000000" points="1124.4488,-264.2609 1127.7762,-254.2022 1118.9023,-259.9904 1124.4488,-264.2609"/>
</g>
<!-- cpr_number&#45;&gt;cpr_number_application -->
<g id="edge17" class="edge">
<title>cpr_number&#45;&gt;cpr_number_application</title>
<path fill="none" stroke="#ff0000" d="M758.1265,-495.4804C748.9064,-485.5626 737.957,-473.7846 727.5783,-462.6204"/>
<polygon fill="#ff0000" stroke="#ff0000" points="729.8846,-459.9608 720.5125,-455.0198 724.7578,-464.7269 729.8846,-459.9608"/>
</g>
<!-- cpr_card -->
<g id="node17" class="node">
<title>cpr_card</title>
<ellipse fill="#00ff00" stroke="#000000" cx="1208.3736" cy="-616.2224" rx="78.9044" ry="25.4118"/>
<text text-anchor="middle" x="1208.3736" y="-619.0224" font-family="Times,serif" font-size="14.00" fill="#000000">CPR yellow card</text>
<text text-anchor="middle" x="1208.3736" y="-605.0224" font-family="Times,serif" font-size="14.00" fill="#000000">2019&#45;02&#45;??</text>
</g>
<!-- cpr_card&#45;&gt;can_receive_post -->
<g id="edge20" class="edge">
<title>cpr_card&#45;&gt;can_receive_post</title>
<path fill="none" stroke="#000000" d="M1204.2576,-590.5143C1193.4862,-523.2371 1164.448,-341.8681 1152.0788,-264.6115"/>
<polygon fill="#000000" stroke="#000000" points="1155.4847,-263.7448 1150.4477,-254.4239 1148.5727,-264.8515 1155.4847,-263.7448"/>
</g>
<!-- cpr_card&#45;&gt;cpr_number -->
<g id="edge19" class="edge">
<title>cpr_card&#45;&gt;cpr_number</title>
<path fill="none" stroke="#000000" d="M1160.1821,-595.9951C1145.9319,-590.5358 1130.1801,-585.0026 1115.3736,-580.8671 1025.4517,-555.7517 919.015,-538.2389 850.6428,-528.5047"/>
<polygon fill="#000000" stroke="#000000" points="850.8115,-524.994 840.4215,-527.0671 849.8365,-531.9258 850.8115,-524.994"/>
</g>
<!-- skattekort -->
<g id="node18" class="node">
<title>skattekort</title>
<ellipse fill="#00ff00" stroke="#000000" cx="762.3736" cy="-819.7443" rx="57.5098" ry="25.4118"/>
<text text-anchor="middle" x="762.3736" y="-822.5443" font-family="Times,serif" font-size="14.00" fill="#000000">Skattekort</text>
<text text-anchor="middle" x="762.3736" y="-808.5443" font-family="Times,serif" font-size="14.00" fill="#000000">2019&#45;02&#45;07</text>
</g>
<!-- skattekort&#45;&gt;cpr_number -->
<g id="edge22" class="edge">
<title>skattekort&#45;&gt;cpr_number</title>
<path fill="none" stroke="#000000" stroke-dasharray="1,5" d="M742.0703,-795.6768C734.3033,-784.9476 726.3577,-771.7131 722.3736,-758.2885 713.4324,-728.1603 717.1788,-718.5724 722.3736,-687.5778 730.3885,-639.7575 750.3877,-587.3412 764.6569,-553.9525"/>
<polygon fill="#000000" stroke="#000000" points="767.9263,-555.2105 768.698,-544.6438 761.5052,-552.423 767.9263,-555.2105"/>
</g>
<!-- nemid_application -->
<g id="node19" class="node">
<title>nemid_application</title>
<ellipse fill="#00ff00" stroke="#000000" cx="902.3736" cy="-616.2224" rx="72.138" ry="35.2113"/>
<text text-anchor="middle" x="902.3736" y="-626.0224" font-family="Times,serif" font-size="14.00" fill="#000000">Application for</text>
<text text-anchor="middle" x="902.3736" y="-612.0224" font-family="Times,serif" font-size="14.00" fill="#000000">Nemid</text>
<text text-anchor="middle" x="902.3736" y="-598.0224" font-family="Times,serif" font-size="14.00" fill="#000000">2019&#45;02&#45;06</text>
</g>
<!-- nemid_application&#45;&gt;cpr_number -->
<g id="edge23" class="edge">
<title>nemid_application&#45;&gt;cpr_number</title>
<path fill="none" stroke="#000000" d="M864.4408,-586.1215C849.3321,-574.1321 832.0092,-560.3858 817.0294,-548.4988"/>
<polygon fill="#000000" stroke="#000000" points="818.9862,-545.5836 808.9772,-542.1092 814.635,-551.0669 818.9862,-545.5836"/>
</g>
<!-- nemid_userid -->
<g id="node20" class="node">
<title>nemid_userid</title>
<ellipse fill="#00ff00" stroke="#000000" cx="804.3736" cy="-722.9331" rx="72.7816" ry="25.4118"/>
<text text-anchor="middle" x="804.3736" y="-725.7331" font-family="Times,serif" font-size="14.00" fill="#000000">NemID user ID</text>
<text text-anchor="middle" x="804.3736" y="-711.7331" font-family="Times,serif" font-size="14.00" fill="#000000">2019&#45;02&#45;06</text>
</g>
<!-- nemid_userid&#45;&gt;nemid_application -->
<g id="edge24" class="edge">
<title>nemid_userid&#45;&gt;nemid_application</title>
<path fill="none" stroke="#000000" d="M826.8568,-698.4515C838.3,-685.9912 852.5043,-670.5244 865.4956,-656.3784"/>
<polygon fill="#000000" stroke="#000000" points="868.3767,-658.4156 872.5629,-648.6829 863.221,-653.6807 868.3767,-658.4156"/>
</g>
<!-- danish_bank_account -->
<g id="node21" class="node">
<title>danish_bank_account</title>
<ellipse fill="#00ff00" stroke="#000000" cx="467.3736" cy="-616.2224" rx="94.1666" ry="25.4118"/>
<text text-anchor="middle" x="467.3736" y="-619.0224" font-family="Times,serif" font-size="14.00" fill="#000000">Danish bank account</text>
<text text-anchor="middle" x="467.3736" y="-605.0224" font-family="Times,serif" font-size="14.00" fill="#000000">2019&#45;02&#45;07</text>
</g>
<!-- danish_bank_account&#45;&gt;proof_of_work -->
<g id="edge26" class="edge">
<title>danish_bank_account&#45;&gt;proof_of_work</title>
<path fill="none" stroke="#000000" d="M468.4586,-590.5456C469.9291,-553.472 472.3736,-482.791 472.3736,-422.6001 472.3736,-422.6001 472.3736,-422.6001 472.3736,-325.7889 472.3736,-266.7748 465.605,-198.4304 460.8726,-157.858"/>
<polygon fill="#000000" stroke="#000000" points="464.347,-157.4343 459.6889,-147.9185 457.3961,-158.2622 464.347,-157.4343"/>
</g>
<!-- danish_bank_account&#45;&gt;passport -->
<g id="edge27" class="edge">
<title>danish_bank_account&#45;&gt;passport</title>
<path fill="none" stroke="#000000" d="M473.8655,-590.8128C477.3235,-577.1967 481.6253,-560.1282 485.3736,-544.8671 520.6164,-401.3807 561.0544,-230.0742 578.1071,-157.5134"/>
<polygon fill="#000000" stroke="#000000" points="581.5705,-158.0747 580.45,-147.5392 574.756,-156.4739 581.5705,-158.0747"/>
</g>
<!-- danish_bank_account&#45;&gt;danish_phone_number -->
<g id="edge28" class="edge">
<title>danish_bank_account&#45;&gt;danish_phone_number</title>
<path fill="none" stroke="#000000" d="M436.9026,-592.0426C421.0117,-579.4326 401.3966,-563.8674 384.4058,-550.3846"/>
<polygon fill="#000000" stroke="#000000" points="386.3125,-547.4296 376.3035,-543.9552 381.9613,-552.9129 386.3125,-547.4296"/>
</g>
<!-- danish_bank_account&#45;&gt;cpr_number -->
<g id="edge25" class="edge">
<title>danish_bank_account&#45;&gt;cpr_number</title>
<path fill="none" stroke="#000000" d="M526.9874,-596.4106C542.6994,-591.2702 559.6543,-585.7954 575.3736,-580.8671 623.6843,-565.7207 678.6468,-549.2867 719.4922,-537.2271"/>
<polygon fill="#000000" stroke="#000000" points="720.6941,-540.5218 729.296,-534.3365 718.7144,-533.8075 720.6941,-540.5218"/>
</g>
<!-- activated_nemid -->
<g id="node22" class="node">
<title>activated_nemid</title>
<ellipse fill="#00ff00" stroke="#000000" cx="917.3736" cy="-819.7443" rx="79.427" ry="25.4118"/>
<text text-anchor="middle" x="917.3736" y="-822.5443" font-family="Times,serif" font-size="14.00" fill="#000000">Activated Nemid</text>
<text text-anchor="middle" x="917.3736" y="-808.5443" font-family="Times,serif" font-size="14.00" fill="#000000">2019&#45;02&#45;19</text>
</g>
<!-- activated_nemid&#45;&gt;danish_phone_number -->
<g id="edge30" class="edge">
<title>activated_nemid&#45;&gt;danish_phone_number</title>
<path fill="none" stroke="#000000" d="M861.4615,-801.6298C850.8966,-798.762 839.8678,-796.1373 829.3736,-794.2885 770.6984,-783.9513 335.0635,-801.8083 294.3736,-758.2885 241.6434,-701.8908 289.7136,-604.8868 321.8763,-553.5618"/>
<polygon fill="#000000" stroke="#000000" points="325.0234,-555.1376 327.4723,-544.8296 319.1298,-551.3607 325.0234,-555.1376"/>
</g>
<!-- activated_nemid&#45;&gt;nemid_userid -->
<g id="edge29" class="edge">
<title>activated_nemid&#45;&gt;nemid_userid</title>
<path fill="none" stroke="#000000" d="M889.4411,-795.8134C874.3886,-782.9175 855.6652,-766.8764 839.6192,-753.1292"/>
<polygon fill="#000000" stroke="#000000" points="841.8562,-750.4369 831.9849,-746.5887 837.3019,-755.7528 841.8562,-750.4369"/>
</g>
<!-- noglekort -->
<g id="node23" class="node">
<title>noglekort</title>
<ellipse fill="#00ff00" stroke="#000000" cx="1237.3736" cy="-722.9331" rx="69.7588" ry="35.2113"/>
<text text-anchor="middle" x="1237.3736" y="-732.7331" font-family="Times,serif" font-size="14.00" fill="#000000">Nøglekort</text>
<text text-anchor="middle" x="1237.3736" y="-718.7331" font-family="Times,serif" font-size="14.00" fill="#000000">2019&#45;02&#45;06</text>
<text text-anchor="middle" x="1237.3736" y="-704.7331" font-family="Times,serif" font-size="14.00" fill="#000000">og 2019&#45;02&#45;07</text>
</g>
<!-- activated_nemid&#45;&gt;noglekort -->
<g id="edge31" class="edge">
<title>activated_nemid&#45;&gt;noglekort</title>
<path fill="none" stroke="#000000" d="M984.2544,-805.9232C1033.1324,-795.0454 1100.6764,-778.3898 1158.3736,-758.2885 1164.4264,-756.1797 1170.6555,-753.7921 1176.834,-751.2771"/>
<polygon fill="#000000" stroke="#000000" points="1178.5973,-754.3332 1186.4689,-747.2419 1175.8931,-747.8766 1178.5973,-754.3332"/>
</g>
<!-- midlertidlig_nemid_adgangskode -->
<g id="node24" class="node">
<title>midlertidlig_nemid_adgangskode</title>
<ellipse fill="#00ff00" stroke="#000000" cx="1022.3736" cy="-722.9331" rx="126.7645" ry="25.4118"/>
<text text-anchor="middle" x="1022.3736" y="-725.7331" font-family="Times,serif" font-size="14.00" fill="#000000">Temporary NemID password</text>
<text text-anchor="middle" x="1022.3736" y="-711.7331" font-family="Times,serif" font-size="14.00" fill="#000000">2019&#45;02&#45;19</text>
</g>
<!-- activated_nemid&#45;&gt;midlertidlig_nemid_adgangskode -->
<g id="edge32" class="edge">
<title>activated_nemid&#45;&gt;midlertidlig_nemid_adgangskode</title>
<path fill="none" stroke="#000000" d="M943.5987,-795.5645C956.9242,-783.2783 973.2924,-768.1866 987.6496,-754.9491"/>
<polygon fill="#000000" stroke="#000000" points="990.4074,-757.1671 995.3868,-747.8153 985.6624,-752.0207 990.4074,-757.1671"/>
</g>
<!-- noglekort&#45;&gt;can_receive_post -->
<g id="edge35" class="edge">
<title>noglekort&#45;&gt;can_receive_post</title>
<path fill="none" stroke="#000000" stroke-dasharray="1,5" d="M1284.6265,-696.3465C1301.2407,-684.6963 1318.4689,-669.55 1329.3736,-651.5778 1360.3428,-600.5371 1353.3736,-579.1126 1353.3736,-519.4113 1353.3736,-519.4113 1353.3736,-519.4113 1353.3736,-422.6001 1353.3736,-367.2222 1364.8971,-342.8159 1329.3736,-300.333 1306.677,-273.1899 1272.3168,-256.3276 1239.476,-245.8712"/>
<polygon fill="#000000" stroke="#000000" points="1240.3923,-242.4919 1229.8077,-242.9582 1238.3728,-249.1943 1240.3923,-242.4919"/>
</g>
<!-- noglekort&#45;&gt;nemid_application -->
<g id="edge33" class="edge">
<title>noglekort&#45;&gt;nemid_application</title>
<path fill="none" stroke="#ff0000" stroke-dasharray="1,5" d="M1185.9821,-698.6105C1176.8798,-694.6839 1167.4194,-690.842 1158.3736,-687.5778 1098.4393,-665.9498 1028.6703,-646.8914 977.1186,-633.9241"/>
<polygon fill="#ff0000" stroke="#ff0000" points="977.9358,-630.5207 967.3857,-631.4937 976.2399,-637.3122 977.9358,-630.5207"/>
</g>
<!-- midlertidlig_nemid_adgangskode&#45;&gt;can_receive_post -->
<g id="edge36" class="edge">
<title>midlertidlig_nemid_adgangskode&#45;&gt;can_receive_post</title>
<path fill="none" stroke="#000000" stroke-dasharray="1,5" d="M1100.1188,-702.7205C1181.0899,-681.6642 1296.2674,-651.6966 1296.3736,-651.5778 1335.9225,-607.3323 1315.3736,-578.7558 1315.3736,-519.4113 1315.3736,-519.4113 1315.3736,-519.4113 1315.3736,-422.6001 1315.3736,-349.4203 1246.0061,-290.5348 1196.1545,-257.665"/>
<polygon fill="#000000" stroke="#000000" points="1198.0168,-254.7013 1187.7157,-252.2238 1194.2234,-260.5844 1198.0168,-254.7013"/>
</g>
<!-- midlertidlig_nemid_adgangskode&#45;&gt;nemid_application -->
<g id="edge34" class="edge">
<title>midlertidlig_nemid_adgangskode&#45;&gt;nemid_application</title>
<path fill="none" stroke="#ff0000" stroke-dasharray="1,5" d="M994.239,-697.9142C979.594,-684.8911 961.3809,-668.695 945.0431,-654.1665"/>
<polygon fill="#ff0000" stroke="#ff0000" points="946.9958,-651.2192 937.1972,-647.1895 942.3441,-656.4501 946.9958,-651.2192"/>
</g>
<!-- ehic -->
<g id="node25" class="node">
<title>ehic</title>
<ellipse fill="#00ff00" stroke="#000000" cx="1027.3736" cy="-906.656" rx="110.6617" ry="25.4118"/>
<text text-anchor="middle" x="1027.3736" y="-909.456" font-family="Times,serif" font-size="14.00" fill="#000000">Danish EHIC (&#39;blåt kort&#39;)</text>
<text text-anchor="middle" x="1027.3736" y="-895.456" font-family="Times,serif" font-size="14.00" fill="#000000">2019&#45;02&#45;26</text>
</g>
<!-- ehic&#45;&gt;place_to_live -->
<g id="edge39" class="edge">
<title>ehic&#45;&gt;place_to_live</title>
<path fill="none" stroke="#000000" d="M1104.9038,-888.4408C1168.6804,-873.158 1250.8571,-852.6643 1265.3736,-845.2001 1340.6439,-806.4975 1411.3736,-807.5706 1411.3736,-722.9331 1411.3736,-722.9331 1411.3736,-722.9331 1411.3736,-228.9777 1411.3736,-93.9179 1221.7015,-48.0607 1111.4268,-32.8128"/>
<polygon fill="#000000" stroke="#000000" points="1111.7132,-29.3202 1101.3393,-31.4725 1110.7911,-36.2592 1111.7132,-29.3202"/>
</g>
<!-- ehic&#45;&gt;cpr_number -->
<g id="edge37" class="edge">
<title>ehic&#45;&gt;cpr_number</title>
<path fill="none" stroke="#000000" d="M1096.6457,-886.6611C1204.5808,-852.1735 1392.9702,-776.576 1316.3736,-687.5778 1281.3372,-646.8686 1126.902,-672.3559 1077.3736,-651.5778 1029.1656,-631.3536 1029.9965,-604.5177 983.3736,-580.8671 939.9908,-558.8601 887.3236,-543.2004 846.5073,-533.1976"/>
<polygon fill="#000000" stroke="#000000" points="847.205,-529.7658 836.6646,-530.8384 845.5733,-536.573 847.205,-529.7658"/>
</g>
<!-- ehic&#45;&gt;activated_nemid -->
<g id="edge38" class="edge">
<title>ehic&#45;&gt;activated_nemid</title>
<path fill="none" stroke="#000000" d="M996.1463,-881.9831C983.5222,-872.0087 968.8291,-860.3996 955.5756,-849.9279"/>
<polygon fill="#000000" stroke="#000000" points="957.557,-847.0328 947.5407,-843.5795 953.2173,-852.5253 957.557,-847.0328"/>
</g>
<!-- doctor -->
<g id="node26" class="node">
<title>doctor</title>
<ellipse fill="#00ff00" stroke="#000000" cx="1497.3736" cy="-819.7443" rx="57.5098" ry="25.4118"/>
<text text-anchor="middle" x="1497.3736" y="-822.5443" font-family="Times,serif" font-size="14.00" fill="#000000">Doctor</text>
<text text-anchor="middle" x="1497.3736" y="-808.5443" font-family="Times,serif" font-size="14.00" fill="#000000">2019&#45;02&#45;06</text>
</g>
<!-- doctor&#45;&gt;cpr_number -->
<g id="edge40" class="edge">
<title>doctor&#45;&gt;cpr_number</title>
<path fill="none" stroke="#000000" d="M1478.2202,-795.6496C1452.4479,-765.0758 1403.5426,-713.2409 1349.3736,-687.5778 1256.2663,-643.4672 1205.9732,-708.9139 1120.3736,-651.5778 1089.814,-631.1084 1107.4321,-602.0657 1077.3736,-580.8671 1041.5975,-555.6361 926.9901,-537.2536 851.0551,-527.468"/>
<polygon fill="#000000" stroke="#000000" points="851.4325,-523.9879 841.0716,-526.2021 850.5519,-530.9323 851.4325,-523.9879"/>
</g>
<!-- get_paid -->
<g id="node27" class="node">
<title>get_paid</title>
<ellipse fill="#00ff00" stroke="#000000" cx="447.3736" cy="-906.656" rx="57.5098" ry="25.4118"/>
<text text-anchor="middle" x="447.3736" y="-909.456" font-family="Times,serif" font-size="14.00" fill="#000000">Get paid</text>
<text text-anchor="middle" x="447.3736" y="-895.456" font-family="Times,serif" font-size="14.00" fill="#000000">2019&#45;02&#45;28</text>
</g>
<!-- get_paid&#45;&gt;job -->
<g id="edge41" class="edge">
<title>get_paid&#45;&gt;job</title>
<path fill="none" stroke="#000000" d="M399.6465,-892.2462C332.5332,-868.6833 218.3736,-815.0623 218.3736,-722.9331 218.3736,-722.9331 218.3736,-722.9331 218.3736,-228.9777 218.3736,-159.8135 270.2226,-93.2815 305.4716,-56.042"/>
<polygon fill="#000000" stroke="#000000" points="308.2813,-58.1714 312.7168,-48.5497 303.2492,-53.3053 308.2813,-58.1714"/>
</g>
<!-- get_paid&#45;&gt;skattekort -->
<g id="edge42" class="edge">
<title>get_paid&#45;&gt;skattekort</title>
<path fill="none" stroke="#000000" d="M499.8869,-895.7172C550.6488,-884.67 629.4822,-866.2624 696.3736,-845.2001 700.8946,-843.7766 705.5524,-842.2038 710.2031,-840.559"/>
<polygon fill="#000000" stroke="#000000" points="711.4922,-843.8145 719.6931,-837.1065 709.0991,-837.2362 711.4922,-843.8145"/>
</g>
<!-- get_paid&#45;&gt;danish_bank_account -->
<g id="edge43" class="edge">
<title>get_paid&#45;&gt;danish_bank_account</title>
<path fill="none" stroke="#000000" d="M449.131,-881.1365C452.7008,-829.2962 460.809,-711.5528 464.9061,-652.056"/>
<polygon fill="#000000" stroke="#000000" points="468.4035,-652.2128 465.5988,-641.996 461.42,-651.7319 468.4035,-652.2128"/>
</g>
<!-- get_paid&#45;&gt;activated_nemid -->
<g id="edge44" class="edge">
<title>get_paid&#45;&gt;activated_nemid</title>
<path fill="none" stroke="#000000" d="M499.2372,-895.3473C521.6676,-890.6502 548.2543,-885.3413 572.3736,-881.2001 686.0477,-861.683 716.5792,-869.2861 829.3736,-845.2001 836.3241,-843.716 843.5295,-841.9743 850.689,-840.1102"/>
<polygon fill="#000000" stroke="#000000" points="851.6445,-843.4777 860.3954,-837.5051 849.8299,-836.717 851.6445,-843.4777"/>
</g>
<!-- danish_lessions -->
<g id="node28" class="node">
<title>danish_lessions</title>
<ellipse fill="none" stroke="#000000" cx="624.3736" cy="-819.7443" rx="62.8431" ry="18"/>
<text text-anchor="middle" x="624.3736" y="-815.5443" font-family="Times,serif" font-size="14.00" fill="#000000">Danish lessons</text>
</g>
<!-- danish_lessions&#45;&gt;cpr_number -->
<g id="edge45" class="edge">
<title>danish_lessions&#45;&gt;cpr_number</title>
<path fill="none" stroke="#000000" d="M631.3863,-801.5477C650.2827,-752.8543 702.509,-620.5819 727.3736,-580.8671 733.9156,-570.4181 742.1772,-559.9324 750.2187,-550.6558"/>
<polygon fill="#000000" stroke="#000000" points="752.8434,-552.9712 756.8792,-543.1751 747.6153,-548.3163 752.8434,-552.9712"/>
</g>
<!-- danish_bank_card -->
<g id="node29" class="node">
<title>danish_bank_card</title>
<ellipse fill="#00ff00" stroke="#000000" cx="556.3736" cy="-722.9331" rx="80.6721" ry="25.4118"/>
<text text-anchor="middle" x="556.3736" y="-725.7331" font-family="Times,serif" font-size="14.00" fill="#000000">Danish bank card</text>
<text text-anchor="middle" x="556.3736" y="-711.7331" font-family="Times,serif" font-size="14.00" fill="#000000">2019&#45;02&#45;16</text>
</g>
<!-- danish_lessions&#45;&gt;danish_bank_card -->
<g id="edge46" class="edge">
<title>danish_lessions&#45;&gt;danish_bank_card</title>
<path fill="none" stroke="#000000" d="M611.9014,-801.9876C602.9078,-789.1836 590.5004,-771.5191 579.6946,-756.1351"/>
<polygon fill="#000000" stroke="#000000" points="582.5,-754.0397 573.8881,-747.8683 576.7718,-758.0632 582.5,-754.0397"/>
</g>
<!-- danish_bank_card&#45;&gt;can_receive_post -->
<g id="edge48" class="edge">
<title>danish_bank_card&#45;&gt;can_receive_post</title>
<path fill="none" stroke="#000000" d="M567.767,-697.4668C589.3769,-651.5815 640.3139,-554.2049 708.3736,-493.9554 728.1939,-476.4097 897.3645,-398.3917 921.3736,-387.2447 958.2141,-370.1404 973.4676,-376.38 1005.3736,-351.2447 1027.5532,-333.7719 1023.0587,-319.9427 1043.3736,-300.333 1059.6488,-284.6229 1079.6963,-269.9025 1097.7664,-257.9597"/>
<polygon fill="#000000" stroke="#000000" points="1099.9663,-260.7047 1106.4531,-252.3279 1096.1582,-254.8311 1099.9663,-260.7047"/>
</g>
<!-- danish_bank_card&#45;&gt;danish_bank_account -->
<g id="edge47" class="edge">
<title>danish_bank_card&#45;&gt;danish_bank_account</title>
<path fill="none" stroke="#ff0000" d="M535.7316,-698.1833C523.5751,-683.6078 508.0462,-664.9887 494.8623,-649.1813"/>
<polygon fill="#ff0000" stroke="#ff0000" points="497.305,-646.6455 488.2121,-641.2077 491.9293,-651.129 497.305,-646.6455"/>
</g>
<!-- spend_lovely_dkk -->
<g id="node30" class="node">
<title>spend_lovely_dkk</title>
<ellipse fill="#00ff00" stroke="#000000" cx="517.3736" cy="-993.5677" rx="111.2416" ry="25.4118"/>
<text text-anchor="middle" x="517.3736" y="-996.3677" font-family="Times,serif" font-size="14.00" fill="#000000">Spend your lovely DKK!</text>
<text text-anchor="middle" x="517.3736" y="-982.3677" font-family="Times,serif" font-size="14.00" fill="#000000">2019&#45;02&#45;28</text>
</g>
<!-- spend_lovely_dkk&#45;&gt;get_paid -->
<g id="edge49" class="edge">
<title>spend_lovely_dkk&#45;&gt;get_paid</title>
<path fill="none" stroke="#000000" d="M497.1267,-968.4292C489.682,-959.1859 481.1472,-948.5891 473.2729,-938.8124"/>
<polygon fill="#000000" stroke="#000000" points="475.8507,-936.4331 466.8522,-930.8405 470.399,-940.824 475.8507,-936.4331"/>
</g>
<!-- spend_lovely_dkk&#45;&gt;danish_bank_card -->
<g id="edge50" class="edge">
<title>spend_lovely_dkk&#45;&gt;danish_bank_card</title>
<path fill="none" stroke="#000000" d="M521.0427,-968.107C528.0257,-919.6494 543.2418,-814.0597 551.2347,-758.5941"/>
<polygon fill="#000000" stroke="#000000" points="554.7238,-758.9203 552.686,-748.5233 547.7953,-757.9218 554.7238,-758.9203"/>
</g>
<!-- mobilepay -->
<g id="node31" class="node">
<title>mobilepay</title>
<ellipse fill="#00ff00" stroke="#000000" cx="361.3736" cy="-722.9331" rx="57.5098" ry="25.4118"/>
<text text-anchor="middle" x="361.3736" y="-725.7331" font-family="Times,serif" font-size="14.00" fill="#000000">Mobilepay</text>
<text text-anchor="middle" x="361.3736" y="-711.7331" font-family="Times,serif" font-size="14.00" fill="#000000">2019&#45;02&#45;18</text>
</g>
<!-- mobilepay&#45;&gt;danish_phone_number -->
<g id="edge52" class="edge">
<title>mobilepay&#45;&gt;danish_phone_number</title>
<path fill="none" stroke="#000000" d="M359.3472,-697.1569C356.516,-661.1435 351.3657,-595.6309 348.1707,-554.9901"/>
<polygon fill="#000000" stroke="#000000" points="351.6567,-554.673 347.3836,-544.9781 344.6782,-555.2217 351.6567,-554.673"/>
</g>
<!-- mobilepay&#45;&gt;cpr_number -->
<g id="edge51" class="edge">
<title>mobilepay&#45;&gt;cpr_number</title>
<path fill="none" stroke="#000000" d="M407.2381,-707.5192C467.6381,-687.1854 566.6895,-653.7036 570.3736,-651.5778 611.765,-627.6946 611.4309,-607.1012 651.3736,-580.8671 674.7127,-565.5382 702.4666,-551.8083 726.2411,-541.2347"/>
<polygon fill="#000000" stroke="#000000" points="727.7193,-544.4084 735.4788,-537.1945 724.9143,-537.9949 727.7193,-544.4084"/>
</g>
<!-- mobilepay&#45;&gt;danish_bank_account -->
<g id="edge53" class="edge">
<title>mobilepay&#45;&gt;danish_bank_account</title>
<path fill="none" stroke="#000000" d="M384.6358,-699.515C399.5392,-684.5117 419.0811,-664.8388 435.4305,-648.3798"/>
<polygon fill="#000000" stroke="#000000" points="438.1253,-650.6333 442.6896,-641.072 433.159,-645.7001 438.1253,-650.6333"/>
</g>
<!-- hygge -->
<g id="node32" class="node">
<title>hygge</title>
<ellipse fill="none" stroke="#000000" cx="733.3736" cy="-1307.8334" rx="101.1913" ry="21.7969"/>
<text text-anchor="middle" x="733.3736" y="-1308.1178" font-family="Times,serif" font-size="14.00" fill="#000000">🇩🇰 😊 Hygge 😊 🇩🇰</text>
</g>
<!-- magi4 -->
<g id="node33" class="node">
<title>magi4</title>
<ellipse fill="none" stroke="#000000" cx="793.3736" cy="-1080.4794" rx="27" ry="18"/>
<text text-anchor="middle" x="793.3736" y="-1076.2794" font-family="Times,serif" font-size="14.00" fill="#000000">????</text>
</g>
<!-- hygge&#45;&gt;magi4 -->
<g id="edge54" class="edge">
<title>hygge&#45;&gt;magi4</title>
<path fill="none" stroke="#000000" stroke-dasharray="5,2" d="M739.2359,-1285.6198C750.2606,-1243.8448 774.0523,-1153.6926 786.0866,-1108.0919"/>
<polygon fill="#000000" stroke="#000000" points="789.5055,-1108.8527 788.6732,-1098.2906 782.7373,-1107.0664 789.5055,-1108.8527"/>
</g>
<!-- magi1 -->
<g id="node34" class="node">
<title>magi1</title>
<ellipse fill="none" stroke="#000000" cx="706.3736" cy="-1231.9352" rx="27" ry="18"/>
<text text-anchor="middle" x="706.3736" y="-1227.7352" font-family="Times,serif" font-size="14.00" fill="#000000">?</text>
</g>
<!-- hygge&#45;&gt;magi1 -->
<g id="edge55" class="edge">
<title>hygge&#45;&gt;magi1</title>
<path fill="none" stroke="#000000" d="M725.5641,-1285.8805C722.5768,-1277.4829 719.1343,-1267.806 715.9971,-1258.9871"/>
<polygon fill="#000000" stroke="#000000" points="719.2745,-1257.7572 712.6252,-1249.5087 712.6794,-1260.1034 719.2745,-1257.7572"/>
</g>
<!-- helbred -->
<g id="node37" class="node">
<title>helbred</title>
<ellipse fill="#00ff00" stroke="#000000" cx="869.3736" cy="-993.5677" rx="57.5098" ry="25.4118"/>
<text text-anchor="middle" x="869.3736" y="-996.3677" font-family="Times,serif" font-size="14.00" fill="#000000">Health</text>
<text text-anchor="middle" x="869.3736" y="-982.3677" font-family="Times,serif" font-size="14.00" fill="#000000">2019&#45;02&#45;28</text>
</g>
<!-- magi4&#45;&gt;helbred -->
<g id="edge61" class="edge">
<title>magi4&#45;&gt;helbred</title>
<path fill="none" stroke="#000000" stroke-dasharray="1,5" d="M807.3132,-1064.5384C816.9136,-1053.5597 829.9945,-1038.6007 841.672,-1025.2466"/>
<polygon fill="#000000" stroke="#000000" points="844.4005,-1027.4434 848.3485,-1017.6116 839.131,-1022.8354 844.4005,-1027.4434"/>
</g>
<!-- magi2 -->
<g id="node35" class="node">
<title>magi2</title>
<ellipse fill="none" stroke="#000000" cx="564.3736" cy="-1159.9352" rx="27" ry="18"/>
<text text-anchor="middle" x="564.3736" y="-1155.7352" font-family="Times,serif" font-size="14.00" fill="#000000">??</text>
</g>
<!-- magi1&#45;&gt;magi2 -->
<g id="edge57" class="edge">
<title>magi1&#45;&gt;magi2</title>
<path fill="none" stroke="#000000" d="M684.8069,-1221C660.9322,-1208.8945 622.253,-1189.2825 595.1887,-1175.5597"/>
<polygon fill="#000000" stroke="#000000" points="596.6452,-1172.3741 586.1434,-1170.9734 593.4795,-1178.6174 596.6452,-1172.3741"/>
</g>
<!-- magi3 -->
<g id="node36" class="node">
<title>magi3</title>
<ellipse fill="none" stroke="#000000" cx="683.3736" cy="-1159.9352" rx="27" ry="18"/>
<text text-anchor="middle" x="683.3736" y="-1155.7352" font-family="Times,serif" font-size="14.00" fill="#000000">????</text>
</g>
<!-- magi1&#45;&gt;magi3 -->
<g id="edge58" class="edge">
<title>magi1&#45;&gt;magi3</title>
<path fill="none" stroke="#000000" stroke-dasharray="5,2" d="M700.6883,-1214.1375C698.1173,-1206.0893 695.0202,-1196.394 692.1605,-1187.4419"/>
<polygon fill="#000000" stroke="#000000" points="695.4504,-1186.2385 689.0734,-1177.7778 688.7824,-1188.3686 695.4504,-1186.2385"/>
</g>
<!-- magi1&#45;&gt;helbred -->
<g id="edge59" class="edge">
<title>magi1&#45;&gt;helbred</title>
<path fill="none" stroke="#000000" stroke-dasharray="1,5" d="M710.7232,-1213.9554C721.1085,-1171.5103 747.239,-1067.6901 757.3736,-1055.0235 772.0333,-1036.7013 793.7049,-1023.027 814.0889,-1013.2882"/>
<polygon fill="#000000" stroke="#000000" points="815.6774,-1016.4109 823.3342,-1009.088 812.782,-1010.0377 815.6774,-1016.4109"/>
</g>
<!-- penge -->
<g id="node38" class="node">
<title>penge</title>
<ellipse fill="#00ff00" stroke="#000000" cx="540.3736" cy="-1080.4794" rx="57.5098" ry="25.4118"/>
<text text-anchor="middle" x="540.3736" y="-1083.2794" font-family="Times,serif" font-size="14.00" fill="#000000">Money</text>
<text text-anchor="middle" x="540.3736" y="-1069.2794" font-family="Times,serif" font-size="14.00" fill="#000000">2019&#45;02&#45;28</text>
</g>
<!-- magi2&#45;&gt;penge -->
<g id="edge60" class="edge">
<title>magi2&#45;&gt;penge</title>
<path fill="none" stroke="#000000" stroke-dasharray="1,5" d="M558.9277,-1141.9054C556.5714,-1134.1045 553.7287,-1124.6935 550.9844,-1115.6078"/>
<polygon fill="#000000" stroke="#000000" points="554.3147,-1114.5289 548.0726,-1105.9681 547.6137,-1116.553 554.3147,-1114.5289"/>
</g>
<!-- rejser -->
<g id="node39" class="node">
<title>rejser</title>
<ellipse fill="#00ff00" stroke="#000000" cx="156.3736" cy="-1080.4794" rx="41.1266" ry="18"/>
<text text-anchor="middle" x="156.3736" y="-1076.2794" font-family="Times,serif" font-size="14.00" fill="#000000">Mobility</text>
</g>
<!-- magi2&#45;&gt;rejser -->
<g id="edge67" class="edge">
<title>magi2&#45;&gt;rejser</title>
<path fill="none" stroke="#000000" stroke-dasharray="1,5" d="M538.2308,-1154.844C470.8125,-1141.7147 290.3056,-1106.5619 203.833,-1089.7218"/>
<polygon fill="#000000" stroke="#000000" points="204.5014,-1086.2863 194.0167,-1087.8102 203.1633,-1093.1572 204.5014,-1086.2863"/>
</g>
<!-- faa_ting_gjort -->
<g id="node40" class="node">
<title>faa_ting_gjort</title>
<ellipse fill="none" stroke="#000000" cx="656.3736" cy="-906.656" rx="75.0675" ry="18"/>
<text text-anchor="middle" x="656.3736" y="-902.456" font-family="Times,serif" font-size="14.00" fill="#000000">Can get stuff done</text>
</g>
<!-- magi2&#45;&gt;faa_ting_gjort -->
<g id="edge70" class="edge">
<title>magi2&#45;&gt;faa_ting_gjort</title>
<path fill="none" stroke="#000000" stroke-dasharray="1,5" d="M579.0942,-1144.4215C588.2215,-1134.145 599.6405,-1120.0094 607.3736,-1105.9352 638.0192,-1050.1608 649.7548,-975.2001 654.0493,-934.9812"/>
<polygon fill="#000000" stroke="#000000" points="657.5513,-935.1323 655.0517,-924.8365 650.5853,-934.4439 657.5513,-935.1323"/>
</g>
<!-- magi3&#45;&gt;magi4 -->
<g id="edge56" class="edge">
<title>magi3&#45;&gt;magi4</title>
<path fill="none" stroke="#000000" d="M702.0336,-1146.4566C719.8401,-1133.5945 746.8449,-1114.0883 766.8777,-1099.6181"/>
<polygon fill="#000000" stroke="#000000" points="768.9322,-1102.4517 774.9892,-1093.7589 764.8334,-1096.7772 768.9322,-1102.4517"/>
</g>
<!-- magi3&#45;&gt;penge -->
<g id="edge64" class="edge">
<title>magi3&#45;&gt;penge</title>
<path fill="none" stroke="#000000" stroke-dasharray="1,5" d="M662.5802,-1148.3816C642.4161,-1137.1778 611.1668,-1119.8145 585.3162,-1105.451"/>
<polygon fill="#000000" stroke="#000000" points="586.8659,-1102.3081 576.4247,-1100.5106 583.466,-1108.4271 586.8659,-1102.3081"/>
</g>
<!-- helbred&#45;&gt;ehic -->
<g id="edge63" class="edge">
<title>helbred&#45;&gt;ehic</title>
<path fill="none" stroke="#000000" d="M905.622,-973.6284C926.3732,-962.2137 952.756,-947.7012 975.6533,-935.106"/>
<polygon fill="#000000" stroke="#000000" points="977.4911,-938.0897 984.5661,-930.2033 974.1173,-931.9564 977.4911,-938.0897"/>
</g>
<!-- helbred&#45;&gt;doctor -->
<g id="edge62" class="edge">
<title>helbred&#45;&gt;doctor</title>
<path fill="none" stroke="#000000" d="M922.2168,-983.2865C978.3829,-972.033 1069.6374,-952.8151 1147.3736,-932.1118 1272.4661,-898.7963 1302.5504,-886.0963 1425.3736,-845.2001 1431.0147,-843.3219 1436.8887,-841.3205 1442.741,-839.2969"/>
<polygon fill="#000000" stroke="#000000" points="1444.2331,-842.4834 1452.5246,-835.8879 1441.9298,-835.8732 1444.2331,-842.4834"/>
</g>
<!-- penge&#45;&gt;spend_lovely_dkk -->
<g id="edge65" class="edge">
<title>penge&#45;&gt;spend_lovely_dkk</title>
<path fill="none" stroke="#000000" d="M533.5973,-1054.8731C531.4449,-1046.7395 529.0252,-1037.5962 526.7245,-1028.9026"/>
<polygon fill="#000000" stroke="#000000" points="530.0435,-1027.7627 524.1016,-1018.991 523.2764,-1029.5536 530.0435,-1027.7627"/>
</g>
<!-- penge&#45;&gt;mobilepay -->
<g id="edge66" class="edge">
<title>penge&#45;&gt;mobilepay</title>
<path fill="none" stroke="#000000" d="M487.2883,-1070.5344C456.5298,-1062.0171 419.6055,-1046.5702 397.3736,-1019.0235 336.3209,-943.3751 345.4509,-819.4522 354.6627,-758.7355"/>
<polygon fill="#000000" stroke="#000000" points="358.1754,-758.9356 356.3077,-748.5067 351.2642,-757.8241 358.1754,-758.9356"/>
</g>
<!-- rejser&#45;&gt;rejsekort -->
<g id="edge69" class="edge">
<title>rejser&#45;&gt;rejsekort</title>
<path fill="none" stroke="#000000" d="M139.0692,-1064.1319C127.2113,-1052.9299 111.1176,-1037.7263 96.9052,-1024.3"/>
<polygon fill="#000000" stroke="#000000" points="98.9145,-1021.3834 89.2418,-1017.0604 94.1075,-1026.4718 98.9145,-1021.3834"/>
</g>
<!-- rejser&#45;&gt;pendlerkort -->
<g id="edge68" class="edge">
<title>rejser&#45;&gt;pendlerkort</title>
<path fill="none" stroke="#000000" d="M156.3736,-1062.2105C156.3736,-1030.54 156.3736,-963.39 156.3736,-906.656 156.3736,-906.656 156.3736,-906.656 156.3736,-616.2224 156.3736,-560.8016 146.57,-497.1308 139.4943,-458.3943"/>
<polygon fill="#000000" stroke="#000000" points="142.8587,-457.3443 137.5813,-448.1574 135.9778,-458.6302 142.8587,-457.3443"/>
</g>
<!-- faa_ting_gjort&#45;&gt;activated_nemid -->
<g id="edge71" class="edge">
<title>faa_ting_gjort&#45;&gt;activated_nemid</title>
<path fill="none" stroke="#000000" d="M700.3536,-892.0109C742.0797,-878.1163 805.2839,-857.0696 852.7391,-841.2673"/>
<polygon fill="#000000" stroke="#000000" points="853.9287,-844.5602 862.3107,-838.08 851.7171,-837.9187 853.9287,-844.5602"/>
</g>
<!-- faa_ting_gjort&#45;&gt;danish_lessions -->
<g id="edge72" class="edge">
<title>faa_ting_gjort&#45;&gt;danish_lessions</title>
<path fill="none" stroke="#000000" d="M649.7432,-888.6478C645.3668,-876.7615 639.5463,-860.9532 634.5845,-847.4768"/>
<polygon fill="#000000" stroke="#000000" points="637.7352,-845.9042 630.9956,-837.7294 631.1663,-848.3229 637.7352,-845.9042"/>
</g>
</g>
</svg>
