<?xml version="1.0" encoding="UTF-8" standalone="no"?>
<!DOCTYPE svg PUBLIC "-//W3C//DTD SVG 1.1//EN"
 "http://www.w3.org/Graphics/SVG/1.1/DTD/svg11.dtd">
<!-- Generated by graphviz version 2.40.1 (20161225.0304)
 -->
<!-- Title: g Pages: 1 -->
<svg width="1535pt" height="1308pt"
 viewBox="0.00 0.00 1534.88 1307.91" xmlns="http://www.w3.org/2000/svg" xmlns:xlink="http://www.w3.org/1999/xlink">
<g id="graph0" class="graph" transform="scale(1 1) rotate(0) translate(4 1303.9083)">
<title>g</title>
<polygon fill="#ffffff" stroke="transparent" points="-4,4 -4,-1303.9083 1530.8786,-1303.9083 1530.8786,4 -4,4"/>
<!-- job -->
<g id="node1" class="node">
<title>job</title>
<ellipse fill="#00ff00" stroke="#000000" cx="337.3736" cy="-25.4558" rx="57.5098" ry="25.4118"/>
<text text-anchor="middle" x="337.3736" y="-28.2558" font-family="Times,serif" font-size="14.00" fill="#000000">A job</text>
<text text-anchor="middle" x="337.3736" y="-14.2558" font-family="Times,serif" font-size="14.00" fill="#000000">2018&#45;10&#45;19</text>
</g>
<!-- proof_of_work -->
<g id="node2" class="node">
<title>proof_of_work</title>
<ellipse fill="#00ff00" stroke="#000000" cx="456.3736" cy="-122.267" rx="66.707" ry="25.4118"/>
<text text-anchor="middle" x="456.3736" y="-125.067" font-family="Times,serif" font-size="14.00" fill="#000000">Proof of work</text>
<text text-anchor="middle" x="456.3736" y="-111.067" font-family="Times,serif" font-size="14.00" fill="#000000">2019&#45;01&#45;22</text>
</g>
<!-- proof_of_work&#45;&gt;job -->
<g id="edge1" class="edge">
<title>proof_of_work&#45;&gt;job</title>
<path fill="none" stroke="#000000" d="M427.8702,-99.0783C411.4129,-85.6897 390.5663,-68.7301 373.0303,-54.464"/>
<polygon fill="#000000" stroke="#000000" points="375.1999,-51.7171 365.2339,-48.1213 370.7824,-57.1471 375.1999,-51.7171"/>
</g>
<!-- passport -->
<g id="node3" class="node">
<title>passport</title>
<ellipse fill="#00ff00" stroke="#000000" cx="586.3736" cy="-122.267" rx="44.7298" ry="25.4118"/>
<text text-anchor="middle" x="586.3736" y="-125.067" font-family="Times,serif" font-size="14.00" fill="#000000">Passport</text>
<text text-anchor="middle" x="586.3736" y="-111.067" font-family="Times,serif" font-size="14.00" fill="#000000">2015</text>
</g>
<!-- danish_phone_number -->
<g id="node4" class="node">
<title>danish_phone_number</title>
<ellipse fill="#00ff00" stroke="#000000" cx="345.3736" cy="-519.4113" rx="98.9836" ry="25.4118"/>
<text text-anchor="middle" x="345.3736" y="-522.2113" font-family="Times,serif" font-size="14.00" fill="#000000">Danish phone number</text>
<text text-anchor="middle" x="345.3736" y="-508.2113" font-family="Times,serif" font-size="14.00" fill="#000000">2019&#45;01&#45;17</text>
</g>
<!-- rejsekort -->
<g id="node5" class="node">
<title>rejsekort</title>
<ellipse fill="#00ff00" stroke="#000000" cx="64.3736" cy="-978.656" rx="64.2475" ry="25.4118"/>
<text text-anchor="middle" x="64.3736" y="-981.456" font-family="Times,serif" font-size="14.00" fill="#000000">Rejsekort</text>
<text text-anchor="middle" x="64.3736" y="-967.456" font-family="Times,serif" font-size="14.00" fill="#000000">2018&#45;10&#45;19 ?</text>
</g>
<!-- place_to_live -->
<g id="node6" class="node">
<title>place_to_live</title>
<ellipse fill="#00ff00" stroke="#000000" cx="1034.3736" cy="-25.4558" rx="68.5454" ry="25.4118"/>
<text text-anchor="middle" x="1034.3736" y="-28.2558" font-family="Times,serif" font-size="14.00" fill="#000000">A place to live</text>
<text text-anchor="middle" x="1034.3736" y="-14.2558" font-family="Times,serif" font-size="14.00" fill="#000000">2019&#45;01&#45;21</text>
</g>
<!-- name_on_postbox -->
<g id="node7" class="node">
<title>name_on_postbox</title>
<ellipse fill="#00ff00" stroke="#000000" cx="1082.3736" cy="-122.267" rx="66.9194" ry="35.2113"/>
<text text-anchor="middle" x="1082.3736" y="-132.067" font-family="Times,serif" font-size="14.00" fill="#000000">Your name on</text>
<text text-anchor="middle" x="1082.3736" y="-118.067" font-family="Times,serif" font-size="14.00" fill="#000000">your postbox</text>
<text text-anchor="middle" x="1082.3736" y="-104.067" font-family="Times,serif" font-size="14.00" fill="#000000">2019&#45;01&#45;22</text>
</g>
<!-- name_on_postbox&#45;&gt;place_to_live -->
<g id="edge2" class="edge">
<title>name_on_postbox&#45;&gt;place_to_live</title>
<path fill="none" stroke="#000000" d="M1065.3155,-87.8624C1060.7956,-78.7464 1055.9164,-68.9054 1051.3983,-59.7929"/>
<polygon fill="#000000" stroke="#000000" points="1054.4289,-58.0259 1046.851,-50.6214 1048.1574,-61.1354 1054.4289,-58.0259"/>
</g>
<!-- can_receive_post -->
<g id="node8" class="node">
<title>can_receive_post</title>
<ellipse fill="#00ff00" stroke="#000000" cx="1171.3736" cy="-228.9777" rx="99.6266" ry="25.4118"/>
<text text-anchor="middle" x="1171.3736" y="-231.7777" font-family="Times,serif" font-size="14.00" fill="#000000">Ability to receive post</text>
<text text-anchor="middle" x="1171.3736" y="-217.7777" font-family="Times,serif" font-size="14.00" fill="#000000">2019&#45;01&#45;22</text>
</g>
<!-- can_receive_post&#45;&gt;place_to_live -->
<g id="edge3" class="edge">
<title>can_receive_post&#45;&gt;place_to_live</title>
<path fill="none" stroke="#000000" d="M1176.0183,-203.4089C1180.1019,-172.8923 1182.1809,-121.6391 1158.3736,-86.9117 1144.6438,-66.8841 1122.4293,-53.0915 1100.5689,-43.7324"/>
<polygon fill="#000000" stroke="#000000" points="1101.8316,-40.4678 1091.2476,-39.9875 1099.222,-46.9632 1101.8316,-40.4678"/>
</g>
<!-- can_receive_post&#45;&gt;name_on_postbox -->
<g id="edge4" class="edge">
<title>can_receive_post&#45;&gt;name_on_postbox</title>
<path fill="none" stroke="#000000" d="M1150.5071,-203.9588C1140.2852,-191.7028 1127.7196,-176.6366 1116.1751,-162.7949"/>
<polygon fill="#000000" stroke="#000000" points="1118.6143,-160.2549 1109.5214,-154.8171 1113.2386,-164.7384 1118.6143,-160.2549"/>
</g>
<!-- pendlerkort -->
<g id="node9" class="node">
<title>pendlerkort</title>
<ellipse fill="#00ff00" stroke="#000000" cx="132.3736" cy="-422.6001" rx="57.5098" ry="25.4118"/>
<text text-anchor="middle" x="132.3736" y="-425.4001" font-family="Times,serif" font-size="14.00" fill="#000000">Pendlerkort</text>
<text text-anchor="middle" x="132.3736" y="-411.4001" font-family="Times,serif" font-size="14.00" fill="#000000">2019&#45;02&#45;05</text>
</g>
<!-- pendlerkort&#45;&gt;place_to_live -->
<g id="edge5" class="edge">
<title>pendlerkort&#45;&gt;place_to_live</title>
<path fill="none" stroke="#000000" d="M142.382,-397.1133C169.4141,-332.1124 250.7193,-160.1352 380.3736,-86.9117 429.4428,-59.1994 792.623,-37.6438 955.6049,-29.2585"/>
<polygon fill="#000000" stroke="#000000" points="956.2369,-32.7308 966.0453,-28.7252 955.8798,-25.7399 956.2369,-32.7308"/>
</g>
<!-- eu_residence_document_application -->
<g id="node10" class="node">
<title>eu_residence_document_application</title>
<ellipse fill="#00ff00" stroke="#000000" cx="785.3736" cy="-228.9777" rx="105.7427" ry="35.2113"/>
<text text-anchor="middle" x="785.3736" y="-238.7777" font-family="Times,serif" font-size="14.00" fill="#000000">Application for</text>
<text text-anchor="middle" x="785.3736" y="-224.7777" font-family="Times,serif" font-size="14.00" fill="#000000">EU residence document</text>
<text text-anchor="middle" x="785.3736" y="-210.7777" font-family="Times,serif" font-size="14.00" fill="#000000">2019&#45;01&#45;23</text>
</g>
<!-- eu_residence_document_application&#45;&gt;proof_of_work -->
<g id="edge7" class="edge">
<title>eu_residence_document_application&#45;&gt;proof_of_work</title>
<path fill="none" stroke="#000000" d="M699.0785,-208.3103C649.6526,-195.5655 586.8226,-177.8168 532.3736,-157.6224 523.7565,-154.4264 514.7656,-150.6555 506.1098,-146.7879"/>
<polygon fill="#000000" stroke="#000000" points="507.4328,-143.5445 496.8823,-142.5758 504.5259,-149.9124 507.4328,-143.5445"/>
</g>
<!-- eu_residence_document_application&#45;&gt;passport -->
<g id="edge8" class="edge">
<title>eu_residence_document_application&#45;&gt;passport</title>
<path fill="none" stroke="#000000" d="M722.2553,-200.3961C696.1857,-188.011 665.9161,-172.8705 639.3736,-157.6224 634.1511,-154.6221 628.7524,-151.2986 623.4887,-147.9251"/>
<polygon fill="#000000" stroke="#000000" points="625.0971,-144.7948 614.8127,-142.2487 621.2646,-150.6525 625.0971,-144.7948"/>
</g>
<!-- eu_residence_document_application&#45;&gt;place_to_live -->
<g id="edge6" class="edge">
<title>eu_residence_document_application&#45;&gt;place_to_live</title>
<path fill="none" stroke="#000000" d="M857.8487,-203.0444C882.7506,-191.7392 909.5677,-176.6534 930.3736,-157.6224 957.5141,-132.7973 950.7056,-115.878 973.3736,-86.9117 981.6344,-76.3557 991.5407,-65.6977 1000.9442,-56.2893"/>
<polygon fill="#000000" stroke="#000000" points="1003.6489,-58.539 1008.3367,-49.0377 998.747,-53.5418 1003.6489,-58.539"/>
</g>
<!-- od1_form -->
<g id="node11" class="node">
<title>od1_form</title>
<ellipse fill="#00ff00" stroke="#000000" cx="706.3736" cy="-122.267" rx="57.5098" ry="25.4118"/>
<text text-anchor="middle" x="706.3736" y="-125.067" font-family="Times,serif" font-size="14.00" fill="#000000">OD1 form</text>
<text text-anchor="middle" x="706.3736" y="-111.067" font-family="Times,serif" font-size="14.00" fill="#000000">2019&#45;01&#45;22</text>
</g>
<!-- eu_residence_document_application&#45;&gt;od1_form -->
<g id="edge9" class="edge">
<title>eu_residence_document_application&#45;&gt;od1_form</title>
<path fill="none" stroke="#000000" d="M759.9427,-194.6264C750.5607,-181.9535 739.9606,-167.6352 730.6805,-155.0999"/>
<polygon fill="#000000" stroke="#000000" points="733.261,-152.7033 724.4978,-146.7486 727.6349,-156.8684 733.261,-152.7033"/>
</g>
<!-- passport_photo -->
<g id="node12" class="node">
<title>passport_photo</title>
<ellipse fill="#00ff00" stroke="#000000" cx="851.3736" cy="-122.267" rx="69.7781" ry="25.4118"/>
<text text-anchor="middle" x="851.3736" y="-125.067" font-family="Times,serif" font-size="14.00" fill="#000000">Passport photo</text>
<text text-anchor="middle" x="851.3736" y="-111.067" font-family="Times,serif" font-size="14.00" fill="#000000">2019&#45;01&#45;23</text>
</g>
<!-- eu_residence_document_application&#45;&gt;passport_photo -->
<g id="edge10" class="edge">
<title>eu_residence_document_application&#45;&gt;passport_photo</title>
<path fill="none" stroke="#000000" d="M806.802,-194.3318C814.4346,-181.9911 823.0129,-168.1215 830.5905,-155.8698"/>
<polygon fill="#000000" stroke="#000000" points="833.62,-157.6255 835.9035,-147.2796 827.6666,-153.9433 833.62,-157.6255"/>
</g>
<!-- eu_residence_document -->
<g id="node13" class="node">
<title>eu_residence_document</title>
<ellipse fill="#00ff00" stroke="#000000" cx="890.3736" cy="-325.7889" rx="105.7427" ry="25.4118"/>
<text text-anchor="middle" x="890.3736" y="-328.5889" font-family="Times,serif" font-size="14.00" fill="#000000">EU residence document</text>
<text text-anchor="middle" x="890.3736" y="-314.5889" font-family="Times,serif" font-size="14.00" fill="#000000">2019&#45;01&#45;31</text>
</g>
<!-- eu_residence_document&#45;&gt;can_receive_post -->
<g id="edge12" class="edge">
<title>eu_residence_document&#45;&gt;can_receive_post</title>
<path fill="none" stroke="#000000" d="M951.0005,-304.9015C995.4353,-289.5927 1055.8307,-268.785 1102.1588,-252.8239"/>
<polygon fill="#000000" stroke="#000000" points="1103.5058,-256.0617 1111.8204,-249.4952 1101.2257,-249.4435 1103.5058,-256.0617"/>
</g>
<!-- eu_residence_document&#45;&gt;eu_residence_document_application -->
<g id="edge11" class="edge">
<title>eu_residence_document&#45;&gt;eu_residence_document_application</title>
<path fill="none" stroke="#ff0000" d="M863.606,-301.1088C853.1393,-291.4584 840.8596,-280.1364 829.1718,-269.3601"/>
<polygon fill="#ff0000" stroke="#ff0000" points="831.3262,-266.5858 821.6017,-262.3804 826.5812,-271.7322 831.3262,-266.5858"/>
</g>
<!-- cpr_number_application -->
<g id="node14" class="node">
<title>cpr_number_application</title>
<ellipse fill="#00ff00" stroke="#000000" cx="690.3736" cy="-422.6001" rx="72.138" ry="35.2113"/>
<text text-anchor="middle" x="690.3736" y="-432.4001" font-family="Times,serif" font-size="14.00" fill="#000000">Application for</text>
<text text-anchor="middle" x="690.3736" y="-418.4001" font-family="Times,serif" font-size="14.00" fill="#000000">CPR number</text>
<text text-anchor="middle" x="690.3736" y="-404.4001" font-family="Times,serif" font-size="14.00" fill="#000000">2019&#45;02&#45;06</text>
</g>
<!-- cpr_number_application&#45;&gt;proof_of_work -->
<g id="edge14" class="edge">
<title>cpr_number_application&#45;&gt;proof_of_work</title>
<path fill="none" stroke="#000000" d="M641.0918,-396.576C621.5111,-384.5926 599.7898,-369.0608 583.3736,-351.2447 554.6187,-320.0376 500.2579,-212.5625 472.9336,-156.6611"/>
<polygon fill="#000000" stroke="#000000" points="475.9981,-154.9599 468.473,-147.5018 469.7047,-158.0248 475.9981,-154.9599"/>
</g>
<!-- cpr_number_application&#45;&gt;passport -->
<g id="edge16" class="edge">
<title>cpr_number_application&#45;&gt;passport</title>
<path fill="none" stroke="#000000" d="M644.9097,-395.1494C629.7362,-383.5713 614.4073,-368.6982 605.3736,-351.2447 573.2408,-289.1625 576.1977,-204.7751 581.2605,-157.7135"/>
<polygon fill="#000000" stroke="#000000" points="584.746,-158.0408 582.4311,-147.702 577.7934,-157.2278 584.746,-158.0408"/>
</g>
<!-- cpr_number_application&#45;&gt;eu_residence_document -->
<g id="edge13" class="edge">
<title>cpr_number_application&#45;&gt;eu_residence_document</title>
<path fill="none" stroke="#000000" d="M741.8786,-397.6688C770.0765,-384.0194 805.0623,-367.0843 833.9912,-353.0812"/>
<polygon fill="#000000" stroke="#000000" points="835.6786,-356.1529 843.1546,-348.6456 832.6287,-349.8523 835.6786,-356.1529"/>
</g>
<!-- proof_of_address -->
<g id="node15" class="node">
<title>proof_of_address</title>
<ellipse fill="#00ff00" stroke="#000000" cx="690.3736" cy="-325.7889" rx="76.3945" ry="25.4118"/>
<text text-anchor="middle" x="690.3736" y="-328.5889" font-family="Times,serif" font-size="14.00" fill="#000000">Proof of address</text>
<text text-anchor="middle" x="690.3736" y="-314.5889" font-family="Times,serif" font-size="14.00" fill="#000000">2019&#45;01&#45;21</text>
</g>
<!-- cpr_number_application&#45;&gt;proof_of_address -->
<g id="edge15" class="edge">
<title>cpr_number_application&#45;&gt;proof_of_address</title>
<path fill="none" stroke="#000000" d="M690.3736,-387.1009C690.3736,-378.7532 690.3736,-369.8531 690.3736,-361.4964"/>
<polygon fill="#000000" stroke="#000000" points="693.8737,-361.2842 690.3736,-351.2842 686.8737,-361.2843 693.8737,-361.2842"/>
</g>
<!-- proof_of_address&#45;&gt;place_to_live -->
<g id="edge21" class="edge">
<title>proof_of_address&#45;&gt;place_to_live</title>
<path fill="none" stroke="#000000" d="M747.0441,-308.7264C756.4993,-305.9057 766.21,-303.0247 775.3736,-300.333 830.8439,-284.0397 854.4211,-299.4155 900.3736,-264.333 918.5284,-250.4728 984.914,-122.8579 1016.9061,-60.0493"/>
<polygon fill="#000000" stroke="#000000" points="1020.1388,-61.4135 1021.5499,-50.913 1013.8987,-58.2416 1020.1388,-61.4135"/>
</g>
<!-- cpr_number -->
<g id="node16" class="node">
<title>cpr_number</title>
<ellipse fill="#00ff00" stroke="#000000" cx="931.3736" cy="-519.4113" rx="62.9806" ry="25.4118"/>
<text text-anchor="middle" x="931.3736" y="-522.2113" font-family="Times,serif" font-size="14.00" fill="#000000">CPR number</text>
<text text-anchor="middle" x="931.3736" y="-508.2113" font-family="Times,serif" font-size="14.00" fill="#000000">2019&#45;02&#45;06</text>
</g>
<!-- cpr_number&#45;&gt;can_receive_post -->
<g id="edge18" class="edge">
<title>cpr_number&#45;&gt;can_receive_post</title>
<path fill="none" stroke="#000000" d="M951.4231,-495.1486C994.3549,-443.1952 1095.2246,-321.1287 1144.0043,-262.0984"/>
<polygon fill="#000000" stroke="#000000" points="1146.8581,-264.1394 1150.5302,-254.2012 1141.4621,-259.6804 1146.8581,-264.1394"/>
</g>
<!-- cpr_number&#45;&gt;cpr_number_application -->
<g id="edge17" class="edge">
<title>cpr_number&#45;&gt;cpr_number_application</title>
<path fill="none" stroke="#ff0000" d="M886.6082,-501.4287C849.8588,-486.6662 797.305,-465.555 755.8312,-448.8948"/>
<polygon fill="#ff0000" stroke="#ff0000" points="756.9378,-445.5675 746.3538,-445.0876 754.3284,-452.063 756.9378,-445.5675"/>
</g>
<!-- cpr_card -->
<g id="node17" class="node">
<title>cpr_card</title>
<ellipse fill="#00ff00" stroke="#000000" cx="1192.3736" cy="-616.2224" rx="78.9044" ry="25.4118"/>
<text text-anchor="middle" x="1192.3736" y="-619.0224" font-family="Times,serif" font-size="14.00" fill="#000000">CPR yellow card</text>
<text text-anchor="middle" x="1192.3736" y="-605.0224" font-family="Times,serif" font-size="14.00" fill="#000000">2019&#45;02&#45;??</text>
</g>
<!-- cpr_card&#45;&gt;can_receive_post -->
<g id="edge20" class="edge">
<title>cpr_card&#45;&gt;can_receive_post</title>
<path fill="none" stroke="#000000" d="M1190.9795,-590.5143C1187.3355,-523.3178 1177.5192,-342.3029 1173.3211,-264.8898"/>
<polygon fill="#000000" stroke="#000000" points="1176.8037,-264.4725 1172.7673,-254.6767 1169.814,-264.8516 1176.8037,-264.4725"/>
</g>
<!-- cpr_card&#45;&gt;cpr_number -->
<g id="edge19" class="edge">
<title>cpr_card&#45;&gt;cpr_number</title>
<path fill="none" stroke="#000000" d="M1141.2521,-596.6554C1127.6545,-591.487 1112.9684,-585.9375 1099.3736,-580.8671 1062.4545,-567.0974 1020.865,-551.8813 988.3028,-540.0346"/>
<polygon fill="#000000" stroke="#000000" points="989.0963,-536.5991 978.5023,-536.4716 986.7046,-543.1778 989.0963,-536.5991"/>
</g>
<!-- skattekort -->
<g id="node18" class="node">
<title>skattekort</title>
<ellipse fill="#00ff00" stroke="#000000" cx="744.3736" cy="-819.7443" rx="57.5098" ry="25.4118"/>
<text text-anchor="middle" x="744.3736" y="-822.5443" font-family="Times,serif" font-size="14.00" fill="#000000">Skattekort</text>
<text text-anchor="middle" x="744.3736" y="-808.5443" font-family="Times,serif" font-size="14.00" fill="#000000">2019&#45;02&#45;07</text>
</g>
<!-- skattekort&#45;&gt;cpr_number -->
<g id="edge22" class="edge">
<title>skattekort&#45;&gt;cpr_number</title>
<path fill="none" stroke="#000000" stroke-dasharray="1,5" d="M731.7262,-794.6384C719.7273,-767.0926 705.7961,-722.1942 722.3736,-687.5778 754.945,-619.5642 829.9268,-570.3112 880.6385,-543.2962"/>
<polygon fill="#000000" stroke="#000000" points="882.5627,-546.2401 889.8094,-538.5112 879.3246,-540.034 882.5627,-546.2401"/>
</g>
<!-- nemid_application -->
<g id="node19" class="node">
<title>nemid_application</title>
<ellipse fill="#00ff00" stroke="#000000" cx="944.3736" cy="-616.2224" rx="72.138" ry="35.2113"/>
<text text-anchor="middle" x="944.3736" y="-626.0224" font-family="Times,serif" font-size="14.00" fill="#000000">Application for</text>
<text text-anchor="middle" x="944.3736" y="-612.0224" font-family="Times,serif" font-size="14.00" fill="#000000">Nemid</text>
<text text-anchor="middle" x="944.3736" y="-598.0224" font-family="Times,serif" font-size="14.00" fill="#000000">2019&#45;02&#45;06</text>
</g>
<!-- nemid_application&#45;&gt;cpr_number -->
<g id="edge23" class="edge">
<title>nemid_application&#45;&gt;cpr_number</title>
<path fill="none" stroke="#000000" d="M939.6067,-580.7232C938.4734,-572.2829 937.2641,-563.2777 936.1311,-554.8404"/>
<polygon fill="#000000" stroke="#000000" points="939.597,-554.3518 934.7972,-544.9066 932.6593,-555.2835 939.597,-554.3518"/>
</g>
<!-- nemid_userid -->
<g id="node20" class="node">
<title>nemid_userid</title>
<ellipse fill="#00ff00" stroke="#000000" cx="804.3736" cy="-722.9331" rx="72.7816" ry="25.4118"/>
<text text-anchor="middle" x="804.3736" y="-725.7331" font-family="Times,serif" font-size="14.00" fill="#000000">NemID user ID</text>
<text text-anchor="middle" x="804.3736" y="-711.7331" font-family="Times,serif" font-size="14.00" fill="#000000">2019&#45;02&#45;06</text>
</g>
<!-- nemid_userid&#45;&gt;nemid_application -->
<g id="edge24" class="edge">
<title>nemid_userid&#45;&gt;nemid_application</title>
<path fill="none" stroke="#000000" d="M834.7516,-699.7785C852.9975,-685.8711 876.5987,-667.8818 897.2261,-652.1592"/>
<polygon fill="#000000" stroke="#000000" points="899.4325,-654.8783 905.2639,-646.0326 895.189,-649.3111 899.4325,-654.8783"/>
</g>
<!-- danish_bank_account -->
<g id="node21" class="node">
<title>danish_bank_account</title>
<ellipse fill="#00ff00" stroke="#000000" cx="467.3736" cy="-616.2224" rx="94.1666" ry="25.4118"/>
<text text-anchor="middle" x="467.3736" y="-619.0224" font-family="Times,serif" font-size="14.00" fill="#000000">Danish bank account</text>
<text text-anchor="middle" x="467.3736" y="-605.0224" font-family="Times,serif" font-size="14.00" fill="#000000">2019&#45;02&#45;07</text>
</g>
<!-- danish_bank_account&#45;&gt;proof_of_work -->
<g id="edge26" class="edge">
<title>danish_bank_account&#45;&gt;proof_of_work</title>
<path fill="none" stroke="#000000" d="M468.4586,-590.5456C469.9291,-553.472 472.3736,-482.791 472.3736,-422.6001 472.3736,-422.6001 472.3736,-422.6001 472.3736,-325.7889 472.3736,-266.7748 465.605,-198.4304 460.8726,-157.858"/>
<polygon fill="#000000" stroke="#000000" points="464.347,-157.4343 459.6889,-147.9185 457.3961,-158.2622 464.347,-157.4343"/>
</g>
<!-- danish_bank_account&#45;&gt;passport -->
<g id="edge27" class="edge">
<title>danish_bank_account&#45;&gt;passport</title>
<path fill="none" stroke="#000000" d="M473.8655,-590.8128C477.3235,-577.1967 481.6253,-560.1282 485.3736,-544.8671 520.6164,-401.3807 561.0544,-230.0742 578.1071,-157.5134"/>
<polygon fill="#000000" stroke="#000000" points="581.5705,-158.0747 580.45,-147.5392 574.756,-156.4739 581.5705,-158.0747"/>
</g>
<!-- danish_bank_account&#45;&gt;danish_phone_number -->
<g id="edge28" class="edge">
<title>danish_bank_account&#45;&gt;danish_phone_number</title>
<path fill="none" stroke="#000000" d="M436.9026,-592.0426C421.0117,-579.4326 401.3966,-563.8674 384.4058,-550.3846"/>
<polygon fill="#000000" stroke="#000000" points="386.3125,-547.4296 376.3035,-543.9552 381.9613,-552.9129 386.3125,-547.4296"/>
</g>
<!-- danish_bank_account&#45;&gt;cpr_number -->
<g id="edge25" class="edge">
<title>danish_bank_account&#45;&gt;cpr_number</title>
<path fill="none" stroke="#000000" d="M524.3734,-595.8477C540.7027,-590.48 558.6206,-585.0318 575.3736,-580.8671 673.2722,-556.5299 788.6815,-538.515 860.954,-528.4849"/>
<polygon fill="#000000" stroke="#000000" points="861.8667,-531.8924 871.2969,-527.0631 860.9134,-524.9576 861.8667,-531.8924"/>
</g>
<!-- activated_nemid -->
<g id="node22" class="node">
<title>activated_nemid</title>
<ellipse fill="none" stroke="#000000" cx="890.3736" cy="-819.7443" rx="70.5271" ry="18"/>
<text text-anchor="middle" x="890.3736" y="-815.5443" font-family="Times,serif" font-size="14.00" fill="#000000">Activated Nemid</text>
</g>
<!-- activated_nemid&#45;&gt;danish_phone_number -->
<g id="edge30" class="edge">
<title>activated_nemid&#45;&gt;danish_phone_number</title>
<path fill="none" stroke="#000000" d="M850.2654,-804.77C837.9486,-800.7308 824.2455,-796.7909 811.3736,-794.2885 757.0243,-783.7224 352.0832,-798.8283 314.3736,-758.2885 262.6231,-702.6538 299.9459,-605.6634 325.9734,-554.0445"/>
<polygon fill="#000000" stroke="#000000" points="329.1899,-555.4442 330.6778,-544.9544 322.9731,-552.2268 329.1899,-555.4442"/>
</g>
<!-- activated_nemid&#45;&gt;nemid_userid -->
<g id="edge29" class="edge">
<title>activated_nemid&#45;&gt;nemid_userid</title>
<path fill="none" stroke="#000000" d="M874.5999,-801.9876C863.0378,-788.972 847.0143,-770.9342 833.1922,-755.3745"/>
<polygon fill="#000000" stroke="#000000" points="835.4582,-752.6552 826.2002,-747.5035 830.2248,-757.3041 835.4582,-752.6552"/>
</g>
<!-- noglekort -->
<g id="node23" class="node">
<title>noglekort</title>
<ellipse fill="#00ff00" stroke="#000000" cx="1209.3736" cy="-722.9331" rx="69.7588" ry="35.2113"/>
<text text-anchor="middle" x="1209.3736" y="-732.7331" font-family="Times,serif" font-size="14.00" fill="#000000">Nøglekort</text>
<text text-anchor="middle" x="1209.3736" y="-718.7331" font-family="Times,serif" font-size="14.00" fill="#000000">2019&#45;02&#45;06</text>
<text text-anchor="middle" x="1209.3736" y="-704.7331" font-family="Times,serif" font-size="14.00" fill="#000000">og 2019&#45;02&#45;07</text>
</g>
<!-- activated_nemid&#45;&gt;noglekort -->
<g id="edge31" class="edge">
<title>activated_nemid&#45;&gt;noglekort</title>
<path fill="none" stroke="#000000" d="M945.4903,-808.4336C994.65,-797.6867 1068.241,-779.9698 1130.3736,-758.2885 1136.4254,-756.1767 1142.6537,-753.7871 1148.8318,-751.2708"/>
<polygon fill="#000000" stroke="#000000" points="1150.5956,-754.3267 1158.4662,-747.2342 1147.8905,-747.8704 1150.5956,-754.3267"/>
</g>
<!-- midlertidlig_nemid_adgangskode -->
<g id="node24" class="node">
<title>midlertidlig_nemid_adgangskode</title>
<ellipse fill="#ffff00" stroke="#000000" cx="1008.3736" cy="-722.9331" rx="113.2475" ry="18"/>
<text text-anchor="middle" x="1008.3736" y="-718.7331" font-family="Times,serif" font-size="14.00" fill="#000000">Temporary NemID password</text>
</g>
<!-- activated_nemid&#45;&gt;midlertidlig_nemid_adgangskode -->
<g id="edge32" class="edge">
<title>activated_nemid&#45;&gt;midlertidlig_nemid_adgangskode</title>
<path fill="none" stroke="#000000" d="M911.4697,-802.4364C930.1969,-787.072 957.7594,-764.4587 978.7062,-747.2733"/>
<polygon fill="#000000" stroke="#000000" points="981.1508,-749.7949 986.6619,-740.7462 976.7109,-744.3831 981.1508,-749.7949"/>
</g>
<!-- noglekort&#45;&gt;can_receive_post -->
<g id="edge35" class="edge">
<title>noglekort&#45;&gt;can_receive_post</title>
<path fill="none" stroke="#000000" stroke-dasharray="1,5" d="M1260.5757,-698.8664C1280.004,-687.2308 1300.5218,-671.4293 1313.3736,-651.5778 1345.8184,-601.4621 1337.3736,-579.1126 1337.3736,-519.4113 1337.3736,-519.4113 1337.3736,-519.4113 1337.3736,-422.6001 1337.3736,-367.2222 1346.865,-344.4356 1313.3736,-300.333 1296.8023,-278.5114 1271.7178,-262.8819 1247.2192,-251.9244"/>
<polygon fill="#000000" stroke="#000000" points="1248.4496,-248.6443 1237.8775,-247.9503 1245.7093,-255.0857 1248.4496,-248.6443"/>
</g>
<!-- noglekort&#45;&gt;nemid_application -->
<g id="edge33" class="edge">
<title>noglekort&#45;&gt;nemid_application</title>
<path fill="none" stroke="#ff0000" stroke-dasharray="1,5" d="M1157.3132,-699.0558C1148.3702,-695.1204 1139.1361,-691.1601 1130.3736,-687.5778 1087.8089,-670.1763 1076.2999,-668.0673 1033.3736,-651.5778 1025.6766,-648.6211 1017.6216,-645.4831 1009.6363,-642.345"/>
<polygon fill="#ff0000" stroke="#ff0000" points="1010.9067,-639.0837 1000.3198,-638.6719 1008.3392,-645.5958 1010.9067,-639.0837"/>
</g>
<!-- midlertidlig_nemid_adgangskode&#45;&gt;can_receive_post -->
<g id="edge36" class="edge">
<title>midlertidlig_nemid_adgangskode&#45;&gt;can_receive_post</title>
<path fill="none" stroke="#000000" stroke-dasharray="1,5" d="M1061.3703,-706.9929C1082.7425,-700.7169 1107.6704,-693.5884 1130.3736,-687.5778 1196.6501,-670.0314 1234.1945,-702.2525 1280.3736,-651.5778 1320.3458,-607.7143 1299.3736,-578.7558 1299.3736,-519.4113 1299.3736,-519.4113 1299.3736,-519.4113 1299.3736,-422.6001 1299.3736,-356.5763 1246.9412,-295.7526 1209.1922,-260.5179"/>
<polygon fill="#000000" stroke="#000000" points="1211.1306,-257.5487 1201.384,-253.395 1206.413,-262.7202 1211.1306,-257.5487"/>
</g>
<!-- midlertidlig_nemid_adgangskode&#45;&gt;nemid_application -->
<g id="edge34" class="edge">
<title>midlertidlig_nemid_adgangskode&#45;&gt;nemid_application</title>
<path fill="none" stroke="#ff0000" stroke-dasharray="1,5" d="M997.5169,-704.8311C989.9942,-692.2881 979.6499,-675.0404 970.0856,-659.0935"/>
<polygon fill="#ff0000" stroke="#ff0000" points="973.0203,-657.1817 964.8753,-650.406 967.0172,-660.7821 973.0203,-657.1817"/>
</g>
<!-- ehic -->
<g id="node25" class="node">
<title>ehic</title>
<ellipse fill="none" stroke="#000000" cx="1003.3736" cy="-899.2001" rx="99.0157" ry="18"/>
<text text-anchor="middle" x="1003.3736" y="-895.0001" font-family="Times,serif" font-size="14.00" fill="#000000">Danish EHIC (&#39;blåt kort&#39;)</text>
</g>
<!-- ehic&#45;&gt;place_to_live -->
<g id="edge39" class="edge">
<title>ehic&#45;&gt;place_to_live</title>
<path fill="none" stroke="#000000" d="M1084.5777,-888.7867C1129.2343,-880.904 1184.6816,-867.4909 1230.3736,-845.2001 1308.6062,-807.0347 1383.3736,-809.9787 1383.3736,-722.9331 1383.3736,-722.9331 1383.3736,-722.9331 1383.3736,-228.9777 1383.3736,-103.2303 1212.2109,-53.7931 1109.6202,-35.4554"/>
<polygon fill="#000000" stroke="#000000" points="1110.0585,-31.9793 1099.6085,-33.7252 1108.8664,-38.877 1110.0585,-31.9793"/>
</g>
<!-- ehic&#45;&gt;cpr_number -->
<g id="edge37" class="edge">
<title>ehic&#45;&gt;cpr_number</title>
<path fill="none" stroke="#000000" d="M1058.2918,-884.2108C1161.2579,-853.5326 1366.2116,-778.7328 1288.3736,-687.5778 1222.0405,-609.8959 1143.9987,-711.6416 1061.3736,-651.5778 1032.8487,-630.8418 1048.9263,-607.1145 1025.3736,-580.8671 1012.6285,-566.6637 995.8887,-554.3378 980.0718,-544.5299"/>
<polygon fill="#000000" stroke="#000000" points="981.7885,-541.4784 971.4109,-539.3442 978.1926,-547.4842 981.7885,-541.4784"/>
</g>
<!-- ehic&#45;&gt;activated_nemid -->
<g id="edge38" class="edge">
<title>ehic&#45;&gt;activated_nemid</title>
<path fill="none" stroke="#000000" d="M978.5753,-881.7632C962.2725,-870.2999 940.7632,-855.1757 923.067,-842.7326"/>
<polygon fill="#000000" stroke="#000000" points="924.919,-839.7562 914.7256,-836.8674 920.8927,-845.4824 924.919,-839.7562"/>
</g>
<!-- doctor -->
<g id="node26" class="node">
<title>doctor</title>
<ellipse fill="#00ff00" stroke="#000000" cx="1469.3736" cy="-819.7443" rx="57.5098" ry="25.4118"/>
<text text-anchor="middle" x="1469.3736" y="-822.5443" font-family="Times,serif" font-size="14.00" fill="#000000">Doctor</text>
<text text-anchor="middle" x="1469.3736" y="-808.5443" font-family="Times,serif" font-size="14.00" fill="#000000">2019&#45;02&#45;06</text>
</g>
<!-- doctor&#45;&gt;cpr_number -->
<g id="edge40" class="edge">
<title>doctor&#45;&gt;cpr_number</title>
<path fill="none" stroke="#000000" d="M1450.1866,-795.7201C1424.378,-765.2227 1375.4334,-713.4701 1321.3736,-687.5778 1233.2026,-645.3476 1185.3675,-706.3274 1104.3736,-651.5778 1073.901,-630.9791 1088.7083,-605.4782 1061.3736,-580.8671 1041.0645,-562.5815 1014.3535,-548.6968 990.4291,-538.7929"/>
<polygon fill="#000000" stroke="#000000" points="991.6556,-535.514 981.0705,-535.0583 989.0611,-542.0154 991.6556,-535.514"/>
</g>
<!-- get_paid -->
<g id="node27" class="node">
<title>get_paid</title>
<ellipse fill="none" stroke="#000000" cx="447.3736" cy="-899.2001" rx="40.1247" ry="18"/>
<text text-anchor="middle" x="447.3736" y="-895.0001" font-family="Times,serif" font-size="14.00" fill="#000000">Get paid</text>
</g>
<!-- get_paid&#45;&gt;job -->
<g id="edge41" class="edge">
<title>get_paid&#45;&gt;job</title>
<path fill="none" stroke="#000000" d="M412.5935,-890.0215C348.5314,-870.777 218.3736,-819.7624 218.3736,-722.9331 218.3736,-722.9331 218.3736,-722.9331 218.3736,-228.9777 218.3736,-159.8135 270.2226,-93.2815 305.4716,-56.042"/>
<polygon fill="#000000" stroke="#000000" points="308.2813,-58.1714 312.7168,-48.5497 303.2492,-53.3053 308.2813,-58.1714"/>
</g>
<!-- get_paid&#45;&gt;skattekort -->
<g id="edge42" class="edge">
<title>get_paid&#45;&gt;skattekort</title>
<path fill="none" stroke="#000000" d="M484.6019,-892.1523C530.611,-883.0647 611.0689,-865.9372 678.3736,-845.2001 682.9729,-843.7831 687.7107,-842.2033 692.4367,-840.544"/>
<polygon fill="#000000" stroke="#000000" points="693.8633,-843.7498 702.073,-837.0526 691.4787,-837.1685 693.8633,-843.7498"/>
</g>
<!-- get_paid&#45;&gt;danish_bank_account -->
<g id="edge43" class="edge">
<title>get_paid&#45;&gt;danish_bank_account</title>
<path fill="none" stroke="#000000" d="M448.6552,-881.0681C451.9084,-835.038 460.5337,-713.0005 464.8455,-651.9925"/>
<polygon fill="#000000" stroke="#000000" points="468.3596,-651.915 465.5735,-641.6931 461.3771,-651.4215 468.3596,-651.915"/>
</g>
<!-- get_paid&#45;&gt;activated_nemid -->
<g id="edge44" class="edge">
<title>get_paid&#45;&gt;activated_nemid</title>
<path fill="none" stroke="#000000" d="M484.9672,-892.6163C505.4622,-889.0925 531.2878,-884.7582 554.3736,-881.2001 668.3652,-863.6316 698.9549,-870.9829 811.3736,-845.2001 820.6511,-843.0724 830.4005,-840.3479 839.7607,-837.4763"/>
<polygon fill="#000000" stroke="#000000" points="840.8576,-840.8003 849.3379,-834.4493 838.748,-834.1257 840.8576,-840.8003"/>
</g>
<!-- danish_lessions -->
<g id="node28" class="node">
<title>danish_lessions</title>
<ellipse fill="none" stroke="#000000" cx="606.3736" cy="-819.7443" rx="62.8431" ry="18"/>
<text text-anchor="middle" x="606.3736" y="-815.5443" font-family="Times,serif" font-size="14.00" fill="#000000">Danish lessons</text>
</g>
<!-- danish_lessions&#45;&gt;cpr_number -->
<g id="edge45" class="edge">
<title>danish_lessions&#45;&gt;cpr_number</title>
<path fill="none" stroke="#000000" d="M618.4681,-801.9566C626.6003,-789.8073 637.4269,-773.2594 646.3736,-758.2885 692.4751,-681.1446 674.2461,-638.2944 743.3736,-580.8671 776.8338,-553.0703 823.2143,-537.7349 861.5348,-529.3347"/>
<polygon fill="#000000" stroke="#000000" points="862.5202,-532.7048 871.5998,-527.2449 861.0971,-525.851 862.5202,-532.7048"/>
</g>
<!-- danish_bank_card -->
<g id="node29" class="node">
<title>danish_bank_card</title>
<ellipse fill="#00ff00" stroke="#000000" cx="556.3736" cy="-722.9331" rx="80.6721" ry="25.4118"/>
<text text-anchor="middle" x="556.3736" y="-725.7331" font-family="Times,serif" font-size="14.00" fill="#000000">Danish bank card</text>
<text text-anchor="middle" x="556.3736" y="-711.7331" font-family="Times,serif" font-size="14.00" fill="#000000">2019&#45;02&#45;16</text>
</g>
<!-- danish_lessions&#45;&gt;danish_bank_card -->
<g id="edge46" class="edge">
<title>danish_lessions&#45;&gt;danish_bank_card</title>
<path fill="none" stroke="#000000" d="M596.969,-801.5349C590.5502,-789.1065 581.8475,-772.2563 574.1461,-757.3445"/>
<polygon fill="#000000" stroke="#000000" points="577.2082,-755.646 569.5095,-748.3671 570.9887,-758.8582 577.2082,-755.646"/>
</g>
<!-- danish_bank_card&#45;&gt;can_receive_post -->
<g id="edge48" class="edge">
<title>danish_bank_card&#45;&gt;can_receive_post</title>
<path fill="none" stroke="#000000" d="M576.5649,-698.1606C601.1969,-668.6497 644.8336,-618.6048 687.3736,-580.8671 817.7831,-465.1797 867.2775,-457.6387 1005.3736,-351.2447 1033.6186,-329.4839 1038.8691,-321.7526 1067.3736,-300.333 1086.2636,-286.1383 1107.7074,-271.2318 1126.1956,-258.7358"/>
<polygon fill="#000000" stroke="#000000" points="1128.3906,-261.4775 1134.7353,-252.9925 1124.4841,-255.6689 1128.3906,-261.4775"/>
</g>
<!-- danish_bank_card&#45;&gt;danish_bank_account -->
<g id="edge47" class="edge">
<title>danish_bank_card&#45;&gt;danish_bank_account</title>
<path fill="none" stroke="#ff0000" d="M535.7316,-698.1833C523.5751,-683.6078 508.0462,-664.9887 494.8623,-649.1813"/>
<polygon fill="#ff0000" stroke="#ff0000" points="497.305,-646.6455 488.2121,-641.2077 491.9293,-651.129 497.305,-646.6455"/>
</g>
<!-- spend_lovely_dkk -->
<g id="node30" class="node">
<title>spend_lovely_dkk</title>
<ellipse fill="none" stroke="#000000" cx="511.3736" cy="-978.656" rx="99.0344" ry="18"/>
<text text-anchor="middle" x="511.3736" y="-974.456" font-family="Times,serif" font-size="14.00" fill="#000000">Spend your lovely DKK!</text>
</g>
<!-- spend_lovely_dkk&#45;&gt;get_paid -->
<g id="edge49" class="edge">
<title>spend_lovely_dkk&#45;&gt;get_paid</title>
<path fill="none" stroke="#000000" d="M496.8511,-960.6262C488.1612,-949.8377 476.9908,-935.9697 467.4634,-924.1415"/>
<polygon fill="#000000" stroke="#000000" points="470.1794,-921.9338 461.1807,-916.3415 464.7279,-926.3249 470.1794,-921.9338"/>
</g>
<!-- spend_lovely_dkk&#45;&gt;danish_bank_card -->
<g id="edge50" class="edge">
<title>spend_lovely_dkk&#45;&gt;danish_bank_card</title>
<path fill="none" stroke="#000000" d="M512.5857,-960.4227C515.0338,-927.1241 521.4686,-854.3664 534.3736,-794.2885 536.9426,-782.329 540.6067,-769.4915 544.2095,-758.0481"/>
<polygon fill="#000000" stroke="#000000" points="547.5803,-758.9996 547.3309,-748.4077 540.9207,-756.8434 547.5803,-758.9996"/>
</g>
<!-- mobilepay -->
<g id="node31" class="node">
<title>mobilepay</title>
<ellipse fill="none" stroke="#000000" cx="371.3736" cy="-722.9331" rx="48.3427" ry="18"/>
<text text-anchor="middle" x="371.3736" y="-718.7331" font-family="Times,serif" font-size="14.00" fill="#000000">Mobilepay</text>
</g>
<!-- mobilepay&#45;&gt;danish_phone_number -->
<g id="edge52" class="edge">
<title>mobilepay&#45;&gt;danish_phone_number</title>
<path fill="none" stroke="#000000" d="M369.0663,-704.8719C364.7747,-671.2781 355.4947,-598.6369 349.9073,-554.9"/>
<polygon fill="#000000" stroke="#000000" points="353.3783,-554.4492 348.6392,-544.9733 346.4347,-555.3363 353.3783,-554.4492"/>
</g>
<!-- mobilepay&#45;&gt;cpr_number -->
<g id="edge51" class="edge">
<title>mobilepay&#45;&gt;cpr_number</title>
<path fill="none" stroke="#000000" d="M405.6021,-709.9777C423.6444,-703.2037 446.1672,-694.834 466.3736,-687.5778 512.4085,-671.0465 528.0593,-676.1132 570.3736,-651.5778 611.7143,-627.6069 608.7002,-602.376 651.3736,-580.8671 717.1957,-547.6905 800.5757,-532.3321 859.1659,-525.2793"/>
<polygon fill="#000000" stroke="#000000" points="859.9079,-528.7171 869.4422,-524.0967 859.1075,-521.763 859.9079,-528.7171"/>
</g>
<!-- mobilepay&#45;&gt;danish_bank_account -->
<g id="edge53" class="edge">
<title>mobilepay&#45;&gt;danish_bank_account</title>
<path fill="none" stroke="#000000" d="M386.7977,-705.7882C400.5252,-690.5291 420.9832,-667.7886 437.8496,-649.0405"/>
<polygon fill="#000000" stroke="#000000" points="440.7419,-651.0587 444.828,-641.2835 435.5378,-646.377 440.7419,-651.0587"/>
</g>
<!-- hygge -->
<g id="node32" class="node">
<title>hygge</title>
<ellipse fill="none" stroke="#000000" cx="715.3736" cy="-1278.01" rx="101.1913" ry="21.7969"/>
<text text-anchor="middle" x="715.3736" y="-1278.2944" font-family="Times,serif" font-size="14.00" fill="#000000">🇩🇰 😊 Hygge 😊 🇩🇰</text>
</g>
<!-- magi4 -->
<g id="node33" class="node">
<title>magi4</title>
<ellipse fill="none" stroke="#000000" cx="775.3736" cy="-1058.1118" rx="27" ry="18"/>
<text text-anchor="middle" x="775.3736" y="-1053.9118" font-family="Times,serif" font-size="14.00" fill="#000000">????</text>
</g>
<!-- hygge&#45;&gt;magi4 -->
<g id="edge54" class="edge">
<title>hygge&#45;&gt;magi4</title>
<path fill="none" stroke="#000000" stroke-dasharray="5,2" d="M721.346,-1256.1214C732.35,-1215.7923 755.8007,-1129.8462 767.8633,-1085.6369"/>
<polygon fill="#000000" stroke="#000000" points="771.2768,-1086.4227 770.5326,-1075.854 764.5237,-1084.58 771.2768,-1086.4227"/>
</g>
<!-- magi1 -->
<g id="node34" class="node">
<title>magi1</title>
<ellipse fill="none" stroke="#000000" cx="688.3736" cy="-1202.1118" rx="27" ry="18"/>
<text text-anchor="middle" x="688.3736" y="-1197.9118" font-family="Times,serif" font-size="14.00" fill="#000000">?</text>
</g>
<!-- hygge&#45;&gt;magi1 -->
<g id="edge55" class="edge">
<title>hygge&#45;&gt;magi1</title>
<path fill="none" stroke="#000000" d="M707.5641,-1256.0571C704.5768,-1247.6595 701.1343,-1237.9827 697.9971,-1229.1637"/>
<polygon fill="#000000" stroke="#000000" points="701.2745,-1227.9338 694.6252,-1219.6853 694.6794,-1230.28 701.2745,-1227.9338"/>
</g>
<!-- helbred -->
<g id="node37" class="node">
<title>helbred</title>
<ellipse fill="none" stroke="#000000" cx="889.3736" cy="-978.656" rx="33.8596" ry="18"/>
<text text-anchor="middle" x="889.3736" y="-974.456" font-family="Times,serif" font-size="14.00" fill="#000000">Health</text>
</g>
<!-- magi4&#45;&gt;helbred -->
<g id="edge61" class="edge">
<title>magi4&#45;&gt;helbred</title>
<path fill="none" stroke="#000000" stroke-dasharray="1,5" d="M794.1984,-1044.9913C812.1271,-1032.4953 839.3815,-1013.4995 860.1373,-999.0332"/>
<polygon fill="#000000" stroke="#000000" points="862.3859,-1001.7322 868.5886,-993.1428 858.3833,-995.9894 862.3859,-1001.7322"/>
</g>
<!-- magi2 -->
<g id="node35" class="node">
<title>magi2</title>
<ellipse fill="none" stroke="#000000" cx="552.3736" cy="-1130.1118" rx="27" ry="18"/>
<text text-anchor="middle" x="552.3736" y="-1125.9118" font-family="Times,serif" font-size="14.00" fill="#000000">??</text>
</g>
<!-- magi1&#45;&gt;magi2 -->
<g id="edge57" class="edge">
<title>magi1&#45;&gt;magi2</title>
<path fill="none" stroke="#000000" d="M667.1236,-1190.8618C644.5014,-1178.8854 608.4997,-1159.8256 582.8576,-1146.2504"/>
<polygon fill="#000000" stroke="#000000" points="584.3988,-1143.1061 573.9233,-1141.5204 581.1235,-1149.2926 584.3988,-1143.1061"/>
</g>
<!-- magi3 -->
<g id="node36" class="node">
<title>magi3</title>
<ellipse fill="none" stroke="#000000" cx="665.3736" cy="-1130.1118" rx="27" ry="18"/>
<text text-anchor="middle" x="665.3736" y="-1125.9118" font-family="Times,serif" font-size="14.00" fill="#000000">????</text>
</g>
<!-- magi1&#45;&gt;magi3 -->
<g id="edge58" class="edge">
<title>magi1&#45;&gt;magi3</title>
<path fill="none" stroke="#000000" stroke-dasharray="5,2" d="M682.6883,-1184.3141C680.1173,-1176.2659 677.0202,-1166.5706 674.1605,-1157.6185"/>
<polygon fill="#000000" stroke="#000000" points="677.4504,-1156.4151 671.0734,-1147.9544 670.7824,-1158.5452 677.4504,-1156.4151"/>
</g>
<!-- magi1&#45;&gt;helbred -->
<g id="edge59" class="edge">
<title>magi1&#45;&gt;helbred</title>
<path fill="none" stroke="#000000" stroke-dasharray="1,5" d="M693.1149,-1184.1049C703.7524,-1144.2012 729.37,-1050.9916 739.3736,-1040.1118 767.5978,-1009.4159 813.4006,-993.6654 846.978,-985.8428"/>
<polygon fill="#000000" stroke="#000000" points="847.9491,-989.2133 856.9731,-983.6619 846.4568,-982.3742 847.9491,-989.2133"/>
</g>
<!-- penge -->
<g id="node38" class="node">
<title>penge</title>
<ellipse fill="none" stroke="#000000" cx="531.3736" cy="-1058.1118" rx="35.3216" ry="18"/>
<text text-anchor="middle" x="531.3736" y="-1053.9118" font-family="Times,serif" font-size="14.00" fill="#000000">Money</text>
</g>
<!-- magi2&#45;&gt;penge -->
<g id="edge60" class="edge">
<title>magi2&#45;&gt;penge</title>
<path fill="none" stroke="#000000" stroke-dasharray="1,5" d="M547.1826,-1112.3141C544.8353,-1104.2659 542.0075,-1094.5706 539.3964,-1085.6185"/>
<polygon fill="#000000" stroke="#000000" points="542.7378,-1084.5744 536.5777,-1075.9544 536.0178,-1086.5344 542.7378,-1084.5744"/>
</g>
<!-- rejser -->
<g id="node39" class="node">
<title>rejser</title>
<ellipse fill="#00ff00" stroke="#000000" cx="156.3736" cy="-1058.1118" rx="41.1266" ry="18"/>
<text text-anchor="middle" x="156.3736" y="-1053.9118" font-family="Times,serif" font-size="14.00" fill="#000000">Mobility</text>
</g>
<!-- magi2&#45;&gt;rejser -->
<g id="edge67" class="edge">
<title>magi2&#45;&gt;rejser</title>
<path fill="none" stroke="#000000" stroke-dasharray="1,5" d="M526.0843,-1125.332C460.4996,-1113.4075 288.8884,-1082.2054 204.5579,-1066.8726"/>
<polygon fill="#000000" stroke="#000000" points="204.9402,-1063.3848 194.4754,-1065.0394 203.688,-1070.2719 204.9402,-1063.3848"/>
</g>
<!-- faa_ting_gjort -->
<g id="node40" class="node">
<title>faa_ting_gjort</title>
<ellipse fill="none" stroke="#000000" cx="638.3736" cy="-899.2001" rx="75.0675" ry="18"/>
<text text-anchor="middle" x="638.3736" y="-895.0001" font-family="Times,serif" font-size="14.00" fill="#000000">Can get stuff done</text>
</g>
<!-- magi2&#45;&gt;faa_ting_gjort -->
<g id="edge70" class="edge">
<title>magi2&#45;&gt;faa_ting_gjort</title>
<path fill="none" stroke="#000000" stroke-dasharray="1,5" d="M563.4706,-1113.3566C578.4737,-1089.9152 605.0002,-1045.5417 619.3736,-1004.1118 628.0931,-978.9789 633.0106,-949.0001 635.6469,-927.5376"/>
<polygon fill="#000000" stroke="#000000" points="639.1412,-927.7848 636.795,-917.453 632.1862,-926.9929 639.1412,-927.7848"/>
</g>
<!-- magi3&#45;&gt;magi4 -->
<g id="edge56" class="edge">
<title>magi3&#45;&gt;magi4</title>
<path fill="none" stroke="#000000" d="M684.7862,-1117.4054C702.1156,-1106.0625 727.7054,-1089.3129 747.2708,-1076.5064"/>
<polygon fill="#000000" stroke="#000000" points="749.3349,-1079.3385 755.7851,-1070.9334 745.5013,-1073.4816 749.3349,-1079.3385"/>
</g>
<!-- magi3&#45;&gt;penge -->
<g id="edge64" class="edge">
<title>magi3&#45;&gt;penge</title>
<path fill="none" stroke="#000000" stroke-dasharray="1,5" d="M644.1409,-1118.7032C622.8083,-1107.2409 589.6181,-1089.4073 564.7597,-1076.0506"/>
<polygon fill="#000000" stroke="#000000" points="566.1481,-1072.8234 555.6825,-1071.1733 562.8348,-1078.9896 566.1481,-1072.8234"/>
</g>
<!-- helbred&#45;&gt;ehic -->
<g id="edge63" class="edge">
<title>helbred&#45;&gt;ehic</title>
<path fill="none" stroke="#000000" d="M910.0182,-964.2671C926.6741,-952.6583 950.4381,-936.0952 969.821,-922.5857"/>
<polygon fill="#000000" stroke="#000000" points="971.8983,-925.4041 978.101,-916.8147 967.8957,-919.6614 971.8983,-925.4041"/>
</g>
<!-- helbred&#45;&gt;doctor -->
<g id="edge62" class="edge">
<title>helbred&#45;&gt;doctor</title>
<path fill="none" stroke="#000000" d="M920.5515,-971.4193C1000.4278,-952.6735 1218.6995,-900.1516 1397.3736,-845.2001 1403.2782,-843.3842 1409.4186,-841.386 1415.5132,-839.3321"/>
<polygon fill="#000000" stroke="#000000" points="1416.6873,-842.6296 1425.0126,-836.0768 1414.418,-836.0077 1416.6873,-842.6296"/>
</g>
<!-- penge&#45;&gt;spend_lovely_dkk -->
<g id="edge65" class="edge">
<title>penge&#45;&gt;spend_lovely_dkk</title>
<path fill="none" stroke="#000000" d="M526.8353,-1040.0821C524.347,-1030.1964 521.2078,-1017.7251 518.4092,-1006.6068"/>
<polygon fill="#000000" stroke="#000000" points="521.7984,-1005.7326 515.9632,-996.8894 515.0102,-1007.4413 521.7984,-1005.7326"/>
</g>
<!-- penge&#45;&gt;mobilepay -->
<g id="edge66" class="edge">
<title>penge&#45;&gt;mobilepay</title>
<path fill="none" stroke="#000000" d="M497.2043,-1053.3881C467.428,-1047.3506 425.6281,-1033.8497 403.3736,-1004.1118 346.2473,-927.7759 357.3422,-805.5946 366.0548,-750.9411"/>
<polygon fill="#000000" stroke="#000000" points="369.5289,-751.3879 367.7447,-740.9444 362.6268,-750.2211 369.5289,-751.3879"/>
</g>
<!-- rejser&#45;&gt;rejsekort -->
<g id="edge69" class="edge">
<title>rejser&#45;&gt;rejsekort</title>
<path fill="none" stroke="#000000" d="M137.7561,-1042.0328C126.6077,-1032.4045 112.0857,-1019.8625 98.9054,-1008.4793"/>
<polygon fill="#000000" stroke="#000000" points="101.1916,-1005.8292 91.3357,-1001.9418 96.6162,-1011.1269 101.1916,-1005.8292"/>
</g>
<!-- rejser&#45;&gt;pendlerkort -->
<g id="edge68" class="edge">
<title>rejser&#45;&gt;pendlerkort</title>
<path fill="none" stroke="#000000" d="M156.3736,-1039.9995C156.3736,-1010.4998 156.3736,-950.2395 156.3736,-899.2001 156.3736,-899.2001 156.3736,-899.2001 156.3736,-616.2224 156.3736,-560.8016 146.57,-497.1308 139.4943,-458.3943"/>
<polygon fill="#000000" stroke="#000000" points="142.8587,-457.3443 137.5813,-448.1574 135.9778,-458.6302 142.8587,-457.3443"/>
</g>
<!-- faa_ting_gjort&#45;&gt;activated_nemid -->
<g id="edge71" class="edge">
<title>faa_ting_gjort&#45;&gt;activated_nemid</title>
<path fill="none" stroke="#000000" d="M684.6695,-884.8757C719.5311,-874.0584 768.4859,-858.8031 811.3736,-845.2001 819.6567,-842.573 828.4212,-839.7709 836.9806,-837.0223"/>
<polygon fill="#000000" stroke="#000000" points="838.0727,-840.3477 846.5207,-833.9537 835.9293,-833.6839 838.0727,-840.3477"/>
</g>
<!-- faa_ting_gjort&#45;&gt;danish_lessions -->
<g id="edge72" class="edge">
<title>faa_ting_gjort&#45;&gt;danish_lessions</title>
<path fill="none" stroke="#000000" d="M631.1124,-881.1704C627.0619,-871.113 621.9335,-858.3795 617.3977,-847.117"/>
<polygon fill="#000000" stroke="#000000" points="620.5887,-845.6711 613.6062,-837.7027 614.0955,-848.2862 620.5887,-845.6711"/>
</g>
</g>
</svg>
