<?xml version="1.0" encoding="UTF-8" standalone="no"?>
<!DOCTYPE svg PUBLIC "-//W3C//DTD SVG 1.1//EN"
 "http://www.w3.org/Graphics/SVG/1.1/DTD/svg11.dtd">
<!-- Generated by graphviz version 2.40.1 (20161225.0304)
 -->
<!-- Title: g Pages: 1 -->
<svg width="1015pt" height="903pt"
 viewBox="0.00 0.00 1014.50 903.09" xmlns="http://www.w3.org/2000/svg" xmlns:xlink="http://www.w3.org/1999/xlink">
<g id="graph0" class="graph" transform="scale(1 1) rotate(0) translate(4 899.0925)">
<title>g</title>
<polygon fill="#ffffff" stroke="transparent" points="-4,4 -4,-899.0925 1010.5049,-899.0925 1010.5049,4 -4,4"/>
<!-- job -->
<g id="node1" class="node">
<title>job</title>
<ellipse fill="#00ff00" stroke="#000000" cx="949" cy="-25.4558" rx="57.5098" ry="25.4118"/>
<text text-anchor="middle" x="949" y="-28.2558" font-family="Times,serif" font-size="14.00" fill="#000000">A job</text>
<text text-anchor="middle" x="949" y="-14.2558" font-family="Times,serif" font-size="14.00" fill="#000000">2018&#45;10&#45;19</text>
</g>
<!-- proof_of_work -->
<g id="node2" class="node">
<title>proof_of_work</title>
<ellipse fill="#00ff00" stroke="#000000" cx="902" cy="-122.267" rx="66.707" ry="25.4118"/>
<text text-anchor="middle" x="902" y="-125.067" font-family="Times,serif" font-size="14.00" fill="#000000">Proof of work</text>
<text text-anchor="middle" x="902" y="-111.067" font-family="Times,serif" font-size="14.00" fill="#000000">2019&#45;01&#45;22</text>
</g>
<!-- proof_of_work&#45;&gt;job -->
<g id="edge1" class="edge">
<title>proof_of_work&#45;&gt;job</title>
<path fill="none" stroke="#000000" d="M914.226,-97.0838C919.7746,-85.6547 926.4221,-71.9621 932.412,-59.624"/>
<polygon fill="#000000" stroke="#000000" points="935.6164,-61.0375 936.8352,-50.513 929.3192,-57.9804 935.6164,-61.0375"/>
</g>
<!-- passport -->
<g id="node3" class="node">
<title>passport</title>
<ellipse fill="#00ff00" stroke="#000000" cx="772" cy="-122.267" rx="44.7298" ry="25.4118"/>
<text text-anchor="middle" x="772" y="-125.067" font-family="Times,serif" font-size="14.00" fill="#000000">Passport</text>
<text text-anchor="middle" x="772" y="-111.067" font-family="Times,serif" font-size="14.00" fill="#000000">2015</text>
</g>
<!-- danish_phone_number -->
<g id="node4" class="node">
<title>danish_phone_number</title>
<ellipse fill="#00ff00" stroke="#000000" cx="680" cy="-638.725" rx="98.9836" ry="25.4118"/>
<text text-anchor="middle" x="680" y="-641.525" font-family="Times,serif" font-size="14.00" fill="#000000">Danish phone number</text>
<text text-anchor="middle" x="680" y="-627.525" font-family="Times,serif" font-size="14.00" fill="#000000">2019&#45;01&#45;17</text>
</g>
<!-- rejsekort -->
<g id="node5" class="node">
<title>rejsekort</title>
<ellipse fill="#00ff00" stroke="#000000" cx="665" cy="-869.6367" rx="64.2475" ry="25.4118"/>
<text text-anchor="middle" x="665" y="-872.4367" font-family="Times,serif" font-size="14.00" fill="#000000">Rejsekort</text>
<text text-anchor="middle" x="665" y="-858.4367" font-family="Times,serif" font-size="14.00" fill="#000000">2018&#45;10&#45;19 ?</text>
</g>
<!-- place_to_live -->
<g id="node6" class="node">
<title>place_to_live</title>
<ellipse fill="#00ff00" stroke="#000000" cx="247" cy="-25.4558" rx="68.5454" ry="25.4118"/>
<text text-anchor="middle" x="247" y="-28.2558" font-family="Times,serif" font-size="14.00" fill="#000000">A place to live</text>
<text text-anchor="middle" x="247" y="-14.2558" font-family="Times,serif" font-size="14.00" fill="#000000">2019&#45;01&#45;21</text>
</g>
<!-- name_on_postbox -->
<g id="node7" class="node">
<title>name_on_postbox</title>
<ellipse fill="#00ff00" stroke="#000000" cx="133" cy="-122.267" rx="66.9194" ry="35.2113"/>
<text text-anchor="middle" x="133" y="-132.067" font-family="Times,serif" font-size="14.00" fill="#000000">Your name on</text>
<text text-anchor="middle" x="133" y="-118.067" font-family="Times,serif" font-size="14.00" fill="#000000">your postbox</text>
<text text-anchor="middle" x="133" y="-104.067" font-family="Times,serif" font-size="14.00" fill="#000000">2019&#45;01&#45;22</text>
</g>
<!-- name_on_postbox&#45;&gt;place_to_live -->
<g id="edge2" class="edge">
<title>name_on_postbox&#45;&gt;place_to_live</title>
<path fill="none" stroke="#000000" d="M168.4454,-92.166C182.1049,-80.5661 197.7011,-67.3215 211.3773,-55.7074"/>
<polygon fill="#000000" stroke="#000000" points="213.8218,-58.2233 219.1785,-49.0824 209.2906,-52.8877 213.8218,-58.2233"/>
</g>
<!-- can_receive_post -->
<g id="node8" class="node">
<title>can_receive_post</title>
<ellipse fill="#00ff00" stroke="#000000" cx="166" cy="-219.0782" rx="99.6266" ry="25.4118"/>
<text text-anchor="middle" x="166" y="-221.8782" font-family="Times,serif" font-size="14.00" fill="#000000">Ability to receive post</text>
<text text-anchor="middle" x="166" y="-207.8782" font-family="Times,serif" font-size="14.00" fill="#000000">2019&#45;01&#45;22</text>
</g>
<!-- can_receive_post&#45;&gt;place_to_live -->
<g id="edge3" class="edge">
<title>can_receive_post&#45;&gt;place_to_live</title>
<path fill="none" stroke="#000000" d="M186.425,-193.9336C194.3437,-183.2358 202.9432,-170.3148 209,-157.6224 223.9073,-126.3831 234.1174,-88.1383 240.1693,-60.8418"/>
<polygon fill="#000000" stroke="#000000" points="243.6152,-61.4648 242.2864,-50.9536 236.7703,-59.9992 243.6152,-61.4648"/>
</g>
<!-- can_receive_post&#45;&gt;name_on_postbox -->
<g id="edge4" class="edge">
<title>can_receive_post&#45;&gt;name_on_postbox</title>
<path fill="none" stroke="#000000" d="M157.3296,-193.6422C154.5529,-185.4962 151.3911,-176.2204 148.2868,-167.1135"/>
<polygon fill="#000000" stroke="#000000" points="151.5012,-165.6952 144.9619,-157.3592 144.8755,-167.9537 151.5012,-165.6952"/>
</g>
<!-- pendlerkort -->
<g id="node9" class="node">
<title>pendlerkort</title>
<ellipse fill="none" stroke="#000000" cx="383" cy="-122.267" rx="50.7397" ry="18"/>
<text text-anchor="middle" x="383" y="-118.067" font-family="Times,serif" font-size="14.00" fill="#000000">pendlerkort</text>
</g>
<!-- pendlerkort&#45;&gt;place_to_live -->
<g id="edge5" class="edge">
<title>pendlerkort&#45;&gt;place_to_live</title>
<path fill="none" stroke="#000000" d="M360.2367,-106.063C340.2824,-91.8586 310.8168,-70.8836 286.9449,-53.8905"/>
<polygon fill="#000000" stroke="#000000" points="288.9357,-51.0114 278.7592,-48.0635 284.8762,-56.7142 288.9357,-51.0114"/>
</g>
<!-- eu_residence_document_application -->
<g id="node10" class="node">
<title>eu_residence_document_application</title>
<ellipse fill="none" stroke="#000000" cx="593" cy="-219.0782" rx="105.7427" ry="25.4118"/>
<text text-anchor="middle" x="593" y="-221.8782" font-family="Times,serif" font-size="14.00" fill="#000000">Application for</text>
<text text-anchor="middle" x="593" y="-207.8782" font-family="Times,serif" font-size="14.00" fill="#000000">EU residence document</text>
</g>
<!-- eu_residence_document_application&#45;&gt;proof_of_work -->
<g id="edge7" class="edge">
<title>eu_residence_document_application&#45;&gt;proof_of_work</title>
<path fill="none" stroke="#000000" d="M671.7276,-201.9953C717.3868,-191.1796 775.6368,-175.8157 826,-157.6224 834.644,-154.4998 843.6485,-150.7661 852.3096,-146.9129"/>
<polygon fill="#000000" stroke="#000000" points="853.8905,-150.0388 861.5398,-142.708 850.9886,-143.6687 853.8905,-150.0388"/>
</g>
<!-- eu_residence_document_application&#45;&gt;passport -->
<g id="edge8" class="edge">
<title>eu_residence_document_application&#45;&gt;passport</title>
<path fill="none" stroke="#000000" d="M642.4008,-196.5107C665.6832,-185.4408 693.6329,-171.5196 718,-157.6224 723.4935,-154.4892 729.1894,-151.0192 734.7314,-147.5131"/>
<polygon fill="#000000" stroke="#000000" points="736.7514,-150.3752 743.2623,-142.0171 732.9603,-144.4907 736.7514,-150.3752"/>
</g>
<!-- eu_residence_document_application&#45;&gt;place_to_live -->
<g id="edge6" class="edge">
<title>eu_residence_document_application&#45;&gt;place_to_live</title>
<path fill="none" stroke="#000000" d="M501.2349,-206.2298C434.5011,-195.4172 351.128,-178.4066 323,-157.6224 318.5109,-154.3053 286.9334,-97.9633 265.9193,-59.9234"/>
<polygon fill="#000000" stroke="#000000" points="268.7213,-57.7564 260.8273,-50.6899 262.5916,-61.1369 268.7213,-57.7564"/>
</g>
<!-- od1_form -->
<g id="node11" class="node">
<title>od1_form</title>
<ellipse fill="#00ff00" stroke="#000000" cx="509" cy="-122.267" rx="57.5098" ry="25.4118"/>
<text text-anchor="middle" x="509" y="-125.067" font-family="Times,serif" font-size="14.00" fill="#000000">OD1 form</text>
<text text-anchor="middle" x="509" y="-111.067" font-family="Times,serif" font-size="14.00" fill="#000000">2019&#45;01&#45;22</text>
</g>
<!-- eu_residence_document_application&#45;&gt;od1_form -->
<g id="edge9" class="edge">
<title>eu_residence_document_application&#45;&gt;od1_form</title>
<path fill="none" stroke="#000000" d="M571.3679,-194.1469C560.7404,-181.8986 547.8173,-167.0045 536.4967,-153.9573"/>
<polygon fill="#000000" stroke="#000000" points="538.8872,-151.3719 529.69,-146.1125 533.6,-155.9594 538.8872,-151.3719"/>
</g>
<!-- passport_photo -->
<g id="node12" class="node">
<title>passport_photo</title>
<ellipse fill="none" stroke="#000000" cx="647" cy="-122.267" rx="62.3672" ry="18"/>
<text text-anchor="middle" x="647" y="-118.067" font-family="Times,serif" font-size="14.00" fill="#000000">Passport photo</text>
</g>
<!-- eu_residence_document_application&#45;&gt;passport_photo -->
<g id="edge10" class="edge">
<title>eu_residence_document_application&#45;&gt;passport_photo</title>
<path fill="none" stroke="#000000" d="M607.1879,-193.6422C614.8047,-179.9867 624.1925,-163.1564 631.9386,-149.269"/>
<polygon fill="#000000" stroke="#000000" points="635.1825,-150.6384 636.9972,-140.2001 629.0692,-147.2284 635.1825,-150.6384"/>
</g>
<!-- eu_residence_document -->
<g id="node13" class="node">
<title>eu_residence_document</title>
<ellipse fill="none" stroke="#000000" cx="590" cy="-305.9899" rx="94.655" ry="18"/>
<text text-anchor="middle" x="590" y="-301.7899" font-family="Times,serif" font-size="14.00" fill="#000000">EU residence document</text>
</g>
<!-- eu_residence_document&#45;&gt;can_receive_post -->
<g id="edge12" class="edge">
<title>eu_residence_document&#45;&gt;can_receive_post</title>
<path fill="none" stroke="#000000" d="M532.8942,-291.6236C517.3892,-287.8656 500.5797,-283.9213 485,-280.5341 408.7522,-263.9566 321.7501,-247.3482 257.8863,-235.5838"/>
<polygon fill="#000000" stroke="#000000" points="258.3082,-232.1028 247.8404,-233.7381 257.0432,-238.9876 258.3082,-232.1028"/>
</g>
<!-- eu_residence_document&#45;&gt;eu_residence_document_application -->
<g id="edge11" class="edge">
<title>eu_residence_document&#45;&gt;eu_residence_document_application</title>
<path fill="none" stroke="#ff0000" d="M590.6216,-287.9817C590.9527,-278.3888 591.372,-266.2412 591.766,-254.8266"/>
<polygon fill="#ff0000" stroke="#ff0000" points="595.2704,-254.759 592.1175,-244.6442 588.2745,-254.5175 595.2704,-254.759"/>
</g>
<!-- cpr_number_application -->
<g id="node14" class="node">
<title>cpr_number_application</title>
<ellipse fill="none" stroke="#000000" cx="590" cy="-392.9016" rx="72.138" ry="25.4118"/>
<text text-anchor="middle" x="590" y="-395.7016" font-family="Times,serif" font-size="14.00" fill="#000000">Application for</text>
<text text-anchor="middle" x="590" y="-381.7016" font-family="Times,serif" font-size="14.00" fill="#000000">CPR number</text>
</g>
<!-- cpr_number_application&#45;&gt;proof_of_work -->
<g id="edge14" class="edge">
<title>cpr_number_application&#45;&gt;proof_of_work</title>
<path fill="none" stroke="#000000" d="M641.7979,-375.0234C667.6614,-364.6443 698.561,-349.9442 723,-331.4457 790.1702,-280.603 849.6962,-200.6176 880.265,-155.7171"/>
<polygon fill="#000000" stroke="#000000" points="883.3022,-157.473 885.9864,-147.2238 877.4966,-153.5622 883.3022,-157.473"/>
</g>
<!-- cpr_number_application&#45;&gt;passport -->
<g id="edge16" class="edge">
<title>cpr_number_application&#45;&gt;passport</title>
<path fill="none" stroke="#000000" d="M637.3869,-373.5383C657.1309,-363.4709 678.922,-349.4565 694,-331.4457 737.0475,-280.0254 757.5364,-202.5593 766.2959,-157.7432"/>
<polygon fill="#000000" stroke="#000000" points="769.7402,-158.3649 768.1345,-147.8925 762.8591,-157.0805 769.7402,-158.3649"/>
</g>
<!-- cpr_number_application&#45;&gt;eu_residence_document -->
<g id="edge13" class="edge">
<title>cpr_number_application&#45;&gt;eu_residence_document</title>
<path fill="none" stroke="#000000" d="M590,-367.2953C590,-356.9304 590,-344.9258 590,-334.3015"/>
<polygon fill="#000000" stroke="#000000" points="593.5001,-334.2491 590,-324.2492 586.5001,-334.2492 593.5001,-334.2491"/>
</g>
<!-- proof_of_address -->
<g id="node15" class="node">
<title>proof_of_address</title>
<ellipse fill="#00ff00" stroke="#000000" cx="400" cy="-305.9899" rx="76.3945" ry="25.4118"/>
<text text-anchor="middle" x="400" y="-308.7899" font-family="Times,serif" font-size="14.00" fill="#000000">Proof of address</text>
<text text-anchor="middle" x="400" y="-294.7899" font-family="Times,serif" font-size="14.00" fill="#000000">2019&#45;01&#45;21</text>
</g>
<!-- cpr_number_application&#45;&gt;proof_of_address -->
<g id="edge15" class="edge">
<title>cpr_number_application&#45;&gt;proof_of_address</title>
<path fill="none" stroke="#000000" d="M545.9326,-372.7438C518.6309,-360.2552 483.3611,-344.1218 454.3346,-330.8442"/>
<polygon fill="#000000" stroke="#000000" points="455.6975,-327.6188 445.1478,-326.6419 452.7856,-333.9845 455.6975,-327.6188"/>
</g>
<!-- proof_of_address&#45;&gt;place_to_live -->
<g id="edge19" class="edge">
<title>proof_of_address&#45;&gt;place_to_live</title>
<path fill="none" stroke="#000000" d="M374.5344,-281.6211C347.186,-254.0381 304.384,-206.5448 280,-157.6224 264.6582,-126.8416 256.0977,-88.3829 251.5648,-60.9017"/>
<polygon fill="#000000" stroke="#000000" points="255.0119,-60.2902 250.019,-50.9457 248.0948,-61.3643 255.0119,-60.2902"/>
</g>
<!-- cpr_number -->
<g id="node16" class="node">
<title>cpr_number</title>
<ellipse fill="none" stroke="#000000" cx="494" cy="-472.3574" rx="56.0942" ry="18"/>
<text text-anchor="middle" x="494" y="-468.1574" font-family="Times,serif" font-size="14.00" fill="#000000">CPR number</text>
</g>
<!-- cpr_number&#45;&gt;can_receive_post -->
<g id="edge18" class="edge">
<title>cpr_number&#45;&gt;can_receive_post</title>
<path fill="none" stroke="#000000" d="M472.225,-455.5429C417.7783,-413.4996 275.1102,-303.3323 205.433,-249.5281"/>
<polygon fill="#000000" stroke="#000000" points="207.3625,-246.596 197.3084,-243.2543 203.0842,-252.1364 207.3625,-246.596"/>
</g>
<!-- cpr_number&#45;&gt;cpr_number_application -->
<g id="edge17" class="edge">
<title>cpr_number&#45;&gt;cpr_number_application</title>
<path fill="none" stroke="#ff0000" d="M514.3591,-455.5069C525.7539,-446.0758 540.3012,-434.0355 553.5885,-423.0381"/>
<polygon fill="#ff0000" stroke="#ff0000" points="556.1874,-425.4305 561.6594,-416.3581 551.7241,-420.0379 556.1874,-425.4305"/>
</g>
<!-- skattekort -->
<g id="node17" class="node">
<title>skattekort</title>
<ellipse fill="none" stroke="#000000" cx="593" cy="-551.8133" rx="46.4132" ry="18"/>
<text text-anchor="middle" x="593" y="-547.6133" font-family="Times,serif" font-size="14.00" fill="#000000">Skattekort</text>
</g>
<!-- skattekort&#45;&gt;cpr_number -->
<g id="edge20" class="edge">
<title>skattekort&#45;&gt;cpr_number</title>
<path fill="none" stroke="#000000" stroke-dasharray="1,5" d="M572.4871,-535.35C558.1148,-523.815 538.7086,-508.2399 522.7891,-495.4631"/>
<polygon fill="#000000" stroke="#000000" points="524.8168,-492.6027 514.8272,-489.073 520.4353,-498.0619 524.8168,-492.6027"/>
</g>
<!-- nemid_application -->
<g id="node18" class="node">
<title>nemid_application</title>
<ellipse fill="none" stroke="#000000" cx="369" cy="-551.8133" rx="72.138" ry="25.4118"/>
<text text-anchor="middle" x="369" y="-554.6133" font-family="Times,serif" font-size="14.00" fill="#000000">Application for</text>
<text text-anchor="middle" x="369" y="-540.6133" font-family="Times,serif" font-size="14.00" fill="#000000">Nemid</text>
</g>
<!-- nemid_application&#45;&gt;cpr_number -->
<g id="edge21" class="edge">
<title>nemid_application&#45;&gt;cpr_number</title>
<path fill="none" stroke="#000000" d="M404.1521,-529.4689C421.6158,-518.3682 442.628,-505.0119 459.94,-494.0076"/>
<polygon fill="#000000" stroke="#000000" points="462.0555,-496.8101 468.6173,-488.4919 458.3004,-490.9026 462.0555,-496.8101"/>
</g>
<!-- nemid -->
<g id="node19" class="node">
<title>nemid</title>
<ellipse fill="none" stroke="#000000" cx="355" cy="-638.725" rx="34.3527" ry="18"/>
<text text-anchor="middle" x="355" y="-634.525" font-family="Times,serif" font-size="14.00" fill="#000000">Nemid</text>
</g>
<!-- nemid&#45;&gt;nemid_application -->
<g id="edge22" class="edge">
<title>nemid&#45;&gt;nemid_application</title>
<path fill="none" stroke="#000000" d="M357.9008,-620.7168C359.4461,-611.1238 361.4028,-598.9763 363.2415,-587.5617"/>
<polygon fill="#000000" stroke="#000000" points="366.7468,-587.8087 364.8817,-577.3793 359.8359,-586.6954 366.7468,-587.8087"/>
</g>
<!-- danish_bank_account -->
<g id="node20" class="node">
<title>danish_bank_account</title>
<ellipse fill="none" stroke="#000000" cx="726" cy="-718.1808" rx="84.041" ry="18"/>
<text text-anchor="middle" x="726" y="-713.9808" font-family="Times,serif" font-size="14.00" fill="#000000">Danish bank account</text>
</g>
<!-- danish_bank_account&#45;&gt;proof_of_work -->
<g id="edge24" class="edge">
<title>danish_bank_account&#45;&gt;proof_of_work</title>
<path fill="none" stroke="#000000" d="M772.825,-703.1095C793.7224,-694.4518 817.334,-681.7445 834,-664.1808 871.502,-624.6588 883,-606.2962 883,-551.8133 883,-551.8133 883,-551.8133 883,-305.9899 883,-254.3316 890.5241,-194.9344 896.1026,-157.9951"/>
<polygon fill="#000000" stroke="#000000" points="899.6188,-158.159 897.6886,-147.7415 892.701,-157.0889 899.6188,-158.159"/>
</g>
<!-- danish_bank_account&#45;&gt;passport -->
<g id="edge26" class="edge">
<title>danish_bank_account&#45;&gt;passport</title>
<path fill="none" stroke="#000000" d="M759.6875,-701.5596C775.314,-692.3945 793.0335,-679.7084 805,-664.1808 837.3591,-622.1921 845,-604.8243 845,-551.8133 845,-551.8133 845,-551.8133 845,-392.9016 845,-305.3056 808.9099,-207.0939 787.4814,-156.5009"/>
<polygon fill="#000000" stroke="#000000" points="790.5751,-154.8356 783.4063,-147.0345 784.1456,-157.6035 790.5751,-154.8356"/>
</g>
<!-- danish_bank_account&#45;&gt;danish_phone_number -->
<g id="edge27" class="edge">
<title>danish_bank_account&#45;&gt;danish_phone_number</title>
<path fill="none" stroke="#000000" d="M715.5619,-700.151C710.8613,-692.0318 705.151,-682.1683 699.6942,-672.7428"/>
<polygon fill="#000000" stroke="#000000" points="702.6207,-670.812 694.5813,-663.9113 696.5627,-674.3193 702.6207,-670.812"/>
</g>
<!-- danish_bank_account&#45;&gt;cpr_number -->
<g id="edge23" class="edge">
<title>danish_bank_account&#45;&gt;cpr_number</title>
<path fill="none" stroke="#000000" d="M754.8673,-701.1528C767.5366,-691.9669 781.0816,-679.3812 788,-664.1808 797.3736,-643.5862 798.999,-633.0434 788,-613.2691 741.3871,-529.4674 627.7084,-494.8694 556.1455,-481.0524"/>
<polygon fill="#000000" stroke="#000000" points="556.375,-477.5357 545.9057,-479.1613 555.1037,-484.4193 556.375,-477.5357"/>
</g>
<!-- danish_bank_account&#45;&gt;nemid -->
<g id="edge25" class="edge">
<title>danish_bank_account&#45;&gt;nemid</title>
<path fill="none" stroke="#000000" stroke-dasharray="1,5" d="M644.6898,-713.2007C576.9941,-707.0889 478.9458,-693.6221 398,-664.1808 393.6637,-662.6036 389.2732,-660.583 385.038,-658.3712"/>
<polygon fill="#000000" stroke="#000000" points="386.525,-655.1915 376.0964,-653.3221 383.0831,-661.2868 386.525,-655.1915"/>
</g>
<!-- activated_nemid -->
<g id="node21" class="node">
<title>activated_nemid</title>
<ellipse fill="none" stroke="#000000" cx="454" cy="-718.1808" rx="70.5271" ry="18"/>
<text text-anchor="middle" x="454" y="-713.9808" font-family="Times,serif" font-size="14.00" fill="#000000">Activated Nemid</text>
</g>
<!-- activated_nemid&#45;&gt;danish_phone_number -->
<g id="edge29" class="edge">
<title>activated_nemid&#45;&gt;danish_phone_number</title>
<path fill="none" stroke="#000000" d="M495.7153,-703.5148C528.2843,-692.0644 574.2066,-675.9192 612.0609,-662.6106"/>
<polygon fill="#000000" stroke="#000000" points="613.2249,-665.9115 621.498,-659.2928 610.9032,-659.3077 613.2249,-665.9115"/>
</g>
<!-- activated_nemid&#45;&gt;nemid -->
<g id="edge28" class="edge">
<title>activated_nemid&#45;&gt;nemid</title>
<path fill="none" stroke="#000000" d="M432.5185,-700.9401C417.6029,-688.9691 397.6266,-672.9364 381.6886,-660.1448"/>
<polygon fill="#000000" stroke="#000000" points="383.7599,-657.3194 373.7703,-653.7897 379.3784,-662.7786 383.7599,-657.3194"/>
</g>
<!-- noglekort -->
<g id="node22" class="node">
<title>noglekort</title>
<ellipse fill="none" stroke="#000000" cx="453" cy="-638.725" rx="45.9286" ry="18"/>
<text text-anchor="middle" x="453" y="-634.525" font-family="Times,serif" font-size="14.00" fill="#000000">Nøglekort</text>
</g>
<!-- activated_nemid&#45;&gt;noglekort -->
<g id="edge30" class="edge">
<title>activated_nemid&#45;&gt;noglekort</title>
<path fill="none" stroke="#000000" d="M453.7731,-700.151C453.6499,-690.3663 453.4949,-678.0484 453.3561,-667.0166"/>
<polygon fill="#000000" stroke="#000000" points="456.8551,-666.9135 453.2295,-656.9584 449.8557,-667.0017 456.8551,-666.9135"/>
</g>
<!-- noglekort&#45;&gt;can_receive_post -->
<g id="edge32" class="edge">
<title>noglekort&#45;&gt;can_receive_post</title>
<path fill="none" stroke="#000000" stroke-dasharray="1,5" d="M424.1609,-624.6053C415.8077,-620.7269 406.6161,-616.6595 398,-613.2691 350.132,-594.4336 328.1064,-609.4809 288,-577.2691 245.7724,-543.3537 226,-526.5185 226,-472.3574 226,-472.3574 226,-472.3574 226,-392.9016 226,-342.272 202.9738,-287.6634 185.4505,-253.4359"/>
<polygon fill="#000000" stroke="#000000" points="188.4243,-251.5705 180.6777,-244.3427 182.2262,-254.8238 188.4243,-251.5705"/>
</g>
<!-- noglekort&#45;&gt;nemid_application -->
<g id="edge31" class="edge">
<title>noglekort&#45;&gt;nemid_application</title>
<path fill="none" stroke="#ff0000" stroke-dasharray="1,5" d="M436.4043,-621.554C425.9325,-610.7193 412.0859,-596.3926 399.6678,-583.5441"/>
<polygon fill="#ff0000" stroke="#ff0000" points="402.0239,-580.9455 392.5575,-576.1874 396.9905,-585.8103 402.0239,-580.9455"/>
</g>
<!-- ehic -->
<g id="node23" class="node">
<title>ehic</title>
<ellipse fill="none" stroke="#000000" cx="269" cy="-718.1808" rx="58.0063" ry="18"/>
<text text-anchor="middle" x="269" y="-713.9808" font-family="Times,serif" font-size="14.00" fill="#000000">Danish EHIC</text>
</g>
<!-- ehic&#45;&gt;place_to_live -->
<g id="edge35" class="edge">
<title>ehic&#45;&gt;place_to_live</title>
<path fill="none" stroke="#000000" d="M222.8089,-707.2188C155.3972,-688.1557 38,-642.0094 38,-551.8133 38,-551.8133 38,-551.8133 38,-219.0782 38,-159.7337 18.7523,-132.2867 57,-86.9117 72.8017,-68.1655 129.1408,-51.3741 176.4002,-40.0998"/>
<polygon fill="#000000" stroke="#000000" points="177.3882,-43.4633 186.3291,-37.7791 175.7949,-36.647 177.3882,-43.4633"/>
</g>
<!-- ehic&#45;&gt;cpr_number -->
<g id="edge33" class="edge">
<title>ehic&#45;&gt;cpr_number</title>
<path fill="none" stroke="#000000" d="M264.6831,-700.0164C256.9598,-662.6249 245.3063,-576.3737 288,-526.3574 306.604,-504.5626 378.2059,-489.3631 431.8035,-480.7627"/>
<polygon fill="#000000" stroke="#000000" points="432.583,-484.1835 441.9231,-479.1821 431.5027,-477.2674 432.583,-484.1835"/>
</g>
<!-- ehic&#45;&gt;nemid -->
<g id="edge34" class="edge">
<title>ehic&#45;&gt;nemid</title>
<path fill="none" stroke="#000000" d="M287.6607,-700.9401C300.1321,-689.4177 316.6765,-674.1322 330.2452,-661.596"/>
<polygon fill="#000000" stroke="#000000" points="332.8673,-663.9387 337.8371,-654.5818 328.117,-658.7972 332.8673,-663.9387"/>
</g>
<!-- doctor -->
<g id="node24" class="node">
<title>doctor</title>
<ellipse fill="none" stroke="#000000" cx="494" cy="-551.8133" rx="34.8285" ry="18"/>
<text text-anchor="middle" x="494" y="-547.6133" font-family="Times,serif" font-size="14.00" fill="#000000">Doctor</text>
</g>
<!-- doctor&#45;&gt;cpr_number -->
<g id="edge36" class="edge">
<title>doctor&#45;&gt;cpr_number</title>
<path fill="none" stroke="#000000" d="M494,-533.7835C494,-523.9987 494,-511.6808 494,-500.649"/>
<polygon fill="#000000" stroke="#000000" points="497.5001,-500.5908 494,-490.5909 490.5001,-500.5909 497.5001,-500.5908"/>
</g>
<!-- get_paid -->
<g id="node25" class="node">
<title>get_paid</title>
<ellipse fill="none" stroke="#000000" cx="553" cy="-790.1808" rx="40.1247" ry="18"/>
<text text-anchor="middle" x="553" y="-785.9808" font-family="Times,serif" font-size="14.00" fill="#000000">Get paid</text>
</g>
<!-- get_paid&#45;&gt;job -->
<g id="edge37" class="edge">
<title>get_paid&#45;&gt;job</title>
<path fill="none" stroke="#000000" d="M592.3105,-785.89C656.9802,-778.231 782.31,-760.6816 819,-736.1808 936.6307,-657.6297 997,-613.8045 997,-472.3574 997,-472.3574 997,-472.3574 997,-219.0782 997,-159.7337 995.0744,-143.7469 978,-86.9117 975.2331,-77.7014 971.2879,-68.1255 967.1953,-59.3506"/>
<polygon fill="#000000" stroke="#000000" points="970.2658,-57.6615 962.7454,-50.1986 963.9705,-60.7224 970.2658,-57.6615"/>
</g>
<!-- get_paid&#45;&gt;skattekort -->
<g id="edge38" class="edge">
<title>get_paid&#45;&gt;skattekort</title>
<path fill="none" stroke="#000000" d="M553.6158,-772.139C555.0078,-739.8987 559.3323,-670.4194 572,-613.2691 574.5147,-601.924 578.4082,-589.7532 582.1628,-579.2602"/>
<polygon fill="#000000" stroke="#000000" points="585.4771,-580.3888 585.6705,-569.7957 578.9134,-577.9562 585.4771,-580.3888"/>
</g>
<!-- get_paid&#45;&gt;nemid -->
<g id="edge40" class="edge">
<title>get_paid&#45;&gt;nemid</title>
<path fill="none" stroke="#000000" d="M515.4991,-783.5561C468.8276,-774.546 392.941,-757.1268 374,-736.1808 357.1857,-717.5867 353.3436,-688.6677 353.1614,-667.1553"/>
<polygon fill="#000000" stroke="#000000" points="356.664,-667.0306 353.3376,-656.9715 349.6651,-666.9094 356.664,-667.0306"/>
</g>
<!-- get_paid&#45;&gt;danish_bank_account -->
<g id="edge39" class="edge">
<title>get_paid&#45;&gt;danish_bank_account</title>
<path fill="none" stroke="#000000" d="M582.7398,-777.8036C608.8047,-766.9558 647.1802,-750.9844 677.6543,-738.3015"/>
<polygon fill="#000000" stroke="#000000" points="679.3578,-741.3837 687.2453,-734.3099 676.6681,-734.921 679.3578,-741.3837"/>
</g>
<!-- danish_lessions -->
<g id="node26" class="node">
<title>danish_lessions</title>
<ellipse fill="none" stroke="#000000" cx="233" cy="-869.6367" rx="62.8431" ry="18"/>
<text text-anchor="middle" x="233" y="-865.4367" font-family="Times,serif" font-size="14.00" fill="#000000">Danish lessons</text>
</g>
<!-- danish_lessions&#45;&gt;cpr_number -->
<g id="edge41" class="edge">
<title>danish_lessions&#45;&gt;cpr_number</title>
<path fill="none" stroke="#000000" d="M222.8818,-851.6202C208.2716,-823.8668 183,-768.577 183,-718.1808 183,-718.1808 183,-718.1808 183,-638.725 183,-578.1834 209.9789,-560.4627 260,-526.3574 287.7199,-507.4575 373.0693,-490.979 432.6327,-481.3471"/>
<polygon fill="#000000" stroke="#000000" points="433.3698,-484.7739 442.6951,-479.7451 432.2692,-477.861 433.3698,-484.7739"/>
</g>
<!-- danish_bank_card -->
<g id="node27" class="node">
<title>danish_bank_card</title>
<ellipse fill="none" stroke="#000000" cx="353" cy="-790.1808" rx="71.979" ry="18"/>
<text text-anchor="middle" x="353" y="-785.9808" font-family="Times,serif" font-size="14.00" fill="#000000">Danish bank card</text>
</g>
<!-- danish_lessions&#45;&gt;danish_bank_card -->
<g id="edge42" class="edge">
<title>danish_lessions&#45;&gt;danish_bank_card</title>
<path fill="none" stroke="#000000" d="M258.1559,-852.9801C275.7971,-841.2993 299.5883,-825.5464 318.9289,-812.7404"/>
<polygon fill="#000000" stroke="#000000" points="321.0583,-815.5282 327.4639,-807.0891 317.1937,-809.6917 321.0583,-815.5282"/>
</g>
<!-- danish_bank_card&#45;&gt;can_receive_post -->
<g id="edge44" class="edge">
<title>danish_bank_card&#45;&gt;can_receive_post</title>
<path fill="none" stroke="#000000" d="M297.8438,-778.5196C198.5625,-755.9288 0,-702.7449 0,-638.725 0,-638.725 0,-638.725 0,-392.9016 0,-327.1021 62.9813,-276.4126 111.3562,-247.1836"/>
<polygon fill="#000000" stroke="#000000" points="113.3585,-250.0663 120.2003,-241.9768 109.8071,-244.034 113.3585,-250.0663"/>
</g>
<!-- danish_bank_card&#45;&gt;danish_bank_account -->
<g id="edge43" class="edge">
<title>danish_bank_card&#45;&gt;danish_bank_account</title>
<path fill="none" stroke="#ff0000" d="M410.0567,-779.1672C475.2185,-766.589 581.9806,-745.9808 653.1148,-732.2498"/>
<polygon fill="#ff0000" stroke="#ff0000" points="654.187,-735.6075 663.3423,-730.2756 652.8602,-728.7344 654.187,-735.6075"/>
</g>
<!-- spend_lovely_dkk -->
<g id="node28" class="node">
<title>spend_lovely_dkk</title>
<ellipse fill="none" stroke="#000000" cx="483" cy="-869.6367" rx="99.0344" ry="18"/>
<text text-anchor="middle" x="483" y="-865.4367" font-family="Times,serif" font-size="14.00" fill="#000000">Spend your lovely DKK!</text>
</g>
<!-- spend_lovely_dkk&#45;&gt;get_paid -->
<g id="edge45" class="edge">
<title>spend_lovely_dkk&#45;&gt;get_paid</title>
<path fill="none" stroke="#000000" d="M498.8841,-851.6069C508.4542,-840.744 520.7749,-826.759 531.2422,-814.8777"/>
<polygon fill="#000000" stroke="#000000" points="534.1518,-816.8698 538.1361,-807.0526 528.8993,-812.2424 534.1518,-816.8698"/>
</g>
<!-- spend_lovely_dkk&#45;&gt;danish_bank_card -->
<g id="edge46" class="edge">
<title>spend_lovely_dkk&#45;&gt;danish_bank_card</title>
<path fill="none" stroke="#000000" d="M454.4709,-852.1997C435.3295,-840.5005 409.9493,-824.9881 389.3606,-812.4044"/>
<polygon fill="#000000" stroke="#000000" points="390.9287,-809.2608 380.5709,-807.0321 387.2781,-815.2336 390.9287,-809.2608"/>
</g>
<!-- mobilepay -->
<g id="node29" class="node">
<title>mobilepay</title>
<ellipse fill="none" stroke="#000000" cx="921" cy="-790.1808" rx="48.3427" ry="18"/>
<text text-anchor="middle" x="921" y="-785.9808" font-family="Times,serif" font-size="14.00" fill="#000000">Mobilepay</text>
</g>
<!-- mobilepay&#45;&gt;danish_phone_number -->
<g id="edge48" class="edge">
<title>mobilepay&#45;&gt;danish_phone_number</title>
<path fill="none" stroke="#000000" d="M904.9718,-773.1733C885.8974,-753.6516 852.4105,-721.5786 819,-700.1808 796.6386,-685.8594 770.3766,-673.3003 746.7368,-663.3313"/>
<polygon fill="#000000" stroke="#000000" points="748.0551,-660.089 737.4766,-659.5002 745.379,-666.5573 748.0551,-660.089"/>
</g>
<!-- mobilepay&#45;&gt;cpr_number -->
<g id="edge47" class="edge">
<title>mobilepay&#45;&gt;cpr_number</title>
<path fill="none" stroke="#000000" d="M914.3508,-772.0608C895.4245,-723.262 836.2616,-588.5792 739,-526.3574 709.1105,-507.236 618.027,-490.5807 555.7497,-480.9978"/>
<polygon fill="#000000" stroke="#000000" points="556.0438,-477.5025 545.6321,-479.4639 554.9945,-484.4234 556.0438,-477.5025"/>
</g>
<!-- mobilepay&#45;&gt;danish_bank_account -->
<g id="edge49" class="edge">
<title>mobilepay&#45;&gt;danish_bank_account</title>
<path fill="none" stroke="#000000" d="M886.5868,-777.4744C856.4046,-766.3302 812.0876,-749.967 777.6511,-737.252"/>
<polygon fill="#000000" stroke="#000000" points="778.8134,-733.9502 768.2201,-733.7698 776.3888,-740.5169 778.8134,-733.9502"/>
</g>
</g>
</svg>
