<?xml version="1.0" encoding="UTF-8" standalone="no"?>
<!DOCTYPE svg PUBLIC "-//W3C//DTD SVG 1.1//EN"
 "http://www.w3.org/Graphics/SVG/1.1/DTD/svg11.dtd">
<!-- Generated by graphviz version 2.40.1 (20161225.0304)
 -->
<!-- Title: g Pages: 1 -->
<svg width="1050pt" height="1219pt"
 viewBox="0.00 0.00 1049.97 1218.69" xmlns="http://www.w3.org/2000/svg" xmlns:xlink="http://www.w3.org/1999/xlink">
<g id="graph0" class="graph" transform="scale(1 1) rotate(0) translate(4 1214.6879)">
<title>g</title>
<polygon fill="#ffffff" stroke="transparent" points="-4,4 -4,-1214.6879 1045.9666,-1214.6879 1045.9666,4 -4,4"/>
<!-- job -->
<g id="node1" class="node">
<title>job</title>
<ellipse fill="#00ff00" stroke="#000000" cx="949.8697" cy="-25.4558" rx="57.5098" ry="25.4118"/>
<text text-anchor="middle" x="949.8697" y="-28.2558" font-family="Times,serif" font-size="14.00" fill="#000000">A job</text>
<text text-anchor="middle" x="949.8697" y="-14.2558" font-family="Times,serif" font-size="14.00" fill="#000000">2018&#45;10&#45;19</text>
</g>
<!-- proof_of_work -->
<g id="node2" class="node">
<title>proof_of_work</title>
<ellipse fill="#00ff00" stroke="#000000" cx="861.8697" cy="-122.267" rx="66.707" ry="25.4118"/>
<text text-anchor="middle" x="861.8697" y="-125.067" font-family="Times,serif" font-size="14.00" fill="#000000">Proof of work</text>
<text text-anchor="middle" x="861.8697" y="-111.067" font-family="Times,serif" font-size="14.00" fill="#000000">2019&#45;01&#45;22</text>
</g>
<!-- proof_of_work&#45;&gt;job -->
<g id="edge1" class="edge">
<title>proof_of_work&#45;&gt;job</title>
<path fill="none" stroke="#000000" d="M884.0758,-97.8375C895.3976,-85.3821 909.2949,-70.0932 921.3953,-56.7813"/>
<polygon fill="#000000" stroke="#000000" points="924.1427,-58.9623 928.2791,-49.2082 918.9628,-54.2538 924.1427,-58.9623"/>
</g>
<!-- passport -->
<g id="node3" class="node">
<title>passport</title>
<ellipse fill="#00ff00" stroke="#000000" cx="364.8697" cy="-122.267" rx="44.7298" ry="25.4118"/>
<text text-anchor="middle" x="364.8697" y="-125.067" font-family="Times,serif" font-size="14.00" fill="#000000">Passport</text>
<text text-anchor="middle" x="364.8697" y="-111.067" font-family="Times,serif" font-size="14.00" fill="#000000">2015</text>
</g>
<!-- danish_phone_number -->
<g id="node4" class="node">
<title>danish_phone_number</title>
<ellipse fill="#00ff00" stroke="#000000" cx="404.8697" cy="-658.524" rx="98.9836" ry="25.4118"/>
<text text-anchor="middle" x="404.8697" y="-661.324" font-family="Times,serif" font-size="14.00" fill="#000000">Danish phone number</text>
<text text-anchor="middle" x="404.8697" y="-647.324" font-family="Times,serif" font-size="14.00" fill="#000000">2019&#45;01&#45;17</text>
</g>
<!-- rejsekort -->
<g id="node5" class="node">
<title>rejsekort</title>
<ellipse fill="#00ff00" stroke="#000000" cx="197.8697" cy="-889.4356" rx="64.2475" ry="25.4118"/>
<text text-anchor="middle" x="197.8697" y="-892.2356" font-family="Times,serif" font-size="14.00" fill="#000000">Rejsekort</text>
<text text-anchor="middle" x="197.8697" y="-878.2356" font-family="Times,serif" font-size="14.00" fill="#000000">2018&#45;10&#45;19 ?</text>
</g>
<!-- place_to_live -->
<g id="node6" class="node">
<title>place_to_live</title>
<ellipse fill="#00ff00" stroke="#000000" cx="364.8697" cy="-25.4558" rx="68.5454" ry="25.4118"/>
<text text-anchor="middle" x="364.8697" y="-28.2558" font-family="Times,serif" font-size="14.00" fill="#000000">A place to live</text>
<text text-anchor="middle" x="364.8697" y="-14.2558" font-family="Times,serif" font-size="14.00" fill="#000000">2019&#45;01&#45;21</text>
</g>
<!-- name_on_postbox -->
<g id="node7" class="node">
<title>name_on_postbox</title>
<ellipse fill="#00ff00" stroke="#000000" cx="196.8697" cy="-122.267" rx="66.9194" ry="35.2113"/>
<text text-anchor="middle" x="196.8697" y="-132.067" font-family="Times,serif" font-size="14.00" fill="#000000">Your name on</text>
<text text-anchor="middle" x="196.8697" y="-118.067" font-family="Times,serif" font-size="14.00" fill="#000000">your postbox</text>
<text text-anchor="middle" x="196.8697" y="-104.067" font-family="Times,serif" font-size="14.00" fill="#000000">2019&#45;01&#45;22</text>
</g>
<!-- name_on_postbox&#45;&gt;place_to_live -->
<g id="edge2" class="edge">
<title>name_on_postbox&#45;&gt;place_to_live</title>
<path fill="none" stroke="#000000" d="M242.3329,-96.0685C266.0289,-82.4135 294.9486,-65.7484 318.7413,-52.0376"/>
<polygon fill="#000000" stroke="#000000" points="320.6706,-54.9654 327.5875,-46.94 317.1756,-48.9004 320.6706,-54.9654"/>
</g>
<!-- can_receive_post -->
<g id="node8" class="node">
<title>can_receive_post</title>
<ellipse fill="#00ff00" stroke="#000000" cx="241.8697" cy="-228.9777" rx="99.6266" ry="25.4118"/>
<text text-anchor="middle" x="241.8697" y="-231.7777" font-family="Times,serif" font-size="14.00" fill="#000000">Ability to receive post</text>
<text text-anchor="middle" x="241.8697" y="-217.7777" font-family="Times,serif" font-size="14.00" fill="#000000">2019&#45;01&#45;22</text>
</g>
<!-- can_receive_post&#45;&gt;place_to_live -->
<g id="edge3" class="edge">
<title>can_receive_post&#45;&gt;place_to_live</title>
<path fill="none" stroke="#000000" d="M253.2881,-203.4046C269.1226,-168.3218 297.3253,-107.2936 310.8697,-86.9117 317.6866,-76.6535 326.0815,-66.2931 334.2031,-57.077"/>
<polygon fill="#000000" stroke="#000000" points="336.8202,-59.4012 340.9204,-49.6319 331.6229,-54.712 336.8202,-59.4012"/>
</g>
<!-- can_receive_post&#45;&gt;name_on_postbox -->
<g id="edge4" class="edge">
<title>can_receive_post&#45;&gt;name_on_postbox</title>
<path fill="none" stroke="#000000" d="M231.0911,-203.4178C226.4083,-192.3134 220.7858,-178.9805 215.464,-166.3607"/>
<polygon fill="#000000" stroke="#000000" points="218.5842,-164.7522 211.4736,-156.898 212.1343,-167.4722 218.5842,-164.7522"/>
</g>
<!-- pendlerkort -->
<g id="node9" class="node">
<title>pendlerkort</title>
<ellipse fill="none" stroke="#000000" cx="50.8697" cy="-571.6123" rx="50.7397" ry="18"/>
<text text-anchor="middle" x="50.8697" y="-567.4123" font-family="Times,serif" font-size="14.00" fill="#000000">pendlerkort</text>
</g>
<!-- pendlerkort&#45;&gt;place_to_live -->
<g id="edge5" class="edge">
<title>pendlerkort&#45;&gt;place_to_live</title>
<path fill="none" stroke="#000000" d="M55.7601,-553.6566C63.2916,-524.3767 76.8697,-464.4186 76.8697,-412.7006 76.8697,-412.7006 76.8697,-412.7006 76.8697,-228.9777 76.8697,-162.8783 72.8944,-132.3816 120.8697,-86.9117 145.1598,-63.8901 227.78,-46.4113 290.206,-36.0872"/>
<polygon fill="#000000" stroke="#000000" points="291.1194,-39.4849 300.4305,-34.4298 289.9992,-32.5751 291.1194,-39.4849"/>
</g>
<!-- eu_residence_document_application -->
<g id="node10" class="node">
<title>eu_residence_document_application</title>
<ellipse fill="#00ff00" stroke="#000000" cx="541.8697" cy="-228.9777" rx="105.7427" ry="35.2113"/>
<text text-anchor="middle" x="541.8697" y="-238.7777" font-family="Times,serif" font-size="14.00" fill="#000000">Application for</text>
<text text-anchor="middle" x="541.8697" y="-224.7777" font-family="Times,serif" font-size="14.00" fill="#000000">EU residence document</text>
<text text-anchor="middle" x="541.8697" y="-210.7777" font-family="Times,serif" font-size="14.00" fill="#000000">2019&#45;01&#45;23</text>
</g>
<!-- eu_residence_document_application&#45;&gt;proof_of_work -->
<g id="edge7" class="edge">
<title>eu_residence_document_application&#45;&gt;proof_of_work</title>
<path fill="none" stroke="#000000" d="M616.8955,-203.9588C673.2414,-185.1691 749.394,-159.7744 801.7571,-142.3128"/>
<polygon fill="#000000" stroke="#000000" points="802.8683,-145.6318 811.2475,-139.148 800.6538,-138.9913 802.8683,-145.6318"/>
</g>
<!-- eu_residence_document_application&#45;&gt;passport -->
<g id="edge8" class="edge">
<title>eu_residence_document_application&#45;&gt;passport</title>
<path fill="none" stroke="#000000" d="M490.1981,-197.8257C462.815,-181.3168 429.7065,-161.3562 404.3972,-146.0976"/>
<polygon fill="#000000" stroke="#000000" points="406.1636,-143.0757 395.7924,-140.9099 402.5494,-149.0705 406.1636,-143.0757"/>
</g>
<!-- eu_residence_document_application&#45;&gt;place_to_live -->
<g id="edge6" class="edge">
<title>eu_residence_document_application&#45;&gt;place_to_live</title>
<path fill="none" stroke="#000000" d="M497.0019,-196.6585C483.1015,-185.3105 468.4187,-171.823 456.8697,-157.6224 434.3588,-129.943 439.2208,-116.2156 418.8697,-86.9117 411.7807,-76.7042 403.2291,-66.2948 395.043,-57.0142"/>
<polygon fill="#000000" stroke="#000000" points="397.5837,-54.6051 388.2927,-49.5131 392.3803,-59.2877 397.5837,-54.6051"/>
</g>
<!-- od1_form -->
<g id="node11" class="node">
<title>od1_form</title>
<ellipse fill="#00ff00" stroke="#000000" cx="680.8697" cy="-122.267" rx="57.5098" ry="25.4118"/>
<text text-anchor="middle" x="680.8697" y="-125.067" font-family="Times,serif" font-size="14.00" fill="#000000">OD1 form</text>
<text text-anchor="middle" x="680.8697" y="-111.067" font-family="Times,serif" font-size="14.00" fill="#000000">2019&#45;01&#45;22</text>
</g>
<!-- eu_residence_document_application&#45;&gt;od1_form -->
<g id="edge9" class="edge">
<title>eu_residence_document_application&#45;&gt;od1_form</title>
<path fill="none" stroke="#000000" d="M584.3295,-196.3812C603.2999,-181.8175 625.4547,-164.8093 643.7525,-150.762"/>
<polygon fill="#000000" stroke="#000000" points="646.0621,-153.4014 651.8629,-144.5356 641.7995,-147.8489 646.0621,-153.4014"/>
</g>
<!-- passport_photo -->
<g id="node12" class="node">
<title>passport_photo</title>
<ellipse fill="#00ff00" stroke="#000000" cx="535.8697" cy="-122.267" rx="69.7781" ry="25.4118"/>
<text text-anchor="middle" x="535.8697" y="-125.067" font-family="Times,serif" font-size="14.00" fill="#000000">Passport photo</text>
<text text-anchor="middle" x="535.8697" y="-111.067" font-family="Times,serif" font-size="14.00" fill="#000000">2019&#45;01&#45;23</text>
</g>
<!-- eu_residence_document_application&#45;&gt;passport_photo -->
<g id="edge10" class="edge">
<title>eu_residence_document_application&#45;&gt;passport_photo</title>
<path fill="none" stroke="#000000" d="M539.8718,-193.4446C539.2297,-182.0254 538.5184,-169.3758 537.8758,-157.9462"/>
<polygon fill="#000000" stroke="#000000" points="541.3648,-157.6507 537.3088,-147.8629 534.3758,-158.0437 541.3648,-157.6507"/>
</g>
<!-- eu_residence_document -->
<g id="node13" class="node">
<title>eu_residence_document</title>
<ellipse fill="#ffff00" stroke="#000000" cx="530.8697" cy="-325.7889" rx="94.655" ry="18"/>
<text text-anchor="middle" x="530.8697" y="-321.5889" font-family="Times,serif" font-size="14.00" fill="#000000">EU residence document</text>
</g>
<!-- eu_residence_document&#45;&gt;can_receive_post -->
<g id="edge12" class="edge">
<title>eu_residence_document&#45;&gt;can_receive_post</title>
<path fill="none" stroke="#000000" d="M484.1156,-310.1269C437.5693,-294.5345 365.5496,-270.4089 312.1227,-252.5115"/>
<polygon fill="#000000" stroke="#000000" points="312.9673,-249.1034 302.3734,-249.2457 310.7438,-255.7409 312.9673,-249.1034"/>
</g>
<!-- eu_residence_document&#45;&gt;eu_residence_document_application -->
<g id="edge11" class="edge">
<title>eu_residence_document&#45;&gt;eu_residence_document_application</title>
<path fill="none" stroke="#ff0000" d="M532.9387,-307.5794C534.0073,-298.1747 535.3636,-286.238 536.6944,-274.5252"/>
<polygon fill="#ff0000" stroke="#ff0000" points="540.1981,-274.6902 537.8495,-264.359 533.2429,-273.8999 540.1981,-274.6902"/>
</g>
<!-- cpr_number_application -->
<g id="node14" class="node">
<title>cpr_number_application</title>
<ellipse fill="none" stroke="#000000" cx="610.8697" cy="-412.7006" rx="72.138" ry="25.4118"/>
<text text-anchor="middle" x="610.8697" y="-415.5006" font-family="Times,serif" font-size="14.00" fill="#000000">Application for</text>
<text text-anchor="middle" x="610.8697" y="-401.5006" font-family="Times,serif" font-size="14.00" fill="#000000">CPR number</text>
</g>
<!-- cpr_number_application&#45;&gt;proof_of_work -->
<g id="edge14" class="edge">
<title>cpr_number_application&#45;&gt;proof_of_work</title>
<path fill="none" stroke="#000000" d="M673.2842,-399.8655C722.8199,-388.4582 786.6701,-370.6248 804.8697,-351.2447 818.1578,-337.0946 843.0142,-218.383 855.0253,-157.695"/>
<polygon fill="#000000" stroke="#000000" points="858.4804,-158.264 856.9762,-147.7765 851.612,-156.913 858.4804,-158.264"/>
</g>
<!-- cpr_number_application&#45;&gt;passport -->
<g id="edge16" class="edge">
<title>cpr_number_application&#45;&gt;passport</title>
<path fill="none" stroke="#000000" d="M549.8615,-398.9125C503.1982,-387.1983 444.0327,-369.4318 426.8697,-351.2447 426.0186,-350.3429 391.3221,-221.0694 374.2133,-157.1861"/>
<polygon fill="#000000" stroke="#000000" points="377.5938,-156.2788 371.6264,-147.5244 370.832,-158.0894 377.5938,-156.2788"/>
</g>
<!-- cpr_number_application&#45;&gt;eu_residence_document -->
<g id="edge13" class="edge">
<title>cpr_number_application&#45;&gt;eu_residence_document</title>
<path fill="none" stroke="#000000" d="M588.5852,-388.4908C577.8143,-376.7894 564.8959,-362.7548 554.0142,-350.933"/>
<polygon fill="#000000" stroke="#000000" points="556.5482,-348.5179 547.2006,-343.5307 551.3979,-353.2587 556.5482,-348.5179"/>
</g>
<!-- proof_of_address -->
<g id="node15" class="node">
<title>proof_of_address</title>
<ellipse fill="#00ff00" stroke="#000000" cx="719.8697" cy="-325.7889" rx="76.3945" ry="25.4118"/>
<text text-anchor="middle" x="719.8697" y="-328.5889" font-family="Times,serif" font-size="14.00" fill="#000000">Proof of address</text>
<text text-anchor="middle" x="719.8697" y="-314.5889" font-family="Times,serif" font-size="14.00" fill="#000000">2019&#45;01&#45;21</text>
</g>
<!-- cpr_number_application&#45;&gt;proof_of_address -->
<g id="edge15" class="edge">
<title>cpr_number_application&#45;&gt;proof_of_address</title>
<path fill="none" stroke="#000000" d="M640.0797,-389.4098C653.0475,-379.0699 668.4699,-366.7727 682.2833,-355.7586"/>
<polygon fill="#000000" stroke="#000000" points="684.5629,-358.4173 690.1997,-349.4464 680.1989,-352.9442 684.5629,-358.4173"/>
</g>
<!-- proof_of_address&#45;&gt;place_to_live -->
<g id="edge19" class="edge">
<title>proof_of_address&#45;&gt;place_to_live</title>
<path fill="none" stroke="#000000" d="M733.6201,-300.6519C757.6848,-252.8707 800.1456,-148.2445 747.8697,-86.9117 728.2706,-63.917 547.9332,-42.9607 441.8504,-32.485"/>
<polygon fill="#000000" stroke="#000000" points="442.1173,-28.9945 431.824,-31.5042 441.4357,-35.9613 442.1173,-28.9945"/>
</g>
<!-- cpr_number -->
<g id="node16" class="node">
<title>cpr_number</title>
<ellipse fill="none" stroke="#000000" cx="610.8697" cy="-492.1564" rx="56.0942" ry="18"/>
<text text-anchor="middle" x="610.8697" y="-487.9564" font-family="Times,serif" font-size="14.00" fill="#000000">CPR number</text>
</g>
<!-- cpr_number&#45;&gt;can_receive_post -->
<g id="edge18" class="edge">
<title>cpr_number&#45;&gt;can_receive_post</title>
<path fill="none" stroke="#000000" d="M585.8856,-475.8603C569.7873,-465.2717 548.466,-451.0823 529.8697,-438.1564 440.579,-376.0925 337.9662,-300.5181 282.5336,-259.3304"/>
<polygon fill="#000000" stroke="#000000" points="284.491,-256.4243 274.3779,-253.2656 280.3139,-262.0415 284.491,-256.4243"/>
</g>
<!-- cpr_number&#45;&gt;cpr_number_application -->
<g id="edge17" class="edge">
<title>cpr_number&#45;&gt;cpr_number_application</title>
<path fill="none" stroke="#ff0000" d="M610.8697,-474.1267C610.8697,-466.4917 610.8697,-457.3145 610.8697,-448.4094"/>
<polygon fill="#ff0000" stroke="#ff0000" points="614.3698,-448.1892 610.8697,-438.1893 607.3698,-448.1893 614.3698,-448.1892"/>
</g>
<!-- skattekort -->
<g id="node17" class="node">
<title>skattekort</title>
<ellipse fill="none" stroke="#000000" cx="805.8697" cy="-571.6123" rx="46.4132" ry="18"/>
<text text-anchor="middle" x="805.8697" y="-567.4123" font-family="Times,serif" font-size="14.00" fill="#000000">Skattekort</text>
</g>
<!-- skattekort&#45;&gt;cpr_number -->
<g id="edge20" class="edge">
<title>skattekort&#45;&gt;cpr_number</title>
<path fill="none" stroke="#000000" stroke-dasharray="1,5" d="M774.4701,-558.1457C765.2697,-554.2391 755.1808,-549.9934 745.8697,-546.1564 715.9374,-533.8219 682.1139,-520.2932 655.8103,-509.8625"/>
<polygon fill="#000000" stroke="#000000" points="657.0671,-506.5958 646.4809,-506.1678 654.4896,-513.104 657.0671,-506.5958"/>
</g>
<!-- nemid_application -->
<g id="node18" class="node">
<title>nemid_application</title>
<ellipse fill="none" stroke="#000000" cx="469.8697" cy="-571.6123" rx="72.138" ry="25.4118"/>
<text text-anchor="middle" x="469.8697" y="-574.4123" font-family="Times,serif" font-size="14.00" fill="#000000">Application for</text>
<text text-anchor="middle" x="469.8697" y="-560.4123" font-family="Times,serif" font-size="14.00" fill="#000000">Nemid</text>
</g>
<!-- nemid_application&#45;&gt;cpr_number -->
<g id="edge21" class="edge">
<title>nemid_application&#45;&gt;cpr_number</title>
<path fill="none" stroke="#000000" d="M508.3985,-549.9006C528.9041,-538.3454 553.9878,-524.2103 574.2051,-512.8175"/>
<polygon fill="#000000" stroke="#000000" points="576.1241,-515.7536 583.1178,-507.7951 572.6875,-509.6553 576.1241,-515.7536"/>
</g>
<!-- nemid -->
<g id="node19" class="node">
<title>nemid</title>
<ellipse fill="none" stroke="#000000" cx="631.8697" cy="-658.524" rx="34.3527" ry="18"/>
<text text-anchor="middle" x="631.8697" y="-654.324" font-family="Times,serif" font-size="14.00" fill="#000000">Nemid</text>
</g>
<!-- nemid&#45;&gt;nemid_application -->
<g id="edge22" class="edge">
<title>nemid&#45;&gt;nemid_application</title>
<path fill="none" stroke="#000000" d="M607.6166,-645.5124C584.1791,-632.9383 548.0029,-613.5301 518.6049,-597.7583"/>
<polygon fill="#000000" stroke="#000000" points="520.1872,-594.6354 509.7206,-592.992 516.8779,-600.8037 520.1872,-594.6354"/>
</g>
<!-- danish_bank_account -->
<g id="node20" class="node">
<title>danish_bank_account</title>
<ellipse fill="none" stroke="#000000" cx="592.8697" cy="-737.9798" rx="84.041" ry="18"/>
<text text-anchor="middle" x="592.8697" y="-733.7798" font-family="Times,serif" font-size="14.00" fill="#000000">Danish bank account</text>
</g>
<!-- danish_bank_account&#45;&gt;proof_of_work -->
<g id="edge24" class="edge">
<title>danish_bank_account&#45;&gt;proof_of_work</title>
<path fill="none" stroke="#000000" d="M626.8304,-721.3567C643.004,-712.1166 661.6519,-699.3665 674.8697,-683.9798 701.3853,-653.1132 814.7382,-389.7595 827.8697,-351.2447 850.3094,-285.4291 857.9476,-203.9822 860.5417,-158.0979"/>
<polygon fill="#000000" stroke="#000000" points="864.0403,-158.2142 861.0607,-148.047 857.0496,-157.8532 864.0403,-158.2142"/>
</g>
<!-- danish_bank_account&#45;&gt;passport -->
<g id="edge26" class="edge">
<title>danish_bank_account&#45;&gt;passport</title>
<path fill="none" stroke="#000000" d="M583.8405,-719.9241C571.1755,-696.4355 545.9312,-655.7321 512.8697,-633.0681 465.5367,-600.6209 427.2972,-639.6892 388.8697,-597.0681 357.1389,-561.8746 369.8697,-539.5423 369.8697,-492.1564 369.8697,-492.1564 369.8697,-492.1564 369.8697,-325.7889 369.8697,-267.0635 367.7635,-198.8353 366.285,-158.1772"/>
<polygon fill="#000000" stroke="#000000" points="369.7745,-157.8275 365.9057,-147.9643 362.7794,-158.0874 369.7745,-157.8275"/>
</g>
<!-- danish_bank_account&#45;&gt;danish_phone_number -->
<g id="edge27" class="edge">
<title>danish_bank_account&#45;&gt;danish_phone_number</title>
<path fill="none" stroke="#000000" d="M554.8251,-721.9007C529.2658,-711.0984 495.0286,-696.6285 465.7216,-684.2423"/>
<polygon fill="#000000" stroke="#000000" points="466.9706,-680.9704 456.3969,-680.3013 464.2454,-687.4182 466.9706,-680.9704"/>
</g>
<!-- danish_bank_account&#45;&gt;cpr_number -->
<g id="edge23" class="edge">
<title>danish_bank_account&#45;&gt;cpr_number</title>
<path fill="none" stroke="#000000" d="M591.1615,-719.5042C590.2833,-709.0829 589.3075,-695.8166 588.8697,-683.9798 588.0333,-661.3678 587.1192,-655.6277 588.8697,-633.0681 591.9269,-593.6669 599.7238,-548.6218 605.1618,-520.2865"/>
<polygon fill="#000000" stroke="#000000" points="608.632,-520.7772 607.1157,-510.2914 601.7621,-519.4341 608.632,-520.7772"/>
</g>
<!-- danish_bank_account&#45;&gt;nemid -->
<g id="edge25" class="edge">
<title>danish_bank_account&#45;&gt;nemid</title>
<path fill="none" stroke="#000000" stroke-dasharray="1,5" d="M601.7194,-719.95C606.7409,-709.7196 613.1216,-696.7199 618.7189,-685.3164"/>
<polygon fill="#000000" stroke="#000000" points="621.925,-686.7278 623.1893,-676.2087 615.6411,-683.6434 621.925,-686.7278"/>
</g>
<!-- activated_nemid -->
<g id="node21" class="node">
<title>activated_nemid</title>
<ellipse fill="none" stroke="#000000" cx="364.8697" cy="-737.9798" rx="70.5271" ry="18"/>
<text text-anchor="middle" x="364.8697" y="-733.7798" font-family="Times,serif" font-size="14.00" fill="#000000">Activated Nemid</text>
</g>
<!-- activated_nemid&#45;&gt;danish_phone_number -->
<g id="edge29" class="edge">
<title>activated_nemid&#45;&gt;danish_phone_number</title>
<path fill="none" stroke="#000000" d="M373.9463,-719.95C377.957,-711.9831 382.8132,-702.3369 387.4769,-693.0729"/>
<polygon fill="#000000" stroke="#000000" points="390.6676,-694.5185 392.038,-684.0127 384.4152,-691.3708 390.6676,-694.5185"/>
</g>
<!-- activated_nemid&#45;&gt;nemid -->
<g id="edge28" class="edge">
<title>activated_nemid&#45;&gt;nemid</title>
<path fill="none" stroke="#000000" d="M411.0727,-724.2304C462.212,-709.0119 543.7851,-684.7368 592.1581,-670.3416"/>
<polygon fill="#000000" stroke="#000000" points="593.3673,-673.6335 601.9536,-667.4266 591.3707,-666.9243 593.3673,-673.6335"/>
</g>
<!-- noglekort -->
<g id="node22" class="node">
<title>noglekort</title>
<ellipse fill="none" stroke="#000000" cx="241.8697" cy="-658.524" rx="45.9286" ry="18"/>
<text text-anchor="middle" x="241.8697" y="-654.324" font-family="Times,serif" font-size="14.00" fill="#000000">Nøglekort</text>
</g>
<!-- activated_nemid&#45;&gt;noglekort -->
<g id="edge30" class="edge">
<title>activated_nemid&#45;&gt;noglekort</title>
<path fill="none" stroke="#000000" d="M338.7845,-721.1293C319.9875,-708.9867 294.4947,-692.5188 274.3727,-679.5204"/>
<polygon fill="#000000" stroke="#000000" points="276.1306,-676.4892 265.8316,-674.0029 272.3323,-682.3691 276.1306,-676.4892"/>
</g>
<!-- noglekort&#45;&gt;can_receive_post -->
<g id="edge32" class="edge">
<title>noglekort&#45;&gt;can_receive_post</title>
<path fill="none" stroke="#000000" stroke-dasharray="1,5" d="M241.8697,-640.0598C241.8697,-609.3604 241.8697,-545.8793 241.8697,-492.1564 241.8697,-492.1564 241.8697,-492.1564 241.8697,-412.7006 241.8697,-361.3163 241.8697,-301.8482 241.8697,-264.8187"/>
<polygon fill="#000000" stroke="#000000" points="245.3698,-264.5382 241.8697,-254.5382 238.3698,-264.5382 245.3698,-264.5382"/>
</g>
<!-- noglekort&#45;&gt;nemid_application -->
<g id="edge31" class="edge">
<title>noglekort&#45;&gt;nemid_application</title>
<path fill="none" stroke="#ff0000" stroke-dasharray="1,5" d="M271.0496,-644.4111C279.3271,-640.574 288.3941,-636.5263 296.8697,-633.0681 332.9964,-618.3276 374.1312,-603.6318 407.2236,-592.3086"/>
<polygon fill="#ff0000" stroke="#ff0000" points="408.4371,-595.5929 416.7759,-589.0572 406.1814,-588.9662 408.4371,-595.5929"/>
</g>
<!-- ehic -->
<g id="node23" class="node">
<title>ehic</title>
<ellipse fill="none" stroke="#000000" cx="952.8697" cy="-737.9798" rx="58.0063" ry="18"/>
<text text-anchor="middle" x="952.8697" y="-733.7798" font-family="Times,serif" font-size="14.00" fill="#000000">Danish EHIC</text>
</g>
<!-- ehic&#45;&gt;place_to_live -->
<g id="edge35" class="edge">
<title>ehic&#45;&gt;place_to_live</title>
<path fill="none" stroke="#000000" d="M953.6033,-719.5192C954.7581,-688.8247 956.8697,-625.3506 956.8697,-571.6123 956.8697,-571.6123 956.8697,-571.6123 956.8697,-228.9777 956.8697,-165.2751 983.4984,-131.3644 937.8697,-86.9117 903.1274,-53.0649 592.2309,-35.2323 443.4874,-28.5739"/>
<polygon fill="#000000" stroke="#000000" points="443.6413,-25.0773 433.4965,-28.1325 443.3323,-32.0705 443.6413,-25.0773"/>
</g>
<!-- ehic&#45;&gt;cpr_number -->
<g id="edge33" class="edge">
<title>ehic&#45;&gt;cpr_number</title>
<path fill="none" stroke="#000000" d="M949.7174,-719.7526C941.876,-676.5452 920.2115,-569.7528 893.8697,-546.1564 862.3788,-517.9477 749.0733,-503.4469 675.7371,-496.8507"/>
<polygon fill="#000000" stroke="#000000" points="675.9334,-493.3547 665.667,-495.9718 675.3247,-500.3282 675.9334,-493.3547"/>
</g>
<!-- ehic&#45;&gt;nemid -->
<g id="edge34" class="edge">
<title>ehic&#45;&gt;nemid</title>
<path fill="none" stroke="#000000" d="M907.2191,-726.6801C844.5508,-711.1681 732.8259,-683.5132 672.7609,-668.6456"/>
<polygon fill="#000000" stroke="#000000" points="673.4226,-665.2038 662.8746,-666.1985 671.7406,-671.9988 673.4226,-665.2038"/>
</g>
<!-- doctor -->
<g id="node24" class="node">
<title>doctor</title>
<ellipse fill="none" stroke="#000000" cx="866.8697" cy="-809.9798" rx="34.8285" ry="18"/>
<text text-anchor="middle" x="866.8697" y="-805.7798" font-family="Times,serif" font-size="14.00" fill="#000000">Doctor</text>
</g>
<!-- doctor&#45;&gt;cpr_number -->
<g id="edge36" class="edge">
<title>doctor&#45;&gt;cpr_number</title>
<path fill="none" stroke="#000000" d="M869.232,-791.8444C875.7673,-738.4824 891.6512,-583.4217 860.8697,-546.1564 837.7181,-518.1283 741.9072,-503.8629 675.8556,-497.2209"/>
<polygon fill="#000000" stroke="#000000" points="675.817,-493.7009 665.5259,-496.2195 675.1414,-500.6682 675.817,-493.7009"/>
</g>
<!-- get_paid -->
<g id="node25" class="node">
<title>get_paid</title>
<ellipse fill="none" stroke="#000000" cx="768.8697" cy="-809.9798" rx="40.1247" ry="18"/>
<text text-anchor="middle" x="768.8697" y="-805.7798" font-family="Times,serif" font-size="14.00" fill="#000000">Get paid</text>
</g>
<!-- get_paid&#45;&gt;job -->
<g id="edge37" class="edge">
<title>get_paid&#45;&gt;job</title>
<path fill="none" stroke="#000000" d="M800.3423,-798.6602C807.6774,-796.2538 815.4993,-793.8716 822.8697,-791.9798 909.0806,-769.8518 956.5631,-818.5438 1019.8697,-755.9798 1051.2573,-724.9604 1038.8697,-702.6531 1038.8697,-658.524 1038.8697,-658.524 1038.8697,-658.524 1038.8697,-228.9777 1038.8697,-164.0841 1000.4157,-96.5669 974.0607,-57.9135"/>
<polygon fill="#000000" stroke="#000000" points="976.8961,-55.8604 968.3105,-49.6524 971.1508,-59.8594 976.8961,-55.8604"/>
</g>
<!-- get_paid&#45;&gt;skattekort -->
<g id="edge38" class="edge">
<title>get_paid&#45;&gt;skattekort</title>
<path fill="none" stroke="#000000" d="M771.7116,-791.6713C778.1437,-750.2329 793.852,-649.0347 801.518,-599.6474"/>
<polygon fill="#000000" stroke="#000000" points="804.9934,-600.0754 803.0687,-589.6569 798.0762,-599.0016 804.9934,-600.0754"/>
</g>
<!-- get_paid&#45;&gt;nemid -->
<g id="edge40" class="edge">
<title>get_paid&#45;&gt;nemid</title>
<path fill="none" stroke="#000000" d="M753.6848,-793.1927C729.3829,-766.3265 681.6513,-713.5584 653.6959,-682.6532"/>
<polygon fill="#000000" stroke="#000000" points="656.0101,-679.9941 646.7061,-674.9259 650.8188,-684.6899 656.0101,-679.9941"/>
</g>
<!-- get_paid&#45;&gt;danish_bank_account -->
<g id="edge39" class="edge">
<title>get_paid&#45;&gt;danish_bank_account</title>
<path fill="none" stroke="#000000" d="M739.0137,-797.766C712.35,-786.8581 672.7956,-770.6768 641.5589,-757.8981"/>
<polygon fill="#000000" stroke="#000000" points="642.736,-754.5982 632.1553,-754.0512 640.0855,-761.077 642.736,-754.5982"/>
</g>
<!-- danish_lessions -->
<g id="node26" class="node">
<title>danish_lessions</title>
<ellipse fill="none" stroke="#000000" cx="452.8697" cy="-889.4356" rx="62.8431" ry="18"/>
<text text-anchor="middle" x="452.8697" y="-885.2356" font-family="Times,serif" font-size="14.00" fill="#000000">Danish lessons</text>
</g>
<!-- danish_lessions&#45;&gt;cpr_number -->
<g id="edge41" class="edge">
<title>danish_lessions&#45;&gt;cpr_number</title>
<path fill="none" stroke="#000000" d="M405.2099,-877.6592C315.362,-854.0577 129.8697,-798.0569 129.8697,-737.9798 129.8697,-737.9798 129.8697,-737.9798 129.8697,-658.524 129.8697,-570.9873 417.9969,-519.2937 548.2524,-500.3968"/>
<polygon fill="#000000" stroke="#000000" points="549.0752,-503.8148 558.4786,-498.9337 548.0837,-496.8854 549.0752,-503.8148"/>
</g>
<!-- danish_bank_card -->
<g id="node27" class="node">
<title>danish_bank_card</title>
<ellipse fill="none" stroke="#000000" cx="457.8697" cy="-809.9798" rx="71.979" ry="18"/>
<text text-anchor="middle" x="457.8697" y="-805.7798" font-family="Times,serif" font-size="14.00" fill="#000000">Danish bank card</text>
</g>
<!-- danish_lessions&#45;&gt;danish_bank_card -->
<g id="edge42" class="edge">
<title>danish_lessions&#45;&gt;danish_bank_card</title>
<path fill="none" stroke="#000000" d="M454.0042,-871.4059C454.62,-861.6211 455.3951,-849.3032 456.0893,-838.2714"/>
<polygon fill="#000000" stroke="#000000" points="459.5872,-838.4134 456.7223,-828.2132 452.6011,-837.9737 459.5872,-838.4134"/>
</g>
<!-- danish_bank_card&#45;&gt;can_receive_post -->
<g id="edge44" class="edge">
<title>danish_bank_card&#45;&gt;can_receive_post</title>
<path fill="none" stroke="#000000" d="M389.8776,-804.0406C304.1623,-792.3962 167.8697,-758.2079 167.8697,-658.524 167.8697,-658.524 167.8697,-658.524 167.8697,-412.7006 167.8697,-357.0671 197.426,-298.3724 219.1801,-262.7063"/>
<polygon fill="#000000" stroke="#000000" points="222.1943,-264.4872 224.52,-254.1507 216.256,-260.7808 222.1943,-264.4872"/>
</g>
<!-- danish_bank_card&#45;&gt;danish_bank_account -->
<g id="edge43" class="edge">
<title>danish_bank_card&#45;&gt;danish_bank_account</title>
<path fill="none" stroke="#ff0000" d="M488.5033,-793.6419C507.3927,-783.5675 531.8384,-770.5298 552.3221,-759.6052"/>
<polygon fill="#ff0000" stroke="#ff0000" points="554.244,-762.5469 561.4205,-754.7527 550.9498,-756.3704 554.244,-762.5469"/>
</g>
<!-- spend_lovely_dkk -->
<g id="node28" class="node">
<title>spend_lovely_dkk</title>
<ellipse fill="none" stroke="#000000" cx="715.8697" cy="-889.4356" rx="99.0344" ry="18"/>
<text text-anchor="middle" x="715.8697" y="-885.2356" font-family="Times,serif" font-size="14.00" fill="#000000">Spend your lovely DKK!</text>
</g>
<!-- spend_lovely_dkk&#45;&gt;get_paid -->
<g id="edge45" class="edge">
<title>spend_lovely_dkk&#45;&gt;get_paid</title>
<path fill="none" stroke="#000000" d="M727.8962,-871.4059C734.9055,-860.8978 743.8635,-847.4683 751.6149,-835.8476"/>
<polygon fill="#000000" stroke="#000000" points="754.6175,-837.6535 757.255,-827.3922 748.7941,-833.769 754.6175,-837.6535"/>
</g>
<!-- spend_lovely_dkk&#45;&gt;danish_bank_card -->
<g id="edge46" class="edge">
<title>spend_lovely_dkk&#45;&gt;danish_bank_card</title>
<path fill="none" stroke="#000000" d="M665.205,-873.8325C621.4549,-860.3589 558.3581,-840.927 513.278,-827.0438"/>
<polygon fill="#000000" stroke="#000000" points="514.2477,-823.6803 503.6605,-824.0819 512.1874,-830.3702 514.2477,-823.6803"/>
</g>
<!-- mobilepay -->
<g id="node29" class="node">
<title>mobilepay</title>
<ellipse fill="none" stroke="#000000" cx="595.8697" cy="-809.9798" rx="48.3427" ry="18"/>
<text text-anchor="middle" x="595.8697" y="-805.7798" font-family="Times,serif" font-size="14.00" fill="#000000">Mobilepay</text>
</g>
<!-- mobilepay&#45;&gt;danish_phone_number -->
<g id="edge48" class="edge">
<title>mobilepay&#45;&gt;danish_phone_number</title>
<path fill="none" stroke="#000000" d="M565.5215,-795.7357C545.9156,-785.8677 520.3382,-771.711 499.8697,-755.9798 475.0614,-736.9132 450.4991,-711.4954 432.5664,-691.3988"/>
<polygon fill="#000000" stroke="#000000" points="435.026,-688.896 425.7904,-683.7043 429.7727,-693.5223 435.026,-688.896"/>
</g>
<!-- mobilepay&#45;&gt;cpr_number -->
<g id="edge47" class="edge">
<title>mobilepay&#45;&gt;cpr_number</title>
<path fill="none" stroke="#000000" d="M632.7115,-798.0037C652.2289,-789.5648 674.4678,-776.1176 685.8697,-755.9798 731.0194,-676.2367 665.9041,-567.2959 630.7902,-518.1193"/>
<polygon fill="#000000" stroke="#000000" points="633.5382,-515.9474 624.8201,-509.927 627.881,-520.07 633.5382,-515.9474"/>
</g>
<!-- mobilepay&#45;&gt;danish_bank_account -->
<g id="edge49" class="edge">
<title>mobilepay&#45;&gt;danish_bank_account</title>
<path fill="none" stroke="#000000" d="M595.1126,-791.8112C594.7918,-784.1108 594.4103,-774.9541 594.0537,-766.3964"/>
<polygon fill="#000000" stroke="#000000" points="597.5503,-766.2387 593.6369,-756.3931 590.5563,-766.5301 597.5503,-766.2387"/>
</g>
<!-- hygge -->
<g id="node30" class="node">
<title>hygge</title>
<ellipse fill="none" stroke="#000000" cx="756.8697" cy="-1188.7897" rx="101.1913" ry="21.7969"/>
<text text-anchor="middle" x="756.8697" y="-1189.0741" font-family="Times,serif" font-size="14.00" fill="#000000">🇩🇰 😊 Hygge 😊 🇩🇰</text>
</g>
<!-- magi4 -->
<g id="node31" class="node">
<title>magi4</title>
<ellipse fill="none" stroke="#000000" cx="812.8697" cy="-968.8915" rx="27" ry="18"/>
<text text-anchor="middle" x="812.8697" y="-964.6915" font-family="Times,serif" font-size="14.00" fill="#000000">????</text>
</g>
<!-- hygge&#45;&gt;magi4 -->
<g id="edge50" class="edge">
<title>hygge&#45;&gt;magi4</title>
<path fill="none" stroke="#000000" stroke-dasharray="5,2" d="M762.4439,-1166.9011C772.6886,-1126.6725 794.4925,-1041.0542 805.7756,-996.7481"/>
<polygon fill="#000000" stroke="#000000" points="809.1989,-997.4879 808.2751,-986.9334 802.4154,-995.7603 809.1989,-997.4879"/>
</g>
<!-- magi1 -->
<g id="node32" class="node">
<title>magi1</title>
<ellipse fill="none" stroke="#000000" cx="729.8697" cy="-1112.8915" rx="27" ry="18"/>
<text text-anchor="middle" x="729.8697" y="-1108.6915" font-family="Times,serif" font-size="14.00" fill="#000000">?</text>
</g>
<!-- hygge&#45;&gt;magi1 -->
<g id="edge51" class="edge">
<title>hygge&#45;&gt;magi1</title>
<path fill="none" stroke="#000000" d="M749.0602,-1166.8368C746.0728,-1158.4391 742.6303,-1148.7623 739.4931,-1139.9434"/>
<polygon fill="#000000" stroke="#000000" points="742.7705,-1138.7135 736.1213,-1130.465 736.1754,-1141.0597 742.7705,-1138.7135"/>
</g>
<!-- helbred -->
<g id="node35" class="node">
<title>helbred</title>
<ellipse fill="none" stroke="#000000" cx="866.8697" cy="-889.4356" rx="33.8596" ry="18"/>
<text text-anchor="middle" x="866.8697" y="-885.2356" font-family="Times,serif" font-size="14.00" fill="#000000">Health</text>
</g>
<!-- magi4&#45;&gt;helbred -->
<g id="edge57" class="edge">
<title>magi4&#45;&gt;helbred</title>
<path fill="none" stroke="#000000" stroke-dasharray="1,5" d="M824.0585,-952.4282C831.4167,-941.6013 841.1939,-927.2151 849.5469,-914.9244"/>
<polygon fill="#000000" stroke="#000000" points="852.5963,-916.6642 855.3226,-906.4261 846.8068,-912.7295 852.5963,-916.6642"/>
</g>
<!-- magi2 -->
<g id="node33" class="node">
<title>magi2</title>
<ellipse fill="none" stroke="#000000" cx="589.8697" cy="-1040.8915" rx="27" ry="18"/>
<text text-anchor="middle" x="589.8697" y="-1036.6915" font-family="Times,serif" font-size="14.00" fill="#000000">??</text>
</g>
<!-- magi1&#45;&gt;magi2 -->
<g id="edge53" class="edge">
<title>magi1&#45;&gt;magi2</title>
<path fill="none" stroke="#000000" d="M708.3015,-1101.7993C684.9387,-1089.7841 647.4583,-1070.5085 620.9262,-1056.8634"/>
<polygon fill="#000000" stroke="#000000" points="622.1866,-1053.5759 611.693,-1052.1149 618.9852,-1059.801 622.1866,-1053.5759"/>
</g>
<!-- magi3 -->
<g id="node34" class="node">
<title>magi3</title>
<ellipse fill="none" stroke="#000000" cx="702.8697" cy="-1040.8915" rx="27" ry="18"/>
<text text-anchor="middle" x="702.8697" y="-1036.6915" font-family="Times,serif" font-size="14.00" fill="#000000">????</text>
</g>
<!-- magi1&#45;&gt;magi3 -->
<g id="edge54" class="edge">
<title>magi1&#45;&gt;magi3</title>
<path fill="none" stroke="#000000" stroke-dasharray="5,2" d="M723.1955,-1095.0937C720.1221,-1086.8978 716.4081,-1076.9939 713.0001,-1067.906"/>
<polygon fill="#000000" stroke="#000000" points="716.2555,-1066.6189 709.4671,-1058.4845 709.7012,-1069.0768 716.2555,-1066.6189"/>
</g>
<!-- magi1&#45;&gt;helbred -->
<g id="edge55" class="edge">
<title>magi1&#45;&gt;helbred</title>
<path fill="none" stroke="#000000" stroke-dasharray="1,5" d="M733.4528,-1095.0477C741.1411,-1058.0146 759.902,-974.3092 776.8697,-950.8915 784.9059,-939.8004 812.6387,-921.5979 835.2189,-907.8752"/>
<polygon fill="#000000" stroke="#000000" points="837.109,-910.8228 843.8805,-902.6743 833.5055,-904.8215 837.109,-910.8228"/>
</g>
<!-- penge -->
<g id="node36" class="node">
<title>penge</title>
<ellipse fill="none" stroke="#000000" cx="642.8697" cy="-968.8915" rx="35.3216" ry="18"/>
<text text-anchor="middle" x="642.8697" y="-964.6915" font-family="Times,serif" font-size="14.00" fill="#000000">Money</text>
</g>
<!-- magi2&#45;&gt;penge -->
<g id="edge56" class="edge">
<title>magi2&#45;&gt;penge</title>
<path fill="none" stroke="#000000" stroke-dasharray="1,5" d="M601.8962,-1024.5536C608.5294,-1015.5424 616.9079,-1004.1603 624.3574,-994.0403"/>
<polygon fill="#000000" stroke="#000000" points="627.2282,-996.0443 630.3377,-985.916 621.5908,-991.8945 627.2282,-996.0443"/>
</g>
<!-- rejser -->
<g id="node37" class="node">
<title>rejser</title>
<ellipse fill="none" stroke="#000000" cx="197.8697" cy="-968.8915" rx="41.1266" ry="18"/>
<text text-anchor="middle" x="197.8697" y="-964.6915" font-family="Times,serif" font-size="14.00" fill="#000000">Mobility</text>
</g>
<!-- magi2&#45;&gt;rejser -->
<g id="edge63" class="edge">
<title>magi2&#45;&gt;rejser</title>
<path fill="none" stroke="#000000" stroke-dasharray="1,5" d="M563.5408,-1036.0556C498.4489,-1024.0999 329.2069,-993.0146 245.7825,-977.6918"/>
<polygon fill="#000000" stroke="#000000" points="246.2733,-974.2235 235.8055,-975.8593 245.0087,-981.1083 246.2733,-974.2235"/>
</g>
<!-- faa_ting_gjort -->
<g id="node38" class="node">
<title>faa_ting_gjort</title>
<ellipse fill="none" stroke="#000000" cx="452.8697" cy="-968.8915" rx="75.0675" ry="18"/>
<text text-anchor="middle" x="452.8697" y="-964.6915" font-family="Times,serif" font-size="14.00" fill="#000000">Can get stuff done</text>
</g>
<!-- magi2&#45;&gt;faa_ting_gjort -->
<g id="edge66" class="edge">
<title>magi2&#45;&gt;faa_ting_gjort</title>
<path fill="none" stroke="#000000" stroke-dasharray="1,5" d="M568.4634,-1029.6415C548.3773,-1019.0853 517.8205,-1003.0262 493.1679,-990.0701"/>
<polygon fill="#000000" stroke="#000000" points="494.523,-986.8284 484.0428,-985.2744 491.2665,-993.0248 494.523,-986.8284"/>
</g>
<!-- magi3&#45;&gt;magi4 -->
<g id="edge52" class="edge">
<title>magi3&#45;&gt;magi4</title>
<path fill="none" stroke="#000000" d="M722.2823,-1028.1851C739.6117,-1016.8422 765.2014,-1000.0925 784.7669,-987.2861"/>
<polygon fill="#000000" stroke="#000000" points="786.8309,-990.1182 793.2812,-981.7131 782.9973,-984.2612 786.8309,-990.1182"/>
</g>
<!-- magi3&#45;&gt;penge -->
<g id="edge60" class="edge">
<title>magi3&#45;&gt;penge</title>
<path fill="none" stroke="#000000" stroke-dasharray="1,5" d="M689.5537,-1024.9124C681.8715,-1015.6937 672.0491,-1003.9068 663.3978,-993.5252"/>
<polygon fill="#000000" stroke="#000000" points="665.8645,-991.0181 656.7739,-985.5765 660.487,-995.4994 665.8645,-991.0181"/>
</g>
<!-- helbred&#45;&gt;ehic -->
<g id="edge59" class="edge">
<title>helbred&#45;&gt;ehic</title>
<path fill="none" stroke="#000000" d="M880.0743,-872.7853C889.3085,-860.7326 901.5985,-843.8397 910.8697,-827.9798 922.6904,-807.7583 933.7924,-783.6554 941.6099,-765.4843"/>
<polygon fill="#000000" stroke="#000000" points="944.9234,-766.6351 945.5987,-756.0618 938.4772,-763.9062 944.9234,-766.6351"/>
</g>
<!-- helbred&#45;&gt;doctor -->
<g id="edge58" class="edge">
<title>helbred&#45;&gt;doctor</title>
<path fill="none" stroke="#000000" d="M866.8697,-871.4059C866.8697,-861.6211 866.8697,-849.3032 866.8697,-838.2714"/>
<polygon fill="#000000" stroke="#000000" points="870.3698,-838.2132 866.8697,-828.2132 863.3698,-838.2133 870.3698,-838.2132"/>
</g>
<!-- penge&#45;&gt;spend_lovely_dkk -->
<g id="edge61" class="edge">
<title>penge&#45;&gt;spend_lovely_dkk</title>
<path fill="none" stroke="#000000" d="M657.9953,-952.4282C667.9301,-941.6148 681.1269,-927.251 692.4097,-914.9704"/>
<polygon fill="#000000" stroke="#000000" points="695.3059,-916.9912 699.4942,-907.2594 690.1512,-912.2553 695.3059,-916.9912"/>
</g>
<!-- penge&#45;&gt;mobilepay -->
<g id="edge62" class="edge">
<title>penge&#45;&gt;mobilepay</title>
<path fill="none" stroke="#000000" d="M628.9916,-951.9865C621.4489,-941.8515 612.6989,-928.3515 607.8697,-914.8915 598.919,-889.9444 596.2508,-859.7147 595.6237,-838.1255"/>
<polygon fill="#000000" stroke="#000000" points="599.1212,-837.9324 595.4603,-827.9901 592.1221,-838.0453 599.1212,-837.9324"/>
</g>
<!-- rejser&#45;&gt;rejsekort -->
<g id="edge65" class="edge">
<title>rejser&#45;&gt;rejsekort</title>
<path fill="none" stroke="#000000" d="M197.8697,-950.8617C197.8697,-943.2268 197.8697,-934.0495 197.8697,-925.1444"/>
<polygon fill="#000000" stroke="#000000" points="201.3698,-924.9243 197.8697,-914.9243 194.3698,-924.9244 201.3698,-924.9243"/>
</g>
<!-- rejser&#45;&gt;pendlerkort -->
<g id="edge64" class="edge">
<title>rejser&#45;&gt;pendlerkort</title>
<path fill="none" stroke="#000000" d="M172.8709,-954.5705C157.5657,-944.8654 138.3902,-930.9161 124.8697,-914.8915 91.1822,-874.9649 71.8697,-862.2194 71.8697,-809.9798 71.8697,-809.9798 71.8697,-809.9798 71.8697,-737.9798 71.8697,-689.1187 62.8434,-632.8165 56.6262,-599.8318"/>
<polygon fill="#000000" stroke="#000000" points="60.0563,-599.1344 54.7214,-589.9808 53.1836,-600.4634 60.0563,-599.1344"/>
</g>
<!-- faa_ting_gjort&#45;&gt;activated_nemid -->
<g id="edge67" class="edge">
<title>faa_ting_gjort&#45;&gt;activated_nemid</title>
<path fill="none" stroke="#000000" d="M420.116,-952.5407C405.5785,-943.509 389.7741,-930.8575 380.8697,-914.8915 354.6885,-867.9476 356.741,-802.9201 360.7181,-766.1936"/>
<polygon fill="#000000" stroke="#000000" points="364.2019,-766.5371 361.9268,-756.1894 357.2525,-765.6974 364.2019,-766.5371"/>
</g>
<!-- faa_ting_gjort&#45;&gt;danish_lessions -->
<g id="edge68" class="edge">
<title>faa_ting_gjort&#45;&gt;danish_lessions</title>
<path fill="none" stroke="#000000" d="M452.8697,-950.8617C452.8697,-941.077 452.8697,-928.759 452.8697,-917.7272"/>
<polygon fill="#000000" stroke="#000000" points="456.3698,-917.6691 452.8697,-907.6691 449.3698,-917.6691 456.3698,-917.6691"/>
</g>
</g>
</svg>
