<?xml version="1.0" encoding="UTF-8" standalone="no"?>
<!DOCTYPE svg PUBLIC "-//W3C//DTD SVG 1.1//EN"
 "http://www.w3.org/Graphics/SVG/1.1/DTD/svg11.dtd">
<!-- Generated by graphviz version 2.40.1 (20161225.0304)
 -->
<!-- Title: g Pages: 1 -->
<svg width="1133pt" height="1268pt"
 viewBox="0.00 0.00 1132.87 1268.31" xmlns="http://www.w3.org/2000/svg" xmlns:xlink="http://www.w3.org/1999/xlink">
<g id="graph0" class="graph" transform="scale(1 1) rotate(0) translate(4 1264.3103)">
<title>g</title>
<polygon fill="#ffffff" stroke="transparent" points="-4,4 -4,-1264.3103 1128.8722,-1264.3103 1128.8722,4 -4,4"/>
<!-- job -->
<g id="node1" class="node">
<title>job</title>
<ellipse fill="#00ff00" stroke="#000000" cx="1004.5049" cy="-25.4558" rx="57.5098" ry="25.4118"/>
<text text-anchor="middle" x="1004.5049" y="-28.2558" font-family="Times,serif" font-size="14.00" fill="#000000">A job</text>
<text text-anchor="middle" x="1004.5049" y="-14.2558" font-family="Times,serif" font-size="14.00" fill="#000000">2018&#45;10&#45;19</text>
</g>
<!-- proof_of_work -->
<g id="node2" class="node">
<title>proof_of_work</title>
<ellipse fill="#00ff00" stroke="#000000" cx="889.5049" cy="-122.267" rx="66.707" ry="25.4118"/>
<text text-anchor="middle" x="889.5049" y="-125.067" font-family="Times,serif" font-size="14.00" fill="#000000">Proof of work</text>
<text text-anchor="middle" x="889.5049" y="-111.067" font-family="Times,serif" font-size="14.00" fill="#000000">2019&#45;01&#45;22</text>
</g>
<!-- proof_of_work&#45;&gt;job -->
<g id="edge1" class="edge">
<title>proof_of_work&#45;&gt;job</title>
<path fill="none" stroke="#000000" d="M917.3432,-98.8317C933.1099,-85.5587 952.9741,-68.8364 969.7557,-54.709"/>
<polygon fill="#000000" stroke="#000000" points="972.3188,-57.1264 977.7148,-48.0087 967.8106,-51.7713 972.3188,-57.1264"/>
</g>
<!-- passport -->
<g id="node3" class="node">
<title>passport</title>
<ellipse fill="#00ff00" stroke="#000000" cx="384.5049" cy="-122.267" rx="44.7298" ry="25.4118"/>
<text text-anchor="middle" x="384.5049" y="-125.067" font-family="Times,serif" font-size="14.00" fill="#000000">Passport</text>
<text text-anchor="middle" x="384.5049" y="-111.067" font-family="Times,serif" font-size="14.00" fill="#000000">2015</text>
</g>
<!-- danish_phone_number -->
<g id="node4" class="node">
<title>danish_phone_number</title>
<ellipse fill="#00ff00" stroke="#000000" cx="418.5049" cy="-693.2346" rx="98.9836" ry="25.4118"/>
<text text-anchor="middle" x="418.5049" y="-696.0346" font-family="Times,serif" font-size="14.00" fill="#000000">Danish phone number</text>
<text text-anchor="middle" x="418.5049" y="-682.0346" font-family="Times,serif" font-size="14.00" fill="#000000">2019&#45;01&#45;17</text>
</g>
<!-- rejsekort -->
<g id="node5" class="node">
<title>rejsekort</title>
<ellipse fill="#00ff00" stroke="#000000" cx="208.5049" cy="-939.058" rx="64.2475" ry="25.4118"/>
<text text-anchor="middle" x="208.5049" y="-941.858" font-family="Times,serif" font-size="14.00" fill="#000000">Rejsekort</text>
<text text-anchor="middle" x="208.5049" y="-927.858" font-family="Times,serif" font-size="14.00" fill="#000000">2018&#45;10&#45;19 ?</text>
</g>
<!-- place_to_live -->
<g id="node6" class="node">
<title>place_to_live</title>
<ellipse fill="#00ff00" stroke="#000000" cx="384.5049" cy="-25.4558" rx="68.5454" ry="25.4118"/>
<text text-anchor="middle" x="384.5049" y="-28.2558" font-family="Times,serif" font-size="14.00" fill="#000000">A place to live</text>
<text text-anchor="middle" x="384.5049" y="-14.2558" font-family="Times,serif" font-size="14.00" fill="#000000">2019&#45;01&#45;21</text>
</g>
<!-- name_on_postbox -->
<g id="node7" class="node">
<title>name_on_postbox</title>
<ellipse fill="#00ff00" stroke="#000000" cx="216.5049" cy="-122.267" rx="66.9194" ry="35.2113"/>
<text text-anchor="middle" x="216.5049" y="-132.067" font-family="Times,serif" font-size="14.00" fill="#000000">Your name on</text>
<text text-anchor="middle" x="216.5049" y="-118.067" font-family="Times,serif" font-size="14.00" fill="#000000">your postbox</text>
<text text-anchor="middle" x="216.5049" y="-104.067" font-family="Times,serif" font-size="14.00" fill="#000000">2019&#45;01&#45;22</text>
</g>
<!-- name_on_postbox&#45;&gt;place_to_live -->
<g id="edge2" class="edge">
<title>name_on_postbox&#45;&gt;place_to_live</title>
<path fill="none" stroke="#000000" d="M261.9681,-96.0685C285.6642,-82.4135 314.5838,-65.7484 338.3765,-52.0376"/>
<polygon fill="#000000" stroke="#000000" points="340.3059,-54.9654 347.2227,-46.94 336.8108,-48.9004 340.3059,-54.9654"/>
</g>
<!-- can_receive_post -->
<g id="node8" class="node">
<title>can_receive_post</title>
<ellipse fill="#00ff00" stroke="#000000" cx="255.5049" cy="-228.9777" rx="99.6266" ry="25.4118"/>
<text text-anchor="middle" x="255.5049" y="-231.7777" font-family="Times,serif" font-size="14.00" fill="#000000">Ability to receive post</text>
<text text-anchor="middle" x="255.5049" y="-217.7777" font-family="Times,serif" font-size="14.00" fill="#000000">2019&#45;01&#45;22</text>
</g>
<!-- can_receive_post&#45;&gt;place_to_live -->
<g id="edge3" class="edge">
<title>can_receive_post&#45;&gt;place_to_live</title>
<path fill="none" stroke="#000000" d="M268.7674,-203.4817C289.3077,-164.049 326.8455,-92.2227 330.5049,-86.9117 337.5562,-76.6781 346.0958,-66.2605 354.2825,-56.9803"/>
<polygon fill="#000000" stroke="#000000" points="356.9447,-59.2544 361.036,-49.4814 351.7431,-54.5699 356.9447,-59.2544"/>
</g>
<!-- can_receive_post&#45;&gt;name_on_postbox -->
<g id="edge4" class="edge">
<title>can_receive_post&#45;&gt;name_on_postbox</title>
<path fill="none" stroke="#000000" d="M246.1634,-203.4178C242.141,-192.4117 237.3184,-179.2163 232.7425,-166.6959"/>
<polygon fill="#000000" stroke="#000000" points="236.0288,-165.4914 229.3087,-157.3005 229.4541,-167.8943 236.0288,-165.4914"/>
</g>
<!-- pendlerkort -->
<g id="node9" class="node">
<title>pendlerkort</title>
<ellipse fill="#00ff00" stroke="#000000" cx="57.5049" cy="-606.3229" rx="57.5098" ry="25.4118"/>
<text text-anchor="middle" x="57.5049" y="-609.1229" font-family="Times,serif" font-size="14.00" fill="#000000">Pendlerkort</text>
<text text-anchor="middle" x="57.5049" y="-595.1229" font-family="Times,serif" font-size="14.00" fill="#000000">2019&#45;02&#45;05</text>
</g>
<!-- pendlerkort&#45;&gt;place_to_live -->
<g id="edge5" class="edge">
<title>pendlerkort&#45;&gt;place_to_live</title>
<path fill="none" stroke="#000000" d="M64.7662,-581.0053C74.2075,-545.7963 89.5049,-479.9065 89.5049,-422.6001 89.5049,-422.6001 89.5049,-422.6001 89.5049,-228.9777 89.5049,-161.892 90.8033,-131.97 140.5049,-86.9117 165.2991,-64.4339 247.82,-46.8479 310.085,-36.3501"/>
<polygon fill="#000000" stroke="#000000" points="310.9875,-39.7485 320.2821,-34.6632 309.8449,-32.8424 310.9875,-39.7485"/>
</g>
<!-- eu_residence_document_application -->
<g id="node10" class="node">
<title>eu_residence_document_application</title>
<ellipse fill="#00ff00" stroke="#000000" cx="555.5049" cy="-228.9777" rx="105.7427" ry="35.2113"/>
<text text-anchor="middle" x="555.5049" y="-238.7777" font-family="Times,serif" font-size="14.00" fill="#000000">Application for</text>
<text text-anchor="middle" x="555.5049" y="-224.7777" font-family="Times,serif" font-size="14.00" fill="#000000">EU residence document</text>
<text text-anchor="middle" x="555.5049" y="-210.7777" font-family="Times,serif" font-size="14.00" fill="#000000">2019&#45;01&#45;23</text>
</g>
<!-- eu_residence_document_application&#45;&gt;proof_of_work -->
<g id="edge7" class="edge">
<title>eu_residence_document_application&#45;&gt;proof_of_work</title>
<path fill="none" stroke="#000000" d="M632.1313,-204.4961C691.7241,-185.4566 773.288,-159.3975 828.502,-141.757"/>
<polygon fill="#000000" stroke="#000000" points="829.6916,-145.0513 838.152,-138.6739 827.5611,-138.3834 829.6916,-145.0513"/>
</g>
<!-- eu_residence_document_application&#45;&gt;passport -->
<g id="edge8" class="edge">
<title>eu_residence_document_application&#45;&gt;passport</title>
<path fill="none" stroke="#000000" d="M505.1241,-197.5381C478.9771,-181.2214 447.5263,-161.5949 423.2964,-146.4744"/>
<polygon fill="#000000" stroke="#000000" points="425.0561,-143.447 414.7195,-141.1221 421.3502,-149.3855 425.0561,-143.447"/>
</g>
<!-- eu_residence_document_application&#45;&gt;place_to_live -->
<g id="edge6" class="edge">
<title>eu_residence_document_application&#45;&gt;place_to_live</title>
<path fill="none" stroke="#000000" d="M513.9178,-196.207C501.0054,-184.8318 487.3343,-171.4424 476.5049,-157.6224 454.4993,-129.5396 458.856,-116.2156 438.5049,-86.9117 431.4159,-76.7042 422.8644,-66.2948 414.6782,-57.0142"/>
<polygon fill="#000000" stroke="#000000" points="417.2189,-54.6051 407.9279,-49.5131 412.0156,-59.2877 417.2189,-54.6051"/>
</g>
<!-- od1_form -->
<g id="node11" class="node">
<title>od1_form</title>
<ellipse fill="#00ff00" stroke="#000000" cx="700.5049" cy="-122.267" rx="57.5098" ry="25.4118"/>
<text text-anchor="middle" x="700.5049" y="-125.067" font-family="Times,serif" font-size="14.00" fill="#000000">OD1 form</text>
<text text-anchor="middle" x="700.5049" y="-111.067" font-family="Times,serif" font-size="14.00" fill="#000000">2019&#45;01&#45;22</text>
</g>
<!-- eu_residence_document_application&#45;&gt;od1_form -->
<g id="edge9" class="edge">
<title>eu_residence_document_application&#45;&gt;od1_form</title>
<path fill="none" stroke="#000000" d="M599.4032,-196.6714C619.4433,-181.9232 642.9557,-164.6195 662.2605,-150.4124"/>
<polygon fill="#000000" stroke="#000000" points="664.55,-153.0732 670.5295,-144.327 660.4009,-147.4354 664.55,-153.0732"/>
</g>
<!-- passport_photo -->
<g id="node12" class="node">
<title>passport_photo</title>
<ellipse fill="#00ff00" stroke="#000000" cx="555.5049" cy="-122.267" rx="69.7781" ry="25.4118"/>
<text text-anchor="middle" x="555.5049" y="-125.067" font-family="Times,serif" font-size="14.00" fill="#000000">Passport photo</text>
<text text-anchor="middle" x="555.5049" y="-111.067" font-family="Times,serif" font-size="14.00" fill="#000000">2019&#45;01&#45;23</text>
</g>
<!-- eu_residence_document_application&#45;&gt;passport_photo -->
<g id="edge10" class="edge">
<title>eu_residence_document_application&#45;&gt;passport_photo</title>
<path fill="none" stroke="#000000" d="M555.5049,-193.4446C555.5049,-182.0254 555.5049,-169.3758 555.5049,-157.9462"/>
<polygon fill="#000000" stroke="#000000" points="559.005,-157.8629 555.5049,-147.8629 552.005,-157.863 559.005,-157.8629"/>
</g>
<!-- eu_residence_document -->
<g id="node13" class="node">
<title>eu_residence_document</title>
<ellipse fill="#00ff00" stroke="#000000" cx="555.5049" cy="-325.7889" rx="105.7427" ry="25.4118"/>
<text text-anchor="middle" x="555.5049" y="-328.5889" font-family="Times,serif" font-size="14.00" fill="#000000">EU residence document</text>
<text text-anchor="middle" x="555.5049" y="-314.5889" font-family="Times,serif" font-size="14.00" fill="#000000">2019&#45;01&#45;31</text>
</g>
<!-- eu_residence_document&#45;&gt;can_receive_post -->
<g id="edge12" class="edge">
<title>eu_residence_document&#45;&gt;can_receive_post</title>
<path fill="none" stroke="#000000" d="M492.2492,-305.376C443.9808,-289.7996 377.454,-268.3312 327.211,-252.1175"/>
<polygon fill="#000000" stroke="#000000" points="327.9814,-248.6885 317.3897,-248.9482 325.8316,-255.3502 327.9814,-248.6885"/>
</g>
<!-- eu_residence_document&#45;&gt;eu_residence_document_application -->
<g id="edge11" class="edge">
<title>eu_residence_document&#45;&gt;eu_residence_document_application</title>
<path fill="none" stroke="#ff0000" d="M555.5049,-300.0994C555.5049,-292.2885 555.5049,-283.4571 555.5049,-274.7403"/>
<polygon fill="#ff0000" stroke="#ff0000" points="559.005,-274.6281 555.5049,-264.6281 552.005,-274.6282 559.005,-274.6281"/>
</g>
<!-- cpr_number_application -->
<g id="node14" class="node">
<title>cpr_number_application</title>
<ellipse fill="#00ff00" stroke="#000000" cx="623.5049" cy="-422.6001" rx="72.138" ry="35.2113"/>
<text text-anchor="middle" x="623.5049" y="-432.4001" font-family="Times,serif" font-size="14.00" fill="#000000">Application for</text>
<text text-anchor="middle" x="623.5049" y="-418.4001" font-family="Times,serif" font-size="14.00" fill="#000000">CPR number</text>
<text text-anchor="middle" x="623.5049" y="-404.4001" font-family="Times,serif" font-size="14.00" fill="#000000">2019&#45;02&#45;06</text>
</g>
<!-- cpr_number_application&#45;&gt;proof_of_work -->
<g id="edge14" class="edge">
<title>cpr_number_application&#45;&gt;proof_of_work</title>
<path fill="none" stroke="#000000" d="M689.6812,-408.4617C745.7144,-395.1678 820.0963,-373.9599 840.5049,-351.2447 865.7629,-323.1321 880.1788,-215.0729 886.1782,-158.0233"/>
<polygon fill="#000000" stroke="#000000" points="889.6682,-158.2989 887.2012,-147.9953 882.7043,-157.5884 889.6682,-158.2989"/>
</g>
<!-- cpr_number_application&#45;&gt;passport -->
<g id="edge16" class="edge">
<title>cpr_number_application&#45;&gt;passport</title>
<path fill="none" stroke="#000000" d="M554.4794,-411.7704C515.7335,-402.1931 469.4923,-384.3329 440.5049,-351.2447 427.7266,-336.6587 403.1733,-218.1567 391.2851,-157.6069"/>
<polygon fill="#000000" stroke="#000000" points="394.7047,-156.8558 389.3538,-147.7114 387.8343,-158.1967 394.7047,-156.8558"/>
</g>
<!-- cpr_number_application&#45;&gt;eu_residence_document -->
<g id="edge13" class="edge">
<title>cpr_number_application&#45;&gt;eu_residence_document</title>
<path fill="none" stroke="#000000" d="M599.9126,-389.0119C593.1482,-379.3814 585.7755,-368.8849 579.0159,-359.2614"/>
<polygon fill="#000000" stroke="#000000" points="581.8762,-357.2441 573.2643,-351.0728 576.148,-361.2676 581.8762,-357.2441"/>
</g>
<!-- proof_of_address -->
<g id="node15" class="node">
<title>proof_of_address</title>
<ellipse fill="#00ff00" stroke="#000000" cx="755.5049" cy="-325.7889" rx="76.3945" ry="25.4118"/>
<text text-anchor="middle" x="755.5049" y="-328.5889" font-family="Times,serif" font-size="14.00" fill="#000000">Proof of address</text>
<text text-anchor="middle" x="755.5049" y="-314.5889" font-family="Times,serif" font-size="14.00" fill="#000000">2019&#45;01&#45;21</text>
</g>
<!-- cpr_number_application&#45;&gt;proof_of_address -->
<g id="edge15" class="edge">
<title>cpr_number_application&#45;&gt;proof_of_address</title>
<path fill="none" stroke="#000000" d="M663.8265,-393.0275C680.2257,-381 699.1307,-367.1347 715.4976,-355.1309"/>
<polygon fill="#000000" stroke="#000000" points="717.8046,-357.7794 723.7984,-349.043 713.6647,-352.1348 717.8046,-357.7794"/>
</g>
<!-- proof_of_address&#45;&gt;place_to_live -->
<g id="edge19" class="edge">
<title>proof_of_address&#45;&gt;place_to_live</title>
<path fill="none" stroke="#000000" d="M766.7726,-300.5901C786.2713,-252.7032 819.4909,-147.9043 767.5049,-86.9117 747.9058,-63.917 567.5685,-42.9607 461.4856,-32.485"/>
<polygon fill="#000000" stroke="#000000" points="461.7525,-28.9945 451.4593,-31.5042 461.071,-35.9613 461.7525,-28.9945"/>
</g>
<!-- cpr_number -->
<g id="node16" class="node">
<title>cpr_number</title>
<ellipse fill="#00ff00" stroke="#000000" cx="623.5049" cy="-519.4113" rx="62.9806" ry="25.4118"/>
<text text-anchor="middle" x="623.5049" y="-522.2113" font-family="Times,serif" font-size="14.00" fill="#000000">CPR number</text>
<text text-anchor="middle" x="623.5049" y="-508.2113" font-family="Times,serif" font-size="14.00" fill="#000000">2019&#45;02&#45;06</text>
</g>
<!-- cpr_number&#45;&gt;can_receive_post -->
<g id="edge18" class="edge">
<title>cpr_number&#45;&gt;can_receive_post</title>
<path fill="none" stroke="#000000" d="M593.3676,-496.8199C578.0654,-485.2798 559.2227,-470.9633 542.5049,-457.9554 452.5459,-387.9594 348.228,-304.0261 293.5043,-259.7792"/>
<polygon fill="#000000" stroke="#000000" points="295.4533,-256.854 285.4774,-253.286 291.0509,-262.2963 295.4533,-256.854"/>
</g>
<!-- cpr_number&#45;&gt;cpr_number_application -->
<g id="edge17" class="edge">
<title>cpr_number&#45;&gt;cpr_number_application</title>
<path fill="none" stroke="#ff0000" d="M623.5049,-493.7218C623.5049,-485.9109 623.5049,-477.0794 623.5049,-468.3626"/>
<polygon fill="#ff0000" stroke="#ff0000" points="627.005,-468.2505 623.5049,-458.2505 620.005,-468.2505 627.005,-468.2505"/>
</g>
<!-- skattekort -->
<g id="node17" class="node">
<title>skattekort</title>
<ellipse fill="#00ff00" stroke="#000000" cx="831.5049" cy="-606.3229" rx="57.5098" ry="25.4118"/>
<text text-anchor="middle" x="831.5049" y="-609.1229" font-family="Times,serif" font-size="14.00" fill="#000000">Skattekort</text>
<text text-anchor="middle" x="831.5049" y="-595.1229" font-family="Times,serif" font-size="14.00" fill="#000000">2019&#45;02&#45;07</text>
</g>
<!-- skattekort&#45;&gt;cpr_number -->
<g id="edge20" class="edge">
<title>skattekort&#45;&gt;cpr_number</title>
<path fill="none" stroke="#000000" stroke-dasharray="1,5" d="M789.413,-588.7351C756.9697,-575.1788 711.8888,-556.342 676.9066,-541.7249"/>
<polygon fill="#000000" stroke="#000000" points="677.9028,-538.3479 667.3265,-537.7219 675.204,-544.8068 677.9028,-538.3479"/>
</g>
<!-- nemid_application -->
<g id="node18" class="node">
<title>nemid_application</title>
<ellipse fill="none" stroke="#000000" cx="483.5049" cy="-606.3229" rx="72.138" ry="25.4118"/>
<text text-anchor="middle" x="483.5049" y="-609.1229" font-family="Times,serif" font-size="14.00" fill="#000000">Application for</text>
<text text-anchor="middle" x="483.5049" y="-595.1229" font-family="Times,serif" font-size="14.00" fill="#000000">Nemid</text>
</g>
<!-- nemid_application&#45;&gt;cpr_number -->
<g id="edge21" class="edge">
<title>nemid_application&#45;&gt;cpr_number</title>
<path fill="none" stroke="#000000" d="M519.1951,-584.1666C537.7419,-572.6527 560.558,-558.4886 580.1172,-546.3463"/>
<polygon fill="#000000" stroke="#000000" points="582.1976,-549.1744 588.8476,-540.9264 578.5056,-543.2272 582.1976,-549.1744"/>
</g>
<!-- nemid -->
<g id="node19" class="node">
<title>nemid</title>
<ellipse fill="none" stroke="#000000" cx="645.5049" cy="-693.2346" rx="34.3527" ry="18"/>
<text text-anchor="middle" x="645.5049" y="-689.0346" font-family="Times,serif" font-size="14.00" fill="#000000">Nemid</text>
</g>
<!-- nemid&#45;&gt;nemid_application -->
<g id="edge22" class="edge">
<title>nemid&#45;&gt;nemid_application</title>
<path fill="none" stroke="#000000" d="M621.2519,-680.2231C597.8143,-667.649 561.6382,-648.2408 532.2401,-632.469"/>
<polygon fill="#000000" stroke="#000000" points="533.8225,-629.3461 523.3558,-627.7026 530.5131,-635.5144 533.8225,-629.3461"/>
</g>
<!-- danish_bank_account -->
<g id="node20" class="node">
<title>danish_bank_account</title>
<ellipse fill="#00ff00" stroke="#000000" cx="611.5049" cy="-780.1463" rx="94.1666" ry="25.4118"/>
<text text-anchor="middle" x="611.5049" y="-782.9463" font-family="Times,serif" font-size="14.00" fill="#000000">Danish bank account</text>
<text text-anchor="middle" x="611.5049" y="-768.9463" font-family="Times,serif" font-size="14.00" fill="#000000">2019&#45;02&#45;07</text>
</g>
<!-- danish_bank_account&#45;&gt;proof_of_work -->
<g id="edge24" class="edge">
<title>danish_bank_account&#45;&gt;proof_of_work</title>
<path fill="none" stroke="#000000" d="M647.8164,-756.4802C661.7915,-746.0992 677.1123,-733.0131 688.5049,-718.6905 716.6853,-683.2623 849.7947,-394.0571 864.5049,-351.2447 887.0487,-285.6337 890.5188,-203.791 890.4137,-157.8484"/>
<polygon fill="#000000" stroke="#000000" points="893.9132,-157.7614 890.3313,-147.7905 886.9134,-157.8188 893.9132,-157.7614"/>
</g>
<!-- danish_bank_account&#45;&gt;passport -->
<g id="edge26" class="edge">
<title>danish_bank_account&#45;&gt;passport</title>
<path fill="none" stroke="#000000" d="M598.7429,-754.9099C584.5141,-729.277 559.146,-690.2475 526.5049,-667.7788 479.2348,-635.2401 440.6833,-674.6232 402.5049,-631.7788 368.8083,-593.9639 383.5049,-570.0613 383.5049,-519.4113 383.5049,-519.4113 383.5049,-519.4113 383.5049,-325.7889 383.5049,-267.0805 383.9261,-198.8472 384.2218,-158.1835"/>
<polygon fill="#000000" stroke="#000000" points="387.7232,-157.9948 384.2977,-147.9691 380.7234,-157.9428 387.7232,-157.9948"/>
</g>
<!-- danish_bank_account&#45;&gt;danish_phone_number -->
<g id="edge27" class="edge">
<title>danish_bank_account&#45;&gt;danish_phone_number</title>
<path fill="none" stroke="#000000" d="M562.8029,-758.2148C536.831,-746.5192 504.6794,-732.0407 477.3216,-719.7209"/>
<polygon fill="#000000" stroke="#000000" points="478.418,-716.3762 467.8627,-715.4614 475.5437,-722.7589 478.418,-716.3762"/>
</g>
<!-- danish_bank_account&#45;&gt;cpr_number -->
<g id="edge23" class="edge">
<title>danish_bank_account&#45;&gt;cpr_number</title>
<path fill="none" stroke="#000000" d="M606.9027,-754.523C605.1494,-743.531 603.3666,-730.5207 602.5049,-718.6905 598.3176,-661.2003 608.348,-594.6481 615.9457,-554.8482"/>
<polygon fill="#000000" stroke="#000000" points="619.4174,-555.3322 617.9124,-544.8449 612.5489,-553.9818 619.4174,-555.3322"/>
</g>
<!-- danish_bank_account&#45;&gt;nemid -->
<g id="edge25" class="edge">
<title>danish_bank_account&#45;&gt;nemid</title>
<path fill="none" stroke="#000000" stroke-dasharray="1,5" d="M621.5221,-754.54C625.7214,-743.8059 630.6086,-731.313 634.8715,-720.416"/>
<polygon fill="#000000" stroke="#000000" points="638.1895,-721.5414 638.5733,-710.9535 631.6706,-718.9911 638.1895,-721.5414"/>
</g>
<!-- activated_nemid -->
<g id="node21" class="node">
<title>activated_nemid</title>
<ellipse fill="none" stroke="#000000" cx="378.5049" cy="-780.1463" rx="70.5271" ry="18"/>
<text text-anchor="middle" x="378.5049" y="-775.9463" font-family="Times,serif" font-size="14.00" fill="#000000">Activated Nemid</text>
</g>
<!-- activated_nemid&#45;&gt;danish_phone_number -->
<g id="edge29" class="edge">
<title>activated_nemid&#45;&gt;danish_phone_number</title>
<path fill="none" stroke="#000000" d="M386.7929,-762.1382C391.3431,-752.2515 397.1421,-739.6515 402.5336,-727.9369"/>
<polygon fill="#000000" stroke="#000000" points="405.737,-729.348 406.7385,-718.8006 399.3782,-726.4214 405.737,-729.348"/>
</g>
<!-- activated_nemid&#45;&gt;nemid -->
<g id="edge28" class="edge">
<title>activated_nemid&#45;&gt;nemid</title>
<path fill="none" stroke="#000000" d="M422.2955,-765.8919C473.5066,-749.2221 557.4973,-721.8821 606.5368,-705.9192"/>
<polygon fill="#000000" stroke="#000000" points="607.7269,-709.2127 616.1525,-702.7892 605.5602,-702.5564 607.7269,-709.2127"/>
</g>
<!-- noglekort -->
<g id="node22" class="node">
<title>noglekort</title>
<ellipse fill="none" stroke="#000000" cx="255.5049" cy="-693.2346" rx="45.9286" ry="18"/>
<text text-anchor="middle" x="255.5049" y="-689.0346" font-family="Times,serif" font-size="14.00" fill="#000000">Nøglekort</text>
</g>
<!-- activated_nemid&#45;&gt;noglekort -->
<g id="edge30" class="edge">
<title>activated_nemid&#45;&gt;noglekort</title>
<path fill="none" stroke="#000000" d="M354.4973,-763.1826C334.9573,-749.3756 307.2518,-729.7989 286.1183,-714.8661"/>
<polygon fill="#000000" stroke="#000000" points="287.9827,-711.8978 277.796,-708.9855 283.9431,-717.6147 287.9827,-711.8978"/>
</g>
<!-- noglekort&#45;&gt;can_receive_post -->
<g id="edge32" class="edge">
<title>noglekort&#45;&gt;can_receive_post</title>
<path fill="none" stroke="#000000" stroke-dasharray="1,5" d="M255.5049,-674.9658C255.5049,-643.2953 255.5049,-576.1453 255.5049,-519.4113 255.5049,-519.4113 255.5049,-519.4113 255.5049,-422.6001 255.5049,-367.6002 255.5049,-303.8122 255.5049,-264.9364"/>
<polygon fill="#000000" stroke="#000000" points="259.005,-264.66 255.5049,-254.66 252.005,-264.6601 259.005,-264.66"/>
</g>
<!-- noglekort&#45;&gt;nemid_application -->
<g id="edge31" class="edge">
<title>noglekort&#45;&gt;nemid_application</title>
<path fill="none" stroke="#ff0000" stroke-dasharray="1,5" d="M284.6848,-679.1218C292.9624,-675.2847 302.0294,-671.237 310.5049,-667.7788 346.6317,-653.0382 387.7665,-638.3425 420.8588,-627.0193"/>
<polygon fill="#ff0000" stroke="#ff0000" points="422.0723,-630.3036 430.4111,-623.7679 419.8166,-623.6769 422.0723,-630.3036"/>
</g>
<!-- ehic -->
<g id="node23" class="node">
<title>ehic</title>
<ellipse fill="none" stroke="#000000" cx="993.5049" cy="-780.1463" rx="99.0157" ry="18"/>
<text text-anchor="middle" x="993.5049" y="-775.9463" font-family="Times,serif" font-size="14.00" fill="#000000">Danish EHIC (&#39;blåt kort&#39;)</text>
</g>
<!-- ehic&#45;&gt;place_to_live -->
<g id="edge35" class="edge">
<title>ehic&#45;&gt;place_to_live</title>
<path fill="none" stroke="#000000" d="M993.5049,-761.8775C993.5049,-730.207 993.5049,-663.057 993.5049,-606.3229 993.5049,-606.3229 993.5049,-606.3229 993.5049,-228.9777 993.5049,-164.6226 1012.9948,-130.3432 965.5049,-86.9117 929.1495,-53.6632 613.3358,-35.4842 463.1817,-28.6517"/>
<polygon fill="#000000" stroke="#000000" points="463.2463,-25.1511 453.0992,-28.1986 462.932,-32.1441 463.2463,-25.1511"/>
</g>
<!-- ehic&#45;&gt;cpr_number -->
<g id="edge33" class="edge">
<title>ehic&#45;&gt;cpr_number</title>
<path fill="none" stroke="#000000" d="M989.0063,-762.0796C977.222,-715.3723 945.4054,-593.3836 931.5049,-580.8671 897.4068,-550.1639 775.0214,-533.269 695.1715,-525.2968"/>
<polygon fill="#000000" stroke="#000000" points="695.4619,-521.8086 685.1697,-524.3225 694.7832,-528.7757 695.4619,-521.8086"/>
</g>
<!-- ehic&#45;&gt;nemid -->
<g id="edge34" class="edge">
<title>ehic&#45;&gt;nemid</title>
<path fill="none" stroke="#000000" d="M934.865,-765.5012C864.4045,-747.904 748.0102,-718.8349 686.5134,-703.4763"/>
<polygon fill="#000000" stroke="#000000" points="687.3207,-700.0705 676.7706,-701.0431 685.6245,-706.8619 687.3207,-700.0705"/>
</g>
<!-- doctor -->
<g id="node24" class="node">
<title>doctor</title>
<ellipse fill="none" stroke="#000000" cx="871.5049" cy="-859.6022" rx="34.8285" ry="18"/>
<text text-anchor="middle" x="871.5049" y="-855.4022" font-family="Times,serif" font-size="14.00" fill="#000000">Doctor</text>
</g>
<!-- doctor&#45;&gt;cpr_number -->
<g id="edge36" class="edge">
<title>doctor&#45;&gt;cpr_number</title>
<path fill="none" stroke="#000000" d="M873.9157,-841.6114C880.0772,-795.2967 896.0866,-672.7318 898.5049,-631.7788 899.8387,-609.1907 912.653,-598.5259 898.5049,-580.8671 873.4903,-549.6453 768.1877,-533.2329 695.399,-525.451"/>
<polygon fill="#000000" stroke="#000000" points="695.6634,-521.9597 685.3557,-524.4096 694.9413,-528.9224 695.6634,-521.9597"/>
</g>
<!-- get_paid -->
<g id="node25" class="node">
<title>get_paid</title>
<ellipse fill="none" stroke="#000000" cx="778.5049" cy="-859.6022" rx="40.1247" ry="18"/>
<text text-anchor="middle" x="778.5049" y="-855.4022" font-family="Times,serif" font-size="14.00" fill="#000000">Get paid</text>
</g>
<!-- get_paid&#45;&gt;job -->
<g id="edge37" class="edge">
<title>get_paid&#45;&gt;job</title>
<path fill="none" stroke="#000000" d="M808.4995,-847.3972C814.7054,-845.2095 821.2568,-843.1401 827.5049,-841.6022 887.1373,-826.9243 1057.2869,-848.2194 1101.5049,-805.6022 1137.9739,-770.4534 1120.5049,-743.8847 1120.5049,-693.2346 1120.5049,-693.2346 1120.5049,-693.2346 1120.5049,-228.9777 1120.5049,-160.2535 1069.9631,-93.5806 1035.6027,-56.1945"/>
<polygon fill="#000000" stroke="#000000" points="1037.9362,-53.5665 1028.5402,-48.6711 1032.8326,-58.3575 1037.9362,-53.5665"/>
</g>
<!-- get_paid&#45;&gt;skattekort -->
<g id="edge38" class="edge">
<title>get_paid&#45;&gt;skattekort</title>
<path fill="none" stroke="#000000" d="M782.3165,-841.3869C791.0574,-799.6157 812.6717,-696.3241 824.1184,-641.6218"/>
<polygon fill="#000000" stroke="#000000" points="827.5763,-642.1851 826.1988,-631.6802 820.7247,-640.7514 827.5763,-642.1851"/>
</g>
<!-- get_paid&#45;&gt;nemid -->
<g id="edge40" class="edge">
<title>get_paid&#45;&gt;nemid</title>
<path fill="none" stroke="#000000" d="M769.7548,-841.8488C758.5841,-820.1009 737.8815,-782.701 714.5049,-754.6905 702.2477,-740.0035 686.4376,-725.6643 673.0443,-714.5358"/>
<polygon fill="#000000" stroke="#000000" points="675.0362,-711.6443 665.0707,-708.0472 670.6179,-717.0738 675.0362,-711.6443"/>
</g>
<!-- get_paid&#45;&gt;danish_bank_account -->
<g id="edge39" class="edge">
<title>get_paid&#45;&gt;danish_bank_account</title>
<path fill="none" stroke="#000000" d="M750.5529,-846.303C727.9453,-835.5467 695.3953,-820.06 667.4713,-806.7742"/>
<polygon fill="#000000" stroke="#000000" points="668.7336,-803.4989 658.1998,-802.363 665.7261,-809.8199 668.7336,-803.4989"/>
</g>
<!-- danish_lessions -->
<g id="node26" class="node">
<title>danish_lessions</title>
<ellipse fill="none" stroke="#000000" cx="470.5049" cy="-939.058" rx="62.8431" ry="18"/>
<text text-anchor="middle" x="470.5049" y="-934.858" font-family="Times,serif" font-size="14.00" fill="#000000">Danish lessons</text>
</g>
<!-- danish_lessions&#45;&gt;cpr_number -->
<g id="edge41" class="edge">
<title>danish_lessions&#45;&gt;cpr_number</title>
<path fill="none" stroke="#000000" d="M424.0011,-926.8688C333.7222,-901.8315 143.5049,-841.7667 143.5049,-780.1463 143.5049,-780.1463 143.5049,-780.1463 143.5049,-693.2346 143.5049,-606.9637 421.0899,-551.3819 554.0744,-529.704"/>
<polygon fill="#000000" stroke="#000000" points="554.8498,-533.1243 564.1661,-528.0788 553.7368,-526.2133 554.8498,-533.1243"/>
</g>
<!-- danish_bank_card -->
<g id="node27" class="node">
<title>danish_bank_card</title>
<ellipse fill="none" stroke="#000000" cx="475.5049" cy="-859.6022" rx="71.979" ry="18"/>
<text text-anchor="middle" x="475.5049" y="-855.4022" font-family="Times,serif" font-size="14.00" fill="#000000">Danish bank card</text>
</g>
<!-- danish_lessions&#45;&gt;danish_bank_card -->
<g id="edge42" class="edge">
<title>danish_lessions&#45;&gt;danish_bank_card</title>
<path fill="none" stroke="#000000" d="M471.6395,-921.0282C472.2552,-911.2435 473.0304,-898.9256 473.7246,-887.8938"/>
<polygon fill="#000000" stroke="#000000" points="477.2225,-888.0357 474.3575,-877.8356 470.2363,-887.596 477.2225,-888.0357"/>
</g>
<!-- danish_bank_card&#45;&gt;can_receive_post -->
<g id="edge44" class="edge">
<title>danish_bank_card&#45;&gt;can_receive_post</title>
<path fill="none" stroke="#000000" d="M410.2568,-851.7533C323.642,-837.2805 181.5049,-797.6266 181.5049,-693.2346 181.5049,-693.2346 181.5049,-693.2346 181.5049,-422.6001 181.5049,-363.5487 211.9093,-300.6466 233.7401,-263.0927"/>
<polygon fill="#000000" stroke="#000000" points="236.9794,-264.4932 239.0819,-254.109 230.9627,-260.9155 236.9794,-264.4932"/>
</g>
<!-- danish_bank_card&#45;&gt;danish_bank_account -->
<g id="edge43" class="edge">
<title>danish_bank_card&#45;&gt;danish_bank_account</title>
<path fill="none" stroke="#ff0000" d="M504.015,-842.9456C521.1039,-832.9617 543.2848,-820.0029 563.0558,-808.4519"/>
<polygon fill="#ff0000" stroke="#ff0000" points="565.0744,-811.3262 571.9433,-803.2596 561.5432,-805.2821 565.0744,-811.3262"/>
</g>
<!-- spend_lovely_dkk -->
<g id="node28" class="node">
<title>spend_lovely_dkk</title>
<ellipse fill="none" stroke="#000000" cx="720.5049" cy="-939.058" rx="99.0344" ry="18"/>
<text text-anchor="middle" x="720.5049" y="-934.858" font-family="Times,serif" font-size="14.00" fill="#000000">Spend your lovely DKK!</text>
</g>
<!-- spend_lovely_dkk&#45;&gt;get_paid -->
<g id="edge45" class="edge">
<title>spend_lovely_dkk&#45;&gt;get_paid</title>
<path fill="none" stroke="#000000" d="M733.666,-921.0282C741.4655,-910.3435 751.4699,-896.6382 760.0491,-884.8853"/>
<polygon fill="#000000" stroke="#000000" points="762.9233,-886.8842 765.9923,-876.7435 757.2694,-882.757 762.9233,-886.8842"/>
</g>
<!-- spend_lovely_dkk&#45;&gt;danish_bank_card -->
<g id="edge46" class="edge">
<title>spend_lovely_dkk&#45;&gt;danish_bank_card</title>
<path fill="none" stroke="#000000" d="M671.8079,-923.2651C630.638,-909.9133 571.737,-890.8112 529.2077,-877.0185"/>
<polygon fill="#000000" stroke="#000000" points="530.1754,-873.6529 519.5834,-873.8972 528.016,-880.3115 530.1754,-873.6529"/>
</g>
<!-- mobilepay -->
<g id="node29" class="node">
<title>mobilepay</title>
<ellipse fill="none" stroke="#000000" cx="613.5049" cy="-859.6022" rx="48.3427" ry="18"/>
<text text-anchor="middle" x="613.5049" y="-855.4022" font-family="Times,serif" font-size="14.00" fill="#000000">Mobilepay</text>
</g>
<!-- mobilepay&#45;&gt;danish_phone_number -->
<g id="edge48" class="edge">
<title>mobilepay&#45;&gt;danish_phone_number</title>
<path fill="none" stroke="#000000" d="M579.6674,-846.5524C557.9591,-837.1746 529.9312,-823.1155 508.5049,-805.6022 481.1005,-783.2025 456.4753,-751.201 439.94,-727.0744"/>
<polygon fill="#000000" stroke="#000000" points="442.7087,-724.9195 434.224,-718.5744 436.9,-728.8257 442.7087,-724.9195"/>
</g>
<!-- mobilepay&#45;&gt;cpr_number -->
<g id="edge47" class="edge">
<title>mobilepay&#45;&gt;cpr_number</title>
<path fill="none" stroke="#000000" d="M653.4212,-849.2557C675.5782,-841.2482 701.2684,-827.6888 714.5049,-805.6022 764.8531,-721.5908 692.3068,-606.7679 650.1179,-551.592"/>
<polygon fill="#000000" stroke="#000000" points="652.7852,-549.3206 643.8814,-543.5785 647.261,-553.6199 652.7852,-549.3206"/>
</g>
<!-- mobilepay&#45;&gt;danish_bank_account -->
<g id="edge49" class="edge">
<title>mobilepay&#45;&gt;danish_bank_account</title>
<path fill="none" stroke="#000000" d="M613.0511,-841.5724C612.8589,-833.9375 612.6279,-824.7602 612.4037,-815.8551"/>
<polygon fill="#000000" stroke="#000000" points="615.8971,-815.5438 612.1465,-805.635 608.8993,-815.72 615.8971,-815.5438"/>
</g>
<!-- hygge -->
<g id="node30" class="node">
<title>hygge</title>
<ellipse fill="none" stroke="#000000" cx="717.5049" cy="-1238.4121" rx="101.1913" ry="21.7969"/>
<text text-anchor="middle" x="717.5049" y="-1238.6964" font-family="Times,serif" font-size="14.00" fill="#000000">🇩🇰 😊 Hygge 😊 🇩🇰</text>
</g>
<!-- magi4 -->
<g id="node31" class="node">
<title>magi4</title>
<ellipse fill="none" stroke="#000000" cx="773.5049" cy="-1018.5139" rx="27" ry="18"/>
<text text-anchor="middle" x="773.5049" y="-1014.3139" font-family="Times,serif" font-size="14.00" fill="#000000">????</text>
</g>
<!-- hygge&#45;&gt;magi4 -->
<g id="edge50" class="edge">
<title>hygge&#45;&gt;magi4</title>
<path fill="none" stroke="#000000" stroke-dasharray="5,2" d="M723.0791,-1216.5235C733.3239,-1176.2949 755.1277,-1090.6766 766.4109,-1046.3704"/>
<polygon fill="#000000" stroke="#000000" points="769.8341,-1047.1102 768.9103,-1036.5557 763.0506,-1045.3827 769.8341,-1047.1102"/>
</g>
<!-- magi1 -->
<g id="node32" class="node">
<title>magi1</title>
<ellipse fill="none" stroke="#000000" cx="690.5049" cy="-1162.5139" rx="27" ry="18"/>
<text text-anchor="middle" x="690.5049" y="-1158.3139" font-family="Times,serif" font-size="14.00" fill="#000000">?</text>
</g>
<!-- hygge&#45;&gt;magi1 -->
<g id="edge51" class="edge">
<title>hygge&#45;&gt;magi1</title>
<path fill="none" stroke="#000000" d="M709.6954,-1216.4592C706.708,-1208.0615 703.2656,-1198.3847 700.1283,-1189.5658"/>
<polygon fill="#000000" stroke="#000000" points="703.4058,-1188.3359 696.7565,-1180.0873 696.8106,-1190.682 703.4058,-1188.3359"/>
</g>
<!-- helbred -->
<g id="node35" class="node">
<title>helbred</title>
<ellipse fill="none" stroke="#000000" cx="871.5049" cy="-939.058" rx="33.8596" ry="18"/>
<text text-anchor="middle" x="871.5049" y="-934.858" font-family="Times,serif" font-size="14.00" fill="#000000">Health</text>
</g>
<!-- magi4&#45;&gt;helbred -->
<g id="edge57" class="edge">
<title>magi4&#45;&gt;helbred</title>
<path fill="none" stroke="#000000" stroke-dasharray="1,5" d="M791.0253,-1004.3087C805.9763,-992.1869 827.7079,-974.5675 844.8212,-960.6924"/>
<polygon fill="#000000" stroke="#000000" points="847.238,-963.2389 852.8014,-954.2223 842.8295,-957.8015 847.238,-963.2389"/>
</g>
<!-- magi2 -->
<g id="node33" class="node">
<title>magi2</title>
<ellipse fill="none" stroke="#000000" cx="559.5049" cy="-1090.5139" rx="27" ry="18"/>
<text text-anchor="middle" x="559.5049" y="-1086.3139" font-family="Times,serif" font-size="14.00" fill="#000000">??</text>
</g>
<!-- magi1&#45;&gt;magi2 -->
<g id="edge53" class="edge">
<title>magi1&#45;&gt;magi2</title>
<path fill="none" stroke="#000000" d="M669.4575,-1150.9458C647.7807,-1139.0319 613.8054,-1120.3584 589.3579,-1106.9216"/>
<polygon fill="#000000" stroke="#000000" points="590.9495,-1103.8026 580.5001,-1102.0532 587.5778,-1109.9371 590.9495,-1103.8026"/>
</g>
<!-- magi3 -->
<g id="node34" class="node">
<title>magi3</title>
<ellipse fill="none" stroke="#000000" cx="663.5049" cy="-1090.5139" rx="27" ry="18"/>
<text text-anchor="middle" x="663.5049" y="-1086.3139" font-family="Times,serif" font-size="14.00" fill="#000000">????</text>
</g>
<!-- magi1&#45;&gt;magi3 -->
<g id="edge54" class="edge">
<title>magi1&#45;&gt;magi3</title>
<path fill="none" stroke="#000000" stroke-dasharray="5,2" d="M683.8307,-1144.7161C680.7573,-1136.5202 677.0433,-1126.6162 673.6354,-1117.5284"/>
<polygon fill="#000000" stroke="#000000" points="676.8907,-1116.2412 670.1023,-1108.1069 670.3364,-1118.6991 676.8907,-1116.2412"/>
</g>
<!-- magi1&#45;&gt;helbred -->
<g id="edge55" class="edge">
<title>magi1&#45;&gt;helbred</title>
<path fill="none" stroke="#000000" stroke-dasharray="1,5" d="M693.6973,-1144.3524C700.6365,-1106.7103 718.0433,-1021.9039 737.5049,-1000.5139 766.7756,-968.3428 789.4474,-983.6519 828.5049,-964.5139 832.5583,-962.5277 836.7404,-960.2973 840.8313,-958.0041"/>
<polygon fill="#000000" stroke="#000000" points="842.6549,-960.9926 849.5562,-952.9537 839.1481,-954.9343 842.6549,-960.9926"/>
</g>
<!-- penge -->
<g id="node36" class="node">
<title>penge</title>
<ellipse fill="none" stroke="#000000" cx="607.5049" cy="-1018.5139" rx="35.3216" ry="18"/>
<text text-anchor="middle" x="607.5049" y="-1014.3139" font-family="Times,serif" font-size="14.00" fill="#000000">Money</text>
</g>
<!-- magi2&#45;&gt;penge -->
<g id="edge56" class="edge">
<title>magi2&#45;&gt;penge</title>
<path fill="none" stroke="#000000" stroke-dasharray="1,5" d="M570.6377,-1073.8146C576.5497,-1064.9467 583.9406,-1053.8604 590.5495,-1043.947"/>
<polygon fill="#000000" stroke="#000000" points="593.4643,-1045.8845 596.0991,-1035.6225 587.6399,-1042.0015 593.4643,-1045.8845"/>
</g>
<!-- rejser -->
<g id="node37" class="node">
<title>rejser</title>
<ellipse fill="#00ff00" stroke="#000000" cx="208.5049" cy="-1018.5139" rx="41.1266" ry="18"/>
<text text-anchor="middle" x="208.5049" y="-1014.3139" font-family="Times,serif" font-size="14.00" fill="#000000">Mobility</text>
</g>
<!-- magi2&#45;&gt;rejser -->
<g id="edge63" class="edge">
<title>magi2&#45;&gt;rejser</title>
<path fill="none" stroke="#000000" stroke-dasharray="1,5" d="M533.695,-1085.2195C475.1025,-1073.2005 331.3058,-1043.7038 256.0968,-1028.2763"/>
<polygon fill="#000000" stroke="#000000" points="256.455,-1024.777 245.9556,-1026.1961 255.0483,-1031.6342 256.455,-1024.777"/>
</g>
<!-- faa_ting_gjort -->
<g id="node38" class="node">
<title>faa_ting_gjort</title>
<ellipse fill="none" stroke="#000000" cx="470.5049" cy="-1018.5139" rx="75.0675" ry="18"/>
<text text-anchor="middle" x="470.5049" y="-1014.3139" font-family="Times,serif" font-size="14.00" fill="#000000">Can get stuff done</text>
</g>
<!-- magi2&#45;&gt;faa_ting_gjort -->
<g id="edge66" class="edge">
<title>magi2&#45;&gt;faa_ting_gjort</title>
<path fill="none" stroke="#000000" stroke-dasharray="1,5" d="M541.9214,-1076.289C529.9793,-1066.628 513.8947,-1053.6157 500.0137,-1042.3862"/>
<polygon fill="#000000" stroke="#000000" points="502.1192,-1039.5876 492.1434,-1036.0192 497.7166,-1045.0297 502.1192,-1039.5876"/>
</g>
<!-- magi3&#45;&gt;magi4 -->
<g id="edge52" class="edge">
<title>magi3&#45;&gt;magi4</title>
<path fill="none" stroke="#000000" d="M682.9175,-1077.8074C700.2469,-1066.4645 725.8367,-1049.7149 745.4021,-1036.9084"/>
<polygon fill="#000000" stroke="#000000" points="747.4662,-1039.7405 753.9164,-1031.3354 743.6325,-1033.8836 747.4662,-1039.7405"/>
</g>
<!-- magi3&#45;&gt;penge -->
<g id="edge60" class="edge">
<title>magi3&#45;&gt;penge</title>
<path fill="none" stroke="#000000" stroke-dasharray="1,5" d="M650.7976,-1074.1759C643.7385,-1065.0999 634.8088,-1053.6188 626.8953,-1043.4444"/>
<polygon fill="#000000" stroke="#000000" points="629.4527,-1041.0315 620.5505,-1035.2868 623.9272,-1045.3291 629.4527,-1041.0315"/>
</g>
<!-- helbred&#45;&gt;ehic -->
<g id="edge59" class="edge">
<title>helbred&#45;&gt;ehic</title>
<path fill="none" stroke="#000000" d="M884.3305,-922.352C905.5587,-894.7011 948.1575,-839.2138 973.4103,-806.3207"/>
<polygon fill="#000000" stroke="#000000" points="976.4235,-808.1432 979.737,-798.0798 970.8711,-803.8805 976.4235,-808.1432"/>
</g>
<!-- helbred&#45;&gt;doctor -->
<g id="edge58" class="edge">
<title>helbred&#45;&gt;doctor</title>
<path fill="none" stroke="#000000" d="M871.5049,-921.0282C871.5049,-911.2435 871.5049,-898.9256 871.5049,-887.8938"/>
<polygon fill="#000000" stroke="#000000" points="875.005,-887.8356 871.5049,-877.8356 868.005,-887.8356 875.005,-887.8356"/>
</g>
<!-- penge&#45;&gt;spend_lovely_dkk -->
<g id="edge61" class="edge">
<title>penge&#45;&gt;spend_lovely_dkk</title>
<path fill="none" stroke="#000000" d="M628.2308,-1003.9404C644.6962,-992.3628 668.0475,-975.9434 687.1391,-962.5192"/>
<polygon fill="#000000" stroke="#000000" points="689.404,-965.2052 695.5711,-956.5902 685.3777,-959.4791 689.404,-965.2052"/>
</g>
<!-- penge&#45;&gt;mobilepay -->
<g id="edge62" class="edge">
<title>penge&#45;&gt;mobilepay</title>
<path fill="none" stroke="#000000" d="M608.1932,-1000.2847C609.233,-972.7444 611.213,-920.3034 612.4399,-887.8091"/>
<polygon fill="#000000" stroke="#000000" points="615.9448,-887.7437 612.8247,-877.6188 608.9498,-887.4795 615.9448,-887.7437"/>
</g>
<!-- rejser&#45;&gt;rejsekort -->
<g id="edge65" class="edge">
<title>rejser&#45;&gt;rejsekort</title>
<path fill="none" stroke="#000000" d="M208.5049,-1000.4841C208.5049,-992.8492 208.5049,-983.6719 208.5049,-974.7668"/>
<polygon fill="#000000" stroke="#000000" points="212.005,-974.5467 208.5049,-964.5467 205.005,-974.5467 212.005,-974.5467"/>
</g>
<!-- rejser&#45;&gt;pendlerkort -->
<g id="edge64" class="edge">
<title>rejser&#45;&gt;pendlerkort</title>
<path fill="none" stroke="#000000" d="M183.548,-1004.1574C168.259,-994.4385 149.0859,-980.4872 135.5049,-964.5139 101.5359,-924.5611 81.5049,-912.0437 81.5049,-859.6022 81.5049,-859.6022 81.5049,-859.6022 81.5049,-780.1463 81.5049,-731.9704 72.3465,-676.9838 65.3447,-641.9848"/>
<polygon fill="#000000" stroke="#000000" points="68.6924,-640.8866 63.2535,-631.7944 61.8353,-642.2938 68.6924,-640.8866"/>
</g>
<!-- faa_ting_gjort&#45;&gt;activated_nemid -->
<g id="edge67" class="edge">
<title>faa_ting_gjort&#45;&gt;activated_nemid</title>
<path fill="none" stroke="#000000" d="M437.877,-1002.0921C423.3682,-993.0443 407.5516,-980.3997 398.5049,-964.5139 370.5177,-915.3686 371.5219,-846.8614 374.9087,-808.7026"/>
<polygon fill="#000000" stroke="#000000" points="378.4329,-808.6385 375.9556,-798.3374 371.4683,-807.935 378.4329,-808.6385"/>
</g>
<!-- faa_ting_gjort&#45;&gt;danish_lessions -->
<g id="edge68" class="edge">
<title>faa_ting_gjort&#45;&gt;danish_lessions</title>
<path fill="none" stroke="#000000" d="M470.5049,-1000.4841C470.5049,-990.6993 470.5049,-978.3814 470.5049,-967.3496"/>
<polygon fill="#000000" stroke="#000000" points="474.005,-967.2914 470.5049,-957.2915 467.005,-967.2915 474.005,-967.2914"/>
</g>
</g>
</svg>
