<?xml version="1.0" encoding="UTF-8" standalone="no"?>
<!DOCTYPE svg PUBLIC "-//W3C//DTD SVG 1.1//EN"
 "http://www.w3.org/Graphics/SVG/1.1/DTD/svg11.dtd">
<!-- Generated by graphviz version 2.40.1 (20161225.0304)
 -->
<!-- Title: g Pages: 1 -->
<svg width="1563pt" height="1308pt"
 viewBox="0.00 0.00 1562.88 1307.91" xmlns="http://www.w3.org/2000/svg" xmlns:xlink="http://www.w3.org/1999/xlink">
<g id="graph0" class="graph" transform="scale(1 1) rotate(0) translate(4 1303.9083)">
<title>g</title>
<polygon fill="#ffffff" stroke="transparent" points="-4,4 -4,-1303.9083 1558.8786,-1303.9083 1558.8786,4 -4,4"/>
<!-- job -->
<g id="node1" class="node">
<title>job</title>
<ellipse fill="#00ff00" stroke="#000000" cx="337.3736" cy="-25.4558" rx="57.5098" ry="25.4118"/>
<text text-anchor="middle" x="337.3736" y="-28.2558" font-family="Times,serif" font-size="14.00" fill="#000000">A job</text>
<text text-anchor="middle" x="337.3736" y="-14.2558" font-family="Times,serif" font-size="14.00" fill="#000000">2018&#45;10&#45;19</text>
</g>
<!-- proof_of_work -->
<g id="node2" class="node">
<title>proof_of_work</title>
<ellipse fill="#00ff00" stroke="#000000" cx="456.3736" cy="-122.267" rx="66.707" ry="25.4118"/>
<text text-anchor="middle" x="456.3736" y="-125.067" font-family="Times,serif" font-size="14.00" fill="#000000">Proof of work</text>
<text text-anchor="middle" x="456.3736" y="-111.067" font-family="Times,serif" font-size="14.00" fill="#000000">2019&#45;01&#45;22</text>
</g>
<!-- proof_of_work&#45;&gt;job -->
<g id="edge1" class="edge">
<title>proof_of_work&#45;&gt;job</title>
<path fill="none" stroke="#000000" d="M427.8702,-99.0783C411.4129,-85.6897 390.5663,-68.7301 373.0303,-54.464"/>
<polygon fill="#000000" stroke="#000000" points="375.1999,-51.7171 365.2339,-48.1213 370.7824,-57.1471 375.1999,-51.7171"/>
</g>
<!-- passport -->
<g id="node3" class="node">
<title>passport</title>
<ellipse fill="#00ff00" stroke="#000000" cx="586.3736" cy="-122.267" rx="44.7298" ry="25.4118"/>
<text text-anchor="middle" x="586.3736" y="-125.067" font-family="Times,serif" font-size="14.00" fill="#000000">Passport</text>
<text text-anchor="middle" x="586.3736" y="-111.067" font-family="Times,serif" font-size="14.00" fill="#000000">2015</text>
</g>
<!-- danish_phone_number -->
<g id="node4" class="node">
<title>danish_phone_number</title>
<ellipse fill="#00ff00" stroke="#000000" cx="345.3736" cy="-519.4113" rx="98.9836" ry="25.4118"/>
<text text-anchor="middle" x="345.3736" y="-522.2113" font-family="Times,serif" font-size="14.00" fill="#000000">Danish phone number</text>
<text text-anchor="middle" x="345.3736" y="-508.2113" font-family="Times,serif" font-size="14.00" fill="#000000">2019&#45;01&#45;17</text>
</g>
<!-- rejsekort -->
<g id="node5" class="node">
<title>rejsekort</title>
<ellipse fill="#00ff00" stroke="#000000" cx="64.3736" cy="-978.656" rx="64.2475" ry="25.4118"/>
<text text-anchor="middle" x="64.3736" y="-981.456" font-family="Times,serif" font-size="14.00" fill="#000000">Rejsekort</text>
<text text-anchor="middle" x="64.3736" y="-967.456" font-family="Times,serif" font-size="14.00" fill="#000000">2018&#45;10&#45;19 ?</text>
</g>
<!-- place_to_live -->
<g id="node6" class="node">
<title>place_to_live</title>
<ellipse fill="#00ff00" stroke="#000000" cx="1034.3736" cy="-25.4558" rx="68.5454" ry="25.4118"/>
<text text-anchor="middle" x="1034.3736" y="-28.2558" font-family="Times,serif" font-size="14.00" fill="#000000">A place to live</text>
<text text-anchor="middle" x="1034.3736" y="-14.2558" font-family="Times,serif" font-size="14.00" fill="#000000">2019&#45;01&#45;21</text>
</g>
<!-- name_on_postbox -->
<g id="node7" class="node">
<title>name_on_postbox</title>
<ellipse fill="#00ff00" stroke="#000000" cx="1082.3736" cy="-122.267" rx="66.9194" ry="35.2113"/>
<text text-anchor="middle" x="1082.3736" y="-132.067" font-family="Times,serif" font-size="14.00" fill="#000000">Your name on</text>
<text text-anchor="middle" x="1082.3736" y="-118.067" font-family="Times,serif" font-size="14.00" fill="#000000">your postbox</text>
<text text-anchor="middle" x="1082.3736" y="-104.067" font-family="Times,serif" font-size="14.00" fill="#000000">2019&#45;01&#45;22</text>
</g>
<!-- name_on_postbox&#45;&gt;place_to_live -->
<g id="edge2" class="edge">
<title>name_on_postbox&#45;&gt;place_to_live</title>
<path fill="none" stroke="#000000" d="M1065.3155,-87.8624C1060.7956,-78.7464 1055.9164,-68.9054 1051.3983,-59.7929"/>
<polygon fill="#000000" stroke="#000000" points="1054.4289,-58.0259 1046.851,-50.6214 1048.1574,-61.1354 1054.4289,-58.0259"/>
</g>
<!-- can_receive_post -->
<g id="node8" class="node">
<title>can_receive_post</title>
<ellipse fill="#00ff00" stroke="#000000" cx="1148.3736" cy="-228.9777" rx="99.6266" ry="25.4118"/>
<text text-anchor="middle" x="1148.3736" y="-231.7777" font-family="Times,serif" font-size="14.00" fill="#000000">Ability to receive post</text>
<text text-anchor="middle" x="1148.3736" y="-217.7777" font-family="Times,serif" font-size="14.00" fill="#000000">2019&#45;01&#45;22</text>
</g>
<!-- can_receive_post&#45;&gt;place_to_live -->
<g id="edge3" class="edge">
<title>can_receive_post&#45;&gt;place_to_live</title>
<path fill="none" stroke="#000000" d="M1158.5952,-203.4769C1168.9216,-173.2574 1180.4693,-122.5231 1158.3736,-86.9117 1145.5716,-66.2787 1123.5523,-52.3587 1101.5884,-43.0672"/>
<polygon fill="#000000" stroke="#000000" points="1102.7924,-39.7796 1092.2057,-39.3623 1100.2215,-46.2905 1102.7924,-39.7796"/>
</g>
<!-- can_receive_post&#45;&gt;name_on_postbox -->
<g id="edge4" class="edge">
<title>can_receive_post&#45;&gt;name_on_postbox</title>
<path fill="none" stroke="#000000" d="M1132.7326,-203.6888C1125.609,-192.1712 1116.9768,-178.2144 1108.8862,-165.1333"/>
<polygon fill="#000000" stroke="#000000" points="1111.6336,-162.9215 1103.3968,-156.2578 1105.6803,-166.6037 1111.6336,-162.9215"/>
</g>
<!-- pendlerkort -->
<g id="node9" class="node">
<title>pendlerkort</title>
<ellipse fill="#00ff00" stroke="#000000" cx="132.3736" cy="-422.6001" rx="57.5098" ry="25.4118"/>
<text text-anchor="middle" x="132.3736" y="-425.4001" font-family="Times,serif" font-size="14.00" fill="#000000">Pendlerkort</text>
<text text-anchor="middle" x="132.3736" y="-411.4001" font-family="Times,serif" font-size="14.00" fill="#000000">2019&#45;02&#45;05</text>
</g>
<!-- pendlerkort&#45;&gt;place_to_live -->
<g id="edge5" class="edge">
<title>pendlerkort&#45;&gt;place_to_live</title>
<path fill="none" stroke="#000000" d="M142.382,-397.1133C169.4141,-332.1124 250.7193,-160.1352 380.3736,-86.9117 429.4428,-59.1994 792.623,-37.6438 955.6049,-29.2585"/>
<polygon fill="#000000" stroke="#000000" points="956.2369,-32.7308 966.0453,-28.7252 955.8798,-25.7399 956.2369,-32.7308"/>
</g>
<!-- eu_residence_document_application -->
<g id="node10" class="node">
<title>eu_residence_document_application</title>
<ellipse fill="#00ff00" stroke="#000000" cx="786.3736" cy="-228.9777" rx="105.7427" ry="35.2113"/>
<text text-anchor="middle" x="786.3736" y="-238.7777" font-family="Times,serif" font-size="14.00" fill="#000000">Application for</text>
<text text-anchor="middle" x="786.3736" y="-224.7777" font-family="Times,serif" font-size="14.00" fill="#000000">EU residence document</text>
<text text-anchor="middle" x="786.3736" y="-210.7777" font-family="Times,serif" font-size="14.00" fill="#000000">2019&#45;01&#45;23</text>
</g>
<!-- eu_residence_document_application&#45;&gt;proof_of_work -->
<g id="edge7" class="edge">
<title>eu_residence_document_application&#45;&gt;proof_of_work</title>
<path fill="none" stroke="#000000" d="M700.0256,-208.4201C650.3586,-195.6813 587.1398,-177.9024 532.3736,-157.6224 523.7549,-154.4308 514.7631,-150.6622 506.107,-146.7954"/>
<polygon fill="#000000" stroke="#000000" points="507.4299,-143.552 496.8793,-142.5838 504.5233,-149.92 507.4299,-143.552"/>
</g>
<!-- eu_residence_document_application&#45;&gt;passport -->
<g id="edge8" class="edge">
<title>eu_residence_document_application&#45;&gt;passport</title>
<path fill="none" stroke="#000000" d="M722.8087,-200.4444C696.5583,-188.0669 666.0835,-172.9189 639.3736,-157.6224 634.1471,-154.6292 628.7461,-151.3097 623.4812,-147.9381"/>
<polygon fill="#000000" stroke="#000000" points="625.0891,-144.8077 614.8043,-142.2634 621.2577,-150.666 625.0891,-144.8077"/>
</g>
<!-- eu_residence_document_application&#45;&gt;place_to_live -->
<g id="edge6" class="edge">
<title>eu_residence_document_application&#45;&gt;place_to_live</title>
<path fill="none" stroke="#000000" d="M858.3466,-202.9589C883.0766,-191.6454 909.7092,-176.5762 930.3736,-157.6224 957.4799,-132.76 950.7056,-115.878 973.3736,-86.9117 981.6344,-76.3557 991.5407,-65.6977 1000.9442,-56.2893"/>
<polygon fill="#000000" stroke="#000000" points="1003.6489,-58.539 1008.3367,-49.0377 998.747,-53.5418 1003.6489,-58.539"/>
</g>
<!-- od1_form -->
<g id="node11" class="node">
<title>od1_form</title>
<ellipse fill="#00ff00" stroke="#000000" cx="706.3736" cy="-122.267" rx="57.5098" ry="25.4118"/>
<text text-anchor="middle" x="706.3736" y="-125.067" font-family="Times,serif" font-size="14.00" fill="#000000">OD1 form</text>
<text text-anchor="middle" x="706.3736" y="-111.067" font-family="Times,serif" font-size="14.00" fill="#000000">2019&#45;01&#45;22</text>
</g>
<!-- eu_residence_document_application&#45;&gt;od1_form -->
<g id="edge9" class="edge">
<title>eu_residence_document_application&#45;&gt;od1_form</title>
<path fill="none" stroke="#000000" d="M760.6208,-194.6264C751.12,-181.9535 740.3857,-167.6352 730.9881,-155.0999"/>
<polygon fill="#000000" stroke="#000000" points="733.5261,-152.6504 724.7273,-146.7486 727.9253,-156.8493 733.5261,-152.6504"/>
</g>
<!-- passport_photo -->
<g id="node12" class="node">
<title>passport_photo</title>
<ellipse fill="#00ff00" stroke="#000000" cx="851.3736" cy="-122.267" rx="69.7781" ry="25.4118"/>
<text text-anchor="middle" x="851.3736" y="-125.067" font-family="Times,serif" font-size="14.00" fill="#000000">Passport photo</text>
<text text-anchor="middle" x="851.3736" y="-111.067" font-family="Times,serif" font-size="14.00" fill="#000000">2019&#45;01&#45;23</text>
</g>
<!-- eu_residence_document_application&#45;&gt;passport_photo -->
<g id="edge10" class="edge">
<title>eu_residence_document_application&#45;&gt;passport_photo</title>
<path fill="none" stroke="#000000" d="M807.4773,-194.3318C814.9943,-181.9911 823.4426,-168.1215 830.9054,-155.8698"/>
<polygon fill="#000000" stroke="#000000" points="833.9248,-157.6408 836.1379,-147.2796 827.9466,-153.9992 833.9248,-157.6408"/>
</g>
<!-- eu_residence_document -->
<g id="node13" class="node">
<title>eu_residence_document</title>
<ellipse fill="#00ff00" stroke="#000000" cx="890.3736" cy="-325.7889" rx="105.7427" ry="25.4118"/>
<text text-anchor="middle" x="890.3736" y="-328.5889" font-family="Times,serif" font-size="14.00" fill="#000000">EU residence document</text>
<text text-anchor="middle" x="890.3736" y="-314.5889" font-family="Times,serif" font-size="14.00" fill="#000000">2019&#45;01&#45;31</text>
</g>
<!-- eu_residence_document&#45;&gt;can_receive_post -->
<g id="edge12" class="edge">
<title>eu_residence_document&#45;&gt;can_receive_post</title>
<path fill="none" stroke="#000000" d="M947.6322,-304.3033C987.5729,-289.3161 1040.9674,-269.2805 1082.6479,-253.6405"/>
<polygon fill="#000000" stroke="#000000" points="1084.0299,-256.8602 1092.1628,-250.0701 1081.5706,-250.3064 1084.0299,-256.8602"/>
</g>
<!-- eu_residence_document&#45;&gt;eu_residence_document_application -->
<g id="edge11" class="edge">
<title>eu_residence_document&#45;&gt;eu_residence_document_application</title>
<path fill="none" stroke="#ff0000" d="M863.861,-301.1088C853.4939,-291.4584 841.3311,-280.1364 829.7547,-269.3601"/>
<polygon fill="#ff0000" stroke="#ff0000" points="831.961,-266.6322 822.2567,-262.3804 827.1915,-271.7558 831.961,-266.6322"/>
</g>
<!-- cpr_number_application -->
<g id="node14" class="node">
<title>cpr_number_application</title>
<ellipse fill="#00ff00" stroke="#000000" cx="690.3736" cy="-422.6001" rx="72.138" ry="35.2113"/>
<text text-anchor="middle" x="690.3736" y="-432.4001" font-family="Times,serif" font-size="14.00" fill="#000000">Application for</text>
<text text-anchor="middle" x="690.3736" y="-418.4001" font-family="Times,serif" font-size="14.00" fill="#000000">CPR number</text>
<text text-anchor="middle" x="690.3736" y="-404.4001" font-family="Times,serif" font-size="14.00" fill="#000000">2019&#45;02&#45;06</text>
</g>
<!-- cpr_number_application&#45;&gt;proof_of_work -->
<g id="edge14" class="edge">
<title>cpr_number_application&#45;&gt;proof_of_work</title>
<path fill="none" stroke="#000000" d="M641.0918,-396.576C621.5111,-384.5926 599.7898,-369.0608 583.3736,-351.2447 554.6187,-320.0376 500.2579,-212.5625 472.9336,-156.6611"/>
<polygon fill="#000000" stroke="#000000" points="475.9981,-154.9599 468.473,-147.5018 469.7047,-158.0248 475.9981,-154.9599"/>
</g>
<!-- cpr_number_application&#45;&gt;passport -->
<g id="edge16" class="edge">
<title>cpr_number_application&#45;&gt;passport</title>
<path fill="none" stroke="#000000" d="M644.9097,-395.1494C629.7362,-383.5713 614.4073,-368.6982 605.3736,-351.2447 573.2408,-289.1625 576.1977,-204.7751 581.2605,-157.7135"/>
<polygon fill="#000000" stroke="#000000" points="584.746,-158.0408 582.4311,-147.702 577.7934,-157.2278 584.746,-158.0408"/>
</g>
<!-- cpr_number_application&#45;&gt;eu_residence_document -->
<g id="edge13" class="edge">
<title>cpr_number_application&#45;&gt;eu_residence_document</title>
<path fill="none" stroke="#000000" d="M741.8786,-397.6688C770.0765,-384.0194 805.0623,-367.0843 833.9912,-353.0812"/>
<polygon fill="#000000" stroke="#000000" points="835.6786,-356.1529 843.1546,-348.6456 832.6287,-349.8523 835.6786,-356.1529"/>
</g>
<!-- proof_of_address -->
<g id="node15" class="node">
<title>proof_of_address</title>
<ellipse fill="#00ff00" stroke="#000000" cx="690.3736" cy="-325.7889" rx="76.3945" ry="25.4118"/>
<text text-anchor="middle" x="690.3736" y="-328.5889" font-family="Times,serif" font-size="14.00" fill="#000000">Proof of address</text>
<text text-anchor="middle" x="690.3736" y="-314.5889" font-family="Times,serif" font-size="14.00" fill="#000000">2019&#45;01&#45;21</text>
</g>
<!-- cpr_number_application&#45;&gt;proof_of_address -->
<g id="edge15" class="edge">
<title>cpr_number_application&#45;&gt;proof_of_address</title>
<path fill="none" stroke="#000000" d="M690.3736,-387.1009C690.3736,-378.7532 690.3736,-369.8531 690.3736,-361.4964"/>
<polygon fill="#000000" stroke="#000000" points="693.8737,-361.2842 690.3736,-351.2842 686.8737,-361.2843 693.8737,-361.2842"/>
</g>
<!-- proof_of_address&#45;&gt;place_to_live -->
<g id="edge21" class="edge">
<title>proof_of_address&#45;&gt;place_to_live</title>
<path fill="none" stroke="#000000" d="M747.0392,-308.7098C756.495,-305.891 766.2072,-303.015 775.3736,-300.333 831.2711,-283.9783 855.1656,-299.7846 901.3736,-264.333 919.4632,-250.4545 985.3182,-122.8487 1017.0496,-60.0459"/>
<polygon fill="#000000" stroke="#000000" points="1020.2787,-61.4154 1021.6555,-50.9104 1014.0282,-58.264 1020.2787,-61.4154"/>
</g>
<!-- cpr_number -->
<g id="node16" class="node">
<title>cpr_number</title>
<ellipse fill="#00ff00" stroke="#000000" cx="824.3736" cy="-519.4113" rx="62.9806" ry="25.4118"/>
<text text-anchor="middle" x="824.3736" y="-522.2113" font-family="Times,serif" font-size="14.00" fill="#000000">CPR number</text>
<text text-anchor="middle" x="824.3736" y="-508.2113" font-family="Times,serif" font-size="14.00" fill="#000000">2019&#45;02&#45;06</text>
</g>
<!-- cpr_number&#45;&gt;can_receive_post -->
<g id="edge18" class="edge">
<title>cpr_number&#45;&gt;can_receive_post</title>
<path fill="none" stroke="#000000" d="M860.8528,-498.3777C879.4822,-487.1239 902.2009,-472.5938 921.3736,-457.9554 1001.2849,-396.9431 1080.8036,-308.8309 1121.145,-261.6781"/>
<polygon fill="#000000" stroke="#000000" points="1123.9319,-263.8036 1127.7455,-253.9189 1118.6001,-259.268 1123.9319,-263.8036"/>
</g>
<!-- cpr_number&#45;&gt;cpr_number_application -->
<g id="edge17" class="edge">
<title>cpr_number&#45;&gt;cpr_number_application</title>
<path fill="none" stroke="#ff0000" d="M793.6313,-497.2008C777.4829,-485.534 757.3131,-470.9619 739.0955,-457.8002"/>
<polygon fill="#ff0000" stroke="#ff0000" points="741.0397,-454.887 730.8841,-451.8677 736.9403,-460.5611 741.0397,-454.887"/>
</g>
<!-- cpr_card -->
<g id="node17" class="node">
<title>cpr_card</title>
<ellipse fill="#00ff00" stroke="#000000" cx="1215.3736" cy="-616.2224" rx="78.9044" ry="25.4118"/>
<text text-anchor="middle" x="1215.3736" y="-619.0224" font-family="Times,serif" font-size="14.00" fill="#000000">CPR yellow card</text>
<text text-anchor="middle" x="1215.3736" y="-605.0224" font-family="Times,serif" font-size="14.00" fill="#000000">2019&#45;02&#45;??</text>
</g>
<!-- cpr_card&#45;&gt;can_receive_post -->
<g id="edge20" class="edge">
<title>cpr_card&#45;&gt;can_receive_post</title>
<path fill="none" stroke="#000000" d="M1210.9257,-590.5143C1199.2856,-523.2371 1167.9056,-341.8681 1154.5389,-264.6115"/>
<polygon fill="#000000" stroke="#000000" points="1157.93,-263.6808 1152.7763,-254.4239 1151.0324,-264.8742 1157.93,-263.6808"/>
</g>
<!-- cpr_card&#45;&gt;cpr_number -->
<g id="edge19" class="edge">
<title>cpr_card&#45;&gt;cpr_number</title>
<path fill="none" stroke="#000000" d="M1166.6421,-596.0183C1152.518,-590.6222 1136.968,-585.1165 1122.3736,-580.8671 1044.9027,-558.3101 953.7892,-540.7922 892.8937,-530.3305"/>
<polygon fill="#000000" stroke="#000000" points="893.4574,-526.8762 883.012,-528.6493 892.2833,-533.7771 893.4574,-526.8762"/>
</g>
<!-- skattekort -->
<g id="node18" class="node">
<title>skattekort</title>
<ellipse fill="#00ff00" stroke="#000000" cx="744.3736" cy="-819.7443" rx="57.5098" ry="25.4118"/>
<text text-anchor="middle" x="744.3736" y="-822.5443" font-family="Times,serif" font-size="14.00" fill="#000000">Skattekort</text>
<text text-anchor="middle" x="744.3736" y="-808.5443" font-family="Times,serif" font-size="14.00" fill="#000000">2019&#45;02&#45;07</text>
</g>
<!-- skattekort&#45;&gt;cpr_number -->
<g id="edge22" class="edge">
<title>skattekort&#45;&gt;cpr_number</title>
<path fill="none" stroke="#000000" stroke-dasharray="1,5" d="M733.1491,-794.5618C728.8675,-783.6443 724.5058,-770.5705 722.3736,-758.2885 716.9984,-727.3246 713.9121,-717.8442 722.3736,-687.5778 736.8896,-635.655 772.2999,-583.8106 797.3092,-551.699"/>
<polygon fill="#000000" stroke="#000000" points="800.277,-553.5892 803.7423,-543.5771 794.7897,-549.2429 800.277,-553.5892"/>
</g>
<!-- nemid_application -->
<g id="node19" class="node">
<title>nemid_application</title>
<ellipse fill="#00ff00" stroke="#000000" cx="887.3736" cy="-616.2224" rx="72.138" ry="35.2113"/>
<text text-anchor="middle" x="887.3736" y="-626.0224" font-family="Times,serif" font-size="14.00" fill="#000000">Application for</text>
<text text-anchor="middle" x="887.3736" y="-612.0224" font-family="Times,serif" font-size="14.00" fill="#000000">Nemid</text>
<text text-anchor="middle" x="887.3736" y="-598.0224" font-family="Times,serif" font-size="14.00" fill="#000000">2019&#45;02&#45;06</text>
</g>
<!-- nemid_application&#45;&gt;cpr_number -->
<g id="edge23" class="edge">
<title>nemid_application&#45;&gt;cpr_number</title>
<path fill="none" stroke="#000000" d="M865.3393,-582.3626C859.0909,-572.7608 852.2948,-562.3173 846.0668,-552.7468"/>
<polygon fill="#000000" stroke="#000000" points="848.9268,-550.7247 840.5389,-544.2522 843.0597,-554.5428 848.9268,-550.7247"/>
</g>
<!-- nemid_userid -->
<g id="node20" class="node">
<title>nemid_userid</title>
<ellipse fill="#00ff00" stroke="#000000" cx="804.3736" cy="-722.9331" rx="72.7816" ry="25.4118"/>
<text text-anchor="middle" x="804.3736" y="-725.7331" font-family="Times,serif" font-size="14.00" fill="#000000">NemID user ID</text>
<text text-anchor="middle" x="804.3736" y="-711.7331" font-family="Times,serif" font-size="14.00" fill="#000000">2019&#45;02&#45;06</text>
</g>
<!-- nemid_userid&#45;&gt;nemid_application -->
<g id="edge24" class="edge">
<title>nemid_userid&#45;&gt;nemid_application</title>
<path fill="none" stroke="#000000" d="M823.6241,-698.1833C833.0717,-686.0369 844.7034,-671.0823 855.4335,-657.287"/>
<polygon fill="#000000" stroke="#000000" points="858.2468,-659.3708 861.6236,-649.3285 852.7214,-655.0731 858.2468,-659.3708"/>
</g>
<!-- danish_bank_account -->
<g id="node21" class="node">
<title>danish_bank_account</title>
<ellipse fill="#00ff00" stroke="#000000" cx="467.3736" cy="-616.2224" rx="94.1666" ry="25.4118"/>
<text text-anchor="middle" x="467.3736" y="-619.0224" font-family="Times,serif" font-size="14.00" fill="#000000">Danish bank account</text>
<text text-anchor="middle" x="467.3736" y="-605.0224" font-family="Times,serif" font-size="14.00" fill="#000000">2019&#45;02&#45;07</text>
</g>
<!-- danish_bank_account&#45;&gt;proof_of_work -->
<g id="edge26" class="edge">
<title>danish_bank_account&#45;&gt;proof_of_work</title>
<path fill="none" stroke="#000000" d="M468.4586,-590.5456C469.9291,-553.472 472.3736,-482.791 472.3736,-422.6001 472.3736,-422.6001 472.3736,-422.6001 472.3736,-325.7889 472.3736,-266.7748 465.605,-198.4304 460.8726,-157.858"/>
<polygon fill="#000000" stroke="#000000" points="464.347,-157.4343 459.6889,-147.9185 457.3961,-158.2622 464.347,-157.4343"/>
</g>
<!-- danish_bank_account&#45;&gt;passport -->
<g id="edge27" class="edge">
<title>danish_bank_account&#45;&gt;passport</title>
<path fill="none" stroke="#000000" d="M473.8655,-590.8128C477.3235,-577.1967 481.6253,-560.1282 485.3736,-544.8671 520.6164,-401.3807 561.0544,-230.0742 578.1071,-157.5134"/>
<polygon fill="#000000" stroke="#000000" points="581.5705,-158.0747 580.45,-147.5392 574.756,-156.4739 581.5705,-158.0747"/>
</g>
<!-- danish_bank_account&#45;&gt;danish_phone_number -->
<g id="edge28" class="edge">
<title>danish_bank_account&#45;&gt;danish_phone_number</title>
<path fill="none" stroke="#000000" d="M436.9026,-592.0426C421.0117,-579.4326 401.3966,-563.8674 384.4058,-550.3846"/>
<polygon fill="#000000" stroke="#000000" points="386.3125,-547.4296 376.3035,-543.9552 381.9613,-552.9129 386.3125,-547.4296"/>
</g>
<!-- danish_bank_account&#45;&gt;cpr_number -->
<g id="edge25" class="edge">
<title>danish_bank_account&#45;&gt;cpr_number</title>
<path fill="none" stroke="#000000" d="M525.9829,-596.1575C541.9312,-590.9383 559.2531,-585.4882 575.3736,-580.8671 637.3704,-563.0953 708.9232,-545.7603 759.3719,-534.0571"/>
<polygon fill="#000000" stroke="#000000" points="760.2157,-537.4545 769.1711,-531.7931 758.6399,-530.6341 760.2157,-537.4545"/>
</g>
<!-- activated_nemid -->
<g id="node22" class="node">
<title>activated_nemid</title>
<ellipse fill="#00ff00" stroke="#000000" cx="899.3736" cy="-819.7443" rx="79.427" ry="25.4118"/>
<text text-anchor="middle" x="899.3736" y="-822.5443" font-family="Times,serif" font-size="14.00" fill="#000000">Activated Nemid</text>
<text text-anchor="middle" x="899.3736" y="-808.5443" font-family="Times,serif" font-size="14.00" fill="#000000">2019&#45;02&#45;19</text>
</g>
<!-- activated_nemid&#45;&gt;danish_phone_number -->
<g id="edge30" class="edge">
<title>activated_nemid&#45;&gt;danish_phone_number</title>
<path fill="none" stroke="#000000" d="M843.4579,-801.6498C832.8934,-798.7801 821.8656,-796.1495 811.3736,-794.2885 754.6752,-784.2314 333.6517,-800.3966 294.3736,-758.2885 241.7092,-701.8294 289.7516,-604.8513 321.8927,-553.5464"/>
<polygon fill="#000000" stroke="#000000" points="325.0374,-555.1261 327.4849,-544.8178 319.1433,-551.3499 325.0374,-555.1261"/>
</g>
<!-- activated_nemid&#45;&gt;nemid_userid -->
<g id="edge29" class="edge">
<title>activated_nemid&#45;&gt;nemid_userid</title>
<path fill="none" stroke="#000000" d="M875.4011,-795.3148C863.1573,-782.8375 848.1232,-767.5168 835.0442,-754.1884"/>
<polygon fill="#000000" stroke="#000000" points="837.5116,-751.7056 828.0094,-747.0195 832.5153,-756.6084 837.5116,-751.7056"/>
</g>
<!-- noglekort -->
<g id="node23" class="node">
<title>noglekort</title>
<ellipse fill="#00ff00" stroke="#000000" cx="1237.3736" cy="-722.9331" rx="69.7588" ry="35.2113"/>
<text text-anchor="middle" x="1237.3736" y="-732.7331" font-family="Times,serif" font-size="14.00" fill="#000000">Nøglekort</text>
<text text-anchor="middle" x="1237.3736" y="-718.7331" font-family="Times,serif" font-size="14.00" fill="#000000">2019&#45;02&#45;06</text>
<text text-anchor="middle" x="1237.3736" y="-704.7331" font-family="Times,serif" font-size="14.00" fill="#000000">og 2019&#45;02&#45;07</text>
</g>
<!-- activated_nemid&#45;&gt;noglekort -->
<g id="edge31" class="edge">
<title>activated_nemid&#45;&gt;noglekort</title>
<path fill="none" stroke="#000000" d="M968.2548,-807.073C1021.0213,-796.489 1095.2404,-779.6939 1158.3736,-758.2885 1164.4438,-756.2304 1170.6845,-753.8765 1176.8703,-751.3826"/>
<polygon fill="#000000" stroke="#000000" points="1178.6248,-754.4435 1186.5132,-747.3707 1175.9359,-747.9805 1178.6248,-754.4435"/>
</g>
<!-- midlertidlig_nemid_adgangskode -->
<g id="node24" class="node">
<title>midlertidlig_nemid_adgangskode</title>
<ellipse fill="#00ff00" stroke="#000000" cx="1022.3736" cy="-722.9331" rx="126.7645" ry="25.4118"/>
<text text-anchor="middle" x="1022.3736" y="-725.7331" font-family="Times,serif" font-size="14.00" fill="#000000">Temporary NemID password</text>
<text text-anchor="middle" x="1022.3736" y="-711.7331" font-family="Times,serif" font-size="14.00" fill="#000000">2019&#45;02&#45;19</text>
</g>
<!-- activated_nemid&#45;&gt;midlertidlig_nemid_adgangskode -->
<g id="edge32" class="edge">
<title>activated_nemid&#45;&gt;midlertidlig_nemid_adgangskode</title>
<path fill="none" stroke="#000000" d="M929.4628,-796.0616C945.4762,-783.4578 965.3733,-767.7971 982.6416,-754.2055"/>
<polygon fill="#000000" stroke="#000000" points="985.1857,-756.6572 990.879,-747.722 980.8563,-751.1566 985.1857,-756.6572"/>
</g>
<!-- noglekort&#45;&gt;can_receive_post -->
<g id="edge35" class="edge">
<title>noglekort&#45;&gt;can_receive_post</title>
<path fill="none" stroke="#000000" stroke-dasharray="1,5" d="M1286.9077,-697.8738C1305.1752,-686.2142 1324.3317,-670.6596 1336.3736,-651.5778 1368.2353,-601.0894 1360.3736,-579.1126 1360.3736,-519.4113 1360.3736,-519.4113 1360.3736,-519.4113 1360.3736,-422.6001 1360.3736,-367.2222 1372.0887,-342.655 1336.3736,-300.333 1312.91,-272.5289 1277.3951,-255.5371 1243.5289,-245.1623"/>
<polygon fill="#000000" stroke="#000000" points="1244.14,-241.6957 1233.5613,-242.2794 1242.195,-248.4201 1244.14,-241.6957"/>
</g>
<!-- noglekort&#45;&gt;nemid_application -->
<g id="edge33" class="edge">
<title>noglekort&#45;&gt;nemid_application</title>
<path fill="none" stroke="#ff0000" stroke-dasharray="1,5" d="M1186.4479,-698.6842C1177.2107,-694.7054 1167.5843,-690.8269 1158.3736,-687.5778 1093.8004,-664.7989 1018.3197,-645.4995 963.4414,-632.7385"/>
<polygon fill="#ff0000" stroke="#ff0000" points="963.9722,-629.2691 953.4414,-630.4325 962.3992,-636.0901 963.9722,-629.2691"/>
</g>
<!-- midlertidlig_nemid_adgangskode&#45;&gt;can_receive_post -->
<g id="edge36" class="edge">
<title>midlertidlig_nemid_adgangskode&#45;&gt;can_receive_post</title>
<path fill="none" stroke="#000000" stroke-dasharray="1,5" d="M1099.6515,-702.6864C1118.8288,-697.7053 1139.3399,-692.4145 1158.3736,-687.5778 1222.7293,-671.2242 1258.8406,-700.8311 1303.3736,-651.5778 1343.1742,-607.5586 1322.3736,-578.7558 1322.3736,-519.4113 1322.3736,-519.4113 1322.3736,-519.4113 1322.3736,-422.6001 1322.3736,-348.69 1251.3648,-290.1944 1200.0715,-257.5814"/>
<polygon fill="#000000" stroke="#000000" points="1201.7259,-254.4888 1191.3849,-252.1832 1198.0311,-260.4343 1201.7259,-254.4888"/>
</g>
<!-- midlertidlig_nemid_adgangskode&#45;&gt;nemid_application -->
<g id="edge34" class="edge">
<title>midlertidlig_nemid_adgangskode&#45;&gt;nemid_application</title>
<path fill="none" stroke="#ff0000" stroke-dasharray="1,5" d="M991.0626,-698.1833C974.0239,-684.7151 952.6173,-667.7943 933.6854,-652.8296"/>
<polygon fill="#ff0000" stroke="#ff0000" points="935.7588,-650.007 925.7432,-646.5516 931.4179,-655.4986 935.7588,-650.007"/>
</g>
<!-- ehic -->
<g id="node25" class="node">
<title>ehic</title>
<ellipse fill="#ffff00" stroke="#000000" cx="1017.3736" cy="-899.2001" rx="99.0157" ry="18"/>
<text text-anchor="middle" x="1017.3736" y="-895.0001" font-family="Times,serif" font-size="14.00" fill="#000000">Danish EHIC (&#39;blåt kort&#39;)</text>
</g>
<!-- ehic&#45;&gt;place_to_live -->
<g id="edge39" class="edge">
<title>ehic&#45;&gt;place_to_live</title>
<path fill="none" stroke="#000000" d="M1099.9975,-889.2684C1146.6599,-881.4899 1205.1186,-868.0217 1253.3736,-845.2001 1333.6419,-807.2383 1411.3736,-811.7255 1411.3736,-722.9331 1411.3736,-722.9331 1411.3736,-722.9331 1411.3736,-228.9777 1411.3736,-93.9179 1221.7015,-48.0607 1111.4268,-32.8128"/>
<polygon fill="#000000" stroke="#000000" points="1111.7132,-29.3202 1101.3393,-31.4725 1110.7911,-36.2592 1111.7132,-29.3202"/>
</g>
<!-- ehic&#45;&gt;cpr_number -->
<g id="edge37" class="edge">
<title>ehic&#45;&gt;cpr_number</title>
<path fill="none" stroke="#000000" d="M1075.2007,-884.5763C1182.9967,-854.6781 1396.7505,-781.3888 1316.3736,-687.5778 1282.4281,-647.9586 1133.3708,-669.5013 1084.3736,-651.5778 1027.6695,-630.835 1022.0572,-608.5024 968.3736,-580.8671 939.7292,-566.1215 906.7412,-551.8564 879.5718,-540.7877"/>
<polygon fill="#000000" stroke="#000000" points="880.804,-537.5107 870.221,-537.0103 878.1821,-544.0011 880.804,-537.5107"/>
</g>
<!-- ehic&#45;&gt;activated_nemid -->
<g id="edge38" class="edge">
<title>ehic&#45;&gt;activated_nemid</title>
<path fill="none" stroke="#000000" d="M991.478,-881.7632C977.0351,-872.038 958.6789,-859.6777 942.1608,-848.5552"/>
<polygon fill="#000000" stroke="#000000" points="943.9706,-845.5544 933.7209,-842.8722 940.0608,-851.3608 943.9706,-845.5544"/>
</g>
<!-- doctor -->
<g id="node26" class="node">
<title>doctor</title>
<ellipse fill="#00ff00" stroke="#000000" cx="1497.3736" cy="-819.7443" rx="57.5098" ry="25.4118"/>
<text text-anchor="middle" x="1497.3736" y="-822.5443" font-family="Times,serif" font-size="14.00" fill="#000000">Doctor</text>
<text text-anchor="middle" x="1497.3736" y="-808.5443" font-family="Times,serif" font-size="14.00" fill="#000000">2019&#45;02&#45;06</text>
</g>
<!-- doctor&#45;&gt;cpr_number -->
<g id="edge40" class="edge">
<title>doctor&#45;&gt;cpr_number</title>
<path fill="none" stroke="#000000" d="M1478.201,-795.6898C1452.4081,-765.1597 1403.4804,-713.3717 1349.3736,-687.5778 1259.1464,-644.5644 1210.286,-707.4048 1127.3736,-651.5778 1096.8636,-631.0346 1114.1316,-602.4854 1084.3736,-580.8671 1054.302,-559.0209 959.9752,-540.441 893.6358,-529.6002"/>
<polygon fill="#000000" stroke="#000000" points="894.0823,-526.1271 883.653,-527.9925 892.9692,-533.0381 894.0823,-526.1271"/>
</g>
<!-- get_paid -->
<g id="node27" class="node">
<title>get_paid</title>
<ellipse fill="none" stroke="#000000" cx="447.3736" cy="-899.2001" rx="40.1247" ry="18"/>
<text text-anchor="middle" x="447.3736" y="-895.0001" font-family="Times,serif" font-size="14.00" fill="#000000">Get paid</text>
</g>
<!-- get_paid&#45;&gt;job -->
<g id="edge41" class="edge">
<title>get_paid&#45;&gt;job</title>
<path fill="none" stroke="#000000" d="M412.5935,-890.0215C348.5314,-870.777 218.3736,-819.7624 218.3736,-722.9331 218.3736,-722.9331 218.3736,-722.9331 218.3736,-228.9777 218.3736,-159.8135 270.2226,-93.2815 305.4716,-56.042"/>
<polygon fill="#000000" stroke="#000000" points="308.2813,-58.1714 312.7168,-48.5497 303.2492,-53.3053 308.2813,-58.1714"/>
</g>
<!-- get_paid&#45;&gt;skattekort -->
<g id="edge42" class="edge">
<title>get_paid&#45;&gt;skattekort</title>
<path fill="none" stroke="#000000" d="M484.6019,-892.1523C530.611,-883.0647 611.0689,-865.9372 678.3736,-845.2001 682.9729,-843.7831 687.7107,-842.2033 692.4367,-840.544"/>
<polygon fill="#000000" stroke="#000000" points="693.8633,-843.7498 702.073,-837.0526 691.4787,-837.1685 693.8633,-843.7498"/>
</g>
<!-- get_paid&#45;&gt;danish_bank_account -->
<g id="edge43" class="edge">
<title>get_paid&#45;&gt;danish_bank_account</title>
<path fill="none" stroke="#000000" d="M448.6552,-881.0681C451.9084,-835.038 460.5337,-713.0005 464.8455,-651.9925"/>
<polygon fill="#000000" stroke="#000000" points="468.3596,-651.915 465.5735,-641.6931 461.3771,-651.4215 468.3596,-651.915"/>
</g>
<!-- get_paid&#45;&gt;activated_nemid -->
<g id="edge44" class="edge">
<title>get_paid&#45;&gt;activated_nemid</title>
<path fill="none" stroke="#000000" d="M484.2864,-891.7242C501.8427,-888.2922 523.1505,-884.3053 542.3736,-881.2001 661.4516,-861.9655 693.335,-870.0276 811.3736,-845.2001 818.3286,-843.7373 825.537,-842.0095 832.6983,-840.1537"/>
<polygon fill="#000000" stroke="#000000" points="833.6505,-843.5222 842.4063,-837.5569 831.8415,-836.7599 833.6505,-843.5222"/>
</g>
<!-- danish_lessions -->
<g id="node28" class="node">
<title>danish_lessions</title>
<ellipse fill="none" stroke="#000000" cx="606.3736" cy="-819.7443" rx="62.8431" ry="18"/>
<text text-anchor="middle" x="606.3736" y="-815.5443" font-family="Times,serif" font-size="14.00" fill="#000000">Danish lessons</text>
</g>
<!-- danish_lessions&#45;&gt;cpr_number -->
<g id="edge45" class="edge">
<title>danish_lessions&#45;&gt;cpr_number</title>
<path fill="none" stroke="#000000" d="M618.6851,-802.083C626.9115,-789.9885 637.7616,-773.4544 646.3736,-758.2885 689.7406,-681.9185 675.7046,-647.1041 733.3736,-580.8671 745.5124,-566.9249 761.5116,-554.7273 776.7052,-544.9531"/>
<polygon fill="#000000" stroke="#000000" points="778.8698,-547.7291 785.5225,-539.4834 775.1797,-541.7807 778.8698,-547.7291"/>
</g>
<!-- danish_bank_card -->
<g id="node29" class="node">
<title>danish_bank_card</title>
<ellipse fill="#00ff00" stroke="#000000" cx="556.3736" cy="-722.9331" rx="80.6721" ry="25.4118"/>
<text text-anchor="middle" x="556.3736" y="-725.7331" font-family="Times,serif" font-size="14.00" fill="#000000">Danish bank card</text>
<text text-anchor="middle" x="556.3736" y="-711.7331" font-family="Times,serif" font-size="14.00" fill="#000000">2019&#45;02&#45;16</text>
</g>
<!-- danish_lessions&#45;&gt;danish_bank_card -->
<g id="edge46" class="edge">
<title>danish_lessions&#45;&gt;danish_bank_card</title>
<path fill="none" stroke="#000000" d="M596.969,-801.5349C590.5502,-789.1065 581.8475,-772.2563 574.1461,-757.3445"/>
<polygon fill="#000000" stroke="#000000" points="577.2082,-755.646 569.5095,-748.3671 570.9887,-758.8582 577.2082,-755.646"/>
</g>
<!-- danish_bank_card&#45;&gt;can_receive_post -->
<g id="edge48" class="edge">
<title>danish_bank_card&#45;&gt;can_receive_post</title>
<path fill="none" stroke="#000000" d="M573.9962,-697.738C606.009,-653.1217 677.3694,-558.8191 752.3736,-493.9554 819.5645,-435.8488 842.7475,-428.5838 921.3736,-387.2447 957.3249,-368.3427 974.3155,-377.4204 1005.3736,-351.2447 1025.9925,-333.8673 1019.3099,-319.4036 1038.3736,-300.333 1054.9811,-283.7197 1076.0739,-268.9054 1095.3372,-257.1392"/>
<polygon fill="#000000" stroke="#000000" points="1097.2399,-260.0797 1104.0365,-251.9522 1093.6549,-254.0674 1097.2399,-260.0797"/>
</g>
<!-- danish_bank_card&#45;&gt;danish_bank_account -->
<g id="edge47" class="edge">
<title>danish_bank_card&#45;&gt;danish_bank_account</title>
<path fill="none" stroke="#ff0000" d="M535.7316,-698.1833C523.5751,-683.6078 508.0462,-664.9887 494.8623,-649.1813"/>
<polygon fill="#ff0000" stroke="#ff0000" points="497.305,-646.6455 488.2121,-641.2077 491.9293,-651.129 497.305,-646.6455"/>
</g>
<!-- spend_lovely_dkk -->
<g id="node30" class="node">
<title>spend_lovely_dkk</title>
<ellipse fill="none" stroke="#000000" cx="499.3736" cy="-978.656" rx="99.0344" ry="18"/>
<text text-anchor="middle" x="499.3736" y="-974.456" font-family="Times,serif" font-size="14.00" fill="#000000">Spend your lovely DKK!</text>
</g>
<!-- spend_lovely_dkk&#45;&gt;get_paid -->
<g id="edge49" class="edge">
<title>spend_lovely_dkk&#45;&gt;get_paid</title>
<path fill="none" stroke="#000000" d="M487.574,-960.6262C480.697,-950.1182 471.908,-936.6886 464.3029,-925.068"/>
<polygon fill="#000000" stroke="#000000" points="467.1739,-923.0633 458.7692,-916.6125 461.3167,-926.8965 467.1739,-923.0633"/>
</g>
<!-- spend_lovely_dkk&#45;&gt;danish_bank_card -->
<g id="edge50" class="edge">
<title>spend_lovely_dkk&#45;&gt;danish_bank_card</title>
<path fill="none" stroke="#000000" d="M502.138,-960.4538C507.3403,-927.2051 519.4196,-854.5247 534.3736,-794.2885 537.3209,-782.4165 541.0844,-769.6021 544.662,-758.1528"/>
<polygon fill="#000000" stroke="#000000" points="548.0363,-759.0913 547.733,-748.5008 541.3658,-756.9689 548.0363,-759.0913"/>
</g>
<!-- mobilepay -->
<g id="node31" class="node">
<title>mobilepay</title>
<ellipse fill="#00ff00" stroke="#000000" cx="361.3736" cy="-722.9331" rx="57.5098" ry="25.4118"/>
<text text-anchor="middle" x="361.3736" y="-725.7331" font-family="Times,serif" font-size="14.00" fill="#000000">Mobilepay</text>
<text text-anchor="middle" x="361.3736" y="-711.7331" font-family="Times,serif" font-size="14.00" fill="#000000">2019&#45;02&#45;18</text>
</g>
<!-- mobilepay&#45;&gt;danish_phone_number -->
<g id="edge52" class="edge">
<title>mobilepay&#45;&gt;danish_phone_number</title>
<path fill="none" stroke="#000000" d="M359.3472,-697.1569C356.516,-661.1435 351.3657,-595.6309 348.1707,-554.9901"/>
<polygon fill="#000000" stroke="#000000" points="351.6567,-554.673 347.3836,-544.9781 344.6782,-555.2217 351.6567,-554.673"/>
</g>
<!-- mobilepay&#45;&gt;cpr_number -->
<g id="edge51" class="edge">
<title>mobilepay&#45;&gt;cpr_number</title>
<path fill="none" stroke="#000000" d="M407.2381,-707.5192C467.6381,-687.1854 566.6895,-653.7036 570.3736,-651.5778 611.765,-627.6946 610.1302,-605.0049 651.3736,-580.8671 685.4242,-560.9389 726.9925,-545.9142 760.8478,-535.7102"/>
<polygon fill="#000000" stroke="#000000" points="762.0291,-539.011 770.6335,-532.8292 760.0521,-532.2959 762.0291,-539.011"/>
</g>
<!-- mobilepay&#45;&gt;danish_bank_account -->
<g id="edge53" class="edge">
<title>mobilepay&#45;&gt;danish_bank_account</title>
<path fill="none" stroke="#000000" d="M384.6358,-699.515C399.5392,-684.5117 419.0811,-664.8388 435.4305,-648.3798"/>
<polygon fill="#000000" stroke="#000000" points="438.1253,-650.6333 442.6896,-641.072 433.159,-645.7001 438.1253,-650.6333"/>
</g>
<!-- hygge -->
<g id="node32" class="node">
<title>hygge</title>
<ellipse fill="none" stroke="#000000" cx="703.3736" cy="-1278.01" rx="101.1913" ry="21.7969"/>
<text text-anchor="middle" x="703.3736" y="-1278.2944" font-family="Times,serif" font-size="14.00" fill="#000000">🇩🇰 😊 Hygge 😊 🇩🇰</text>
</g>
<!-- magi4 -->
<g id="node33" class="node">
<title>magi4</title>
<ellipse fill="none" stroke="#000000" cx="763.3736" cy="-1058.1118" rx="27" ry="18"/>
<text text-anchor="middle" x="763.3736" y="-1053.9118" font-family="Times,serif" font-size="14.00" fill="#000000">????</text>
</g>
<!-- hygge&#45;&gt;magi4 -->
<g id="edge54" class="edge">
<title>hygge&#45;&gt;magi4</title>
<path fill="none" stroke="#000000" stroke-dasharray="5,2" d="M709.346,-1256.1214C720.35,-1215.7923 743.8007,-1129.8462 755.8633,-1085.6369"/>
<polygon fill="#000000" stroke="#000000" points="759.2768,-1086.4227 758.5326,-1075.854 752.5237,-1084.58 759.2768,-1086.4227"/>
</g>
<!-- magi1 -->
<g id="node34" class="node">
<title>magi1</title>
<ellipse fill="none" stroke="#000000" cx="676.3736" cy="-1202.1118" rx="27" ry="18"/>
<text text-anchor="middle" x="676.3736" y="-1197.9118" font-family="Times,serif" font-size="14.00" fill="#000000">?</text>
</g>
<!-- hygge&#45;&gt;magi1 -->
<g id="edge55" class="edge">
<title>hygge&#45;&gt;magi1</title>
<path fill="none" stroke="#000000" d="M695.5641,-1256.0571C692.5768,-1247.6595 689.1343,-1237.9827 685.9971,-1229.1637"/>
<polygon fill="#000000" stroke="#000000" points="689.2745,-1227.9338 682.6252,-1219.6853 682.6794,-1230.28 689.2745,-1227.9338"/>
</g>
<!-- helbred -->
<g id="node37" class="node">
<title>helbred</title>
<ellipse fill="none" stroke="#000000" cx="890.3736" cy="-978.656" rx="33.8596" ry="18"/>
<text text-anchor="middle" x="890.3736" y="-974.456" font-family="Times,serif" font-size="14.00" fill="#000000">Health</text>
</g>
<!-- magi4&#45;&gt;helbred -->
<g id="edge61" class="edge">
<title>magi4&#45;&gt;helbred</title>
<path fill="none" stroke="#000000" stroke-dasharray="1,5" d="M783.2174,-1045.6969C803.6313,-1032.9252 835.7121,-1012.8542 859.4563,-997.999"/>
<polygon fill="#000000" stroke="#000000" points="861.4854,-1000.8581 868.1066,-992.5871 857.7727,-994.9238 861.4854,-1000.8581"/>
</g>
<!-- magi2 -->
<g id="node35" class="node">
<title>magi2</title>
<ellipse fill="none" stroke="#000000" cx="540.3736" cy="-1130.1118" rx="27" ry="18"/>
<text text-anchor="middle" x="540.3736" y="-1125.9118" font-family="Times,serif" font-size="14.00" fill="#000000">??</text>
</g>
<!-- magi1&#45;&gt;magi2 -->
<g id="edge57" class="edge">
<title>magi1&#45;&gt;magi2</title>
<path fill="none" stroke="#000000" d="M655.1236,-1190.8618C632.5014,-1178.8854 596.4997,-1159.8256 570.8576,-1146.2504"/>
<polygon fill="#000000" stroke="#000000" points="572.3988,-1143.1061 561.9233,-1141.5204 569.1235,-1149.2926 572.3988,-1143.1061"/>
</g>
<!-- magi3 -->
<g id="node36" class="node">
<title>magi3</title>
<ellipse fill="none" stroke="#000000" cx="653.3736" cy="-1130.1118" rx="27" ry="18"/>
<text text-anchor="middle" x="653.3736" y="-1125.9118" font-family="Times,serif" font-size="14.00" fill="#000000">????</text>
</g>
<!-- magi1&#45;&gt;magi3 -->
<g id="edge58" class="edge">
<title>magi1&#45;&gt;magi3</title>
<path fill="none" stroke="#000000" stroke-dasharray="5,2" d="M670.6883,-1184.3141C668.1173,-1176.2659 665.0202,-1166.5706 662.1605,-1157.6185"/>
<polygon fill="#000000" stroke="#000000" points="665.4504,-1156.4151 659.0734,-1147.9544 658.7824,-1158.5452 665.4504,-1156.4151"/>
</g>
<!-- magi1&#45;&gt;helbred -->
<g id="edge59" class="edge">
<title>magi1&#45;&gt;helbred</title>
<path fill="none" stroke="#000000" stroke-dasharray="1,5" d="M681.0933,-1184.0848C691.6861,-1144.1393 717.2171,-1050.8489 727.3736,-1040.1118 759.0035,-1006.6741 810.6343,-991.2735 847.3061,-984.2818"/>
<polygon fill="#000000" stroke="#000000" points="847.9877,-987.7156 857.2237,-982.5247 846.7665,-980.8229 847.9877,-987.7156"/>
</g>
<!-- penge -->
<g id="node38" class="node">
<title>penge</title>
<ellipse fill="none" stroke="#000000" cx="519.3736" cy="-1058.1118" rx="35.3216" ry="18"/>
<text text-anchor="middle" x="519.3736" y="-1053.9118" font-family="Times,serif" font-size="14.00" fill="#000000">Money</text>
</g>
<!-- magi2&#45;&gt;penge -->
<g id="edge60" class="edge">
<title>magi2&#45;&gt;penge</title>
<path fill="none" stroke="#000000" stroke-dasharray="1,5" d="M535.1826,-1112.3141C532.8353,-1104.2659 530.0075,-1094.5706 527.3964,-1085.6185"/>
<polygon fill="#000000" stroke="#000000" points="530.7378,-1084.5744 524.5777,-1075.9544 524.0178,-1086.5344 530.7378,-1084.5744"/>
</g>
<!-- rejser -->
<g id="node39" class="node">
<title>rejser</title>
<ellipse fill="#00ff00" stroke="#000000" cx="156.3736" cy="-1058.1118" rx="41.1266" ry="18"/>
<text text-anchor="middle" x="156.3736" y="-1053.9118" font-family="Times,serif" font-size="14.00" fill="#000000">Mobility</text>
</g>
<!-- magi2&#45;&gt;rejser -->
<g id="edge67" class="edge">
<title>magi2&#45;&gt;rejser</title>
<path fill="none" stroke="#000000" stroke-dasharray="1,5" d="M514.2817,-1125.2196C450.5814,-1113.2758 286.358,-1082.4839 204.392,-1067.1153"/>
<polygon fill="#000000" stroke="#000000" points="204.8144,-1063.6336 194.3407,-1065.2307 203.5244,-1070.5137 204.8144,-1063.6336"/>
</g>
<!-- faa_ting_gjort -->
<g id="node40" class="node">
<title>faa_ting_gjort</title>
<ellipse fill="none" stroke="#000000" cx="626.3736" cy="-899.2001" rx="75.0675" ry="18"/>
<text text-anchor="middle" x="626.3736" y="-895.0001" font-family="Times,serif" font-size="14.00" fill="#000000">Can get stuff done</text>
</g>
<!-- magi2&#45;&gt;faa_ting_gjort -->
<g id="edge70" class="edge">
<title>magi2&#45;&gt;faa_ting_gjort</title>
<path fill="none" stroke="#000000" stroke-dasharray="1,5" d="M551.4706,-1113.3566C566.4737,-1089.9152 593.0002,-1045.5417 607.3736,-1004.1118 616.0931,-978.9789 621.0106,-949.0001 623.6469,-927.5376"/>
<polygon fill="#000000" stroke="#000000" points="627.1412,-927.7848 624.795,-917.453 620.1862,-926.9929 627.1412,-927.7848"/>
</g>
<!-- magi3&#45;&gt;magi4 -->
<g id="edge56" class="edge">
<title>magi3&#45;&gt;magi4</title>
<path fill="none" stroke="#000000" d="M672.7862,-1117.4054C690.1156,-1106.0625 715.7054,-1089.3129 735.2708,-1076.5064"/>
<polygon fill="#000000" stroke="#000000" points="737.3349,-1079.3385 743.7851,-1070.9334 733.5013,-1073.4816 737.3349,-1079.3385"/>
</g>
<!-- magi3&#45;&gt;penge -->
<g id="edge64" class="edge">
<title>magi3&#45;&gt;penge</title>
<path fill="none" stroke="#000000" stroke-dasharray="1,5" d="M632.1409,-1118.7032C610.8083,-1107.2409 577.6181,-1089.4073 552.7597,-1076.0506"/>
<polygon fill="#000000" stroke="#000000" points="554.1481,-1072.8234 543.6825,-1071.1733 550.8348,-1078.9896 554.1481,-1072.8234"/>
</g>
<!-- helbred&#45;&gt;ehic -->
<g id="edge63" class="edge">
<title>helbred&#45;&gt;ehic</title>
<path fill="none" stroke="#000000" d="M912.4954,-964.8158C931.317,-953.0403 958.7292,-935.8902 980.8085,-922.0766"/>
<polygon fill="#000000" stroke="#000000" points="982.6655,-925.0434 989.2867,-916.7724 978.9528,-919.1091 982.6655,-925.0434"/>
</g>
<!-- helbred&#45;&gt;doctor -->
<g id="edge62" class="edge">
<title>helbred&#45;&gt;doctor</title>
<path fill="none" stroke="#000000" d="M921.7138,-971.9372C1004.6206,-953.9273 1236.3004,-902.0648 1425.3736,-845.2001 1431.2894,-843.421 1437.4369,-841.4461 1443.5357,-839.4059"/>
<polygon fill="#000000" stroke="#000000" points="1444.7044,-842.7053 1453.0393,-836.1645 1442.4448,-836.08 1444.7044,-842.7053"/>
</g>
<!-- penge&#45;&gt;spend_lovely_dkk -->
<g id="edge65" class="edge">
<title>penge&#45;&gt;spend_lovely_dkk</title>
<path fill="none" stroke="#000000" d="M514.8353,-1040.0821C512.347,-1030.1964 509.2078,-1017.7251 506.4092,-1006.6068"/>
<polygon fill="#000000" stroke="#000000" points="509.7984,-1005.7326 503.9632,-996.8894 503.0102,-1007.4413 509.7984,-1005.7326"/>
</g>
<!-- penge&#45;&gt;mobilepay -->
<g id="edge66" class="edge">
<title>penge&#45;&gt;mobilepay</title>
<path fill="none" stroke="#000000" d="M485.1545,-1053.4253C455.3446,-1047.4127 413.5235,-1033.9277 391.3736,-1004.1118 337.0793,-931.0262 345.7066,-816.2662 354.584,-758.5695"/>
<polygon fill="#000000" stroke="#000000" points="358.0736,-758.9163 356.2294,-748.4833 351.165,-757.7893 358.0736,-758.9163"/>
</g>
<!-- rejser&#45;&gt;rejsekort -->
<g id="edge69" class="edge">
<title>rejser&#45;&gt;rejsekort</title>
<path fill="none" stroke="#000000" d="M137.7561,-1042.0328C126.6077,-1032.4045 112.0857,-1019.8625 98.9054,-1008.4793"/>
<polygon fill="#000000" stroke="#000000" points="101.1916,-1005.8292 91.3357,-1001.9418 96.6162,-1011.1269 101.1916,-1005.8292"/>
</g>
<!-- rejser&#45;&gt;pendlerkort -->
<g id="edge68" class="edge">
<title>rejser&#45;&gt;pendlerkort</title>
<path fill="none" stroke="#000000" d="M156.3736,-1039.9995C156.3736,-1010.4998 156.3736,-950.2395 156.3736,-899.2001 156.3736,-899.2001 156.3736,-899.2001 156.3736,-616.2224 156.3736,-560.8016 146.57,-497.1308 139.4943,-458.3943"/>
<polygon fill="#000000" stroke="#000000" points="142.8587,-457.3443 137.5813,-448.1574 135.9778,-458.6302 142.8587,-457.3443"/>
</g>
<!-- faa_ting_gjort&#45;&gt;activated_nemid -->
<g id="edge71" class="edge">
<title>faa_ting_gjort&#45;&gt;activated_nemid</title>
<path fill="none" stroke="#000000" d="M674.239,-885.2691C717.5875,-872.6526 781.9469,-853.921 830.764,-839.7129"/>
<polygon fill="#000000" stroke="#000000" points="831.9968,-842.9994 840.6203,-836.8443 830.0406,-836.2783 831.9968,-842.9994"/>
</g>
<!-- faa_ting_gjort&#45;&gt;danish_lessions -->
<g id="edge72" class="edge">
<title>faa_ting_gjort&#45;&gt;danish_lessions</title>
<path fill="none" stroke="#000000" d="M621.8353,-881.1704C619.3294,-871.2146 616.1633,-858.6364 613.3497,-847.4588"/>
<polygon fill="#000000" stroke="#000000" points="616.7292,-846.5458 610.894,-837.7027 609.9409,-848.2546 616.7292,-846.5458"/>
</g>
</g>
</svg>
