<?xml version="1.0" encoding="UTF-8" standalone="no"?>
<!DOCTYPE svg PUBLIC "-//W3C//DTD SVG 1.1//EN"
 "http://www.w3.org/Graphics/SVG/1.1/DTD/svg11.dtd">
<!-- Generated by graphviz version 2.40.1 (20161225.0304)
 -->
<!-- Title: g Pages: 1 -->
<svg width="1066pt" height="1253pt"
 viewBox="0.00 0.00 1065.60 1253.40" xmlns="http://www.w3.org/2000/svg" xmlns:xlink="http://www.w3.org/1999/xlink">
<g id="graph0" class="graph" transform="scale(1 1) rotate(0) translate(4 1249.3986)">
<title>g</title>
<polygon fill="#ffffff" stroke="transparent" points="-4,4 -4,-1249.3986 1061.6018,-1249.3986 1061.6018,4 -4,4"/>
<!-- job -->
<g id="node1" class="node">
<title>job</title>
<ellipse fill="#00ff00" stroke="#000000" cx="965.5049" cy="-25.4558" rx="57.5098" ry="25.4118"/>
<text text-anchor="middle" x="965.5049" y="-28.2558" font-family="Times,serif" font-size="14.00" fill="#000000">A job</text>
<text text-anchor="middle" x="965.5049" y="-14.2558" font-family="Times,serif" font-size="14.00" fill="#000000">2018&#45;10&#45;19</text>
</g>
<!-- proof_of_work -->
<g id="node2" class="node">
<title>proof_of_work</title>
<ellipse fill="#00ff00" stroke="#000000" cx="876.5049" cy="-122.267" rx="66.707" ry="25.4118"/>
<text text-anchor="middle" x="876.5049" y="-125.067" font-family="Times,serif" font-size="14.00" fill="#000000">Proof of work</text>
<text text-anchor="middle" x="876.5049" y="-111.067" font-family="Times,serif" font-size="14.00" fill="#000000">2019&#45;01&#45;22</text>
</g>
<!-- proof_of_work&#45;&gt;job -->
<g id="edge1" class="edge">
<title>proof_of_work&#45;&gt;job</title>
<path fill="none" stroke="#000000" d="M898.9634,-97.8375C910.4138,-85.3821 924.4691,-70.0932 936.7069,-56.7813"/>
<polygon fill="#000000" stroke="#000000" points="939.4777,-58.9388 943.669,-49.2082 934.3244,-54.2013 939.4777,-58.9388"/>
</g>
<!-- passport -->
<g id="node3" class="node">
<title>passport</title>
<ellipse fill="#00ff00" stroke="#000000" cx="379.5049" cy="-122.267" rx="44.7298" ry="25.4118"/>
<text text-anchor="middle" x="379.5049" y="-125.067" font-family="Times,serif" font-size="14.00" fill="#000000">Passport</text>
<text text-anchor="middle" x="379.5049" y="-111.067" font-family="Times,serif" font-size="14.00" fill="#000000">2015</text>
</g>
<!-- danish_phone_number -->
<g id="node4" class="node">
<title>danish_phone_number</title>
<ellipse fill="#00ff00" stroke="#000000" cx="418.5049" cy="-693.2346" rx="98.9836" ry="25.4118"/>
<text text-anchor="middle" x="418.5049" y="-696.0346" font-family="Times,serif" font-size="14.00" fill="#000000">Danish phone number</text>
<text text-anchor="middle" x="418.5049" y="-682.0346" font-family="Times,serif" font-size="14.00" fill="#000000">2019&#45;01&#45;17</text>
</g>
<!-- rejsekort -->
<g id="node5" class="node">
<title>rejsekort</title>
<ellipse fill="#00ff00" stroke="#000000" cx="207.5049" cy="-924.1463" rx="64.2475" ry="25.4118"/>
<text text-anchor="middle" x="207.5049" y="-926.9463" font-family="Times,serif" font-size="14.00" fill="#000000">Rejsekort</text>
<text text-anchor="middle" x="207.5049" y="-912.9463" font-family="Times,serif" font-size="14.00" fill="#000000">2018&#45;10&#45;19 ?</text>
</g>
<!-- place_to_live -->
<g id="node6" class="node">
<title>place_to_live</title>
<ellipse fill="#00ff00" stroke="#000000" cx="379.5049" cy="-25.4558" rx="68.5454" ry="25.4118"/>
<text text-anchor="middle" x="379.5049" y="-28.2558" font-family="Times,serif" font-size="14.00" fill="#000000">A place to live</text>
<text text-anchor="middle" x="379.5049" y="-14.2558" font-family="Times,serif" font-size="14.00" fill="#000000">2019&#45;01&#45;21</text>
</g>
<!-- name_on_postbox -->
<g id="node7" class="node">
<title>name_on_postbox</title>
<ellipse fill="#00ff00" stroke="#000000" cx="211.5049" cy="-122.267" rx="66.9194" ry="35.2113"/>
<text text-anchor="middle" x="211.5049" y="-132.067" font-family="Times,serif" font-size="14.00" fill="#000000">Your name on</text>
<text text-anchor="middle" x="211.5049" y="-118.067" font-family="Times,serif" font-size="14.00" fill="#000000">your postbox</text>
<text text-anchor="middle" x="211.5049" y="-104.067" font-family="Times,serif" font-size="14.00" fill="#000000">2019&#45;01&#45;22</text>
</g>
<!-- name_on_postbox&#45;&gt;place_to_live -->
<g id="edge2" class="edge">
<title>name_on_postbox&#45;&gt;place_to_live</title>
<path fill="none" stroke="#000000" d="M256.9681,-96.0685C280.6642,-82.4135 309.5838,-65.7484 333.3765,-52.0376"/>
<polygon fill="#000000" stroke="#000000" points="335.3059,-54.9654 342.2227,-46.94 331.8108,-48.9004 335.3059,-54.9654"/>
</g>
<!-- can_receive_post -->
<g id="node8" class="node">
<title>can_receive_post</title>
<ellipse fill="#00ff00" stroke="#000000" cx="251.5049" cy="-228.9777" rx="99.6266" ry="25.4118"/>
<text text-anchor="middle" x="251.5049" y="-231.7777" font-family="Times,serif" font-size="14.00" fill="#000000">Ability to receive post</text>
<text text-anchor="middle" x="251.5049" y="-217.7777" font-family="Times,serif" font-size="14.00" fill="#000000">2019&#45;01&#45;22</text>
</g>
<!-- can_receive_post&#45;&gt;place_to_live -->
<g id="edge3" class="edge">
<title>can_receive_post&#45;&gt;place_to_live</title>
<path fill="none" stroke="#000000" d="M264.371,-203.4706C283.5904,-165.494 318.3151,-97.4083 325.5049,-86.9117 332.5279,-76.6586 341.0585,-66.2349 349.2458,-56.955"/>
<polygon fill="#000000" stroke="#000000" points="351.9075,-59.2296 356.0017,-49.4578 346.7073,-54.5436 351.9075,-59.2296"/>
</g>
<!-- can_receive_post&#45;&gt;name_on_postbox -->
<g id="edge4" class="edge">
<title>can_receive_post&#45;&gt;name_on_postbox</title>
<path fill="none" stroke="#000000" d="M241.9239,-203.4178C237.7983,-192.4117 232.8521,-179.2163 228.1589,-166.6959"/>
<polygon fill="#000000" stroke="#000000" points="231.4244,-165.4357 224.637,-157.3005 224.8697,-167.8927 231.4244,-165.4357"/>
</g>
<!-- pendlerkort -->
<g id="node9" class="node">
<title>pendlerkort</title>
<ellipse fill="#00ff00" stroke="#000000" cx="57.5049" cy="-606.3229" rx="57.5098" ry="25.4118"/>
<text text-anchor="middle" x="57.5049" y="-609.1229" font-family="Times,serif" font-size="14.00" fill="#000000">Pendlerkort</text>
<text text-anchor="middle" x="57.5049" y="-595.1229" font-family="Times,serif" font-size="14.00" fill="#000000">2019&#45;02&#45;05</text>
</g>
<!-- pendlerkort&#45;&gt;place_to_live -->
<g id="edge5" class="edge">
<title>pendlerkort&#45;&gt;place_to_live</title>
<path fill="none" stroke="#000000" d="M64.3124,-580.9761C73.1636,-545.7332 87.5049,-479.8043 87.5049,-422.6001 87.5049,-422.6001 87.5049,-422.6001 87.5049,-228.9777 87.5049,-162.3307 86.552,-132.1382 135.5049,-86.9117 160.0863,-64.2014 242.6491,-46.6613 304.9821,-36.2377"/>
<polygon fill="#000000" stroke="#000000" points="305.8891,-39.6358 315.1908,-34.5634 304.7561,-32.7281 305.8891,-39.6358"/>
</g>
<!-- eu_residence_document_application -->
<g id="node10" class="node">
<title>eu_residence_document_application</title>
<ellipse fill="#00ff00" stroke="#000000" cx="551.5049" cy="-228.9777" rx="105.7427" ry="35.2113"/>
<text text-anchor="middle" x="551.5049" y="-238.7777" font-family="Times,serif" font-size="14.00" fill="#000000">Application for</text>
<text text-anchor="middle" x="551.5049" y="-224.7777" font-family="Times,serif" font-size="14.00" fill="#000000">EU residence document</text>
<text text-anchor="middle" x="551.5049" y="-210.7777" font-family="Times,serif" font-size="14.00" fill="#000000">2019&#45;01&#45;23</text>
</g>
<!-- eu_residence_document_application&#45;&gt;proof_of_work -->
<g id="edge7" class="edge">
<title>eu_residence_document_application&#45;&gt;proof_of_work</title>
<path fill="none" stroke="#000000" d="M627.2928,-204.0935C684.6806,-185.2507 762.4735,-159.7082 815.7917,-142.2016"/>
<polygon fill="#000000" stroke="#000000" points="817.043,-145.4747 825.4521,-139.0297 814.8593,-138.824 817.043,-145.4747"/>
</g>
<!-- eu_residence_document_application&#45;&gt;passport -->
<g id="edge8" class="edge">
<title>eu_residence_document_application&#45;&gt;passport</title>
<path fill="none" stroke="#000000" d="M501.293,-197.8257C474.8879,-181.4437 443.0044,-161.6628 418.4843,-146.4502"/>
<polygon fill="#000000" stroke="#000000" points="420.1501,-143.3649 409.8074,-141.0671 416.4597,-149.3131 420.1501,-143.3649"/>
</g>
<!-- eu_residence_document_application&#45;&gt;place_to_live -->
<g id="edge6" class="edge">
<title>eu_residence_document_application&#45;&gt;place_to_live</title>
<path fill="none" stroke="#000000" d="M509.3701,-196.2811C496.293,-184.9104 482.4534,-171.5049 471.5049,-157.6224 449.4116,-129.6085 453.856,-116.2156 433.5049,-86.9117 426.4159,-76.7042 417.8644,-66.2948 409.6782,-57.0142"/>
<polygon fill="#000000" stroke="#000000" points="412.2189,-54.6051 402.9279,-49.5131 407.0156,-59.2877 412.2189,-54.6051"/>
</g>
<!-- od1_form -->
<g id="node11" class="node">
<title>od1_form</title>
<ellipse fill="#00ff00" stroke="#000000" cx="695.5049" cy="-122.267" rx="57.5098" ry="25.4118"/>
<text text-anchor="middle" x="695.5049" y="-125.067" font-family="Times,serif" font-size="14.00" fill="#000000">OD1 form</text>
<text text-anchor="middle" x="695.5049" y="-111.067" font-family="Times,serif" font-size="14.00" fill="#000000">2019&#45;01&#45;22</text>
</g>
<!-- eu_residence_document_application&#45;&gt;od1_form -->
<g id="edge9" class="edge">
<title>eu_residence_document_application&#45;&gt;od1_form</title>
<path fill="none" stroke="#000000" d="M595.1004,-196.6714C615.0024,-181.9232 638.3526,-164.6195 657.5243,-150.4124"/>
<polygon fill="#000000" stroke="#000000" points="659.7857,-153.0929 665.7363,-144.327 655.618,-147.4688 659.7857,-153.0929"/>
</g>
<!-- passport_photo -->
<g id="node12" class="node">
<title>passport_photo</title>
<ellipse fill="#00ff00" stroke="#000000" cx="550.5049" cy="-122.267" rx="69.7781" ry="25.4118"/>
<text text-anchor="middle" x="550.5049" y="-125.067" font-family="Times,serif" font-size="14.00" fill="#000000">Passport photo</text>
<text text-anchor="middle" x="550.5049" y="-111.067" font-family="Times,serif" font-size="14.00" fill="#000000">2019&#45;01&#45;23</text>
</g>
<!-- eu_residence_document_application&#45;&gt;passport_photo -->
<g id="edge10" class="edge">
<title>eu_residence_document_application&#45;&gt;passport_photo</title>
<path fill="none" stroke="#000000" d="M551.1719,-193.4446C551.0649,-182.0254 550.9464,-169.3758 550.8393,-157.9462"/>
<polygon fill="#000000" stroke="#000000" points="554.3384,-157.8297 550.7448,-147.8629 547.3387,-157.8953 554.3384,-157.8297"/>
</g>
<!-- eu_residence_document -->
<g id="node13" class="node">
<title>eu_residence_document</title>
<ellipse fill="#00ff00" stroke="#000000" cx="551.5049" cy="-325.7889" rx="105.7427" ry="25.4118"/>
<text text-anchor="middle" x="551.5049" y="-328.5889" font-family="Times,serif" font-size="14.00" fill="#000000">EU residence document</text>
<text text-anchor="middle" x="551.5049" y="-314.5889" font-family="Times,serif" font-size="14.00" fill="#000000">2019&#45;01&#45;31</text>
</g>
<!-- eu_residence_document&#45;&gt;can_receive_post -->
<g id="edge12" class="edge">
<title>eu_residence_document&#45;&gt;can_receive_post</title>
<path fill="none" stroke="#000000" d="M488.2492,-305.376C439.9808,-289.7996 373.454,-268.3312 323.211,-252.1175"/>
<polygon fill="#000000" stroke="#000000" points="323.9814,-248.6885 313.3897,-248.9482 321.8316,-255.3502 323.9814,-248.6885"/>
</g>
<!-- eu_residence_document&#45;&gt;eu_residence_document_application -->
<g id="edge11" class="edge">
<title>eu_residence_document&#45;&gt;eu_residence_document_application</title>
<path fill="none" stroke="#ff0000" d="M551.5049,-300.0994C551.5049,-292.2885 551.5049,-283.4571 551.5049,-274.7403"/>
<polygon fill="#ff0000" stroke="#ff0000" points="555.005,-274.6281 551.5049,-264.6281 548.005,-274.6282 555.005,-274.6281"/>
</g>
<!-- cpr_number_application -->
<g id="node14" class="node">
<title>cpr_number_application</title>
<ellipse fill="#00ff00" stroke="#000000" cx="622.5049" cy="-422.6001" rx="72.138" ry="35.2113"/>
<text text-anchor="middle" x="622.5049" y="-432.4001" font-family="Times,serif" font-size="14.00" fill="#000000">Application for</text>
<text text-anchor="middle" x="622.5049" y="-418.4001" font-family="Times,serif" font-size="14.00" fill="#000000">CPR number</text>
<text text-anchor="middle" x="622.5049" y="-404.4001" font-family="Times,serif" font-size="14.00" fill="#000000">2019&#45;02&#45;06</text>
</g>
<!-- cpr_number_application&#45;&gt;proof_of_work -->
<g id="edge14" class="edge">
<title>cpr_number_application&#45;&gt;proof_of_work</title>
<path fill="none" stroke="#000000" d="M688.5199,-408.3969C743.8582,-395.1381 816.8904,-374.0211 836.5049,-351.2447 860.9859,-322.8175 871.0061,-214.9007 874.6573,-157.9526"/>
<polygon fill="#000000" stroke="#000000" points="878.1525,-158.1373 875.2671,-147.943 871.1654,-157.7116 878.1525,-158.1373"/>
</g>
<!-- cpr_number_application&#45;&gt;passport -->
<g id="edge16" class="edge">
<title>cpr_number_application&#45;&gt;passport</title>
<path fill="none" stroke="#000000" d="M553.3342,-412.2333C513.794,-402.7964 466.295,-384.922 436.5049,-351.2447 423.6438,-336.7054 398.5821,-218.1809 386.4356,-157.6163"/>
<polygon fill="#000000" stroke="#000000" points="389.85,-156.8409 384.4621,-147.7184 382.9851,-158.2098 389.85,-156.8409"/>
</g>
<!-- cpr_number_application&#45;&gt;eu_residence_document -->
<g id="edge13" class="edge">
<title>cpr_number_application&#45;&gt;eu_residence_document</title>
<path fill="none" stroke="#000000" d="M598.0707,-389.2832C590.935,-379.5534 583.1366,-368.9199 575.9973,-359.1852"/>
<polygon fill="#000000" stroke="#000000" points="578.6626,-356.9011 569.9263,-350.9071 573.0179,-361.0409 578.6626,-356.9011"/>
</g>
<!-- proof_of_address -->
<g id="node15" class="node">
<title>proof_of_address</title>
<ellipse fill="#00ff00" stroke="#000000" cx="751.5049" cy="-325.7889" rx="76.3945" ry="25.4118"/>
<text text-anchor="middle" x="751.5049" y="-328.5889" font-family="Times,serif" font-size="14.00" fill="#000000">Proof of address</text>
<text text-anchor="middle" x="751.5049" y="-314.5889" font-family="Times,serif" font-size="14.00" fill="#000000">2019&#45;01&#45;21</text>
</g>
<!-- cpr_number_application&#45;&gt;proof_of_address -->
<g id="edge15" class="edge">
<title>cpr_number_application&#45;&gt;proof_of_address</title>
<path fill="none" stroke="#000000" d="M662.2618,-392.7636C678.1481,-380.8413 696.3948,-367.1476 712.2326,-355.2617"/>
<polygon fill="#000000" stroke="#000000" points="714.3726,-358.0318 720.2699,-349.23 710.1708,-352.4331 714.3726,-358.0318"/>
</g>
<!-- proof_of_address&#45;&gt;place_to_live -->
<g id="edge19" class="edge">
<title>proof_of_address&#45;&gt;place_to_live</title>
<path fill="none" stroke="#000000" d="M762.6188,-300.5879C781.8345,-252.6972 814.4804,-147.892 762.5049,-86.9117 742.9058,-63.917 562.5685,-42.9607 456.4856,-32.485"/>
<polygon fill="#000000" stroke="#000000" points="456.7525,-28.9945 446.4593,-31.5042 456.071,-35.9613 456.7525,-28.9945"/>
</g>
<!-- cpr_number -->
<g id="node16" class="node">
<title>cpr_number</title>
<ellipse fill="#00ff00" stroke="#000000" cx="622.5049" cy="-519.4113" rx="62.9806" ry="25.4118"/>
<text text-anchor="middle" x="622.5049" y="-522.2113" font-family="Times,serif" font-size="14.00" fill="#000000">CPR number</text>
<text text-anchor="middle" x="622.5049" y="-508.2113" font-family="Times,serif" font-size="14.00" fill="#000000">2019&#45;02&#45;06</text>
</g>
<!-- cpr_number&#45;&gt;can_receive_post -->
<g id="edge18" class="edge">
<title>cpr_number&#45;&gt;can_receive_post</title>
<path fill="none" stroke="#000000" d="M592.3954,-496.784C577.1003,-485.2348 558.2556,-470.9209 541.5049,-457.9554 450.7921,-387.7409 345.3097,-303.8943 289.9524,-259.7196"/>
<polygon fill="#000000" stroke="#000000" points="291.831,-256.7408 281.8322,-253.2373 287.4638,-262.2115 291.831,-256.7408"/>
</g>
<!-- cpr_number&#45;&gt;cpr_number_application -->
<g id="edge17" class="edge">
<title>cpr_number&#45;&gt;cpr_number_application</title>
<path fill="none" stroke="#ff0000" d="M622.5049,-493.7218C622.5049,-485.9109 622.5049,-477.0794 622.5049,-468.3626"/>
<polygon fill="#ff0000" stroke="#ff0000" points="626.005,-468.2505 622.5049,-458.2505 619.005,-468.2505 626.005,-468.2505"/>
</g>
<!-- skattekort -->
<g id="node17" class="node">
<title>skattekort</title>
<ellipse fill="none" stroke="#000000" cx="819.5049" cy="-606.3229" rx="46.4132" ry="18"/>
<text text-anchor="middle" x="819.5049" y="-602.1229" font-family="Times,serif" font-size="14.00" fill="#000000">Skattekort</text>
</g>
<!-- skattekort&#45;&gt;cpr_number -->
<g id="edge20" class="edge">
<title>skattekort&#45;&gt;cpr_number</title>
<path fill="none" stroke="#000000" stroke-dasharray="1,5" d="M788.7237,-592.743C758.2268,-579.2885 710.9438,-558.4284 674.5931,-542.3913"/>
<polygon fill="#000000" stroke="#000000" points="675.6916,-539.0505 665.1296,-538.2163 672.8661,-545.4549 675.6916,-539.0505"/>
</g>
<!-- nemid_application -->
<g id="node18" class="node">
<title>nemid_application</title>
<ellipse fill="none" stroke="#000000" cx="483.5049" cy="-606.3229" rx="72.138" ry="25.4118"/>
<text text-anchor="middle" x="483.5049" y="-609.1229" font-family="Times,serif" font-size="14.00" fill="#000000">Application for</text>
<text text-anchor="middle" x="483.5049" y="-595.1229" font-family="Times,serif" font-size="14.00" fill="#000000">Nemid</text>
</g>
<!-- nemid_application&#45;&gt;cpr_number -->
<g id="edge21" class="edge">
<title>nemid_application&#45;&gt;cpr_number</title>
<path fill="none" stroke="#000000" d="M519.3009,-583.941C537.7163,-572.4265 560.2974,-558.3073 579.637,-546.215"/>
<polygon fill="#000000" stroke="#000000" points="581.6445,-549.0877 588.268,-540.8184 577.9334,-543.1524 581.6445,-549.0877"/>
</g>
<!-- nemid -->
<g id="node19" class="node">
<title>nemid</title>
<ellipse fill="none" stroke="#000000" cx="645.5049" cy="-693.2346" rx="34.3527" ry="18"/>
<text text-anchor="middle" x="645.5049" y="-689.0346" font-family="Times,serif" font-size="14.00" fill="#000000">Nemid</text>
</g>
<!-- nemid&#45;&gt;nemid_application -->
<g id="edge22" class="edge">
<title>nemid&#45;&gt;nemid_application</title>
<path fill="none" stroke="#000000" d="M621.2519,-680.2231C597.8143,-667.649 561.6382,-648.2408 532.2401,-632.469"/>
<polygon fill="#000000" stroke="#000000" points="533.8225,-629.3461 523.3558,-627.7026 530.5131,-635.5144 533.8225,-629.3461"/>
</g>
<!-- danish_bank_account -->
<g id="node20" class="node">
<title>danish_bank_account</title>
<ellipse fill="none" stroke="#000000" cx="608.5049" cy="-772.6905" rx="84.041" ry="18"/>
<text text-anchor="middle" x="608.5049" y="-768.4905" font-family="Times,serif" font-size="14.00" fill="#000000">Danish bank account</text>
</g>
<!-- danish_bank_account&#45;&gt;proof_of_work -->
<g id="edge24" class="edge">
<title>danish_bank_account&#45;&gt;proof_of_work</title>
<path fill="none" stroke="#000000" d="M641.5826,-755.8689C657.3484,-746.5801 675.5459,-733.8461 688.5049,-718.6905 717.8007,-684.4288 846.0462,-393.9419 860.5049,-351.2447 883.137,-284.4113 880.9872,-264.1683 879.5049,-193.6224 879.2616,-182.0435 878.7965,-169.4147 878.3038,-158.0436"/>
<polygon fill="#000000" stroke="#000000" points="881.7987,-157.8516 877.8491,-148.0206 874.8059,-158.1689 881.7987,-157.8516"/>
</g>
<!-- danish_bank_account&#45;&gt;passport -->
<g id="edge26" class="edge">
<title>danish_bank_account&#45;&gt;passport</title>
<path fill="none" stroke="#000000" d="M599.1346,-754.6378C586.0252,-731.1526 560.0088,-690.4531 526.5049,-667.7788 478.979,-635.6148 439.4252,-675.712 402.5049,-631.7788 342.3324,-560.1766 379.5049,-516.1287 379.5049,-422.6001 379.5049,-422.6001 379.5049,-422.6001 379.5049,-325.7889 379.5049,-267.0812 379.5049,-198.8477 379.5049,-158.1837"/>
<polygon fill="#000000" stroke="#000000" points="383.005,-157.9692 379.5049,-147.9693 376.005,-157.9693 383.005,-157.9692"/>
</g>
<!-- danish_bank_account&#45;&gt;danish_phone_number -->
<g id="edge27" class="edge">
<title>danish_bank_account&#45;&gt;danish_phone_number</title>
<path fill="none" stroke="#000000" d="M570.0556,-756.6114C544.2244,-745.8091 509.623,-731.3392 480.0042,-718.953"/>
<polygon fill="#000000" stroke="#000000" points="481.1564,-715.6411 470.5803,-715.012 478.4557,-722.0992 481.1564,-715.6411"/>
</g>
<!-- danish_bank_account&#45;&gt;cpr_number -->
<g id="edge23" class="edge">
<title>danish_bank_account&#45;&gt;cpr_number</title>
<path fill="none" stroke="#000000" d="M605.9431,-754.2383C604.6259,-743.8243 603.1622,-730.5575 602.5049,-718.6905 599.3189,-661.1656 608.6355,-594.6236 615.605,-554.8352"/>
<polygon fill="#000000" stroke="#000000" points="619.0781,-555.2972 617.4066,-544.835 612.189,-554.056 619.0781,-555.2972"/>
</g>
<!-- danish_bank_account&#45;&gt;nemid -->
<g id="edge25" class="edge">
<title>danish_bank_account&#45;&gt;nemid</title>
<path fill="none" stroke="#000000" stroke-dasharray="1,5" d="M616.9008,-754.6607C621.6648,-744.4302 627.7183,-731.4306 633.0285,-720.0271"/>
<polygon fill="#000000" stroke="#000000" points="636.2211,-721.4622 637.2697,-710.9193 629.8754,-718.5071 636.2211,-721.4622"/>
</g>
<!-- activated_nemid -->
<g id="node21" class="node">
<title>activated_nemid</title>
<ellipse fill="none" stroke="#000000" cx="386.5049" cy="-772.6905" rx="70.5271" ry="18"/>
<text text-anchor="middle" x="386.5049" y="-768.4905" font-family="Times,serif" font-size="14.00" fill="#000000">Activated Nemid</text>
</g>
<!-- activated_nemid&#45;&gt;danish_phone_number -->
<g id="edge29" class="edge">
<title>activated_nemid&#45;&gt;danish_phone_number</title>
<path fill="none" stroke="#000000" d="M393.7662,-754.6607C396.9414,-746.7768 400.7788,-737.2484 404.474,-728.0732"/>
<polygon fill="#000000" stroke="#000000" points="407.7503,-729.3069 408.2396,-718.7233 401.2571,-726.6918 407.7503,-729.3069"/>
</g>
<!-- activated_nemid&#45;&gt;nemid -->
<g id="edge28" class="edge">
<title>activated_nemid&#45;&gt;nemid</title>
<path fill="none" stroke="#000000" d="M431.9156,-758.7594C481.2493,-743.6248 559.2678,-719.6904 606.1071,-705.3211"/>
<polygon fill="#000000" stroke="#000000" points="607.3567,-708.5988 615.8905,-702.3197 605.3037,-701.9066 607.3567,-708.5988"/>
</g>
<!-- noglekort -->
<g id="node22" class="node">
<title>noglekort</title>
<ellipse fill="none" stroke="#000000" cx="255.5049" cy="-693.2346" rx="45.9286" ry="18"/>
<text text-anchor="middle" x="255.5049" y="-689.0346" font-family="Times,serif" font-size="14.00" fill="#000000">Nøglekort</text>
</g>
<!-- activated_nemid&#45;&gt;noglekort -->
<g id="edge30" class="edge">
<title>activated_nemid&#45;&gt;noglekort</title>
<path fill="none" stroke="#000000" d="M359.043,-756.0339C338.7332,-743.7153 310.9565,-726.8678 289.286,-713.724"/>
<polygon fill="#000000" stroke="#000000" points="291.0774,-710.7171 280.7121,-708.5236 287.4472,-716.7022 291.0774,-710.7171"/>
</g>
<!-- noglekort&#45;&gt;can_receive_post -->
<g id="edge32" class="edge">
<title>noglekort&#45;&gt;can_receive_post</title>
<path fill="none" stroke="#000000" stroke-dasharray="1,5" d="M255.1565,-674.9666C254.5835,-643.2973 253.5049,-576.149 253.5049,-519.4113 253.5049,-519.4113 253.5049,-519.4113 253.5049,-422.6001 253.5049,-367.5972 252.6879,-303.8101 252.0983,-264.9352"/>
<polygon fill="#000000" stroke="#000000" points="255.5937,-264.6036 251.9389,-254.6592 248.5945,-264.7123 255.5937,-264.6036"/>
</g>
<!-- noglekort&#45;&gt;nemid_application -->
<g id="edge31" class="edge">
<title>noglekort&#45;&gt;nemid_application</title>
<path fill="none" stroke="#ff0000" stroke-dasharray="1,5" d="M284.6848,-679.1218C292.9624,-675.2847 302.0294,-671.237 310.5049,-667.7788 346.6317,-653.0382 387.7665,-638.3425 420.8588,-627.0193"/>
<polygon fill="#ff0000" stroke="#ff0000" points="422.0723,-630.3036 430.4111,-623.7679 419.8166,-623.6769 422.0723,-630.3036"/>
</g>
<!-- ehic -->
<g id="node23" class="node">
<title>ehic</title>
<ellipse fill="none" stroke="#000000" cx="968.5049" cy="-772.6905" rx="58.0063" ry="18"/>
<text text-anchor="middle" x="968.5049" y="-768.4905" font-family="Times,serif" font-size="14.00" fill="#000000">Danish EHIC</text>
</g>
<!-- ehic&#45;&gt;place_to_live -->
<g id="edge35" class="edge">
<title>ehic&#45;&gt;place_to_live</title>
<path fill="none" stroke="#000000" d="M969.0552,-754.2283C969.9212,-723.5317 971.5049,-660.0545 971.5049,-606.3229 971.5049,-606.3229 971.5049,-606.3229 971.5049,-228.9777 971.5049,-165.2751 998.1336,-131.3644 952.5049,-86.9117 917.7627,-53.0649 606.8661,-35.2323 458.1227,-28.5739"/>
<polygon fill="#000000" stroke="#000000" points="458.2765,-25.0773 448.1318,-28.1325 457.9675,-32.0705 458.2765,-25.0773"/>
</g>
<!-- ehic&#45;&gt;cpr_number -->
<g id="edge33" class="edge">
<title>ehic&#45;&gt;cpr_number</title>
<path fill="none" stroke="#000000" d="M963.8713,-754.6514C952.0542,-709.2385 920.7915,-592.9417 907.5049,-580.8671 876.6927,-552.8655 767.786,-535.4737 693.8804,-526.6192"/>
<polygon fill="#000000" stroke="#000000" points="694.0354,-523.1135 683.6961,-525.4263 693.221,-530.066 694.0354,-523.1135"/>
</g>
<!-- ehic&#45;&gt;nemid -->
<g id="edge34" class="edge">
<title>ehic&#45;&gt;nemid</title>
<path fill="none" stroke="#000000" d="M922.912,-761.4749C859.9518,-745.9871 747.3189,-718.2802 686.7471,-703.3799"/>
<polygon fill="#000000" stroke="#000000" points="687.3236,-699.9175 676.777,-700.9274 685.6515,-706.7148 687.3236,-699.9175"/>
</g>
<!-- doctor -->
<g id="node24" class="node">
<title>doctor</title>
<ellipse fill="none" stroke="#000000" cx="882.5049" cy="-844.6905" rx="34.8285" ry="18"/>
<text text-anchor="middle" x="882.5049" y="-840.4905" font-family="Times,serif" font-size="14.00" fill="#000000">Doctor</text>
</g>
<!-- doctor&#45;&gt;cpr_number -->
<g id="edge36" class="edge">
<title>doctor&#45;&gt;cpr_number</title>
<path fill="none" stroke="#000000" d="M884.6714,-826.5826C890.6391,-773.2973 904.9391,-618.4291 874.5049,-580.8671 851.9217,-552.9948 759.8436,-536.0121 693.5176,-527.1602"/>
<polygon fill="#000000" stroke="#000000" points="693.8873,-523.6789 683.5196,-525.8609 692.9852,-530.6206 693.8873,-523.6789"/>
</g>
<!-- get_paid -->
<g id="node25" class="node">
<title>get_paid</title>
<ellipse fill="none" stroke="#000000" cx="782.5049" cy="-844.6905" rx="40.1247" ry="18"/>
<text text-anchor="middle" x="782.5049" y="-840.4905" font-family="Times,serif" font-size="14.00" fill="#000000">Get paid</text>
</g>
<!-- get_paid&#45;&gt;job -->
<g id="edge37" class="edge">
<title>get_paid&#45;&gt;job</title>
<path fill="none" stroke="#000000" d="M814.5757,-833.5911C822.3516,-831.12 830.68,-828.6541 838.5049,-826.6905 924.8336,-805.0263 972.1984,-853.2545 1035.5049,-790.6905 1066.8925,-759.671 1054.5049,-737.3638 1054.5049,-693.2346 1054.5049,-693.2346 1054.5049,-693.2346 1054.5049,-228.9777 1054.5049,-164.0841 1016.0509,-96.5669 989.696,-57.9135"/>
<polygon fill="#000000" stroke="#000000" points="992.5313,-55.8604 983.9458,-49.6524 986.786,-59.8594 992.5313,-55.8604"/>
</g>
<!-- get_paid&#45;&gt;skattekort -->
<g id="edge38" class="edge">
<title>get_paid&#45;&gt;skattekort</title>
<path fill="none" stroke="#000000" d="M785.3468,-826.382C791.779,-784.9436 807.4872,-683.7454 815.1532,-634.3581"/>
<polygon fill="#000000" stroke="#000000" points="818.6286,-634.7861 816.704,-624.3675 811.7115,-633.7123 818.6286,-634.7861"/>
</g>
<!-- get_paid&#45;&gt;nemid -->
<g id="edge40" class="edge">
<title>get_paid&#45;&gt;nemid</title>
<path fill="none" stroke="#000000" d="M767.3085,-827.7431C751.0543,-809.6306 724.5052,-780.0884 701.5049,-754.6905 690.2472,-742.2592 677.673,-728.4529 667.2963,-717.0804"/>
<polygon fill="#000000" stroke="#000000" points="669.8336,-714.6685 660.5067,-709.6427 664.6638,-719.3879 669.8336,-714.6685"/>
</g>
<!-- get_paid&#45;&gt;danish_bank_account -->
<g id="edge39" class="edge">
<title>get_paid&#45;&gt;danish_bank_account</title>
<path fill="none" stroke="#000000" d="M752.5932,-832.3132C726.1761,-821.382 687.1861,-805.2482 656.4245,-792.5193"/>
<polygon fill="#000000" stroke="#000000" points="657.7435,-789.2773 647.165,-788.6878 655.067,-795.7454 657.7435,-789.2773"/>
</g>
<!-- danish_lessions -->
<g id="node26" class="node">
<title>danish_lessions</title>
<ellipse fill="none" stroke="#000000" cx="468.5049" cy="-924.1463" rx="62.8431" ry="18"/>
<text text-anchor="middle" x="468.5049" y="-919.9463" font-family="Times,serif" font-size="14.00" fill="#000000">Danish lessons</text>
</g>
<!-- danish_lessions&#45;&gt;cpr_number -->
<g id="edge41" class="edge">
<title>danish_lessions&#45;&gt;cpr_number</title>
<path fill="none" stroke="#000000" d="M420.55,-912.4236C330.1458,-888.9161 143.5049,-833.0726 143.5049,-772.6905 143.5049,-772.6905 143.5049,-772.6905 143.5049,-693.2346 143.5049,-607.1226 420.5116,-551.458 553.219,-529.7313"/>
<polygon fill="#000000" stroke="#000000" points="553.9769,-533.1543 563.2897,-528.1024 552.8591,-526.2441 553.9769,-533.1543"/>
</g>
<!-- danish_bank_card -->
<g id="node27" class="node">
<title>danish_bank_card</title>
<ellipse fill="none" stroke="#000000" cx="473.5049" cy="-844.6905" rx="71.979" ry="18"/>
<text text-anchor="middle" x="473.5049" y="-840.4905" font-family="Times,serif" font-size="14.00" fill="#000000">Danish bank card</text>
</g>
<!-- danish_lessions&#45;&gt;danish_bank_card -->
<g id="edge42" class="edge">
<title>danish_lessions&#45;&gt;danish_bank_card</title>
<path fill="none" stroke="#000000" d="M469.6395,-906.1166C470.2552,-896.3318 471.0304,-884.0139 471.7246,-872.9821"/>
<polygon fill="#000000" stroke="#000000" points="475.2225,-873.124 472.3575,-862.9239 468.2363,-872.6843 475.2225,-873.124"/>
</g>
<!-- danish_bank_card&#45;&gt;can_receive_post -->
<g id="edge44" class="edge">
<title>danish_bank_card&#45;&gt;can_receive_post</title>
<path fill="none" stroke="#000000" d="M405.0439,-838.9116C318.7375,-827.4469 181.5049,-793.4592 181.5049,-693.2346 181.5049,-693.2346 181.5049,-693.2346 181.5049,-422.6001 181.5049,-363.9458 210.2658,-300.9317 230.9166,-263.2463"/>
<polygon fill="#000000" stroke="#000000" points="234.1344,-264.6637 235.9696,-254.229 228.0278,-261.2417 234.1344,-264.6637"/>
</g>
<!-- danish_bank_card&#45;&gt;danish_bank_account -->
<g id="edge43" class="edge">
<title>danish_bank_card&#45;&gt;danish_bank_account</title>
<path fill="none" stroke="#ff0000" d="M504.1385,-828.3526C523.0279,-818.2782 547.4737,-805.2405 567.9573,-794.3159"/>
<polygon fill="#ff0000" stroke="#ff0000" points="569.8792,-797.2576 577.0557,-789.4634 566.5851,-791.0811 569.8792,-797.2576"/>
</g>
<!-- spend_lovely_dkk -->
<g id="node28" class="node">
<title>spend_lovely_dkk</title>
<ellipse fill="none" stroke="#000000" cx="731.5049" cy="-924.1463" rx="99.0344" ry="18"/>
<text text-anchor="middle" x="731.5049" y="-919.9463" font-family="Times,serif" font-size="14.00" fill="#000000">Spend your lovely DKK!</text>
</g>
<!-- spend_lovely_dkk&#45;&gt;get_paid -->
<g id="edge45" class="edge">
<title>spend_lovely_dkk&#45;&gt;get_paid</title>
<path fill="none" stroke="#000000" d="M743.0776,-906.1166C749.8224,-895.6085 758.4423,-882.179 765.9012,-870.5583"/>
<polygon fill="#000000" stroke="#000000" points="768.8722,-872.409 771.3285,-862.1028 762.9813,-868.6278 768.8722,-872.409"/>
</g>
<!-- spend_lovely_dkk&#45;&gt;danish_bank_card -->
<g id="edge46" class="edge">
<title>spend_lovely_dkk&#45;&gt;danish_bank_card</title>
<path fill="none" stroke="#000000" d="M680.8402,-908.5432C637.0901,-895.0696 573.9933,-875.6377 528.9133,-861.7545"/>
<polygon fill="#000000" stroke="#000000" points="529.883,-858.391 519.2957,-858.7926 527.8226,-865.0809 529.883,-858.391"/>
</g>
<!-- mobilepay -->
<g id="node29" class="node">
<title>mobilepay</title>
<ellipse fill="none" stroke="#000000" cx="611.5049" cy="-844.6905" rx="48.3427" ry="18"/>
<text text-anchor="middle" x="611.5049" y="-840.4905" font-family="Times,serif" font-size="14.00" fill="#000000">Mobilepay</text>
</g>
<!-- mobilepay&#45;&gt;danish_phone_number -->
<g id="edge48" class="edge">
<title>mobilepay&#45;&gt;danish_phone_number</title>
<path fill="none" stroke="#000000" d="M581.2114,-830.3748C561.628,-820.4774 536.055,-806.3149 515.5049,-790.6905 490.3408,-771.558 465.2557,-746.1426 446.9011,-726.0635"/>
<polygon fill="#000000" stroke="#000000" points="449.2615,-723.455 439.963,-718.3766 444.0651,-728.1452 449.2615,-723.455"/>
</g>
<!-- mobilepay&#45;&gt;cpr_number -->
<g id="edge47" class="edge">
<title>mobilepay&#45;&gt;cpr_number</title>
<path fill="none" stroke="#000000" d="M648.3467,-832.7143C667.8642,-824.2755 690.1031,-810.8283 701.5049,-790.6905 746.2628,-711.6395 684.9237,-604.997 647.5665,-552.0503"/>
<polygon fill="#000000" stroke="#000000" points="650.2547,-549.7937 641.5729,-543.721 644.5728,-553.8823 650.2547,-549.7937"/>
</g>
<!-- mobilepay&#45;&gt;danish_bank_account -->
<g id="edge49" class="edge">
<title>mobilepay&#45;&gt;danish_bank_account</title>
<path fill="none" stroke="#000000" d="M610.7479,-826.5218C610.427,-818.8214 610.0455,-809.6648 609.6889,-801.1071"/>
<polygon fill="#000000" stroke="#000000" points="613.1855,-800.9493 609.2721,-791.1037 606.1916,-801.2408 613.1855,-800.9493"/>
</g>
<!-- hygge -->
<g id="node30" class="node">
<title>hygge</title>
<ellipse fill="none" stroke="#000000" cx="772.5049" cy="-1223.5004" rx="101.1913" ry="21.7969"/>
<text text-anchor="middle" x="772.5049" y="-1223.7848" font-family="Times,serif" font-size="14.00" fill="#000000">🇩🇰 😊 Hygge 😊 🇩🇰</text>
</g>
<!-- magi4 -->
<g id="node31" class="node">
<title>magi4</title>
<ellipse fill="none" stroke="#000000" cx="828.5049" cy="-1003.6022" rx="27" ry="18"/>
<text text-anchor="middle" x="828.5049" y="-999.4022" font-family="Times,serif" font-size="14.00" fill="#000000">????</text>
</g>
<!-- hygge&#45;&gt;magi4 -->
<g id="edge50" class="edge">
<title>hygge&#45;&gt;magi4</title>
<path fill="none" stroke="#000000" stroke-dasharray="5,2" d="M778.0791,-1201.6118C788.3239,-1161.3832 810.1277,-1075.7649 821.4109,-1031.4587"/>
<polygon fill="#000000" stroke="#000000" points="824.8341,-1032.1985 823.9103,-1021.6441 818.0506,-1030.471 824.8341,-1032.1985"/>
</g>
<!-- magi1 -->
<g id="node32" class="node">
<title>magi1</title>
<ellipse fill="none" stroke="#000000" cx="745.5049" cy="-1147.6022" rx="27" ry="18"/>
<text text-anchor="middle" x="745.5049" y="-1143.4022" font-family="Times,serif" font-size="14.00" fill="#000000">?</text>
</g>
<!-- hygge&#45;&gt;magi1 -->
<g id="edge51" class="edge">
<title>hygge&#45;&gt;magi1</title>
<path fill="none" stroke="#000000" d="M764.6954,-1201.5475C761.708,-1193.1498 758.2656,-1183.473 755.1283,-1174.6541"/>
<polygon fill="#000000" stroke="#000000" points="758.4058,-1173.4242 751.7565,-1165.1757 751.8106,-1175.7704 758.4058,-1173.4242"/>
</g>
<!-- helbred -->
<g id="node35" class="node">
<title>helbred</title>
<ellipse fill="none" stroke="#000000" cx="882.5049" cy="-924.1463" rx="33.8596" ry="18"/>
<text text-anchor="middle" x="882.5049" y="-919.9463" font-family="Times,serif" font-size="14.00" fill="#000000">Health</text>
</g>
<!-- magi4&#45;&gt;helbred -->
<g id="edge57" class="edge">
<title>magi4&#45;&gt;helbred</title>
<path fill="none" stroke="#000000" stroke-dasharray="1,5" d="M839.6937,-987.1389C847.0519,-976.312 856.8291,-961.9258 865.1822,-949.6351"/>
<polygon fill="#000000" stroke="#000000" points="868.2316,-951.3748 870.9578,-941.1367 862.4421,-947.4401 868.2316,-951.3748"/>
</g>
<!-- magi2 -->
<g id="node33" class="node">
<title>magi2</title>
<ellipse fill="none" stroke="#000000" cx="605.5049" cy="-1075.6022" rx="27" ry="18"/>
<text text-anchor="middle" x="605.5049" y="-1071.4022" font-family="Times,serif" font-size="14.00" fill="#000000">??</text>
</g>
<!-- magi1&#45;&gt;magi2 -->
<g id="edge53" class="edge">
<title>magi1&#45;&gt;magi2</title>
<path fill="none" stroke="#000000" d="M723.9367,-1136.51C700.5739,-1124.4948 663.0936,-1105.2192 636.5615,-1091.5741"/>
<polygon fill="#000000" stroke="#000000" points="637.8219,-1088.2866 627.3283,-1086.8256 634.6204,-1094.5116 637.8219,-1088.2866"/>
</g>
<!-- magi3 -->
<g id="node34" class="node">
<title>magi3</title>
<ellipse fill="none" stroke="#000000" cx="718.5049" cy="-1075.6022" rx="27" ry="18"/>
<text text-anchor="middle" x="718.5049" y="-1071.4022" font-family="Times,serif" font-size="14.00" fill="#000000">????</text>
</g>
<!-- magi1&#45;&gt;magi3 -->
<g id="edge54" class="edge">
<title>magi1&#45;&gt;magi3</title>
<path fill="none" stroke="#000000" stroke-dasharray="5,2" d="M738.8307,-1129.8044C735.7573,-1121.6085 732.0433,-1111.7045 728.6354,-1102.6167"/>
<polygon fill="#000000" stroke="#000000" points="731.8907,-1101.3295 725.1023,-1093.1952 725.3364,-1103.7874 731.8907,-1101.3295"/>
</g>
<!-- magi1&#45;&gt;helbred -->
<g id="edge55" class="edge">
<title>magi1&#45;&gt;helbred</title>
<path fill="none" stroke="#000000" stroke-dasharray="1,5" d="M749.088,-1129.7584C756.7763,-1092.7253 775.5372,-1009.0198 792.5049,-985.6022 800.5412,-974.511 828.274,-956.3086 850.8541,-942.5859"/>
<polygon fill="#000000" stroke="#000000" points="852.7442,-945.5335 859.5157,-937.385 849.1407,-939.5322 852.7442,-945.5335"/>
</g>
<!-- penge -->
<g id="node36" class="node">
<title>penge</title>
<ellipse fill="none" stroke="#000000" cx="658.5049" cy="-1003.6022" rx="35.3216" ry="18"/>
<text text-anchor="middle" x="658.5049" y="-999.4022" font-family="Times,serif" font-size="14.00" fill="#000000">Money</text>
</g>
<!-- magi2&#45;&gt;penge -->
<g id="edge56" class="edge">
<title>magi2&#45;&gt;penge</title>
<path fill="none" stroke="#000000" stroke-dasharray="1,5" d="M617.5314,-1059.2642C624.1646,-1050.2531 632.5431,-1038.871 639.9926,-1028.7509"/>
<polygon fill="#000000" stroke="#000000" points="642.8634,-1030.7549 645.973,-1020.6267 637.2261,-1026.6052 642.8634,-1030.7549"/>
</g>
<!-- rejser -->
<g id="node37" class="node">
<title>rejser</title>
<ellipse fill="#00ff00" stroke="#000000" cx="207.5049" cy="-1003.6022" rx="41.1266" ry="18"/>
<text text-anchor="middle" x="207.5049" y="-999.4022" font-family="Times,serif" font-size="14.00" fill="#000000">Mobility</text>
</g>
<!-- magi2&#45;&gt;rejser -->
<g id="edge63" class="edge">
<title>magi2&#45;&gt;rejser</title>
<path fill="none" stroke="#000000" stroke-dasharray="1,5" d="M579.391,-1070.878C513.5827,-1058.973 340.1714,-1027.6021 255.455,-1012.2766"/>
<polygon fill="#000000" stroke="#000000" points="256.04,-1008.8256 245.5766,-1010.4895 254.7938,-1015.7138 256.04,-1008.8256"/>
</g>
<!-- faa_ting_gjort -->
<g id="node38" class="node">
<title>faa_ting_gjort</title>
<ellipse fill="none" stroke="#000000" cx="468.5049" cy="-1003.6022" rx="75.0675" ry="18"/>
<text text-anchor="middle" x="468.5049" y="-999.4022" font-family="Times,serif" font-size="14.00" fill="#000000">Can get stuff done</text>
</g>
<!-- magi2&#45;&gt;faa_ting_gjort -->
<g id="edge66" class="edge">
<title>magi2&#45;&gt;faa_ting_gjort</title>
<path fill="none" stroke="#000000" stroke-dasharray="1,5" d="M584.0987,-1064.3522C564.0126,-1053.796 533.4557,-1037.7369 508.8031,-1024.7808"/>
<polygon fill="#000000" stroke="#000000" points="510.1583,-1021.5391 499.678,-1019.9851 506.9017,-1027.7355 510.1583,-1021.5391"/>
</g>
<!-- magi3&#45;&gt;magi4 -->
<g id="edge52" class="edge">
<title>magi3&#45;&gt;magi4</title>
<path fill="none" stroke="#000000" d="M737.9175,-1062.8957C755.2469,-1051.5529 780.8367,-1034.8032 800.4021,-1021.9967"/>
<polygon fill="#000000" stroke="#000000" points="802.4662,-1024.8288 808.9164,-1016.4237 798.6325,-1018.9719 802.4662,-1024.8288"/>
</g>
<!-- magi3&#45;&gt;penge -->
<g id="edge60" class="edge">
<title>magi3&#45;&gt;penge</title>
<path fill="none" stroke="#000000" stroke-dasharray="1,5" d="M705.189,-1059.623C697.5067,-1050.4044 687.6843,-1038.6175 679.033,-1028.2359"/>
<polygon fill="#000000" stroke="#000000" points="681.4998,-1025.7288 672.4091,-1020.2872 676.1222,-1030.2101 681.4998,-1025.7288"/>
</g>
<!-- helbred&#45;&gt;ehic -->
<g id="edge59" class="edge">
<title>helbred&#45;&gt;ehic</title>
<path fill="none" stroke="#000000" d="M895.7095,-907.496C904.9438,-895.4433 917.2338,-878.5504 926.5049,-862.6905 938.3257,-842.469 949.4276,-818.3661 957.2451,-800.195"/>
<polygon fill="#000000" stroke="#000000" points="960.5586,-801.3458 961.234,-790.7725 954.1124,-798.6168 960.5586,-801.3458"/>
</g>
<!-- helbred&#45;&gt;doctor -->
<g id="edge58" class="edge">
<title>helbred&#45;&gt;doctor</title>
<path fill="none" stroke="#000000" d="M882.5049,-906.1166C882.5049,-896.3318 882.5049,-884.0139 882.5049,-872.9821"/>
<polygon fill="#000000" stroke="#000000" points="886.005,-872.9239 882.5049,-862.9239 879.005,-872.924 886.005,-872.9239"/>
</g>
<!-- penge&#45;&gt;spend_lovely_dkk -->
<g id="edge61" class="edge">
<title>penge&#45;&gt;spend_lovely_dkk</title>
<path fill="none" stroke="#000000" d="M673.6306,-987.1389C683.5653,-976.3255 696.7621,-961.9616 708.0449,-949.681"/>
<polygon fill="#000000" stroke="#000000" points="710.9412,-951.7019 715.1294,-941.97 705.7864,-946.966 710.9412,-951.7019"/>
</g>
<!-- penge&#45;&gt;mobilepay -->
<g id="edge62" class="edge">
<title>penge&#45;&gt;mobilepay</title>
<path fill="none" stroke="#000000" d="M644.6268,-986.6972C637.0842,-976.5622 628.3342,-963.0622 623.5049,-949.6022 614.5543,-924.655 611.886,-894.4254 611.259,-872.8362"/>
<polygon fill="#000000" stroke="#000000" points="614.7564,-872.643 611.0955,-862.7008 607.7573,-872.756 614.7564,-872.643"/>
</g>
<!-- rejser&#45;&gt;rejsekort -->
<g id="edge65" class="edge">
<title>rejser&#45;&gt;rejsekort</title>
<path fill="none" stroke="#000000" d="M207.5049,-985.5724C207.5049,-977.9375 207.5049,-968.7602 207.5049,-959.8551"/>
<polygon fill="#000000" stroke="#000000" points="211.005,-959.635 207.5049,-949.635 204.005,-959.6351 211.005,-959.635"/>
</g>
<!-- rejser&#45;&gt;pendlerkort -->
<g id="edge64" class="edge">
<title>rejser&#45;&gt;pendlerkort</title>
<path fill="none" stroke="#000000" d="M182.5061,-989.2812C167.2009,-979.5761 148.0254,-965.6267 134.5049,-949.6022 100.8174,-909.6756 81.5049,-896.9301 81.5049,-844.6905 81.5049,-844.6905 81.5049,-844.6905 81.5049,-772.6905 81.5049,-727.0704 72.5553,-675.128 65.5863,-641.5966"/>
<polygon fill="#000000" stroke="#000000" points="69.0078,-640.859 63.4992,-631.8088 62.1617,-642.3189 69.0078,-640.859"/>
</g>
<!-- faa_ting_gjort&#45;&gt;activated_nemid -->
<g id="edge67" class="edge">
<title>faa_ting_gjort&#45;&gt;activated_nemid</title>
<path fill="none" stroke="#000000" d="M435.512,-987.3822C420.92,-978.3803 405.1388,-965.7161 396.5049,-949.6022 371.1819,-902.3407 375.7053,-837.4281 381.1721,-800.8072"/>
<polygon fill="#000000" stroke="#000000" points="384.6435,-801.2652 382.7909,-790.8337 377.7339,-800.1438 384.6435,-801.2652"/>
</g>
<!-- faa_ting_gjort&#45;&gt;danish_lessions -->
<g id="edge68" class="edge">
<title>faa_ting_gjort&#45;&gt;danish_lessions</title>
<path fill="none" stroke="#000000" d="M468.5049,-985.5724C468.5049,-975.7876 468.5049,-963.4697 468.5049,-952.4379"/>
<polygon fill="#000000" stroke="#000000" points="472.005,-952.3797 468.5049,-942.3798 465.005,-952.3798 472.005,-952.3797"/>
</g>
</g>
</svg>
