<?xml version="1.0" encoding="UTF-8" standalone="no"?>
<!DOCTYPE svg PUBLIC "-//W3C//DTD SVG 1.1//EN"
 "http://www.w3.org/Graphics/SVG/1.1/DTD/svg11.dtd">
<!-- Generated by graphviz version 2.40.1 (20161225.0304)
 -->
<!-- Title: g Pages: 1 -->
<svg width="1535pt" height="1308pt"
 viewBox="0.00 0.00 1534.88 1307.91" xmlns="http://www.w3.org/2000/svg" xmlns:xlink="http://www.w3.org/1999/xlink">
<g id="graph0" class="graph" transform="scale(1 1) rotate(0) translate(4 1303.9083)">
<title>g</title>
<polygon fill="#ffffff" stroke="transparent" points="-4,4 -4,-1303.9083 1530.8786,-1303.9083 1530.8786,4 -4,4"/>
<!-- job -->
<g id="node1" class="node">
<title>job</title>
<ellipse fill="#00ff00" stroke="#000000" cx="337.3736" cy="-25.4558" rx="57.5098" ry="25.4118"/>
<text text-anchor="middle" x="337.3736" y="-28.2558" font-family="Times,serif" font-size="14.00" fill="#000000">A job</text>
<text text-anchor="middle" x="337.3736" y="-14.2558" font-family="Times,serif" font-size="14.00" fill="#000000">2018&#45;10&#45;19</text>
</g>
<!-- proof_of_work -->
<g id="node2" class="node">
<title>proof_of_work</title>
<ellipse fill="#00ff00" stroke="#000000" cx="456.3736" cy="-122.267" rx="66.707" ry="25.4118"/>
<text text-anchor="middle" x="456.3736" y="-125.067" font-family="Times,serif" font-size="14.00" fill="#000000">Proof of work</text>
<text text-anchor="middle" x="456.3736" y="-111.067" font-family="Times,serif" font-size="14.00" fill="#000000">2019&#45;01&#45;22</text>
</g>
<!-- proof_of_work&#45;&gt;job -->
<g id="edge1" class="edge">
<title>proof_of_work&#45;&gt;job</title>
<path fill="none" stroke="#000000" d="M427.8702,-99.0783C411.4129,-85.6897 390.5663,-68.7301 373.0303,-54.464"/>
<polygon fill="#000000" stroke="#000000" points="375.1999,-51.7171 365.2339,-48.1213 370.7824,-57.1471 375.1999,-51.7171"/>
</g>
<!-- passport -->
<g id="node3" class="node">
<title>passport</title>
<ellipse fill="#00ff00" stroke="#000000" cx="586.3736" cy="-122.267" rx="44.7298" ry="25.4118"/>
<text text-anchor="middle" x="586.3736" y="-125.067" font-family="Times,serif" font-size="14.00" fill="#000000">Passport</text>
<text text-anchor="middle" x="586.3736" y="-111.067" font-family="Times,serif" font-size="14.00" fill="#000000">2015</text>
</g>
<!-- danish_phone_number -->
<g id="node4" class="node">
<title>danish_phone_number</title>
<ellipse fill="#00ff00" stroke="#000000" cx="345.3736" cy="-519.4113" rx="98.9836" ry="25.4118"/>
<text text-anchor="middle" x="345.3736" y="-522.2113" font-family="Times,serif" font-size="14.00" fill="#000000">Danish phone number</text>
<text text-anchor="middle" x="345.3736" y="-508.2113" font-family="Times,serif" font-size="14.00" fill="#000000">2019&#45;01&#45;17</text>
</g>
<!-- rejsekort -->
<g id="node5" class="node">
<title>rejsekort</title>
<ellipse fill="#00ff00" stroke="#000000" cx="64.3736" cy="-978.656" rx="64.2475" ry="25.4118"/>
<text text-anchor="middle" x="64.3736" y="-981.456" font-family="Times,serif" font-size="14.00" fill="#000000">Rejsekort</text>
<text text-anchor="middle" x="64.3736" y="-967.456" font-family="Times,serif" font-size="14.00" fill="#000000">2018&#45;10&#45;19 ?</text>
</g>
<!-- place_to_live -->
<g id="node6" class="node">
<title>place_to_live</title>
<ellipse fill="#00ff00" stroke="#000000" cx="1034.3736" cy="-25.4558" rx="68.5454" ry="25.4118"/>
<text text-anchor="middle" x="1034.3736" y="-28.2558" font-family="Times,serif" font-size="14.00" fill="#000000">A place to live</text>
<text text-anchor="middle" x="1034.3736" y="-14.2558" font-family="Times,serif" font-size="14.00" fill="#000000">2019&#45;01&#45;21</text>
</g>
<!-- name_on_postbox -->
<g id="node7" class="node">
<title>name_on_postbox</title>
<ellipse fill="#00ff00" stroke="#000000" cx="1082.3736" cy="-122.267" rx="66.9194" ry="35.2113"/>
<text text-anchor="middle" x="1082.3736" y="-132.067" font-family="Times,serif" font-size="14.00" fill="#000000">Your name on</text>
<text text-anchor="middle" x="1082.3736" y="-118.067" font-family="Times,serif" font-size="14.00" fill="#000000">your postbox</text>
<text text-anchor="middle" x="1082.3736" y="-104.067" font-family="Times,serif" font-size="14.00" fill="#000000">2019&#45;01&#45;22</text>
</g>
<!-- name_on_postbox&#45;&gt;place_to_live -->
<g id="edge2" class="edge">
<title>name_on_postbox&#45;&gt;place_to_live</title>
<path fill="none" stroke="#000000" d="M1065.3155,-87.8624C1060.7956,-78.7464 1055.9164,-68.9054 1051.3983,-59.7929"/>
<polygon fill="#000000" stroke="#000000" points="1054.4289,-58.0259 1046.851,-50.6214 1048.1574,-61.1354 1054.4289,-58.0259"/>
</g>
<!-- can_receive_post -->
<g id="node8" class="node">
<title>can_receive_post</title>
<ellipse fill="#00ff00" stroke="#000000" cx="1146.3736" cy="-228.9777" rx="99.6266" ry="25.4118"/>
<text text-anchor="middle" x="1146.3736" y="-231.7777" font-family="Times,serif" font-size="14.00" fill="#000000">Ability to receive post</text>
<text text-anchor="middle" x="1146.3736" y="-217.7777" font-family="Times,serif" font-size="14.00" fill="#000000">2019&#45;01&#45;22</text>
</g>
<!-- can_receive_post&#45;&gt;place_to_live -->
<g id="edge3" class="edge">
<title>can_receive_post&#45;&gt;place_to_live</title>
<path fill="none" stroke="#000000" d="M1157.1341,-203.4901C1168.061,-173.2835 1180.4933,-122.5617 1158.3736,-86.9117 1145.5716,-66.2787 1123.5523,-52.3587 1101.5884,-43.0672"/>
<polygon fill="#000000" stroke="#000000" points="1102.7924,-39.7796 1092.2057,-39.3623 1100.2215,-46.2905 1102.7924,-39.7796"/>
</g>
<!-- can_receive_post&#45;&gt;name_on_postbox -->
<g id="edge4" class="edge">
<title>can_receive_post&#45;&gt;name_on_postbox</title>
<path fill="none" stroke="#000000" d="M1131.2065,-203.6888C1124.2989,-192.1712 1115.9282,-178.2144 1108.0828,-165.1333"/>
<polygon fill="#000000" stroke="#000000" points="1110.9047,-163.0335 1102.7597,-156.2578 1104.9016,-166.6339 1110.9047,-163.0335"/>
</g>
<!-- pendlerkort -->
<g id="node9" class="node">
<title>pendlerkort</title>
<ellipse fill="#00ff00" stroke="#000000" cx="132.3736" cy="-422.6001" rx="57.5098" ry="25.4118"/>
<text text-anchor="middle" x="132.3736" y="-425.4001" font-family="Times,serif" font-size="14.00" fill="#000000">Pendlerkort</text>
<text text-anchor="middle" x="132.3736" y="-411.4001" font-family="Times,serif" font-size="14.00" fill="#000000">2019&#45;02&#45;05</text>
</g>
<!-- pendlerkort&#45;&gt;place_to_live -->
<g id="edge5" class="edge">
<title>pendlerkort&#45;&gt;place_to_live</title>
<path fill="none" stroke="#000000" d="M142.382,-397.1133C169.4141,-332.1124 250.7193,-160.1352 380.3736,-86.9117 429.4428,-59.1994 792.623,-37.6438 955.6049,-29.2585"/>
<polygon fill="#000000" stroke="#000000" points="956.2369,-32.7308 966.0453,-28.7252 955.8798,-25.7399 956.2369,-32.7308"/>
</g>
<!-- eu_residence_document_application -->
<g id="node10" class="node">
<title>eu_residence_document_application</title>
<ellipse fill="#00ff00" stroke="#000000" cx="786.3736" cy="-228.9777" rx="105.7427" ry="35.2113"/>
<text text-anchor="middle" x="786.3736" y="-238.7777" font-family="Times,serif" font-size="14.00" fill="#000000">Application for</text>
<text text-anchor="middle" x="786.3736" y="-224.7777" font-family="Times,serif" font-size="14.00" fill="#000000">EU residence document</text>
<text text-anchor="middle" x="786.3736" y="-210.7777" font-family="Times,serif" font-size="14.00" fill="#000000">2019&#45;01&#45;23</text>
</g>
<!-- eu_residence_document_application&#45;&gt;proof_of_work -->
<g id="edge7" class="edge">
<title>eu_residence_document_application&#45;&gt;proof_of_work</title>
<path fill="none" stroke="#000000" d="M700.0256,-208.4201C650.3586,-195.6813 587.1398,-177.9024 532.3736,-157.6224 523.7549,-154.4308 514.7631,-150.6622 506.107,-146.7954"/>
<polygon fill="#000000" stroke="#000000" points="507.4299,-143.552 496.8793,-142.5838 504.5233,-149.92 507.4299,-143.552"/>
</g>
<!-- eu_residence_document_application&#45;&gt;passport -->
<g id="edge8" class="edge">
<title>eu_residence_document_application&#45;&gt;passport</title>
<path fill="none" stroke="#000000" d="M722.8087,-200.4444C696.5583,-188.0669 666.0835,-172.9189 639.3736,-157.6224 634.1471,-154.6292 628.7461,-151.3097 623.4812,-147.9381"/>
<polygon fill="#000000" stroke="#000000" points="625.0891,-144.8077 614.8043,-142.2634 621.2577,-150.666 625.0891,-144.8077"/>
</g>
<!-- eu_residence_document_application&#45;&gt;place_to_live -->
<g id="edge6" class="edge">
<title>eu_residence_document_application&#45;&gt;place_to_live</title>
<path fill="none" stroke="#000000" d="M858.3466,-202.9589C883.0766,-191.6454 909.7092,-176.5762 930.3736,-157.6224 957.4799,-132.76 950.7056,-115.878 973.3736,-86.9117 981.6344,-76.3557 991.5407,-65.6977 1000.9442,-56.2893"/>
<polygon fill="#000000" stroke="#000000" points="1003.6489,-58.539 1008.3367,-49.0377 998.747,-53.5418 1003.6489,-58.539"/>
</g>
<!-- od1_form -->
<g id="node11" class="node">
<title>od1_form</title>
<ellipse fill="#00ff00" stroke="#000000" cx="706.3736" cy="-122.267" rx="57.5098" ry="25.4118"/>
<text text-anchor="middle" x="706.3736" y="-125.067" font-family="Times,serif" font-size="14.00" fill="#000000">OD1 form</text>
<text text-anchor="middle" x="706.3736" y="-111.067" font-family="Times,serif" font-size="14.00" fill="#000000">2019&#45;01&#45;22</text>
</g>
<!-- eu_residence_document_application&#45;&gt;od1_form -->
<g id="edge9" class="edge">
<title>eu_residence_document_application&#45;&gt;od1_form</title>
<path fill="none" stroke="#000000" d="M760.6208,-194.6264C751.12,-181.9535 740.3857,-167.6352 730.9881,-155.0999"/>
<polygon fill="#000000" stroke="#000000" points="733.5261,-152.6504 724.7273,-146.7486 727.9253,-156.8493 733.5261,-152.6504"/>
</g>
<!-- passport_photo -->
<g id="node12" class="node">
<title>passport_photo</title>
<ellipse fill="#00ff00" stroke="#000000" cx="851.3736" cy="-122.267" rx="69.7781" ry="25.4118"/>
<text text-anchor="middle" x="851.3736" y="-125.067" font-family="Times,serif" font-size="14.00" fill="#000000">Passport photo</text>
<text text-anchor="middle" x="851.3736" y="-111.067" font-family="Times,serif" font-size="14.00" fill="#000000">2019&#45;01&#45;23</text>
</g>
<!-- eu_residence_document_application&#45;&gt;passport_photo -->
<g id="edge10" class="edge">
<title>eu_residence_document_application&#45;&gt;passport_photo</title>
<path fill="none" stroke="#000000" d="M807.4773,-194.3318C814.9943,-181.9911 823.4426,-168.1215 830.9054,-155.8698"/>
<polygon fill="#000000" stroke="#000000" points="833.9248,-157.6408 836.1379,-147.2796 827.9466,-153.9992 833.9248,-157.6408"/>
</g>
<!-- eu_residence_document -->
<g id="node13" class="node">
<title>eu_residence_document</title>
<ellipse fill="#00ff00" stroke="#000000" cx="890.3736" cy="-325.7889" rx="105.7427" ry="25.4118"/>
<text text-anchor="middle" x="890.3736" y="-328.5889" font-family="Times,serif" font-size="14.00" fill="#000000">EU residence document</text>
<text text-anchor="middle" x="890.3736" y="-314.5889" font-family="Times,serif" font-size="14.00" fill="#000000">2019&#45;01&#45;31</text>
</g>
<!-- eu_residence_document&#45;&gt;can_receive_post -->
<g id="edge12" class="edge">
<title>eu_residence_document&#45;&gt;can_receive_post</title>
<path fill="none" stroke="#000000" d="M947.1883,-304.3033C986.8195,-289.3161 1039.8,-269.2805 1081.1574,-253.6405"/>
<polygon fill="#000000" stroke="#000000" points="1082.4831,-256.8811 1090.5986,-250.0701 1080.007,-250.3336 1082.4831,-256.8811"/>
</g>
<!-- eu_residence_document&#45;&gt;eu_residence_document_application -->
<g id="edge11" class="edge">
<title>eu_residence_document&#45;&gt;eu_residence_document_application</title>
<path fill="none" stroke="#ff0000" d="M863.861,-301.1088C853.4939,-291.4584 841.3311,-280.1364 829.7547,-269.3601"/>
<polygon fill="#ff0000" stroke="#ff0000" points="831.961,-266.6322 822.2567,-262.3804 827.1915,-271.7558 831.961,-266.6322"/>
</g>
<!-- cpr_number_application -->
<g id="node14" class="node">
<title>cpr_number_application</title>
<ellipse fill="#00ff00" stroke="#000000" cx="690.3736" cy="-422.6001" rx="72.138" ry="35.2113"/>
<text text-anchor="middle" x="690.3736" y="-432.4001" font-family="Times,serif" font-size="14.00" fill="#000000">Application for</text>
<text text-anchor="middle" x="690.3736" y="-418.4001" font-family="Times,serif" font-size="14.00" fill="#000000">CPR number</text>
<text text-anchor="middle" x="690.3736" y="-404.4001" font-family="Times,serif" font-size="14.00" fill="#000000">2019&#45;02&#45;06</text>
</g>
<!-- cpr_number_application&#45;&gt;proof_of_work -->
<g id="edge14" class="edge">
<title>cpr_number_application&#45;&gt;proof_of_work</title>
<path fill="none" stroke="#000000" d="M641.0918,-396.576C621.5111,-384.5926 599.7898,-369.0608 583.3736,-351.2447 554.6187,-320.0376 500.2579,-212.5625 472.9336,-156.6611"/>
<polygon fill="#000000" stroke="#000000" points="475.9981,-154.9599 468.473,-147.5018 469.7047,-158.0248 475.9981,-154.9599"/>
</g>
<!-- cpr_number_application&#45;&gt;passport -->
<g id="edge16" class="edge">
<title>cpr_number_application&#45;&gt;passport</title>
<path fill="none" stroke="#000000" d="M644.9097,-395.1494C629.7362,-383.5713 614.4073,-368.6982 605.3736,-351.2447 573.2408,-289.1625 576.1977,-204.7751 581.2605,-157.7135"/>
<polygon fill="#000000" stroke="#000000" points="584.746,-158.0408 582.4311,-147.702 577.7934,-157.2278 584.746,-158.0408"/>
</g>
<!-- cpr_number_application&#45;&gt;eu_residence_document -->
<g id="edge13" class="edge">
<title>cpr_number_application&#45;&gt;eu_residence_document</title>
<path fill="none" stroke="#000000" d="M741.8786,-397.6688C770.0765,-384.0194 805.0623,-367.0843 833.9912,-353.0812"/>
<polygon fill="#000000" stroke="#000000" points="835.6786,-356.1529 843.1546,-348.6456 832.6287,-349.8523 835.6786,-356.1529"/>
</g>
<!-- proof_of_address -->
<g id="node15" class="node">
<title>proof_of_address</title>
<ellipse fill="#00ff00" stroke="#000000" cx="690.3736" cy="-325.7889" rx="76.3945" ry="25.4118"/>
<text text-anchor="middle" x="690.3736" y="-328.5889" font-family="Times,serif" font-size="14.00" fill="#000000">Proof of address</text>
<text text-anchor="middle" x="690.3736" y="-314.5889" font-family="Times,serif" font-size="14.00" fill="#000000">2019&#45;01&#45;21</text>
</g>
<!-- cpr_number_application&#45;&gt;proof_of_address -->
<g id="edge15" class="edge">
<title>cpr_number_application&#45;&gt;proof_of_address</title>
<path fill="none" stroke="#000000" d="M690.3736,-387.1009C690.3736,-378.7532 690.3736,-369.8531 690.3736,-361.4964"/>
<polygon fill="#000000" stroke="#000000" points="693.8737,-361.2842 690.3736,-351.2842 686.8737,-361.2843 693.8737,-361.2842"/>
</g>
<!-- proof_of_address&#45;&gt;place_to_live -->
<g id="edge21" class="edge">
<title>proof_of_address&#45;&gt;place_to_live</title>
<path fill="none" stroke="#000000" d="M747.0392,-308.7098C756.495,-305.891 766.2072,-303.015 775.3736,-300.333 831.2711,-283.9783 855.1656,-299.7846 901.3736,-264.333 919.4632,-250.4545 985.3182,-122.8487 1017.0496,-60.0459"/>
<polygon fill="#000000" stroke="#000000" points="1020.2787,-61.4154 1021.6555,-50.9104 1014.0282,-58.264 1020.2787,-61.4154"/>
</g>
<!-- cpr_number -->
<g id="node16" class="node">
<title>cpr_number</title>
<ellipse fill="#00ff00" stroke="#000000" cx="816.3736" cy="-519.4113" rx="62.9806" ry="25.4118"/>
<text text-anchor="middle" x="816.3736" y="-522.2113" font-family="Times,serif" font-size="14.00" fill="#000000">CPR number</text>
<text text-anchor="middle" x="816.3736" y="-508.2113" font-family="Times,serif" font-size="14.00" fill="#000000">2019&#45;02&#45;06</text>
</g>
<!-- cpr_number&#45;&gt;can_receive_post -->
<g id="edge18" class="edge">
<title>cpr_number&#45;&gt;can_receive_post</title>
<path fill="none" stroke="#000000" d="M855.5037,-499.0797C875.8005,-487.9036 900.62,-473.2302 921.3736,-457.9554 1001.9934,-398.6186 1080.242,-309.8308 1119.7622,-262.1256"/>
<polygon fill="#000000" stroke="#000000" points="1122.5732,-264.2179 1126.2252,-254.2724 1117.1682,-259.7697 1122.5732,-264.2179"/>
</g>
<!-- cpr_number&#45;&gt;cpr_number_application -->
<g id="edge17" class="edge">
<title>cpr_number&#45;&gt;cpr_number_application</title>
<path fill="none" stroke="#ff0000" d="M786.8322,-496.7133C772.0801,-485.3786 753.8798,-471.3946 737.278,-458.6387"/>
<polygon fill="#ff0000" stroke="#ff0000" points="739.3406,-455.8096 729.2785,-452.4923 735.0757,-461.3604 739.3406,-455.8096"/>
</g>
<!-- cpr_card -->
<g id="node17" class="node">
<title>cpr_card</title>
<ellipse fill="#00ff00" stroke="#000000" cx="1186.3736" cy="-616.2224" rx="78.9044" ry="25.4118"/>
<text text-anchor="middle" x="1186.3736" y="-619.0224" font-family="Times,serif" font-size="14.00" fill="#000000">CPR yellow card</text>
<text text-anchor="middle" x="1186.3736" y="-605.0224" font-family="Times,serif" font-size="14.00" fill="#000000">2019&#45;02&#45;??</text>
</g>
<!-- cpr_card&#45;&gt;can_receive_post -->
<g id="edge20" class="edge">
<title>cpr_card&#45;&gt;can_receive_post</title>
<path fill="none" stroke="#000000" d="M1183.7182,-590.5143C1176.7772,-523.3178 1158.0794,-342.3029 1150.0831,-264.8898"/>
<polygon fill="#000000" stroke="#000000" points="1153.5372,-264.2641 1149.0282,-254.6767 1146.5743,-264.9834 1153.5372,-264.2641"/>
</g>
<!-- cpr_card&#45;&gt;cpr_number -->
<g id="edge19" class="edge">
<title>cpr_card&#45;&gt;cpr_number</title>
<path fill="none" stroke="#000000" d="M1137.6006,-596.1591C1123.4758,-590.7652 1107.9358,-585.2255 1093.3736,-580.8671 1022.9233,-559.7818 940.4413,-542.3893 883.9179,-531.5531"/>
<polygon fill="#000000" stroke="#000000" points="884.5034,-528.1018 874.0257,-529.6728 883.1961,-534.9787 884.5034,-528.1018"/>
</g>
<!-- skattekort -->
<g id="node18" class="node">
<title>skattekort</title>
<ellipse fill="#00ff00" stroke="#000000" cx="744.3736" cy="-819.7443" rx="57.5098" ry="25.4118"/>
<text text-anchor="middle" x="744.3736" y="-822.5443" font-family="Times,serif" font-size="14.00" fill="#000000">Skattekort</text>
<text text-anchor="middle" x="744.3736" y="-808.5443" font-family="Times,serif" font-size="14.00" fill="#000000">2019&#45;02&#45;07</text>
</g>
<!-- skattekort&#45;&gt;cpr_number -->
<g id="edge22" class="edge">
<title>skattekort&#45;&gt;cpr_number</title>
<path fill="none" stroke="#000000" stroke-dasharray="1,5" d="M733.1491,-794.5618C728.8675,-783.6443 724.5058,-770.5705 722.3736,-758.2885 716.9984,-727.3246 714.4508,-717.9897 722.3736,-687.5778 735.6871,-636.4737 768.3351,-584.4382 791.4037,-552.0598"/>
<polygon fill="#000000" stroke="#000000" points="794.3074,-554.0174 797.338,-543.8652 788.6379,-549.9117 794.3074,-554.0174"/>
</g>
<!-- nemid_application -->
<g id="node19" class="node">
<title>nemid_application</title>
<ellipse fill="#00ff00" stroke="#000000" cx="872.3736" cy="-616.2224" rx="72.138" ry="35.2113"/>
<text text-anchor="middle" x="872.3736" y="-626.0224" font-family="Times,serif" font-size="14.00" fill="#000000">Application for</text>
<text text-anchor="middle" x="872.3736" y="-612.0224" font-family="Times,serif" font-size="14.00" fill="#000000">Nemid</text>
<text text-anchor="middle" x="872.3736" y="-598.0224" font-family="Times,serif" font-size="14.00" fill="#000000">2019&#45;02&#45;06</text>
</g>
<!-- nemid_application&#45;&gt;cpr_number -->
<g id="edge23" class="edge">
<title>nemid_application&#45;&gt;cpr_number</title>
<path fill="none" stroke="#000000" d="M852.6301,-582.0904C847.1893,-572.6845 841.2917,-562.4889 835.8652,-553.1077"/>
<polygon fill="#000000" stroke="#000000" points="838.8739,-551.319 830.8371,-544.4153 832.8146,-554.824 838.8739,-551.319"/>
</g>
<!-- nemid_userid -->
<g id="node20" class="node">
<title>nemid_userid</title>
<ellipse fill="#00ff00" stroke="#000000" cx="804.3736" cy="-722.9331" rx="72.7816" ry="25.4118"/>
<text text-anchor="middle" x="804.3736" y="-725.7331" font-family="Times,serif" font-size="14.00" fill="#000000">NemID user ID</text>
<text text-anchor="middle" x="804.3736" y="-711.7331" font-family="Times,serif" font-size="14.00" fill="#000000">2019&#45;02&#45;06</text>
</g>
<!-- nemid_userid&#45;&gt;nemid_application -->
<g id="edge24" class="edge">
<title>nemid_userid&#45;&gt;nemid_application</title>
<path fill="none" stroke="#000000" d="M820.3166,-697.9142C827.7874,-686.1905 836.8968,-671.8954 845.3944,-658.5604"/>
<polygon fill="#000000" stroke="#000000" points="848.4444,-660.2868 850.8668,-649.9726 842.5411,-656.525 848.4444,-660.2868"/>
</g>
<!-- danish_bank_account -->
<g id="node21" class="node">
<title>danish_bank_account</title>
<ellipse fill="#00ff00" stroke="#000000" cx="467.3736" cy="-616.2224" rx="94.1666" ry="25.4118"/>
<text text-anchor="middle" x="467.3736" y="-619.0224" font-family="Times,serif" font-size="14.00" fill="#000000">Danish bank account</text>
<text text-anchor="middle" x="467.3736" y="-605.0224" font-family="Times,serif" font-size="14.00" fill="#000000">2019&#45;02&#45;07</text>
</g>
<!-- danish_bank_account&#45;&gt;proof_of_work -->
<g id="edge26" class="edge">
<title>danish_bank_account&#45;&gt;proof_of_work</title>
<path fill="none" stroke="#000000" d="M468.4586,-590.5456C469.9291,-553.472 472.3736,-482.791 472.3736,-422.6001 472.3736,-422.6001 472.3736,-422.6001 472.3736,-325.7889 472.3736,-266.7748 465.605,-198.4304 460.8726,-157.858"/>
<polygon fill="#000000" stroke="#000000" points="464.347,-157.4343 459.6889,-147.9185 457.3961,-158.2622 464.347,-157.4343"/>
</g>
<!-- danish_bank_account&#45;&gt;passport -->
<g id="edge27" class="edge">
<title>danish_bank_account&#45;&gt;passport</title>
<path fill="none" stroke="#000000" d="M473.8655,-590.8128C477.3235,-577.1967 481.6253,-560.1282 485.3736,-544.8671 520.6164,-401.3807 561.0544,-230.0742 578.1071,-157.5134"/>
<polygon fill="#000000" stroke="#000000" points="581.5705,-158.0747 580.45,-147.5392 574.756,-156.4739 581.5705,-158.0747"/>
</g>
<!-- danish_bank_account&#45;&gt;danish_phone_number -->
<g id="edge28" class="edge">
<title>danish_bank_account&#45;&gt;danish_phone_number</title>
<path fill="none" stroke="#000000" d="M436.9026,-592.0426C421.0117,-579.4326 401.3966,-563.8674 384.4058,-550.3846"/>
<polygon fill="#000000" stroke="#000000" points="386.3125,-547.4296 376.3035,-543.9552 381.9613,-552.9129 386.3125,-547.4296"/>
</g>
<!-- danish_bank_account&#45;&gt;cpr_number -->
<g id="edge25" class="edge">
<title>danish_bank_account&#45;&gt;cpr_number</title>
<path fill="none" stroke="#000000" d="M526.0069,-596.2406C541.9552,-591.0212 559.2711,-585.5503 575.3736,-580.8671 634.9148,-563.5506 703.4929,-546.323 752.2328,-534.5338"/>
<polygon fill="#000000" stroke="#000000" points="753.1129,-537.922 762.0145,-532.1764 751.4728,-531.1168 753.1129,-537.922"/>
</g>
<!-- activated_nemid -->
<g id="node22" class="node">
<title>activated_nemid</title>
<ellipse fill="#00ff00" stroke="#000000" cx="899.3736" cy="-819.7443" rx="79.427" ry="25.4118"/>
<text text-anchor="middle" x="899.3736" y="-822.5443" font-family="Times,serif" font-size="14.00" fill="#000000">Activated Nemid</text>
<text text-anchor="middle" x="899.3736" y="-808.5443" font-family="Times,serif" font-size="14.00" fill="#000000">2019&#45;02&#45;19</text>
</g>
<!-- activated_nemid&#45;&gt;danish_phone_number -->
<g id="edge30" class="edge">
<title>activated_nemid&#45;&gt;danish_phone_number</title>
<path fill="none" stroke="#000000" d="M843.4579,-801.6498C832.8934,-798.7801 821.8656,-796.1495 811.3736,-794.2885 754.6752,-784.2314 333.6517,-800.3966 294.3736,-758.2885 241.7092,-701.8294 289.7516,-604.8513 321.8927,-553.5464"/>
<polygon fill="#000000" stroke="#000000" points="325.0374,-555.1261 327.4849,-544.8178 319.1433,-551.3499 325.0374,-555.1261"/>
</g>
<!-- activated_nemid&#45;&gt;nemid_userid -->
<g id="edge29" class="edge">
<title>activated_nemid&#45;&gt;nemid_userid</title>
<path fill="none" stroke="#000000" d="M875.4011,-795.3148C863.1573,-782.8375 848.1232,-767.5168 835.0442,-754.1884"/>
<polygon fill="#000000" stroke="#000000" points="837.5116,-751.7056 828.0094,-747.0195 832.5153,-756.6084 837.5116,-751.7056"/>
</g>
<!-- noglekort -->
<g id="node23" class="node">
<title>noglekort</title>
<ellipse fill="#00ff00" stroke="#000000" cx="1209.3736" cy="-722.9331" rx="69.7588" ry="35.2113"/>
<text text-anchor="middle" x="1209.3736" y="-732.7331" font-family="Times,serif" font-size="14.00" fill="#000000">Nøglekort</text>
<text text-anchor="middle" x="1209.3736" y="-718.7331" font-family="Times,serif" font-size="14.00" fill="#000000">2019&#45;02&#45;06</text>
<text text-anchor="middle" x="1209.3736" y="-704.7331" font-family="Times,serif" font-size="14.00" fill="#000000">og 2019&#45;02&#45;07</text>
</g>
<!-- activated_nemid&#45;&gt;noglekort -->
<g id="edge31" class="edge">
<title>activated_nemid&#45;&gt;noglekort</title>
<path fill="none" stroke="#000000" d="M964.9456,-805.2732C1011.6572,-794.2474 1075.6087,-777.6862 1130.3736,-758.2885 1136.4154,-756.1485 1142.6372,-753.74 1148.8111,-751.212"/>
<polygon fill="#000000" stroke="#000000" points="1150.5797,-754.2652 1158.441,-747.1623 1147.8661,-747.8125 1150.5797,-754.2652"/>
</g>
<!-- midlertidlig_nemid_adgangskode -->
<g id="node24" class="node">
<title>midlertidlig_nemid_adgangskode</title>
<ellipse fill="#00ff00" stroke="#000000" cx="1008.3736" cy="-722.9331" rx="113.2475" ry="18"/>
<text text-anchor="middle" x="1008.3736" y="-718.7331" font-family="Times,serif" font-size="14.00" fill="#000000">Temporary NemID password</text>
</g>
<!-- activated_nemid&#45;&gt;midlertidlig_nemid_adgangskode -->
<g id="edge32" class="edge">
<title>activated_nemid&#45;&gt;midlertidlig_nemid_adgangskode</title>
<path fill="none" stroke="#000000" d="M926.5978,-795.5645C943.0713,-780.9331 964.0246,-762.3229 980.5969,-747.6037"/>
<polygon fill="#000000" stroke="#000000" points="983.1892,-749.9826 988.3417,-740.725 978.5407,-744.7488 983.1892,-749.9826"/>
</g>
<!-- noglekort&#45;&gt;can_receive_post -->
<g id="edge35" class="edge">
<title>noglekort&#45;&gt;can_receive_post</title>
<path fill="none" stroke="#000000" stroke-dasharray="1,5" d="M1258.6663,-697.609C1276.6729,-685.9539 1295.5133,-670.4726 1307.3736,-651.5778 1339.1135,-601.0127 1331.3736,-579.1126 1331.3736,-519.4113 1331.3736,-519.4113 1331.3736,-519.4113 1331.3736,-422.6001 1331.3736,-367.2222 1341.9237,-343.6112 1307.3736,-300.333 1288.1797,-276.2902 1259.2,-260.1238 1231.093,-249.3565"/>
<polygon fill="#000000" stroke="#000000" points="1232.204,-246.0363 1221.6099,-245.9084 1229.8119,-252.6149 1232.204,-246.0363"/>
</g>
<!-- noglekort&#45;&gt;nemid_application -->
<g id="edge33" class="edge">
<title>noglekort&#45;&gt;nemid_application</title>
<path fill="none" stroke="#ff0000" stroke-dasharray="1,5" d="M1157.9877,-698.5952C1148.8847,-694.6703 1139.4227,-690.833 1130.3736,-687.5778 1069.8802,-665.8166 999.4287,-646.7379 947.4451,-633.7968"/>
<polygon fill="#ff0000" stroke="#ff0000" points="948.1796,-630.3731 937.632,-631.3721 946.5005,-637.1688 948.1796,-630.3731"/>
</g>
<!-- midlertidlig_nemid_adgangskode&#45;&gt;can_receive_post -->
<g id="edge36" class="edge">
<title>midlertidlig_nemid_adgangskode&#45;&gt;can_receive_post</title>
<path fill="none" stroke="#000000" stroke-dasharray="1,5" d="M1061.7008,-707.0142C1083.0099,-700.7748 1107.8055,-693.6667 1130.3736,-687.5778 1194.0659,-670.3936 1230.1696,-700.5471 1274.3736,-651.5778 1314.1385,-607.5263 1293.3736,-578.7558 1293.3736,-519.4113 1293.3736,-519.4113 1293.3736,-519.4113 1293.3736,-422.6001 1293.3736,-353.4111 1233.0929,-293.4358 1189.7353,-259.2465"/>
<polygon fill="#000000" stroke="#000000" points="1191.6404,-256.2958 1181.5838,-252.9618 1187.3663,-261.8395 1191.6404,-256.2958"/>
</g>
<!-- midlertidlig_nemid_adgangskode&#45;&gt;nemid_application -->
<g id="edge34" class="edge">
<title>midlertidlig_nemid_adgangskode&#45;&gt;nemid_application</title>
<path fill="none" stroke="#ff0000" stroke-dasharray="1,5" d="M985.6103,-705.0721C967.4268,-690.8047 941.3452,-670.3401 918.7955,-652.6468"/>
<polygon fill="#ff0000" stroke="#ff0000" points="920.6966,-649.6896 910.6687,-646.2702 916.3755,-655.1967 920.6966,-649.6896"/>
</g>
<!-- ehic -->
<g id="node25" class="node">
<title>ehic</title>
<ellipse fill="#ffff00" stroke="#000000" cx="1010.3736" cy="-899.2001" rx="99.0157" ry="18"/>
<text text-anchor="middle" x="1010.3736" y="-895.0001" font-family="Times,serif" font-size="14.00" fill="#000000">Danish EHIC (&#39;blåt kort&#39;)</text>
</g>
<!-- ehic&#45;&gt;place_to_live -->
<g id="edge39" class="edge">
<title>ehic&#45;&gt;place_to_live</title>
<path fill="none" stroke="#000000" d="M1088.9474,-888.2462C1131.9777,-880.2066 1185.3464,-866.816 1229.3736,-845.2001 1307.8219,-806.6847 1383.3736,-810.3263 1383.3736,-722.9331 1383.3736,-722.9331 1383.3736,-722.9331 1383.3736,-228.9777 1383.3736,-103.2303 1212.2109,-53.7931 1109.6202,-35.4554"/>
<polygon fill="#000000" stroke="#000000" points="1110.0585,-31.9793 1099.6085,-33.7252 1108.8664,-38.877 1110.0585,-31.9793"/>
</g>
<!-- ehic&#45;&gt;cpr_number -->
<g id="edge37" class="edge">
<title>ehic&#45;&gt;cpr_number</title>
<path fill="none" stroke="#000000" d="M1064.0924,-883.9356C1164.7949,-852.7688 1365.1634,-777.1432 1288.3736,-687.5778 1254.2723,-647.8029 1104.0335,-670.9982 1055.3736,-651.5778 1004.1419,-631.1309 1001.4093,-607.9843 953.3736,-580.8671 927.1051,-566.0379 896.5923,-552.0581 871.0395,-541.1898"/>
<polygon fill="#000000" stroke="#000000" points="872.083,-537.8318 861.5082,-537.1815 869.3694,-544.2844 872.083,-537.8318"/>
</g>
<!-- ehic&#45;&gt;activated_nemid -->
<g id="edge38" class="edge">
<title>ehic&#45;&gt;activated_nemid</title>
<path fill="none" stroke="#000000" d="M985.7392,-881.5663C972.3743,-871.9995 955.5082,-859.9264 940.2349,-848.9935"/>
<polygon fill="#000000" stroke="#000000" points="942.1147,-846.0349 931.946,-843.0602 938.0402,-851.7269 942.1147,-846.0349"/>
</g>
<!-- doctor -->
<g id="node26" class="node">
<title>doctor</title>
<ellipse fill="#00ff00" stroke="#000000" cx="1469.3736" cy="-819.7443" rx="57.5098" ry="25.4118"/>
<text text-anchor="middle" x="1469.3736" y="-822.5443" font-family="Times,serif" font-size="14.00" fill="#000000">Doctor</text>
<text text-anchor="middle" x="1469.3736" y="-808.5443" font-family="Times,serif" font-size="14.00" fill="#000000">2019&#45;02&#45;06</text>
</g>
<!-- doctor&#45;&gt;cpr_number -->
<g id="edge40" class="edge">
<title>doctor&#45;&gt;cpr_number</title>
<path fill="none" stroke="#000000" d="M1450.2039,-795.6839C1424.4139,-765.1474 1375.4895,-713.3525 1321.3736,-687.5778 1230.7351,-644.4077 1181.6698,-707.6203 1098.3736,-651.5778 1067.8563,-631.0454 1084.9186,-602.7756 1055.3736,-580.8671 1028.4388,-560.8941 945.0833,-542.3689 884.3766,-530.9887"/>
<polygon fill="#000000" stroke="#000000" points="884.9319,-527.5321 874.4621,-529.1555 883.6591,-534.4154 884.9319,-527.5321"/>
</g>
<!-- get_paid -->
<g id="node27" class="node">
<title>get_paid</title>
<ellipse fill="none" stroke="#000000" cx="447.3736" cy="-899.2001" rx="40.1247" ry="18"/>
<text text-anchor="middle" x="447.3736" y="-895.0001" font-family="Times,serif" font-size="14.00" fill="#000000">Get paid</text>
</g>
<!-- get_paid&#45;&gt;job -->
<g id="edge41" class="edge">
<title>get_paid&#45;&gt;job</title>
<path fill="none" stroke="#000000" d="M412.5935,-890.0215C348.5314,-870.777 218.3736,-819.7624 218.3736,-722.9331 218.3736,-722.9331 218.3736,-722.9331 218.3736,-228.9777 218.3736,-159.8135 270.2226,-93.2815 305.4716,-56.042"/>
<polygon fill="#000000" stroke="#000000" points="308.2813,-58.1714 312.7168,-48.5497 303.2492,-53.3053 308.2813,-58.1714"/>
</g>
<!-- get_paid&#45;&gt;skattekort -->
<g id="edge42" class="edge">
<title>get_paid&#45;&gt;skattekort</title>
<path fill="none" stroke="#000000" d="M484.6019,-892.1523C530.611,-883.0647 611.0689,-865.9372 678.3736,-845.2001 682.9729,-843.7831 687.7107,-842.2033 692.4367,-840.544"/>
<polygon fill="#000000" stroke="#000000" points="693.8633,-843.7498 702.073,-837.0526 691.4787,-837.1685 693.8633,-843.7498"/>
</g>
<!-- get_paid&#45;&gt;danish_bank_account -->
<g id="edge43" class="edge">
<title>get_paid&#45;&gt;danish_bank_account</title>
<path fill="none" stroke="#000000" d="M448.6552,-881.0681C451.9084,-835.038 460.5337,-713.0005 464.8455,-651.9925"/>
<polygon fill="#000000" stroke="#000000" points="468.3596,-651.915 465.5735,-641.6931 461.3771,-651.4215 468.3596,-651.915"/>
</g>
<!-- get_paid&#45;&gt;activated_nemid -->
<g id="edge44" class="edge">
<title>get_paid&#45;&gt;activated_nemid</title>
<path fill="none" stroke="#000000" d="M484.2864,-891.7242C501.8427,-888.2922 523.1505,-884.3053 542.3736,-881.2001 661.4516,-861.9655 693.335,-870.0276 811.3736,-845.2001 818.3286,-843.7373 825.537,-842.0095 832.6983,-840.1537"/>
<polygon fill="#000000" stroke="#000000" points="833.6505,-843.5222 842.4063,-837.5569 831.8415,-836.7599 833.6505,-843.5222"/>
</g>
<!-- danish_lessions -->
<g id="node28" class="node">
<title>danish_lessions</title>
<ellipse fill="none" stroke="#000000" cx="606.3736" cy="-819.7443" rx="62.8431" ry="18"/>
<text text-anchor="middle" x="606.3736" y="-815.5443" font-family="Times,serif" font-size="14.00" fill="#000000">Danish lessons</text>
</g>
<!-- danish_lessions&#45;&gt;cpr_number -->
<g id="edge45" class="edge">
<title>danish_lessions&#45;&gt;cpr_number</title>
<path fill="none" stroke="#000000" d="M618.8883,-801.8303C627.1019,-789.7654 637.8588,-773.3631 646.3736,-758.2885 689.4708,-681.9896 676.2398,-648.1566 732.3736,-580.8671 743.3971,-567.6529 757.8437,-555.7654 771.6411,-546.0462"/>
<polygon fill="#000000" stroke="#000000" points="773.8131,-548.8017 780.1116,-540.2824 769.8751,-543.0145 773.8131,-548.8017"/>
</g>
<!-- danish_bank_card -->
<g id="node29" class="node">
<title>danish_bank_card</title>
<ellipse fill="#00ff00" stroke="#000000" cx="556.3736" cy="-722.9331" rx="80.6721" ry="25.4118"/>
<text text-anchor="middle" x="556.3736" y="-725.7331" font-family="Times,serif" font-size="14.00" fill="#000000">Danish bank card</text>
<text text-anchor="middle" x="556.3736" y="-711.7331" font-family="Times,serif" font-size="14.00" fill="#000000">2019&#45;02&#45;16</text>
</g>
<!-- danish_lessions&#45;&gt;danish_bank_card -->
<g id="edge46" class="edge">
<title>danish_lessions&#45;&gt;danish_bank_card</title>
<path fill="none" stroke="#000000" d="M596.969,-801.5349C590.5502,-789.1065 581.8475,-772.2563 574.1461,-757.3445"/>
<polygon fill="#000000" stroke="#000000" points="577.2082,-755.646 569.5095,-748.3671 570.9887,-758.8582 577.2082,-755.646"/>
</g>
<!-- danish_bank_card&#45;&gt;can_receive_post -->
<g id="edge48" class="edge">
<title>danish_bank_card&#45;&gt;can_receive_post</title>
<path fill="none" stroke="#000000" d="M572.6773,-697.8679C602.6979,-653.0448 670.4491,-557.8756 744.3736,-493.9554 813.8579,-433.8747 839.6317,-429.1496 921.3736,-387.2447 957.5183,-368.7152 974.3155,-377.4204 1005.3736,-351.2447 1025.9925,-333.8673 1019.3902,-319.4835 1038.3736,-300.333 1054.7687,-283.7937 1075.5875,-268.9521 1094.5621,-257.144"/>
<polygon fill="#000000" stroke="#000000" points="1096.4009,-260.1221 1103.1279,-251.9368 1092.7648,-254.1406 1096.4009,-260.1221"/>
</g>
<!-- danish_bank_card&#45;&gt;danish_bank_account -->
<g id="edge47" class="edge">
<title>danish_bank_card&#45;&gt;danish_bank_account</title>
<path fill="none" stroke="#ff0000" d="M535.7316,-698.1833C523.5751,-683.6078 508.0462,-664.9887 494.8623,-649.1813"/>
<polygon fill="#ff0000" stroke="#ff0000" points="497.305,-646.6455 488.2121,-641.2077 491.9293,-651.129 497.305,-646.6455"/>
</g>
<!-- spend_lovely_dkk -->
<g id="node30" class="node">
<title>spend_lovely_dkk</title>
<ellipse fill="none" stroke="#000000" cx="499.3736" cy="-978.656" rx="99.0344" ry="18"/>
<text text-anchor="middle" x="499.3736" y="-974.456" font-family="Times,serif" font-size="14.00" fill="#000000">Spend your lovely DKK!</text>
</g>
<!-- spend_lovely_dkk&#45;&gt;get_paid -->
<g id="edge49" class="edge">
<title>spend_lovely_dkk&#45;&gt;get_paid</title>
<path fill="none" stroke="#000000" d="M487.574,-960.6262C480.697,-950.1182 471.908,-936.6886 464.3029,-925.068"/>
<polygon fill="#000000" stroke="#000000" points="467.1739,-923.0633 458.7692,-916.6125 461.3167,-926.8965 467.1739,-923.0633"/>
</g>
<!-- spend_lovely_dkk&#45;&gt;danish_bank_card -->
<g id="edge50" class="edge">
<title>spend_lovely_dkk&#45;&gt;danish_bank_card</title>
<path fill="none" stroke="#000000" d="M502.138,-960.4538C507.3403,-927.2051 519.4196,-854.5247 534.3736,-794.2885 537.3209,-782.4165 541.0844,-769.6021 544.662,-758.1528"/>
<polygon fill="#000000" stroke="#000000" points="548.0363,-759.0913 547.733,-748.5008 541.3658,-756.9689 548.0363,-759.0913"/>
</g>
<!-- mobilepay -->
<g id="node31" class="node">
<title>mobilepay</title>
<ellipse fill="#00ff00" stroke="#000000" cx="361.3736" cy="-722.9331" rx="57.5098" ry="25.4118"/>
<text text-anchor="middle" x="361.3736" y="-725.7331" font-family="Times,serif" font-size="14.00" fill="#000000">Mobilepay</text>
<text text-anchor="middle" x="361.3736" y="-711.7331" font-family="Times,serif" font-size="14.00" fill="#000000">2019&#45;02&#45;18</text>
</g>
<!-- mobilepay&#45;&gt;danish_phone_number -->
<g id="edge52" class="edge">
<title>mobilepay&#45;&gt;danish_phone_number</title>
<path fill="none" stroke="#000000" d="M359.3472,-697.1569C356.516,-661.1435 351.3657,-595.6309 348.1707,-554.9901"/>
<polygon fill="#000000" stroke="#000000" points="351.6567,-554.673 347.3836,-544.9781 344.6782,-555.2217 351.6567,-554.673"/>
</g>
<!-- mobilepay&#45;&gt;cpr_number -->
<g id="edge51" class="edge">
<title>mobilepay&#45;&gt;cpr_number</title>
<path fill="none" stroke="#000000" d="M407.2381,-707.5192C467.6381,-687.1854 566.6895,-653.7036 570.3736,-651.5778 611.765,-627.6946 610.315,-605.3179 651.3736,-580.8671 683.387,-561.8029 722.3213,-546.9606 754.3283,-536.6418"/>
<polygon fill="#000000" stroke="#000000" points="755.539,-539.93 764.0238,-533.585 753.4341,-533.254 755.539,-539.93"/>
</g>
<!-- mobilepay&#45;&gt;danish_bank_account -->
<g id="edge53" class="edge">
<title>mobilepay&#45;&gt;danish_bank_account</title>
<path fill="none" stroke="#000000" d="M384.6358,-699.515C399.5392,-684.5117 419.0811,-664.8388 435.4305,-648.3798"/>
<polygon fill="#000000" stroke="#000000" points="438.1253,-650.6333 442.6896,-641.072 433.159,-645.7001 438.1253,-650.6333"/>
</g>
<!-- hygge -->
<g id="node32" class="node">
<title>hygge</title>
<ellipse fill="none" stroke="#000000" cx="681.3736" cy="-1278.01" rx="101.1913" ry="21.7969"/>
<text text-anchor="middle" x="681.3736" y="-1278.2944" font-family="Times,serif" font-size="14.00" fill="#000000">🇩🇰 😊 Hygge 😊 🇩🇰</text>
</g>
<!-- magi4 -->
<g id="node33" class="node">
<title>magi4</title>
<ellipse fill="none" stroke="#000000" cx="741.3736" cy="-1058.1118" rx="27" ry="18"/>
<text text-anchor="middle" x="741.3736" y="-1053.9118" font-family="Times,serif" font-size="14.00" fill="#000000">????</text>
</g>
<!-- hygge&#45;&gt;magi4 -->
<g id="edge54" class="edge">
<title>hygge&#45;&gt;magi4</title>
<path fill="none" stroke="#000000" stroke-dasharray="5,2" d="M687.346,-1256.1214C698.35,-1215.7923 721.8007,-1129.8462 733.8633,-1085.6369"/>
<polygon fill="#000000" stroke="#000000" points="737.2768,-1086.4227 736.5326,-1075.854 730.5237,-1084.58 737.2768,-1086.4227"/>
</g>
<!-- magi1 -->
<g id="node34" class="node">
<title>magi1</title>
<ellipse fill="none" stroke="#000000" cx="654.3736" cy="-1202.1118" rx="27" ry="18"/>
<text text-anchor="middle" x="654.3736" y="-1197.9118" font-family="Times,serif" font-size="14.00" fill="#000000">?</text>
</g>
<!-- hygge&#45;&gt;magi1 -->
<g id="edge55" class="edge">
<title>hygge&#45;&gt;magi1</title>
<path fill="none" stroke="#000000" d="M673.5641,-1256.0571C670.5768,-1247.6595 667.1343,-1237.9827 663.9971,-1229.1637"/>
<polygon fill="#000000" stroke="#000000" points="667.2745,-1227.9338 660.6252,-1219.6853 660.6794,-1230.28 667.2745,-1227.9338"/>
</g>
<!-- helbred -->
<g id="node37" class="node">
<title>helbred</title>
<ellipse fill="none" stroke="#000000" cx="876.3736" cy="-978.656" rx="33.8596" ry="18"/>
<text text-anchor="middle" x="876.3736" y="-974.456" font-family="Times,serif" font-size="14.00" fill="#000000">Health</text>
</g>
<!-- magi4&#45;&gt;helbred -->
<g id="edge61" class="edge">
<title>magi4&#45;&gt;helbred</title>
<path fill="none" stroke="#000000" stroke-dasharray="1,5" d="M761.8772,-1046.0442C783.8189,-1033.1301 818.9133,-1012.4749 844.4707,-997.4329"/>
<polygon fill="#000000" stroke="#000000" points="846.5702,-1000.2584 853.413,-992.1697 843.0196,-994.2257 846.5702,-1000.2584"/>
</g>
<!-- magi2 -->
<g id="node35" class="node">
<title>magi2</title>
<ellipse fill="none" stroke="#000000" cx="539.3736" cy="-1130.1118" rx="27" ry="18"/>
<text text-anchor="middle" x="539.3736" y="-1125.9118" font-family="Times,serif" font-size="14.00" fill="#000000">??</text>
</g>
<!-- magi1&#45;&gt;magi2 -->
<g id="edge57" class="edge">
<title>magi1&#45;&gt;magi2</title>
<path fill="none" stroke="#000000" d="M634.6044,-1189.7346C616.2558,-1178.2468 588.7297,-1161.013 567.9831,-1148.0238"/>
<polygon fill="#000000" stroke="#000000" points="569.6029,-1144.9086 559.2697,-1142.5685 565.8883,-1150.8417 569.6029,-1144.9086"/>
</g>
<!-- magi3 -->
<g id="node36" class="node">
<title>magi3</title>
<ellipse fill="none" stroke="#000000" cx="631.3736" cy="-1130.1118" rx="27" ry="18"/>
<text text-anchor="middle" x="631.3736" y="-1125.9118" font-family="Times,serif" font-size="14.00" fill="#000000">????</text>
</g>
<!-- magi1&#45;&gt;magi3 -->
<g id="edge58" class="edge">
<title>magi1&#45;&gt;magi3</title>
<path fill="none" stroke="#000000" stroke-dasharray="5,2" d="M648.6883,-1184.3141C646.1173,-1176.2659 643.0202,-1166.5706 640.1605,-1157.6185"/>
<polygon fill="#000000" stroke="#000000" points="643.4504,-1156.4151 637.0734,-1147.9544 636.7824,-1158.5452 643.4504,-1156.4151"/>
</g>
<!-- magi1&#45;&gt;helbred -->
<g id="edge59" class="edge">
<title>magi1&#45;&gt;helbred</title>
<path fill="none" stroke="#000000" stroke-dasharray="1,5" d="M659.0028,-1184.3717C669.5228,-1144.571 695.1085,-1050.7963 705.3736,-1040.1118 739.1799,-1004.9247 794.5609,-989.8227 833.1037,-983.3804"/>
<polygon fill="#000000" stroke="#000000" points="833.6563,-986.8366 843.0056,-981.8526 832.5888,-979.9185 833.6563,-986.8366"/>
</g>
<!-- penge -->
<g id="node38" class="node">
<title>penge</title>
<ellipse fill="none" stroke="#000000" cx="520.3736" cy="-1058.1118" rx="35.3216" ry="18"/>
<text text-anchor="middle" x="520.3736" y="-1053.9118" font-family="Times,serif" font-size="14.00" fill="#000000">Money</text>
</g>
<!-- magi2&#45;&gt;penge -->
<g id="edge60" class="edge">
<title>magi2&#45;&gt;penge</title>
<path fill="none" stroke="#000000" stroke-dasharray="1,5" d="M534.677,-1112.3141C532.576,-1104.3524 530.0497,-1094.7789 527.7086,-1085.9075"/>
<polygon fill="#000000" stroke="#000000" points="531.0179,-1084.7303 525.0821,-1075.9544 524.2496,-1086.5165 531.0179,-1084.7303"/>
</g>
<!-- rejser -->
<g id="node39" class="node">
<title>rejser</title>
<ellipse fill="#00ff00" stroke="#000000" cx="156.3736" cy="-1058.1118" rx="41.1266" ry="18"/>
<text text-anchor="middle" x="156.3736" y="-1053.9118" font-family="Times,serif" font-size="14.00" fill="#000000">Mobility</text>
</g>
<!-- magi2&#45;&gt;rejser -->
<g id="edge67" class="edge">
<title>magi2&#45;&gt;rejser</title>
<path fill="none" stroke="#000000" stroke-dasharray="1,5" d="M513.3496,-1125.2196C449.8152,-1113.2758 286.0195,-1082.4839 204.2669,-1067.1153"/>
<polygon fill="#000000" stroke="#000000" points="204.7163,-1063.6385 194.2418,-1065.2307 203.423,-1070.518 204.7163,-1063.6385"/>
</g>
<!-- faa_ting_gjort -->
<g id="node40" class="node">
<title>faa_ting_gjort</title>
<ellipse fill="none" stroke="#000000" cx="626.3736" cy="-899.2001" rx="75.0675" ry="18"/>
<text text-anchor="middle" x="626.3736" y="-895.0001" font-family="Times,serif" font-size="14.00" fill="#000000">Can get stuff done</text>
</g>
<!-- magi2&#45;&gt;faa_ting_gjort -->
<g id="edge70" class="edge">
<title>magi2&#45;&gt;faa_ting_gjort</title>
<path fill="none" stroke="#000000" stroke-dasharray="1,5" d="M550.6474,-1113.383C565.8872,-1089.9722 592.8245,-1045.6341 607.3736,-1004.1118 616.1706,-979.0059 621.0786,-949.0238 623.6916,-927.5532"/>
<polygon fill="#000000" stroke="#000000" points="627.1866,-927.793 624.8271,-917.4642 620.2305,-927.01 627.1866,-927.793"/>
</g>
<!-- magi3&#45;&gt;magi4 -->
<g id="edge56" class="edge">
<title>magi3&#45;&gt;magi4</title>
<path fill="none" stroke="#000000" d="M650.7862,-1117.4054C668.1156,-1106.0625 693.7054,-1089.3129 713.2708,-1076.5064"/>
<polygon fill="#000000" stroke="#000000" points="715.3349,-1079.3385 721.7851,-1070.9334 711.5013,-1073.4816 715.3349,-1079.3385"/>
</g>
<!-- magi3&#45;&gt;penge -->
<g id="edge64" class="edge">
<title>magi3&#45;&gt;penge</title>
<path fill="none" stroke="#000000" stroke-dasharray="1,5" d="M611.7846,-1117.4054C594.9453,-1106.4826 570.3766,-1090.5462 550.9499,-1077.9451"/>
<polygon fill="#000000" stroke="#000000" points="552.7266,-1074.9257 542.4322,-1072.4201 548.9172,-1080.7984 552.7266,-1074.9257"/>
</g>
<!-- helbred&#45;&gt;ehic -->
<g id="edge63" class="edge">
<title>helbred&#45;&gt;ehic</title>
<path fill="none" stroke="#000000" d="M899.1049,-965.1774C919.1006,-953.3209 948.618,-935.8184 972.2269,-921.8194"/>
<polygon fill="#000000" stroke="#000000" points="974.1374,-924.7557 980.9538,-916.6447 970.5671,-918.7346 974.1374,-924.7557"/>
</g>
<!-- helbred&#45;&gt;doctor -->
<g id="edge62" class="edge">
<title>helbred&#45;&gt;doctor</title>
<path fill="none" stroke="#000000" d="M907.4756,-971.7302C988.6982,-953.4197 1213.6271,-901.2746 1397.3736,-845.2001 1403.2822,-843.397 1409.425,-841.407 1415.5211,-839.3579"/>
<polygon fill="#000000" stroke="#000000" points="1416.6933,-842.6561 1425.022,-836.1074 1414.4274,-836.0329 1416.6933,-842.6561"/>
</g>
<!-- penge&#45;&gt;spend_lovely_dkk -->
<g id="edge65" class="edge">
<title>penge&#45;&gt;spend_lovely_dkk</title>
<path fill="none" stroke="#000000" d="M515.6084,-1040.0821C512.9957,-1030.1964 509.6995,-1017.7251 506.761,-1006.6068"/>
<polygon fill="#000000" stroke="#000000" points="510.1318,-1005.6631 504.1927,-996.8894 503.3642,-1007.4518 510.1318,-1005.6631"/>
</g>
<!-- penge&#45;&gt;mobilepay -->
<g id="edge66" class="edge">
<title>penge&#45;&gt;mobilepay</title>
<path fill="none" stroke="#000000" d="M486.1868,-1053.5625C456.1307,-1047.6329 413.7847,-1034.1919 391.3736,-1004.1118 336.9777,-931.1017 345.6507,-816.3078 354.5609,-758.5867"/>
<polygon fill="#000000" stroke="#000000" points="358.0512,-758.9301 356.2122,-748.496 351.1431,-757.7995 358.0512,-758.9301"/>
</g>
<!-- rejser&#45;&gt;rejsekort -->
<g id="edge69" class="edge">
<title>rejser&#45;&gt;rejsekort</title>
<path fill="none" stroke="#000000" d="M137.7561,-1042.0328C126.6077,-1032.4045 112.0857,-1019.8625 98.9054,-1008.4793"/>
<polygon fill="#000000" stroke="#000000" points="101.1916,-1005.8292 91.3357,-1001.9418 96.6162,-1011.1269 101.1916,-1005.8292"/>
</g>
<!-- rejser&#45;&gt;pendlerkort -->
<g id="edge68" class="edge">
<title>rejser&#45;&gt;pendlerkort</title>
<path fill="none" stroke="#000000" d="M156.3736,-1039.9995C156.3736,-1010.4998 156.3736,-950.2395 156.3736,-899.2001 156.3736,-899.2001 156.3736,-899.2001 156.3736,-616.2224 156.3736,-560.8016 146.57,-497.1308 139.4943,-458.3943"/>
<polygon fill="#000000" stroke="#000000" points="142.8587,-457.3443 137.5813,-448.1574 135.9778,-458.6302 142.8587,-457.3443"/>
</g>
<!-- faa_ting_gjort&#45;&gt;activated_nemid -->
<g id="edge71" class="edge">
<title>faa_ting_gjort&#45;&gt;activated_nemid</title>
<path fill="none" stroke="#000000" d="M674.239,-885.2691C717.5875,-872.6526 781.9469,-853.921 830.764,-839.7129"/>
<polygon fill="#000000" stroke="#000000" points="831.9968,-842.9994 840.6203,-836.8443 830.0406,-836.2783 831.9968,-842.9994"/>
</g>
<!-- faa_ting_gjort&#45;&gt;danish_lessions -->
<g id="edge72" class="edge">
<title>faa_ting_gjort&#45;&gt;danish_lessions</title>
<path fill="none" stroke="#000000" d="M621.8353,-881.1704C619.3294,-871.2146 616.1633,-858.6364 613.3497,-847.4588"/>
<polygon fill="#000000" stroke="#000000" points="616.7292,-846.5458 610.894,-837.7027 609.9409,-848.2546 616.7292,-846.5458"/>
</g>
</g>
</svg>
