<?xml version="1.0" encoding="UTF-8" standalone="no"?>
<!DOCTYPE svg PUBLIC "-//W3C//DTD SVG 1.1//EN"
 "http://www.w3.org/Graphics/SVG/1.1/DTD/svg11.dtd">
<!-- Generated by graphviz version 2.40.1 (20161225.0304)
 -->
<!-- Title: g Pages: 1 -->
<svg width="1012pt" height="1075pt"
 viewBox="0.00 0.00 1011.87 1074.69" xmlns="http://www.w3.org/2000/svg" xmlns:xlink="http://www.w3.org/1999/xlink">
<g id="graph0" class="graph" transform="scale(1 1) rotate(0) translate(4 1070.6879)">
<title>g</title>
<polygon fill="#ffffff" stroke="transparent" points="-4,4 -4,-1070.6879 1007.8697,-1070.6879 1007.8697,4 -4,4"/>
<!-- job -->
<g id="node1" class="node">
<title>job</title>
<ellipse fill="#00ff00" stroke="#000000" cx="67" cy="-25.4558" rx="57.5098" ry="25.4118"/>
<text text-anchor="middle" x="67" y="-28.2558" font-family="Times,serif" font-size="14.00" fill="#000000">A job</text>
<text text-anchor="middle" x="67" y="-14.2558" font-family="Times,serif" font-size="14.00" fill="#000000">2018&#45;10&#45;19</text>
</g>
<!-- proof_of_work -->
<g id="node2" class="node">
<title>proof_of_work</title>
<ellipse fill="#00ff00" stroke="#000000" cx="133" cy="-122.267" rx="66.707" ry="25.4118"/>
<text text-anchor="middle" x="133" y="-125.067" font-family="Times,serif" font-size="14.00" fill="#000000">Proof of work</text>
<text text-anchor="middle" x="133" y="-111.067" font-family="Times,serif" font-size="14.00" fill="#000000">2019&#45;01&#45;22</text>
</g>
<!-- proof_of_work&#45;&gt;job -->
<g id="edge1" class="edge">
<title>proof_of_work&#45;&gt;job</title>
<path fill="none" stroke="#000000" d="M116.1746,-97.587C108.1066,-85.7526 98.325,-71.4045 89.6172,-58.6316"/>
<polygon fill="#000000" stroke="#000000" points="92.3195,-56.3819 83.7946,-50.0908 86.5357,-60.325 92.3195,-56.3819"/>
</g>
<!-- passport -->
<g id="node3" class="node">
<title>passport</title>
<ellipse fill="#00ff00" stroke="#000000" cx="591" cy="-122.267" rx="44.7298" ry="25.4118"/>
<text text-anchor="middle" x="591" y="-125.067" font-family="Times,serif" font-size="14.00" fill="#000000">Passport</text>
<text text-anchor="middle" x="591" y="-111.067" font-family="Times,serif" font-size="14.00" fill="#000000">2015</text>
</g>
<!-- danish_phone_number -->
<g id="node4" class="node">
<title>danish_phone_number</title>
<ellipse fill="#00ff00" stroke="#000000" cx="593" cy="-658.524" rx="98.9836" ry="25.4118"/>
<text text-anchor="middle" x="593" y="-661.324" font-family="Times,serif" font-size="14.00" fill="#000000">Danish phone number</text>
<text text-anchor="middle" x="593" y="-647.324" font-family="Times,serif" font-size="14.00" fill="#000000">2019&#45;01&#45;17</text>
</g>
<!-- rejsekort -->
<g id="node5" class="node">
<title>rejsekort</title>
<ellipse fill="#00ff00" stroke="#000000" cx="867" cy="-889.4356" rx="64.2475" ry="25.4118"/>
<text text-anchor="middle" x="867" y="-892.2356" font-family="Times,serif" font-size="14.00" fill="#000000">Rejsekort</text>
<text text-anchor="middle" x="867" y="-878.2356" font-family="Times,serif" font-size="14.00" fill="#000000">2018&#45;10&#45;19 ?</text>
</g>
<!-- place_to_live -->
<g id="node6" class="node">
<title>place_to_live</title>
<ellipse fill="#00ff00" stroke="#000000" cx="683" cy="-25.4558" rx="68.5454" ry="25.4118"/>
<text text-anchor="middle" x="683" y="-28.2558" font-family="Times,serif" font-size="14.00" fill="#000000">A place to live</text>
<text text-anchor="middle" x="683" y="-14.2558" font-family="Times,serif" font-size="14.00" fill="#000000">2019&#45;01&#45;21</text>
</g>
<!-- name_on_postbox -->
<g id="node7" class="node">
<title>name_on_postbox</title>
<ellipse fill="#00ff00" stroke="#000000" cx="797" cy="-122.267" rx="66.9194" ry="35.2113"/>
<text text-anchor="middle" x="797" y="-132.067" font-family="Times,serif" font-size="14.00" fill="#000000">Your name on</text>
<text text-anchor="middle" x="797" y="-118.067" font-family="Times,serif" font-size="14.00" fill="#000000">your postbox</text>
<text text-anchor="middle" x="797" y="-104.067" font-family="Times,serif" font-size="14.00" fill="#000000">2019&#45;01&#45;22</text>
</g>
<!-- name_on_postbox&#45;&gt;place_to_live -->
<g id="edge2" class="edge">
<title>name_on_postbox&#45;&gt;place_to_live</title>
<path fill="none" stroke="#000000" d="M761.5546,-92.166C747.8951,-80.5661 732.2989,-67.3215 718.6227,-55.7074"/>
<polygon fill="#000000" stroke="#000000" points="720.7094,-52.8877 710.8215,-49.0824 716.1782,-58.2233 720.7094,-52.8877"/>
</g>
<!-- can_receive_post -->
<g id="node8" class="node">
<title>can_receive_post</title>
<ellipse fill="#00ff00" stroke="#000000" cx="792" cy="-228.9777" rx="99.6266" ry="25.4118"/>
<text text-anchor="middle" x="792" y="-231.7777" font-family="Times,serif" font-size="14.00" fill="#000000">Ability to receive post</text>
<text text-anchor="middle" x="792" y="-217.7777" font-family="Times,serif" font-size="14.00" fill="#000000">2019&#45;01&#45;22</text>
</g>
<!-- can_receive_post&#45;&gt;place_to_live -->
<g id="edge3" class="edge">
<title>can_receive_post&#45;&gt;place_to_live</title>
<path fill="none" stroke="#000000" d="M761.4585,-204.6253C747.3517,-191.949 731.4503,-175.3998 721,-157.6224 703.3515,-127.5999 693.4778,-88.8815 688.2486,-61.1238"/>
<polygon fill="#000000" stroke="#000000" points="691.657,-60.2987 686.4654,-51.0631 684.7645,-61.5205 691.657,-60.2987"/>
</g>
<!-- can_receive_post&#45;&gt;name_on_postbox -->
<g id="edge4" class="edge">
<title>can_receive_post&#45;&gt;name_on_postbox</title>
<path fill="none" stroke="#000000" d="M793.1976,-203.4178C793.6987,-192.7239 794.2966,-179.963 794.8683,-167.7627"/>
<polygon fill="#000000" stroke="#000000" points="798.3676,-167.8569 795.3396,-157.704 791.3753,-167.5292 798.3676,-167.8569"/>
</g>
<!-- pendlerkort -->
<g id="node9" class="node">
<title>pendlerkort</title>
<ellipse fill="none" stroke="#000000" cx="953" cy="-571.6123" rx="50.7397" ry="18"/>
<text text-anchor="middle" x="953" y="-567.4123" font-family="Times,serif" font-size="14.00" fill="#000000">pendlerkort</text>
</g>
<!-- pendlerkort&#45;&gt;place_to_live -->
<g id="edge5" class="edge">
<title>pendlerkort&#45;&gt;place_to_live</title>
<path fill="none" stroke="#000000" d="M949.8024,-553.5672C944.8779,-524.1618 936,-464.0311 936,-412.7006 936,-412.7006 936,-412.7006 936,-228.9777 936,-159.9073 924.3258,-133.1327 873,-86.9117 841.5471,-58.587 796.88,-43.3013 758.7566,-35.0599"/>
<polygon fill="#000000" stroke="#000000" points="759.2042,-31.5793 748.7071,-33.015 757.8084,-38.4388 759.2042,-31.5793"/>
</g>
<!-- eu_residence_document_application -->
<g id="node10" class="node">
<title>eu_residence_document_application</title>
<ellipse fill="#00ff00" stroke="#000000" cx="275" cy="-228.9777" rx="105.7427" ry="35.2113"/>
<text text-anchor="middle" x="275" y="-238.7777" font-family="Times,serif" font-size="14.00" fill="#000000">Application for</text>
<text text-anchor="middle" x="275" y="-224.7777" font-family="Times,serif" font-size="14.00" fill="#000000">EU residence document</text>
<text text-anchor="middle" x="275" y="-210.7777" font-family="Times,serif" font-size="14.00" fill="#000000">2019&#45;01&#45;23</text>
</g>
<!-- eu_residence_document_application&#45;&gt;proof_of_work -->
<g id="edge7" class="edge">
<title>eu_residence_document_application&#45;&gt;proof_of_work</title>
<path fill="none" stroke="#000000" d="M231.6237,-196.3812C212.5268,-182.0301 190.2711,-165.3053 171.7394,-151.3791"/>
<polygon fill="#000000" stroke="#000000" points="173.6086,-148.4056 163.5116,-145.196 169.4033,-154.0016 173.6086,-148.4056"/>
</g>
<!-- eu_residence_document_application&#45;&gt;passport -->
<g id="edge8" class="edge">
<title>eu_residence_document_application&#45;&gt;passport</title>
<path fill="none" stroke="#000000" d="M353.9771,-205.3484C367.6369,-201.3648 381.7147,-197.3241 395,-193.6224 455.6458,-176.7243 473.9749,-182.0466 532,-157.6224 539.037,-154.6603 546.2393,-150.9724 553.0853,-147.1061"/>
<polygon fill="#000000" stroke="#000000" points="555.3053,-149.8609 562.1509,-141.7745 551.7567,-143.827 555.3053,-149.8609"/>
</g>
<!-- eu_residence_document_application&#45;&gt;place_to_live -->
<g id="edge6" class="edge">
<title>eu_residence_document_application&#45;&gt;place_to_live</title>
<path fill="none" stroke="#000000" d="M354.1464,-205.2967C416.2053,-186.4853 493.0734,-162.5441 499,-157.6224 526.4472,-134.8289 510.6063,-110.9172 537,-86.9117 559.1967,-66.7235 588.9915,-52.5807 615.8767,-42.9973"/>
<polygon fill="#000000" stroke="#000000" points="617.2961,-46.2112 625.6306,-39.6701 615.0361,-39.586 617.2961,-46.2112"/>
</g>
<!-- od1_form -->
<g id="node11" class="node">
<title>od1_form</title>
<ellipse fill="#00ff00" stroke="#000000" cx="275" cy="-122.267" rx="57.5098" ry="25.4118"/>
<text text-anchor="middle" x="275" y="-125.067" font-family="Times,serif" font-size="14.00" fill="#000000">OD1 form</text>
<text text-anchor="middle" x="275" y="-111.067" font-family="Times,serif" font-size="14.00" fill="#000000">2019&#45;01&#45;22</text>
</g>
<!-- eu_residence_document_application&#45;&gt;od1_form -->
<g id="edge9" class="edge">
<title>eu_residence_document_application&#45;&gt;od1_form</title>
<path fill="none" stroke="#000000" d="M275,-193.4446C275,-182.0254 275,-169.3758 275,-157.9462"/>
<polygon fill="#000000" stroke="#000000" points="278.5001,-157.8629 275,-147.8629 271.5001,-157.863 278.5001,-157.8629"/>
</g>
<!-- passport_photo -->
<g id="node12" class="node">
<title>passport_photo</title>
<ellipse fill="#00ff00" stroke="#000000" cx="420" cy="-122.267" rx="69.7781" ry="25.4118"/>
<text text-anchor="middle" x="420" y="-125.067" font-family="Times,serif" font-size="14.00" fill="#000000">Passport photo</text>
<text text-anchor="middle" x="420" y="-111.067" font-family="Times,serif" font-size="14.00" fill="#000000">2019&#45;01&#45;23</text>
</g>
<!-- eu_residence_document_application&#45;&gt;passport_photo -->
<g id="edge10" class="edge">
<title>eu_residence_document_application&#45;&gt;passport_photo</title>
<path fill="none" stroke="#000000" d="M318.8983,-196.6714C338.5027,-182.2438 361.4302,-165.3707 380.4907,-151.3433"/>
<polygon fill="#000000" stroke="#000000" points="382.6958,-154.0662 388.6753,-145.32 378.5466,-148.4284 382.6958,-154.0662"/>
</g>
<!-- eu_residence_document -->
<g id="node13" class="node">
<title>eu_residence_document</title>
<ellipse fill="#ffff00" stroke="#000000" cx="543" cy="-325.7889" rx="94.655" ry="18"/>
<text text-anchor="middle" x="543" y="-321.5889" font-family="Times,serif" font-size="14.00" fill="#000000">EU residence document</text>
</g>
<!-- eu_residence_document&#45;&gt;can_receive_post -->
<g id="edge12" class="edge">
<title>eu_residence_document&#45;&gt;can_receive_post</title>
<path fill="none" stroke="#000000" d="M584.677,-309.5849C623.7111,-294.4084 682.6242,-271.503 727.6857,-253.9831"/>
<polygon fill="#000000" stroke="#000000" points="729.027,-257.2169 737.079,-250.331 726.4903,-250.6927 729.027,-257.2169"/>
</g>
<!-- eu_residence_document&#45;&gt;eu_residence_document_application -->
<g id="edge11" class="edge">
<title>eu_residence_document&#45;&gt;eu_residence_document_application</title>
<path fill="none" stroke="#ff0000" d="M498.7453,-309.8025C460.2177,-295.885 403.3715,-275.3501 356.6205,-258.4619"/>
<polygon fill="#ff0000" stroke="#ff0000" points="357.7053,-255.1325 347.111,-255.0268 355.327,-261.7161 357.7053,-255.1325"/>
</g>
<!-- cpr_number_application -->
<g id="node14" class="node">
<title>cpr_number_application</title>
<ellipse fill="none" stroke="#000000" cx="334" cy="-412.7006" rx="72.138" ry="25.4118"/>
<text text-anchor="middle" x="334" y="-415.5006" font-family="Times,serif" font-size="14.00" fill="#000000">Application for</text>
<text text-anchor="middle" x="334" y="-401.5006" font-family="Times,serif" font-size="14.00" fill="#000000">CPR number</text>
</g>
<!-- cpr_number_application&#45;&gt;proof_of_work -->
<g id="edge14" class="edge">
<title>cpr_number_application&#45;&gt;proof_of_work</title>
<path fill="none" stroke="#000000" d="M293.3959,-391.444C251.5112,-367.0243 188.4178,-322.6898 160,-264.333 143.6027,-230.6607 137.1473,-187.9898 134.615,-158.2423"/>
<polygon fill="#000000" stroke="#000000" points="138.0787,-157.6217 133.8484,-147.908 131.0979,-158.1396 138.0787,-157.6217"/>
</g>
<!-- cpr_number_application&#45;&gt;passport -->
<g id="edge16" class="edge">
<title>cpr_number_application&#45;&gt;passport</title>
<path fill="none" stroke="#000000" d="M300.2543,-389.9887C288.0074,-379.7464 275.5735,-366.5064 269,-351.2447 260.0488,-330.4631 255.4724,-318.4715 269,-300.333 302.5435,-255.3566 339.5326,-288.8503 390,-264.333 454.4121,-233.0414 520.6259,-181.8401 558.6811,-150.2042"/>
<polygon fill="#000000" stroke="#000000" points="560.9482,-152.8709 566.3635,-143.7646 556.4514,-147.5063 560.9482,-152.8709"/>
</g>
<!-- cpr_number_application&#45;&gt;eu_residence_document -->
<g id="edge13" class="edge">
<title>cpr_number_application&#45;&gt;eu_residence_document</title>
<path fill="none" stroke="#000000" d="M380.9037,-393.1959C414.6765,-379.1516 460.1213,-360.2536 494.2987,-346.0411"/>
<polygon fill="#000000" stroke="#000000" points="495.7311,-349.2361 503.6206,-342.1646 493.0432,-342.7727 495.7311,-349.2361"/>
</g>
<!-- proof_of_address -->
<g id="node15" class="node">
<title>proof_of_address</title>
<ellipse fill="#00ff00" stroke="#000000" cx="354" cy="-325.7889" rx="76.3945" ry="25.4118"/>
<text text-anchor="middle" x="354" y="-328.5889" font-family="Times,serif" font-size="14.00" fill="#000000">Proof of address</text>
<text text-anchor="middle" x="354" y="-314.5889" font-family="Times,serif" font-size="14.00" fill="#000000">2019&#45;01&#45;21</text>
</g>
<!-- cpr_number_application&#45;&gt;proof_of_address -->
<g id="edge15" class="edge">
<title>cpr_number_application&#45;&gt;proof_of_address</title>
<path fill="none" stroke="#000000" d="M339.8925,-387.0943C341.7642,-378.9607 343.8682,-369.8174 345.8688,-361.1238"/>
<polygon fill="#000000" stroke="#000000" points="349.3178,-361.7424 348.1496,-351.2122 342.4961,-360.1725 349.3178,-361.7424"/>
</g>
<!-- proof_of_address&#45;&gt;place_to_live -->
<g id="edge19" class="edge">
<title>proof_of_address&#45;&gt;place_to_live</title>
<path fill="none" stroke="#000000" d="M409.5066,-308.1869C475.3571,-284.4666 583.8879,-235.942 645,-157.6224 666.7798,-129.71 676.0779,-89.7878 680.0465,-61.1348"/>
<polygon fill="#000000" stroke="#000000" points="683.5298,-61.4848 681.2807,-51.1315 676.5824,-60.6276 683.5298,-61.4848"/>
</g>
<!-- cpr_number -->
<g id="node16" class="node">
<title>cpr_number</title>
<ellipse fill="none" stroke="#000000" cx="334" cy="-492.1564" rx="56.0942" ry="18"/>
<text text-anchor="middle" x="334" y="-487.9564" font-family="Times,serif" font-size="14.00" fill="#000000">CPR number</text>
</g>
<!-- cpr_number&#45;&gt;can_receive_post -->
<g id="edge18" class="edge">
<title>cpr_number&#45;&gt;can_receive_post</title>
<path fill="none" stroke="#000000" d="M372.328,-478.8484C433.1044,-456.896 554.2012,-409.6555 647,-351.2447 688.7755,-324.9498 731.3455,-287.5254 759.455,-261.0221"/>
<polygon fill="#000000" stroke="#000000" points="762.1555,-263.2837 766.9872,-253.8547 757.3301,-258.2127 762.1555,-263.2837"/>
</g>
<!-- cpr_number&#45;&gt;cpr_number_application -->
<g id="edge17" class="edge">
<title>cpr_number&#45;&gt;cpr_number_application</title>
<path fill="none" stroke="#ff0000" d="M334,-474.1267C334,-466.4917 334,-457.3145 334,-448.4094"/>
<polygon fill="#ff0000" stroke="#ff0000" points="337.5001,-448.1892 334,-438.1893 330.5001,-448.1893 337.5001,-448.1892"/>
</g>
<!-- skattekort -->
<g id="node17" class="node">
<title>skattekort</title>
<ellipse fill="none" stroke="#000000" cx="240" cy="-571.6123" rx="46.4132" ry="18"/>
<text text-anchor="middle" x="240" y="-567.4123" font-family="Times,serif" font-size="14.00" fill="#000000">Skattekort</text>
</g>
<!-- skattekort&#45;&gt;cpr_number -->
<g id="edge20" class="edge">
<title>skattekort&#45;&gt;cpr_number</title>
<path fill="none" stroke="#000000" stroke-dasharray="1,5" d="M259.4769,-555.149C272.9074,-543.7965 290.9674,-528.5308 305.9449,-515.8707"/>
<polygon fill="#000000" stroke="#000000" points="308.5218,-518.2754 313.8995,-509.1469 304.0029,-512.9294 308.5218,-518.2754"/>
</g>
<!-- nemid_application -->
<g id="node18" class="node">
<title>nemid_application</title>
<ellipse fill="none" stroke="#000000" cx="528" cy="-571.6123" rx="72.138" ry="25.4118"/>
<text text-anchor="middle" x="528" y="-574.4123" font-family="Times,serif" font-size="14.00" fill="#000000">Application for</text>
<text text-anchor="middle" x="528" y="-560.4123" font-family="Times,serif" font-size="14.00" fill="#000000">Nemid</text>
</g>
<!-- nemid_application&#45;&gt;cpr_number -->
<g id="edge21" class="edge">
<title>nemid_application&#45;&gt;cpr_number</title>
<path fill="none" stroke="#000000" d="M480.5423,-552.1752C449.3665,-539.4066 408.8575,-522.8155 378.3338,-510.314"/>
<polygon fill="#000000" stroke="#000000" points="379.3793,-506.9601 368.7988,-506.4088 376.7262,-513.4379 379.3793,-506.9601"/>
</g>
<!-- nemid -->
<g id="node19" class="node">
<title>nemid</title>
<ellipse fill="none" stroke="#000000" cx="366" cy="-658.524" rx="34.3527" ry="18"/>
<text text-anchor="middle" x="366" y="-654.324" font-family="Times,serif" font-size="14.00" fill="#000000">Nemid</text>
</g>
<!-- nemid&#45;&gt;nemid_application -->
<g id="edge22" class="edge">
<title>nemid&#45;&gt;nemid_application</title>
<path fill="none" stroke="#000000" d="M390.253,-645.5124C413.6906,-632.9383 449.8667,-613.5301 479.2648,-597.7583"/>
<polygon fill="#000000" stroke="#000000" points="480.9918,-600.8037 488.1491,-592.992 477.6825,-594.6354 480.9918,-600.8037"/>
</g>
<!-- danish_bank_account -->
<g id="node20" class="node">
<title>danish_bank_account</title>
<ellipse fill="none" stroke="#000000" cx="428" cy="-737.9798" rx="84.041" ry="18"/>
<text text-anchor="middle" x="428" y="-733.7798" font-family="Times,serif" font-size="14.00" fill="#000000">Danish bank account</text>
</g>
<!-- danish_bank_account&#45;&gt;proof_of_work -->
<g id="edge24" class="edge">
<title>danish_bank_account&#45;&gt;proof_of_work</title>
<path fill="none" stroke="#000000" d="M371.0451,-724.5644C274.7177,-698.1084 90,-629.4741 90,-492.1564 90,-492.1564 90,-492.1564 90,-325.7889 90,-265.5298 108.2679,-197.3604 120.9899,-157.1927"/>
<polygon fill="#000000" stroke="#000000" points="124.3434,-158.1975 124.0904,-147.6057 117.683,-156.0435 124.3434,-158.1975"/>
</g>
<!-- danish_bank_account&#45;&gt;passport -->
<g id="edge26" class="edge">
<title>danish_bank_account&#45;&gt;passport</title>
<path fill="none" stroke="#000000" d="M433.0219,-719.9493C440.4832,-696.4887 456.7441,-655.8162 485,-633.0681 529.7006,-597.0808 564.2994,-633.0555 609,-597.0681 650.3343,-563.7909 666,-545.2214 666,-492.1564 666,-492.1564 666,-492.1564 666,-412.7006 666,-317.3465 627.6315,-209.8161 605.7805,-156.3088"/>
<polygon fill="#000000" stroke="#000000" points="608.9684,-154.859 601.9056,-146.9616 602.502,-157.5397 608.9684,-154.859"/>
</g>
<!-- danish_bank_account&#45;&gt;danish_phone_number -->
<g id="edge27" class="edge">
<title>danish_bank_account&#45;&gt;danish_phone_number</title>
<path fill="none" stroke="#000000" d="M462.1881,-721.5165C483.7829,-711.1175 512.1962,-697.435 537.0234,-685.4795"/>
<polygon fill="#000000" stroke="#000000" points="538.8502,-688.4846 546.3414,-680.9924 535.8131,-682.1777 538.8502,-688.4846"/>
</g>
<!-- danish_bank_account&#45;&gt;cpr_number -->
<g id="edge23" class="edge">
<title>danish_bank_account&#45;&gt;cpr_number</title>
<path fill="none" stroke="#000000" d="M426.4234,-719.7262C424.194,-698.4466 419.1984,-662.4452 409,-633.0681 394.3836,-590.9646 368.5333,-546.1508 351.3317,-518.6477"/>
<polygon fill="#000000" stroke="#000000" points="354.1684,-516.5854 345.8584,-510.0131 348.2562,-520.3331 354.1684,-516.5854"/>
</g>
<!-- danish_bank_account&#45;&gt;nemid -->
<g id="edge25" class="edge">
<title>danish_bank_account&#45;&gt;nemid</title>
<path fill="none" stroke="#000000" stroke-dasharray="1,5" d="M413.9312,-719.95C405.5363,-709.1916 394.7518,-695.3708 385.5391,-683.5642"/>
<polygon fill="#000000" stroke="#000000" points="388.0764,-681.1265 379.1652,-675.3958 382.5577,-685.4328 388.0764,-681.1265"/>
</g>
<!-- activated_nemid -->
<g id="node21" class="node">
<title>activated_nemid</title>
<ellipse fill="none" stroke="#000000" cx="639" cy="-737.9798" rx="70.5271" ry="18"/>
<text text-anchor="middle" x="639" y="-733.7798" font-family="Times,serif" font-size="14.00" fill="#000000">Activated Nemid</text>
</g>
<!-- activated_nemid&#45;&gt;danish_phone_number -->
<g id="edge29" class="edge">
<title>activated_nemid&#45;&gt;danish_phone_number</title>
<path fill="none" stroke="#000000" d="M628.5619,-719.95C623.8613,-711.8308 618.151,-701.9673 612.6942,-692.5418"/>
<polygon fill="#000000" stroke="#000000" points="615.6207,-690.611 607.5813,-683.7103 609.5627,-694.1183 615.6207,-690.611"/>
</g>
<!-- activated_nemid&#45;&gt;nemid -->
<g id="edge28" class="edge">
<title>activated_nemid&#45;&gt;nemid</title>
<path fill="none" stroke="#000000" d="M592.3798,-724.4111C539.807,-709.11 455.2131,-684.4892 405.679,-670.0724"/>
<polygon fill="#000000" stroke="#000000" points="406.5422,-666.6785 395.9625,-667.2444 404.586,-673.3996 406.5422,-666.6785"/>
</g>
<!-- noglekort -->
<g id="node22" class="node">
<title>noglekort</title>
<ellipse fill="none" stroke="#000000" cx="756" cy="-658.524" rx="45.9286" ry="18"/>
<text text-anchor="middle" x="756" y="-654.324" font-family="Times,serif" font-size="14.00" fill="#000000">Nøglekort</text>
</g>
<!-- activated_nemid&#45;&gt;noglekort -->
<g id="edge30" class="edge">
<title>activated_nemid&#45;&gt;noglekort</title>
<path fill="none" stroke="#000000" d="M664.0994,-720.9345C681.8006,-708.9135 705.6376,-692.7256 724.5989,-679.8487"/>
<polygon fill="#000000" stroke="#000000" points="726.6219,-682.7058 732.9282,-674.1922 722.6892,-676.9149 726.6219,-682.7058"/>
</g>
<!-- noglekort&#45;&gt;can_receive_post -->
<g id="edge32" class="edge">
<title>noglekort&#45;&gt;can_receive_post</title>
<path fill="none" stroke="#000000" stroke-dasharray="1,5" d="M759.3015,-640.1302C764.4979,-609.5318 774,-546.1928 774,-492.1564 774,-492.1564 774,-492.1564 774,-412.7006 774,-361.0703 781.1281,-301.6658 786.413,-264.7173"/>
<polygon fill="#000000" stroke="#000000" points="789.9289,-264.8627 787.9155,-254.461 783.0029,-263.848 789.9289,-264.8627"/>
</g>
<!-- noglekort&#45;&gt;nemid_application -->
<g id="edge31" class="edge">
<title>noglekort&#45;&gt;nemid_application</title>
<path fill="none" stroke="#ff0000" stroke-dasharray="1,5" d="M726.8201,-644.4111C718.5425,-640.574 709.4756,-636.5263 701,-633.0681 664.8732,-618.3276 623.7385,-603.6318 590.6461,-592.3086"/>
<polygon fill="#ff0000" stroke="#ff0000" points="591.6883,-588.9662 581.0938,-589.0572 589.4326,-595.5929 591.6883,-588.9662"/>
</g>
<!-- ehic -->
<g id="node23" class="node">
<title>ehic</title>
<ellipse fill="none" stroke="#000000" cx="154" cy="-737.9798" rx="58.0063" ry="18"/>
<text text-anchor="middle" x="154" y="-733.7798" font-family="Times,serif" font-size="14.00" fill="#000000">Danish EHIC</text>
</g>
<!-- ehic&#45;&gt;place_to_live -->
<g id="edge35" class="edge">
<title>ehic&#45;&gt;place_to_live</title>
<path fill="none" stroke="#000000" d="M113.2462,-724.8673C93.2358,-716.3476 70.5699,-703.1834 57,-683.9798 27.7703,-642.615 38,-622.2623 38,-571.6123 38,-571.6123 38,-571.6123 38,-228.9777 38,-165.2751 11.172,-131.159 57,-86.9117 95.6288,-49.6152 444.408,-33.3523 603.9669,-27.8181"/>
<polygon fill="#000000" stroke="#000000" points="604.323,-31.3081 614.1978,-27.469 604.0843,-24.3122 604.323,-31.3081"/>
</g>
<!-- ehic&#45;&gt;cpr_number -->
<g id="edge33" class="edge">
<title>ehic&#45;&gt;cpr_number</title>
<path fill="none" stroke="#000000" d="M151.3935,-719.9837C147.0818,-682.9067 142.7198,-597.2112 185,-546.1564 197.485,-531.0804 242.12,-516.0815 279.3102,-505.7312"/>
<polygon fill="#000000" stroke="#000000" points="280.3455,-509.0768 289.0737,-503.0711 278.5053,-502.323 280.3455,-509.0768"/>
</g>
<!-- ehic&#45;&gt;nemid -->
<g id="edge34" class="edge">
<title>ehic&#45;&gt;nemid</title>
<path fill="none" stroke="#000000" d="M191.4133,-723.9576C229.932,-709.5211 289.6261,-687.1483 328.2629,-672.6675"/>
<polygon fill="#000000" stroke="#000000" points="329.9507,-675.7727 338.0863,-668.9858 327.494,-669.218 329.9507,-675.7727"/>
</g>
<!-- doctor -->
<g id="node24" class="node">
<title>doctor</title>
<ellipse fill="none" stroke="#000000" cx="101" cy="-658.524" rx="34.8285" ry="18"/>
<text text-anchor="middle" x="101" y="-654.324" font-family="Times,serif" font-size="14.00" fill="#000000">Doctor</text>
</g>
<!-- doctor&#45;&gt;cpr_number -->
<g id="edge36" class="edge">
<title>doctor&#45;&gt;cpr_number</title>
<path fill="none" stroke="#000000" d="M104.3102,-640.5616C109.8209,-615.7444 123.2449,-571.2031 152,-546.1564 170.6967,-529.8709 230.2845,-514.0752 276.2389,-503.8191"/>
<polygon fill="#000000" stroke="#000000" points="277.0952,-507.2146 286.1129,-501.6529 275.5951,-500.3772 277.0952,-507.2146"/>
</g>
<!-- get_paid -->
<g id="node25" class="node">
<title>get_paid</title>
<ellipse fill="none" stroke="#000000" cx="278" cy="-809.9798" rx="40.1247" ry="18"/>
<text text-anchor="middle" x="278" y="-805.7798" font-family="Times,serif" font-size="14.00" fill="#000000">Get paid</text>
</g>
<!-- get_paid&#45;&gt;job -->
<g id="edge37" class="edge">
<title>get_paid&#45;&gt;job</title>
<path fill="none" stroke="#000000" d="M241.2335,-802.1653C193.3474,-791.551 112.7122,-772.0562 87,-755.9798 37.769,-725.1983 0,-716.5859 0,-658.524 0,-658.524 0,-658.524 0,-228.9777 0,-164.7071 3.0175,-146.5402 27,-86.9117 30.9546,-77.0792 36.5673,-67.1425 42.3414,-58.2093"/>
<polygon fill="#000000" stroke="#000000" points="45.4234,-59.8991 48.1139,-49.6516 39.6202,-55.9846 45.4234,-59.8991"/>
</g>
<!-- get_paid&#45;&gt;skattekort -->
<g id="edge38" class="edge">
<title>get_paid&#45;&gt;skattekort</title>
<path fill="none" stroke="#000000" d="M275.0813,-791.6713C268.4753,-750.2329 252.3425,-649.0347 244.4693,-599.6474"/>
<polygon fill="#000000" stroke="#000000" points="247.9074,-598.9811 242.8766,-589.6569 240.9947,-600.0832 247.9074,-598.9811"/>
</g>
<!-- get_paid&#45;&gt;nemid -->
<g id="edge40" class="edge">
<title>get_paid&#45;&gt;nemid</title>
<path fill="none" stroke="#000000" d="M288.2669,-792.3095C303.6339,-765.8615 332.7202,-715.8015 350.6275,-684.9814"/>
<polygon fill="#000000" stroke="#000000" points="353.8008,-686.4866 355.7984,-676.0817 347.7483,-682.9698 353.8008,-686.4866"/>
</g>
<!-- get_paid&#45;&gt;danish_bank_account -->
<g id="edge39" class="edge">
<title>get_paid&#45;&gt;danish_bank_account</title>
<path fill="none" stroke="#000000" d="M305.5123,-796.7739C327.5831,-786.1799 358.9744,-771.1121 384.4521,-758.8828"/>
<polygon fill="#000000" stroke="#000000" points="386.0422,-762.0019 393.5429,-754.5192 383.013,-755.6913 386.0422,-762.0019"/>
</g>
<!-- danish_lessions -->
<g id="node26" class="node">
<title>danish_lessions</title>
<ellipse fill="none" stroke="#000000" cx="722" cy="-889.4356" rx="62.8431" ry="18"/>
<text text-anchor="middle" x="722" y="-885.2356" font-family="Times,serif" font-size="14.00" fill="#000000">Danish lessons</text>
</g>
<!-- danish_lessions&#45;&gt;cpr_number -->
<g id="edge41" class="edge">
<title>danish_lessions&#45;&gt;cpr_number</title>
<path fill="none" stroke="#000000" d="M738.0665,-871.9364C775.9553,-828.4763 863.852,-713.3444 811,-633.0681 764.9186,-563.0756 514.5186,-518.216 396.1079,-500.6128"/>
<polygon fill="#000000" stroke="#000000" points="396.5015,-497.1332 386.099,-499.1432 395.4845,-504.0589 396.5015,-497.1332"/>
</g>
<!-- danish_bank_card -->
<g id="node27" class="node">
<title>danish_bank_card</title>
<ellipse fill="none" stroke="#000000" cx="531" cy="-809.9798" rx="71.979" ry="18"/>
<text text-anchor="middle" x="531" y="-805.7798" font-family="Times,serif" font-size="14.00" fill="#000000">Danish bank card</text>
</g>
<!-- danish_lessions&#45;&gt;danish_bank_card -->
<g id="edge42" class="edge">
<title>danish_lessions&#45;&gt;danish_bank_card</title>
<path fill="none" stroke="#000000" d="M686.0744,-874.4906C655.4863,-861.766 611.3222,-843.3938 577.942,-829.5076"/>
<polygon fill="#000000" stroke="#000000" points="578.9729,-826.1457 568.3956,-825.5363 576.2842,-832.6088 578.9729,-826.1457"/>
</g>
<!-- danish_bank_card&#45;&gt;can_receive_post -->
<g id="edge44" class="edge">
<title>danish_bank_card&#45;&gt;can_receive_post</title>
<path fill="none" stroke="#000000" d="M584.027,-797.7694C678.9308,-774.3653 868,-720.0221 868,-658.524 868,-658.524 868,-658.524 868,-412.7006 868,-356.8548 837.6449,-298.2161 815.3028,-262.6201"/>
<polygon fill="#000000" stroke="#000000" points="818.168,-260.6045 809.8186,-254.0824 812.2784,-264.3878 818.168,-260.6045"/>
</g>
<!-- danish_bank_card&#45;&gt;danish_bank_account -->
<g id="edge43" class="edge">
<title>danish_bank_card&#45;&gt;danish_bank_account</title>
<path fill="none" stroke="#ff0000" d="M506.5904,-792.9168C493.0641,-783.4615 476.0522,-771.5697 461.3182,-761.2702"/>
<polygon fill="#ff0000" stroke="#ff0000" points="463.1512,-758.2812 452.9499,-755.4205 459.1407,-764.0184 463.1512,-758.2812"/>
</g>
<!-- spend_lovely_dkk -->
<g id="node28" class="node">
<title>spend_lovely_dkk</title>
<ellipse fill="none" stroke="#000000" cx="333" cy="-889.4356" rx="99.0344" ry="18"/>
<text text-anchor="middle" x="333" y="-885.2356" font-family="Times,serif" font-size="14.00" fill="#000000">Spend your lovely DKK!</text>
</g>
<!-- spend_lovely_dkk&#45;&gt;get_paid -->
<g id="edge45" class="edge">
<title>spend_lovely_dkk&#45;&gt;get_paid</title>
<path fill="none" stroke="#000000" d="M320.5196,-871.4059C313.2459,-860.8978 303.9498,-847.4683 295.9059,-835.8476"/>
<polygon fill="#000000" stroke="#000000" points="298.6224,-833.6224 290.053,-827.3922 292.8668,-837.6065 298.6224,-833.6224"/>
</g>
<!-- spend_lovely_dkk&#45;&gt;danish_bank_card -->
<g id="edge46" class="edge">
<title>spend_lovely_dkk&#45;&gt;danish_bank_card</title>
<path fill="none" stroke="#000000" d="M374.0257,-872.9723C405.7791,-860.2299 449.8183,-842.5574 483.1711,-829.1732"/>
<polygon fill="#000000" stroke="#000000" points="484.7365,-832.3163 492.7136,-825.3438 482.1295,-825.8199 484.7365,-832.3163"/>
</g>
<!-- mobilepay -->
<g id="node29" class="node">
<title>mobilepay</title>
<ellipse fill="none" stroke="#000000" cx="393" cy="-809.9798" rx="48.3427" ry="18"/>
<text text-anchor="middle" x="393" y="-805.7798" font-family="Times,serif" font-size="14.00" fill="#000000">Mobilepay</text>
</g>
<!-- mobilepay&#45;&gt;danish_phone_number -->
<g id="edge48" class="edge">
<title>mobilepay&#45;&gt;danish_phone_number</title>
<path fill="none" stroke="#000000" d="M428.3298,-797.4794C460.7793,-785.5726 506.0281,-767.7651 521,-755.9798 542.886,-738.752 561.3932,-713.2748 574.162,-692.6902"/>
<polygon fill="#000000" stroke="#000000" points="577.2855,-694.2879 579.446,-683.9157 571.2888,-690.6767 577.2855,-694.2879"/>
</g>
<!-- mobilepay&#45;&gt;cpr_number -->
<g id="edge47" class="edge">
<title>mobilepay&#45;&gt;cpr_number</title>
<path fill="none" stroke="#000000" d="M369.6688,-794.1601C357.3847,-784.5696 343.2061,-771.2496 335,-755.9798 293.7056,-679.1396 313.3003,-570.612 326.0416,-520.0742"/>
<polygon fill="#000000" stroke="#000000" points="329.4792,-520.7633 328.6321,-510.2024 322.7084,-518.9865 329.4792,-520.7633"/>
</g>
<!-- mobilepay&#45;&gt;danish_bank_account -->
<g id="edge49" class="edge">
<title>mobilepay&#45;&gt;danish_bank_account</title>
<path fill="none" stroke="#000000" d="M401.6517,-792.182C405.6181,-784.0226 410.4074,-774.1702 414.809,-765.1156"/>
<polygon fill="#000000" stroke="#000000" points="417.9805,-766.5968 419.2047,-756.0729 411.685,-763.5364 417.9805,-766.5968"/>
</g>
<!-- hygge -->
<g id="node30" class="node">
<title>hygge</title>
<ellipse fill="none" stroke="#000000" cx="524" cy="-1044.7897" rx="101.1913" ry="21.7969"/>
<text text-anchor="middle" x="524" y="-1045.0741" font-family="Times,serif" font-size="14.00" fill="#000000">🇩🇰 😊 Hygge 😊 🇩🇰</text>
</g>
<!-- helbred -->
<g id="node31" class="node">
<title>helbred</title>
<ellipse fill="none" stroke="#000000" cx="154" cy="-809.9798" rx="33.8596" ry="18"/>
<text text-anchor="middle" x="154" y="-805.7798" font-family="Times,serif" font-size="14.00" fill="#000000">Health</text>
</g>
<!-- hygge&#45;&gt;helbred -->
<g id="edge50" class="edge">
<title>hygge&#45;&gt;helbred</title>
<path fill="none" stroke="#000000" d="M458.4855,-1028.0007C393.7435,-1008.8993 294.5673,-972.6408 225,-914.8915 199.1212,-893.4089 178.824,-860.1536 166.675,-836.8576"/>
<polygon fill="#000000" stroke="#000000" points="169.7584,-835.199 162.1241,-827.8526 163.5109,-838.3563 169.7584,-835.199"/>
</g>
<!-- penge -->
<g id="node32" class="node">
<title>penge</title>
<ellipse fill="none" stroke="#000000" cx="460" cy="-968.8915" rx="35.3216" ry="18"/>
<text text-anchor="middle" x="460" y="-964.6915" font-family="Times,serif" font-size="14.00" fill="#000000">Money</text>
</g>
<!-- hygge&#45;&gt;penge -->
<g id="edge53" class="edge">
<title>hygge&#45;&gt;penge</title>
<path fill="none" stroke="#000000" d="M505.8314,-1023.2433C497.9783,-1013.9303 488.7491,-1002.9853 480.6388,-993.3673"/>
<polygon fill="#000000" stroke="#000000" points="483.2663,-991.0538 474.1441,-985.6651 477.9149,-995.5663 483.2663,-991.0538"/>
</g>
<!-- rejser -->
<g id="node33" class="node">
<title>rejser</title>
<ellipse fill="none" stroke="#000000" cx="867" cy="-968.8915" rx="41.1266" ry="18"/>
<text text-anchor="middle" x="867" y="-964.6915" font-family="Times,serif" font-size="14.00" fill="#000000">Mobility</text>
</g>
<!-- hygge&#45;&gt;rejser -->
<g id="edge56" class="edge">
<title>hygge&#45;&gt;rejser</title>
<path fill="none" stroke="#000000" d="M595.0698,-1029.0635C662.635,-1014.1129 762.3099,-992.0571 820.3483,-979.2145"/>
<polygon fill="#000000" stroke="#000000" points="821.3286,-982.5823 830.3362,-977.0044 819.8162,-975.7476 821.3286,-982.5823"/>
</g>
<!-- faa_ting_gjort -->
<g id="node34" class="node">
<title>faa_ting_gjort</title>
<ellipse fill="none" stroke="#000000" cx="631" cy="-968.8915" rx="75.0675" ry="18"/>
<text text-anchor="middle" x="631" y="-964.6915" font-family="Times,serif" font-size="14.00" fill="#000000">Can get stuff done</text>
</g>
<!-- hygge&#45;&gt;faa_ting_gjort -->
<g id="edge59" class="edge">
<title>hygge&#45;&gt;faa_ting_gjort</title>
<path fill="none" stroke="#000000" d="M553.8055,-1023.6478C567.6318,-1013.8404 584.104,-1002.1562 598.2743,-992.1048"/>
<polygon fill="#000000" stroke="#000000" points="600.6241,-994.7291 606.7556,-986.0888 596.5742,-989.0196 600.6241,-994.7291"/>
</g>
<!-- helbred&#45;&gt;ehic -->
<g id="edge52" class="edge">
<title>helbred&#45;&gt;ehic</title>
<path fill="none" stroke="#000000" d="M154,-791.8112C154,-784.1108 154,-774.9541 154,-766.3964"/>
<polygon fill="#000000" stroke="#000000" points="157.5001,-766.393 154,-756.3931 150.5001,-766.3931 157.5001,-766.393"/>
</g>
<!-- helbred&#45;&gt;doctor -->
<g id="edge51" class="edge">
<title>helbred&#45;&gt;doctor</title>
<path fill="none" stroke="#000000" d="M129.4164,-797.5896C114.1294,-788.403 95.7682,-774.3083 87,-755.9798 76.4616,-733.951 82.0453,-706.1582 89.039,-685.8952"/>
<polygon fill="#000000" stroke="#000000" points="92.3906,-686.9259 92.6335,-676.3338 85.8383,-684.4626 92.3906,-686.9259"/>
</g>
<!-- penge&#45;&gt;spend_lovely_dkk -->
<g id="edge54" class="edge">
<title>penge&#45;&gt;spend_lovely_dkk</title>
<path fill="none" stroke="#000000" d="M437.5873,-954.8693C418.8114,-943.1224 391.6366,-926.1209 369.6931,-912.3922"/>
<polygon fill="#000000" stroke="#000000" points="371.2906,-909.2631 360.9566,-906.9263 367.5778,-915.1974 371.2906,-909.2631"/>
</g>
<!-- penge&#45;&gt;mobilepay -->
<g id="edge55" class="edge">
<title>penge&#45;&gt;mobilepay</title>
<path fill="none" stroke="#000000" d="M459.6511,-950.523C458.5841,-928.8194 454.6883,-892.1081 441,-863.9798 435.6511,-852.9883 427.4187,-842.5399 419.2733,-833.8138"/>
<polygon fill="#000000" stroke="#000000" points="421.7146,-831.3044 412.2123,-826.6185 416.7184,-836.2073 421.7146,-831.3044"/>
</g>
<!-- rejser&#45;&gt;rejsekort -->
<g id="edge58" class="edge">
<title>rejser&#45;&gt;rejsekort</title>
<path fill="none" stroke="#000000" d="M867,-950.8617C867,-943.2268 867,-934.0495 867,-925.1444"/>
<polygon fill="#000000" stroke="#000000" points="870.5001,-924.9243 867,-914.9243 863.5001,-924.9244 870.5001,-924.9243"/>
</g>
<!-- rejser&#45;&gt;pendlerkort -->
<g id="edge57" class="edge">
<title>rejser&#45;&gt;pendlerkort</title>
<path fill="none" stroke="#000000" d="M894.4144,-955.3823C910.2313,-946.1555 929.0911,-932.4262 940,-914.8915 965.0314,-874.6565 959,-857.3657 959,-809.9798 959,-809.9798 959,-809.9798 959,-737.9798 959,-689.6818 956.4433,-633.548 954.6678,-600.3886"/>
<polygon fill="#000000" stroke="#000000" points="958.1442,-599.8613 954.1005,-590.0685 951.1548,-600.2456 958.1442,-599.8613"/>
</g>
<!-- faa_ting_gjort&#45;&gt;activated_nemid -->
<g id="edge60" class="edge">
<title>faa_ting_gjort&#45;&gt;activated_nemid</title>
<path fill="none" stroke="#000000" d="M631.6277,-950.7722C633.0181,-910.6418 636.3652,-814.0316 638.0283,-766.0271"/>
<polygon fill="#000000" stroke="#000000" points="641.5267,-766.1301 638.3752,-756.0149 634.5309,-765.8877 641.5267,-766.1301"/>
</g>
<!-- faa_ting_gjort&#45;&gt;danish_lessions -->
<g id="edge61" class="edge">
<title>faa_ting_gjort&#45;&gt;danish_lessions</title>
<path fill="none" stroke="#000000" d="M651.1958,-951.2577C663.8895,-940.1743 680.4359,-925.7269 694.341,-913.5859"/>
<polygon fill="#000000" stroke="#000000" points="696.943,-915.9604 702.1737,-906.7468 692.339,-910.6875 696.943,-915.9604"/>
</g>
</g>
</svg>
