<?xml version="1.0" encoding="UTF-8" standalone="no"?>
<!DOCTYPE svg PUBLIC "-//W3C//DTD SVG 1.1//EN"
 "http://www.w3.org/Graphics/SVG/1.1/DTD/svg11.dtd">
<!-- Generated by graphviz version 2.40.1 (20161225.0304)
 -->
<!-- Title: g Pages: 1 -->
<svg width="1049pt" height="1219pt"
 viewBox="0.00 0.00 1048.97 1218.69" xmlns="http://www.w3.org/2000/svg" xmlns:xlink="http://www.w3.org/1999/xlink">
<g id="graph0" class="graph" transform="scale(1 1) rotate(0) translate(4 1214.6879)">
<title>g</title>
<polygon fill="#ffffff" stroke="transparent" points="-4,4 -4,-1214.6879 1044.9666,-1214.6879 1044.9666,4 -4,4"/>
<!-- job -->
<g id="node1" class="node">
<title>job</title>
<ellipse fill="#00ff00" stroke="#000000" cx="950.8697" cy="-25.4558" rx="57.5098" ry="25.4118"/>
<text text-anchor="middle" x="950.8697" y="-28.2558" font-family="Times,serif" font-size="14.00" fill="#000000">A job</text>
<text text-anchor="middle" x="950.8697" y="-14.2558" font-family="Times,serif" font-size="14.00" fill="#000000">2018&#45;10&#45;19</text>
</g>
<!-- proof_of_work -->
<g id="node2" class="node">
<title>proof_of_work</title>
<ellipse fill="#00ff00" stroke="#000000" cx="864.8697" cy="-122.267" rx="66.707" ry="25.4118"/>
<text text-anchor="middle" x="864.8697" y="-125.067" font-family="Times,serif" font-size="14.00" fill="#000000">Proof of work</text>
<text text-anchor="middle" x="864.8697" y="-111.067" font-family="Times,serif" font-size="14.00" fill="#000000">2019&#45;01&#45;22</text>
</g>
<!-- proof_of_work&#45;&gt;job -->
<g id="edge1" class="edge">
<title>proof_of_work&#45;&gt;job</title>
<path fill="none" stroke="#000000" d="M886.5711,-97.8375C897.6356,-85.3821 911.2171,-70.0932 923.0424,-56.7813"/>
<polygon fill="#000000" stroke="#000000" points="925.7451,-59.0089 929.7698,-49.2082 920.5118,-54.36 925.7451,-59.0089"/>
</g>
<!-- passport -->
<g id="node3" class="node">
<title>passport</title>
<ellipse fill="#00ff00" stroke="#000000" cx="367.8697" cy="-122.267" rx="44.7298" ry="25.4118"/>
<text text-anchor="middle" x="367.8697" y="-125.067" font-family="Times,serif" font-size="14.00" fill="#000000">Passport</text>
<text text-anchor="middle" x="367.8697" y="-111.067" font-family="Times,serif" font-size="14.00" fill="#000000">2015</text>
</g>
<!-- danish_phone_number -->
<g id="node4" class="node">
<title>danish_phone_number</title>
<ellipse fill="#00ff00" stroke="#000000" cx="404.8697" cy="-658.524" rx="98.9836" ry="25.4118"/>
<text text-anchor="middle" x="404.8697" y="-661.324" font-family="Times,serif" font-size="14.00" fill="#000000">Danish phone number</text>
<text text-anchor="middle" x="404.8697" y="-647.324" font-family="Times,serif" font-size="14.00" fill="#000000">2019&#45;01&#45;17</text>
</g>
<!-- rejsekort -->
<g id="node5" class="node">
<title>rejsekort</title>
<ellipse fill="#00ff00" stroke="#000000" cx="235.8697" cy="-889.4356" rx="64.2475" ry="25.4118"/>
<text text-anchor="middle" x="235.8697" y="-892.2356" font-family="Times,serif" font-size="14.00" fill="#000000">Rejsekort</text>
<text text-anchor="middle" x="235.8697" y="-878.2356" font-family="Times,serif" font-size="14.00" fill="#000000">2018&#45;10&#45;19 ?</text>
</g>
<!-- place_to_live -->
<g id="node6" class="node">
<title>place_to_live</title>
<ellipse fill="#00ff00" stroke="#000000" cx="367.8697" cy="-25.4558" rx="68.5454" ry="25.4118"/>
<text text-anchor="middle" x="367.8697" y="-28.2558" font-family="Times,serif" font-size="14.00" fill="#000000">A place to live</text>
<text text-anchor="middle" x="367.8697" y="-14.2558" font-family="Times,serif" font-size="14.00" fill="#000000">2019&#45;01&#45;21</text>
</g>
<!-- name_on_postbox -->
<g id="node7" class="node">
<title>name_on_postbox</title>
<ellipse fill="#00ff00" stroke="#000000" cx="199.8697" cy="-122.267" rx="66.9194" ry="35.2113"/>
<text text-anchor="middle" x="199.8697" y="-132.067" font-family="Times,serif" font-size="14.00" fill="#000000">Your name on</text>
<text text-anchor="middle" x="199.8697" y="-118.067" font-family="Times,serif" font-size="14.00" fill="#000000">your postbox</text>
<text text-anchor="middle" x="199.8697" y="-104.067" font-family="Times,serif" font-size="14.00" fill="#000000">2019&#45;01&#45;22</text>
</g>
<!-- name_on_postbox&#45;&gt;place_to_live -->
<g id="edge2" class="edge">
<title>name_on_postbox&#45;&gt;place_to_live</title>
<path fill="none" stroke="#000000" d="M245.3329,-96.0685C269.0289,-82.4135 297.9486,-65.7484 321.7413,-52.0376"/>
<polygon fill="#000000" stroke="#000000" points="323.6706,-54.9654 330.5875,-46.94 320.1756,-48.9004 323.6706,-54.9654"/>
</g>
<!-- can_receive_post -->
<g id="node8" class="node">
<title>can_receive_post</title>
<ellipse fill="#00ff00" stroke="#000000" cx="239.8697" cy="-228.9777" rx="99.6266" ry="25.4118"/>
<text text-anchor="middle" x="239.8697" y="-231.7777" font-family="Times,serif" font-size="14.00" fill="#000000">Ability to receive post</text>
<text text-anchor="middle" x="239.8697" y="-217.7777" font-family="Times,serif" font-size="14.00" fill="#000000">2019&#45;01&#45;22</text>
</g>
<!-- can_receive_post&#45;&gt;place_to_live -->
<g id="edge3" class="edge">
<title>can_receive_post&#45;&gt;place_to_live</title>
<path fill="none" stroke="#000000" d="M252.7358,-203.4706C271.9551,-165.494 306.6799,-97.4083 313.8697,-86.9117 320.8926,-76.6586 329.4233,-66.2349 337.6106,-56.955"/>
<polygon fill="#000000" stroke="#000000" points="340.2723,-59.2296 344.3664,-49.4578 335.0721,-54.5436 340.2723,-59.2296"/>
</g>
<!-- can_receive_post&#45;&gt;name_on_postbox -->
<g id="edge4" class="edge">
<title>can_receive_post&#45;&gt;name_on_postbox</title>
<path fill="none" stroke="#000000" d="M230.2887,-203.4178C226.1631,-192.4117 221.2168,-179.2163 216.5236,-166.6959"/>
<polygon fill="#000000" stroke="#000000" points="219.7891,-165.4357 213.0018,-157.3005 213.2345,-167.8927 219.7891,-165.4357"/>
</g>
<!-- pendlerkort -->
<g id="node9" class="node">
<title>pendlerkort</title>
<ellipse fill="none" stroke="#000000" cx="50.8697" cy="-571.6123" rx="50.7397" ry="18"/>
<text text-anchor="middle" x="50.8697" y="-567.4123" font-family="Times,serif" font-size="14.00" fill="#000000">pendlerkort</text>
</g>
<!-- pendlerkort&#45;&gt;place_to_live -->
<g id="edge5" class="edge">
<title>pendlerkort&#45;&gt;place_to_live</title>
<path fill="none" stroke="#000000" d="M55.9482,-553.6688C63.7694,-524.406 77.8697,-464.4714 77.8697,-412.7006 77.8697,-412.7006 77.8697,-412.7006 77.8697,-228.9777 77.8697,-162.6099 75.4085,-132.2571 123.8697,-86.9117 148.3065,-64.0459 230.8978,-46.5364 293.277,-36.1625"/>
<polygon fill="#000000" stroke="#000000" points="294.1871,-39.5604 303.4935,-34.4967 293.0605,-32.6517 294.1871,-39.5604"/>
</g>
<!-- eu_residence_document_application -->
<g id="node10" class="node">
<title>eu_residence_document_application</title>
<ellipse fill="#00ff00" stroke="#000000" cx="539.8697" cy="-228.9777" rx="105.7427" ry="35.2113"/>
<text text-anchor="middle" x="539.8697" y="-238.7777" font-family="Times,serif" font-size="14.00" fill="#000000">Application for</text>
<text text-anchor="middle" x="539.8697" y="-224.7777" font-family="Times,serif" font-size="14.00" fill="#000000">EU residence document</text>
<text text-anchor="middle" x="539.8697" y="-210.7777" font-family="Times,serif" font-size="14.00" fill="#000000">2019&#45;01&#45;23</text>
</g>
<!-- eu_residence_document_application&#45;&gt;proof_of_work -->
<g id="edge7" class="edge">
<title>eu_residence_document_application&#45;&gt;proof_of_work</title>
<path fill="none" stroke="#000000" d="M615.6576,-204.0935C673.0454,-185.2507 750.8383,-159.7082 804.1565,-142.2016"/>
<polygon fill="#000000" stroke="#000000" points="805.4078,-145.4747 813.8169,-139.0297 803.224,-138.824 805.4078,-145.4747"/>
</g>
<!-- eu_residence_document_application&#45;&gt;passport -->
<g id="edge8" class="edge">
<title>eu_residence_document_application&#45;&gt;passport</title>
<path fill="none" stroke="#000000" d="M489.6578,-197.8257C463.2527,-181.4437 431.3692,-161.6628 406.849,-146.4502"/>
<polygon fill="#000000" stroke="#000000" points="408.5149,-143.3649 398.1722,-141.0671 404.8245,-149.3131 408.5149,-143.3649"/>
</g>
<!-- eu_residence_document_application&#45;&gt;place_to_live -->
<g id="edge6" class="edge">
<title>eu_residence_document_application&#45;&gt;place_to_live</title>
<path fill="none" stroke="#000000" d="M497.7348,-196.2811C484.6577,-184.9104 470.8182,-171.5049 459.8697,-157.6224 437.7764,-129.6085 442.2208,-116.2156 421.8697,-86.9117 414.7807,-76.7042 406.2291,-66.2948 398.043,-57.0142"/>
<polygon fill="#000000" stroke="#000000" points="400.5837,-54.6051 391.2927,-49.5131 395.3803,-59.2877 400.5837,-54.6051"/>
</g>
<!-- od1_form -->
<g id="node11" class="node">
<title>od1_form</title>
<ellipse fill="#00ff00" stroke="#000000" cx="683.8697" cy="-122.267" rx="57.5098" ry="25.4118"/>
<text text-anchor="middle" x="683.8697" y="-125.067" font-family="Times,serif" font-size="14.00" fill="#000000">OD1 form</text>
<text text-anchor="middle" x="683.8697" y="-111.067" font-family="Times,serif" font-size="14.00" fill="#000000">2019&#45;01&#45;22</text>
</g>
<!-- eu_residence_document_application&#45;&gt;od1_form -->
<g id="edge9" class="edge">
<title>eu_residence_document_application&#45;&gt;od1_form</title>
<path fill="none" stroke="#000000" d="M583.4652,-196.6714C603.3671,-181.9232 626.7173,-164.6195 645.889,-150.4124"/>
<polygon fill="#000000" stroke="#000000" points="648.1505,-153.0929 654.101,-144.327 643.9827,-147.4688 648.1505,-153.0929"/>
</g>
<!-- passport_photo -->
<g id="node12" class="node">
<title>passport_photo</title>
<ellipse fill="#00ff00" stroke="#000000" cx="538.8697" cy="-122.267" rx="69.7781" ry="25.4118"/>
<text text-anchor="middle" x="538.8697" y="-125.067" font-family="Times,serif" font-size="14.00" fill="#000000">Passport photo</text>
<text text-anchor="middle" x="538.8697" y="-111.067" font-family="Times,serif" font-size="14.00" fill="#000000">2019&#45;01&#45;23</text>
</g>
<!-- eu_residence_document_application&#45;&gt;passport_photo -->
<g id="edge10" class="edge">
<title>eu_residence_document_application&#45;&gt;passport_photo</title>
<path fill="none" stroke="#000000" d="M539.5367,-193.4446C539.4297,-182.0254 539.3111,-169.3758 539.204,-157.9462"/>
<polygon fill="#000000" stroke="#000000" points="542.7032,-157.8297 539.1095,-147.8629 535.7035,-157.8953 542.7032,-157.8297"/>
</g>
<!-- eu_residence_document -->
<g id="node13" class="node">
<title>eu_residence_document</title>
<ellipse fill="#00ff00" stroke="#000000" cx="539.8697" cy="-325.7889" rx="105.7427" ry="25.4118"/>
<text text-anchor="middle" x="539.8697" y="-328.5889" font-family="Times,serif" font-size="14.00" fill="#000000">EU residence document</text>
<text text-anchor="middle" x="539.8697" y="-314.5889" font-family="Times,serif" font-size="14.00" fill="#000000">2019&#45;01&#45;31</text>
</g>
<!-- eu_residence_document&#45;&gt;can_receive_post -->
<g id="edge12" class="edge">
<title>eu_residence_document&#45;&gt;can_receive_post</title>
<path fill="none" stroke="#000000" d="M476.614,-305.376C428.3456,-289.7996 361.8187,-268.3312 311.5757,-252.1175"/>
<polygon fill="#000000" stroke="#000000" points="312.3462,-248.6885 301.7545,-248.9482 310.1963,-255.3502 312.3462,-248.6885"/>
</g>
<!-- eu_residence_document&#45;&gt;eu_residence_document_application -->
<g id="edge11" class="edge">
<title>eu_residence_document&#45;&gt;eu_residence_document_application</title>
<path fill="none" stroke="#ff0000" d="M539.8697,-300.0994C539.8697,-292.2885 539.8697,-283.4571 539.8697,-274.7403"/>
<polygon fill="#ff0000" stroke="#ff0000" points="543.3698,-274.6281 539.8697,-264.6281 536.3698,-274.6282 543.3698,-274.6281"/>
</g>
<!-- cpr_number_application -->
<g id="node14" class="node">
<title>cpr_number_application</title>
<ellipse fill="none" stroke="#000000" cx="612.8697" cy="-412.7006" rx="72.138" ry="25.4118"/>
<text text-anchor="middle" x="612.8697" y="-415.5006" font-family="Times,serif" font-size="14.00" fill="#000000">Application for</text>
<text text-anchor="middle" x="612.8697" y="-401.5006" font-family="Times,serif" font-size="14.00" fill="#000000">CPR number</text>
</g>
<!-- cpr_number_application&#45;&gt;proof_of_work -->
<g id="edge14" class="edge">
<title>cpr_number_application&#45;&gt;proof_of_work</title>
<path fill="none" stroke="#000000" d="M677.9043,-401.6187C732.6933,-390.9356 805.2068,-373.1813 824.8697,-351.2447 849.9099,-323.3089 859.677,-215.1697 863.1478,-158.0631"/>
<polygon fill="#000000" stroke="#000000" points="866.6451,-158.2092 863.7249,-148.0247 859.6567,-157.8073 866.6451,-158.2092"/>
</g>
<!-- cpr_number_application&#45;&gt;passport -->
<g id="edge16" class="edge">
<title>cpr_number_application&#45;&gt;passport</title>
<path fill="none" stroke="#000000" d="M551.409,-399.3984C503.5331,-387.8384 442.355,-370.036 424.8697,-351.2447 411.6465,-337.0339 386.7589,-218.3515 374.7272,-157.6828"/>
<polygon fill="#000000" stroke="#000000" points="378.1406,-156.9018 372.7728,-147.7674 371.2728,-158.2555 378.1406,-156.9018"/>
</g>
<!-- cpr_number_application&#45;&gt;eu_residence_document -->
<g id="edge13" class="edge">
<title>cpr_number_application&#45;&gt;eu_residence_document</title>
<path fill="none" stroke="#000000" d="M592.1461,-388.0277C584.506,-378.9316 575.7239,-368.4759 567.5658,-358.7631"/>
<polygon fill="#000000" stroke="#000000" points="570.0103,-356.2316 560.8986,-350.8253 564.6502,-360.7337 570.0103,-356.2316"/>
</g>
<!-- proof_of_address -->
<g id="node15" class="node">
<title>proof_of_address</title>
<ellipse fill="#00ff00" stroke="#000000" cx="739.8697" cy="-325.7889" rx="76.3945" ry="25.4118"/>
<text text-anchor="middle" x="739.8697" y="-328.5889" font-family="Times,serif" font-size="14.00" fill="#000000">Proof of address</text>
<text text-anchor="middle" x="739.8697" y="-314.5889" font-family="Times,serif" font-size="14.00" fill="#000000">2019&#45;01&#45;21</text>
</g>
<!-- cpr_number_application&#45;&gt;proof_of_address -->
<g id="edge15" class="edge">
<title>cpr_number_application&#45;&gt;proof_of_address</title>
<path fill="none" stroke="#000000" d="M646.2374,-389.8656C662.0084,-379.0728 681.0074,-366.0709 697.7582,-354.6076"/>
<polygon fill="#000000" stroke="#000000" points="700.0079,-357.3092 706.2838,-348.7732 696.0546,-351.5324 700.0079,-357.3092"/>
</g>
<!-- proof_of_address&#45;&gt;place_to_live -->
<g id="edge19" class="edge">
<title>proof_of_address&#45;&gt;place_to_live</title>
<path fill="none" stroke="#000000" d="M750.9836,-300.5879C770.1993,-252.6972 802.8452,-147.892 750.8697,-86.9117 731.2706,-63.917 550.9332,-42.9607 444.8504,-32.485"/>
<polygon fill="#000000" stroke="#000000" points="445.1173,-28.9945 434.824,-31.5042 444.4357,-35.9613 445.1173,-28.9945"/>
</g>
<!-- cpr_number -->
<g id="node16" class="node">
<title>cpr_number</title>
<ellipse fill="none" stroke="#000000" cx="612.8697" cy="-492.1564" rx="56.0942" ry="18"/>
<text text-anchor="middle" x="612.8697" y="-487.9564" font-family="Times,serif" font-size="14.00" fill="#000000">CPR number</text>
</g>
<!-- cpr_number&#45;&gt;can_receive_post -->
<g id="edge18" class="edge">
<title>cpr_number&#45;&gt;can_receive_post</title>
<path fill="none" stroke="#000000" d="M588.3915,-475.8824C572.312,-465.1812 550.8231,-450.8589 531.8697,-438.1564 474.4423,-399.6689 459.2057,-391.3127 402.8697,-351.2447 360.0834,-320.8138 312.1195,-284.5705 279.3637,-259.4835"/>
<polygon fill="#000000" stroke="#000000" points="281.4407,-256.6656 271.376,-253.3562 277.1802,-262.2197 281.4407,-256.6656"/>
</g>
<!-- cpr_number&#45;&gt;cpr_number_application -->
<g id="edge17" class="edge">
<title>cpr_number&#45;&gt;cpr_number_application</title>
<path fill="none" stroke="#ff0000" d="M612.8697,-474.1267C612.8697,-466.4917 612.8697,-457.3145 612.8697,-448.4094"/>
<polygon fill="#ff0000" stroke="#ff0000" points="616.3698,-448.1892 612.8697,-438.1893 609.3698,-448.1893 616.3698,-448.1892"/>
</g>
<!-- skattekort -->
<g id="node17" class="node">
<title>skattekort</title>
<ellipse fill="none" stroke="#000000" cx="805.8697" cy="-571.6123" rx="46.4132" ry="18"/>
<text text-anchor="middle" x="805.8697" y="-567.4123" font-family="Times,serif" font-size="14.00" fill="#000000">Skattekort</text>
</g>
<!-- skattekort&#45;&gt;cpr_number -->
<g id="edge20" class="edge">
<title>skattekort&#45;&gt;cpr_number</title>
<path fill="none" stroke="#000000" stroke-dasharray="1,5" d="M774.4574,-558.1765C765.2567,-554.2705 755.1708,-550.0174 745.8697,-546.1564 716.4803,-533.9566 683.3207,-520.4927 657.4634,-510.0607"/>
<polygon fill="#000000" stroke="#000000" points="658.5174,-506.712 647.934,-506.22 655.9006,-513.2045 658.5174,-506.712"/>
</g>
<!-- nemid_application -->
<g id="node18" class="node">
<title>nemid_application</title>
<ellipse fill="none" stroke="#000000" cx="469.8697" cy="-571.6123" rx="72.138" ry="25.4118"/>
<text text-anchor="middle" x="469.8697" y="-574.4123" font-family="Times,serif" font-size="14.00" fill="#000000">Application for</text>
<text text-anchor="middle" x="469.8697" y="-560.4123" font-family="Times,serif" font-size="14.00" fill="#000000">Nemid</text>
</g>
<!-- nemid_application&#45;&gt;cpr_number -->
<g id="edge21" class="edge">
<title>nemid_application&#45;&gt;cpr_number</title>
<path fill="none" stroke="#000000" d="M508.5675,-550.1104C529.4627,-538.5002 555.1298,-524.2387 575.7733,-512.7685"/>
<polygon fill="#000000" stroke="#000000" points="577.5348,-515.7938 584.5761,-507.8773 574.1349,-509.6749 577.5348,-515.7938"/>
</g>
<!-- nemid -->
<g id="node19" class="node">
<title>nemid</title>
<ellipse fill="none" stroke="#000000" cx="631.8697" cy="-658.524" rx="34.3527" ry="18"/>
<text text-anchor="middle" x="631.8697" y="-654.324" font-family="Times,serif" font-size="14.00" fill="#000000">Nemid</text>
</g>
<!-- nemid&#45;&gt;nemid_application -->
<g id="edge22" class="edge">
<title>nemid&#45;&gt;nemid_application</title>
<path fill="none" stroke="#000000" d="M607.6166,-645.5124C584.1791,-632.9383 548.0029,-613.5301 518.6049,-597.7583"/>
<polygon fill="#000000" stroke="#000000" points="520.1872,-594.6354 509.7206,-592.992 516.8779,-600.8037 520.1872,-594.6354"/>
</g>
<!-- danish_bank_account -->
<g id="node20" class="node">
<title>danish_bank_account</title>
<ellipse fill="none" stroke="#000000" cx="610.8697" cy="-737.9798" rx="84.041" ry="18"/>
<text text-anchor="middle" x="610.8697" y="-733.7798" font-family="Times,serif" font-size="14.00" fill="#000000">Danish bank account</text>
</g>
<!-- danish_bank_account&#45;&gt;proof_of_work -->
<g id="edge24" class="edge">
<title>danish_bank_account&#45;&gt;proof_of_work</title>
<path fill="none" stroke="#000000" d="M635.6856,-720.6947C648.4718,-710.9409 663.6832,-697.9301 674.8697,-683.9798 687.9196,-667.7056 841.7456,-370.8508 848.8697,-351.2447 872.9675,-284.9256 869.352,-264.1683 867.8697,-193.6224 867.6264,-182.0435 867.1612,-169.4147 866.6685,-158.0436"/>
<polygon fill="#000000" stroke="#000000" points="870.1635,-157.8516 866.2139,-148.0206 863.1707,-158.1689 870.1635,-157.8516"/>
</g>
<!-- danish_bank_account&#45;&gt;passport -->
<g id="edge26" class="edge">
<title>danish_bank_account&#45;&gt;passport</title>
<path fill="none" stroke="#000000" d="M598.8062,-719.9756C582.1817,-696.5439 550.0317,-655.9036 512.8697,-633.0681 463.9762,-603.0238 425.8755,-640.9293 388.8697,-597.0681 335.6882,-534.0348 367.8697,-495.1715 367.8697,-412.7006 367.8697,-412.7006 367.8697,-412.7006 367.8697,-325.7889 367.8697,-267.0812 367.8697,-198.8477 367.8697,-158.1837"/>
<polygon fill="#000000" stroke="#000000" points="371.3698,-157.9692 367.8697,-147.9693 364.3698,-157.9693 371.3698,-157.9692"/>
</g>
<!-- danish_bank_account&#45;&gt;danish_phone_number -->
<g id="edge27" class="edge">
<title>danish_bank_account&#45;&gt;danish_phone_number</title>
<path fill="none" stroke="#000000" d="M569.6776,-722.0917C541.0377,-711.0451 502.2806,-696.0961 469.5465,-683.4703"/>
<polygon fill="#000000" stroke="#000000" points="470.6339,-680.1385 460.0443,-679.8052 468.1148,-686.6695 470.6339,-680.1385"/>
</g>
<!-- danish_bank_account&#45;&gt;cpr_number -->
<g id="edge23" class="edge">
<title>danish_bank_account&#45;&gt;cpr_number</title>
<path fill="none" stroke="#000000" d="M601.5088,-720.0307C596.6894,-709.7741 591.3217,-696.4971 588.8697,-683.9798 577.5467,-626.1765 593.028,-557.4748 603.8839,-519.9836"/>
<polygon fill="#000000" stroke="#000000" points="607.2763,-520.8557 606.797,-510.2717 600.5714,-518.8445 607.2763,-520.8557"/>
</g>
<!-- danish_bank_account&#45;&gt;nemid -->
<g id="edge25" class="edge">
<title>danish_bank_account&#45;&gt;nemid</title>
<path fill="none" stroke="#000000" stroke-dasharray="1,5" d="M615.6349,-719.95C618.2662,-709.9943 621.5906,-697.4161 624.5448,-686.2384"/>
<polygon fill="#000000" stroke="#000000" points="627.9518,-687.0448 627.1233,-676.4824 621.1842,-685.256 627.9518,-687.0448"/>
</g>
<!-- activated_nemid -->
<g id="node21" class="node">
<title>activated_nemid</title>
<ellipse fill="none" stroke="#000000" cx="397.8697" cy="-737.9798" rx="70.5271" ry="18"/>
<text text-anchor="middle" x="397.8697" y="-733.7798" font-family="Times,serif" font-size="14.00" fill="#000000">Activated Nemid</text>
</g>
<!-- activated_nemid&#45;&gt;danish_phone_number -->
<g id="edge29" class="edge">
<title>activated_nemid&#45;&gt;danish_phone_number</title>
<path fill="none" stroke="#000000" d="M399.4581,-719.95C400.1307,-712.3151 400.9392,-703.1379 401.7238,-694.2328"/>
<polygon fill="#000000" stroke="#000000" points="405.2329,-694.2813 402.6241,-684.0127 398.26,-693.6669 405.2329,-694.2813"/>
</g>
<!-- activated_nemid&#45;&gt;nemid -->
<g id="edge28" class="edge">
<title>activated_nemid&#45;&gt;nemid</title>
<path fill="none" stroke="#000000" d="M440.5168,-723.4988C484.085,-708.705 551.1401,-685.9361 593.2055,-671.6526"/>
<polygon fill="#000000" stroke="#000000" points="594.472,-674.9189 602.8156,-668.3894 592.2212,-668.2906 594.472,-674.9189"/>
</g>
<!-- noglekort -->
<g id="node22" class="node">
<title>noglekort</title>
<ellipse fill="none" stroke="#000000" cx="241.8697" cy="-658.524" rx="45.9286" ry="18"/>
<text text-anchor="middle" x="241.8697" y="-654.324" font-family="Times,serif" font-size="14.00" fill="#000000">Nøglekort</text>
</g>
<!-- activated_nemid&#45;&gt;noglekort -->
<g id="edge30" class="edge">
<title>activated_nemid&#45;&gt;noglekort</title>
<path fill="none" stroke="#000000" d="M365.9243,-721.709C340.7268,-708.8751 305.5393,-690.953 279.073,-677.4728"/>
<polygon fill="#000000" stroke="#000000" points="280.6053,-674.3254 270.106,-672.9056 277.4282,-680.563 280.6053,-674.3254"/>
</g>
<!-- noglekort&#45;&gt;can_receive_post -->
<g id="edge32" class="edge">
<title>noglekort&#45;&gt;can_receive_post</title>
<path fill="none" stroke="#000000" stroke-dasharray="1,5" d="M241.6863,-640.0601C241.3976,-609.3609 240.8697,-545.8802 240.8697,-492.1564 240.8697,-492.1564 240.8697,-492.1564 240.8697,-412.7006 240.8697,-361.3156 240.4737,-301.8477 240.1801,-264.8184"/>
<polygon fill="#000000" stroke="#000000" points="243.6778,-264.5092 240.0966,-254.538 236.678,-264.5661 243.6778,-264.5092"/>
</g>
<!-- noglekort&#45;&gt;nemid_application -->
<g id="edge31" class="edge">
<title>noglekort&#45;&gt;nemid_application</title>
<path fill="none" stroke="#ff0000" stroke-dasharray="1,5" d="M271.0496,-644.4111C279.3271,-640.574 288.3941,-636.5263 296.8697,-633.0681 332.9964,-618.3276 374.1312,-603.6318 407.2236,-592.3086"/>
<polygon fill="#ff0000" stroke="#ff0000" points="408.4371,-595.5929 416.7759,-589.0572 406.1814,-588.9662 408.4371,-595.5929"/>
</g>
<!-- ehic -->
<g id="node23" class="node">
<title>ehic</title>
<ellipse fill="none" stroke="#000000" cx="951.8697" cy="-737.9798" rx="58.0063" ry="18"/>
<text text-anchor="middle" x="951.8697" y="-733.7798" font-family="Times,serif" font-size="14.00" fill="#000000">Danish EHIC</text>
</g>
<!-- ehic&#45;&gt;place_to_live -->
<g id="edge35" class="edge">
<title>ehic&#45;&gt;place_to_live</title>
<path fill="none" stroke="#000000" d="M953.337,-719.5296C955.6465,-688.8502 959.8697,-625.3972 959.8697,-571.6123 959.8697,-571.6123 959.8697,-571.6123 959.8697,-228.9777 959.8697,-165.2751 986.4984,-131.3644 940.8697,-86.9117 906.1274,-53.0649 595.2309,-35.2323 446.4874,-28.5739"/>
<polygon fill="#000000" stroke="#000000" points="446.6413,-25.0773 436.4965,-28.1325 446.3323,-32.0705 446.6413,-25.0773"/>
</g>
<!-- ehic&#45;&gt;cpr_number -->
<g id="edge33" class="edge">
<title>ehic&#45;&gt;cpr_number</title>
<path fill="none" stroke="#000000" d="M948.8141,-719.7584C941.2016,-676.5641 920.1015,-569.7983 893.8697,-546.1564 862.7229,-518.0848 750.4669,-503.5542 677.6143,-496.9126"/>
<polygon fill="#000000" stroke="#000000" points="677.8782,-493.4223 667.6086,-496.0272 677.2611,-500.3951 677.8782,-493.4223"/>
</g>
<!-- ehic&#45;&gt;nemid -->
<g id="edge34" class="edge">
<title>ehic&#45;&gt;nemid</title>
<path fill="none" stroke="#000000" d="M906.3613,-726.6801C844.0514,-711.2086 733.0927,-683.6576 673.1036,-668.7623"/>
<polygon fill="#000000" stroke="#000000" points="673.772,-665.3221 663.2233,-666.309 672.0851,-672.1158 673.772,-665.3221"/>
</g>
<!-- doctor -->
<g id="node24" class="node">
<title>doctor</title>
<ellipse fill="none" stroke="#000000" cx="865.8697" cy="-809.9798" rx="34.8285" ry="18"/>
<text text-anchor="middle" x="865.8697" y="-805.7798" font-family="Times,serif" font-size="14.00" fill="#000000">Doctor</text>
</g>
<!-- doctor&#45;&gt;cpr_number -->
<g id="edge36" class="edge">
<title>doctor&#45;&gt;cpr_number</title>
<path fill="none" stroke="#000000" d="M868.3042,-791.8519C875.0514,-738.5108 891.5471,-583.5025 860.8697,-546.1564 838.0373,-518.3608 743.4581,-504.0552 677.9327,-497.3384"/>
<polygon fill="#000000" stroke="#000000" points="677.9771,-493.8258 667.6812,-496.3247 677.2882,-500.7918 677.9771,-493.8258"/>
</g>
<!-- get_paid -->
<g id="node25" class="node">
<title>get_paid</title>
<ellipse fill="none" stroke="#000000" cx="768.8697" cy="-809.9798" rx="40.1247" ry="18"/>
<text text-anchor="middle" x="768.8697" y="-805.7798" font-family="Times,serif" font-size="14.00" fill="#000000">Get paid</text>
</g>
<!-- get_paid&#45;&gt;job -->
<g id="edge37" class="edge">
<title>get_paid&#45;&gt;job</title>
<path fill="none" stroke="#000000" d="M800.0278,-798.5503C807.1463,-796.1766 814.7214,-793.8361 821.8697,-791.9798 908.0178,-769.6084 955.5631,-818.5438 1018.8697,-755.9798 1050.2573,-724.9604 1037.8697,-702.6531 1037.8697,-658.524 1037.8697,-658.524 1037.8697,-658.524 1037.8697,-228.9777 1037.8697,-164.316 1000.2798,-96.7258 974.5171,-57.9952"/>
<polygon fill="#000000" stroke="#000000" points="977.4091,-56.0237 968.8961,-49.7166 971.6179,-59.9559 977.4091,-56.0237"/>
</g>
<!-- get_paid&#45;&gt;skattekort -->
<g id="edge38" class="edge">
<title>get_paid&#45;&gt;skattekort</title>
<path fill="none" stroke="#000000" d="M771.7116,-791.6713C778.1437,-750.2329 793.852,-649.0347 801.518,-599.6474"/>
<polygon fill="#000000" stroke="#000000" points="804.9934,-600.0754 803.0687,-589.6569 798.0762,-599.0016 804.9934,-600.0754"/>
</g>
<!-- get_paid&#45;&gt;nemid -->
<g id="edge40" class="edge">
<title>get_paid&#45;&gt;nemid</title>
<path fill="none" stroke="#000000" d="M758.021,-792.4674C745.9464,-773.6185 725.2967,-743.2183 703.8697,-719.9798 690.3663,-705.3349 673.5089,-690.7807 659.5008,-679.5145"/>
<polygon fill="#000000" stroke="#000000" points="661.6428,-676.7463 651.6292,-673.2853 657.2989,-682.2355 661.6428,-676.7463"/>
</g>
<!-- get_paid&#45;&gt;danish_bank_account -->
<g id="edge39" class="edge">
<title>get_paid&#45;&gt;danish_bank_account</title>
<path fill="none" stroke="#000000" d="M740.6224,-797.1076C717.1198,-786.3976 683.2242,-770.9515 655.9709,-758.5322"/>
<polygon fill="#000000" stroke="#000000" points="657.187,-755.2402 646.6359,-754.2783 654.2843,-761.61 657.187,-755.2402"/>
</g>
<!-- danish_lessions -->
<g id="node26" class="node">
<title>danish_lessions</title>
<ellipse fill="none" stroke="#000000" cx="485.8697" cy="-889.4356" rx="62.8431" ry="18"/>
<text text-anchor="middle" x="485.8697" y="-885.2356" font-family="Times,serif" font-size="14.00" fill="#000000">Danish lessons</text>
</g>
<!-- danish_lessions&#45;&gt;cpr_number -->
<g id="edge41" class="edge">
<title>danish_lessions&#45;&gt;cpr_number</title>
<path fill="none" stroke="#000000" d="M434.8636,-878.8904C336.4264,-857.0656 129.8697,-803.467 129.8697,-737.9798 129.8697,-737.9798 129.8697,-737.9798 129.8697,-658.524 129.8697,-570.5542 419.9063,-519.0202 550.4733,-500.2778"/>
<polygon fill="#000000" stroke="#000000" points="551.3106,-503.6943 560.7213,-498.8272 550.3294,-496.7634 551.3106,-503.6943"/>
</g>
<!-- danish_bank_card -->
<g id="node27" class="node">
<title>danish_bank_card</title>
<ellipse fill="none" stroke="#000000" cx="490.8697" cy="-809.9798" rx="71.979" ry="18"/>
<text text-anchor="middle" x="490.8697" y="-805.7798" font-family="Times,serif" font-size="14.00" fill="#000000">Danish bank card</text>
</g>
<!-- danish_lessions&#45;&gt;danish_bank_card -->
<g id="edge42" class="edge">
<title>danish_lessions&#45;&gt;danish_bank_card</title>
<path fill="none" stroke="#000000" d="M487.0042,-871.4059C487.62,-861.6211 488.3951,-849.3032 489.0893,-838.2714"/>
<polygon fill="#000000" stroke="#000000" points="492.5872,-838.4134 489.7223,-828.2132 485.6011,-837.9737 492.5872,-838.4134"/>
</g>
<!-- danish_bank_card&#45;&gt;can_receive_post -->
<g id="edge44" class="edge">
<title>danish_bank_card&#45;&gt;can_receive_post</title>
<path fill="none" stroke="#000000" d="M439.6894,-797.2749C348.6121,-773.1578 167.8697,-717.8268 167.8697,-658.524 167.8697,-658.524 167.8697,-658.524 167.8697,-412.7006 167.8697,-357.2745 196.6272,-298.5251 217.7933,-262.7906"/>
<polygon fill="#000000" stroke="#000000" points="220.7993,-264.5836 222.9889,-254.2175 214.8128,-260.9556 220.7993,-264.5836"/>
</g>
<!-- danish_bank_card&#45;&gt;danish_bank_account -->
<g id="edge43" class="edge">
<title>danish_bank_card&#45;&gt;danish_bank_account</title>
<path fill="none" stroke="#ff0000" d="M518.7017,-793.2806C534.9745,-783.5169 555.7293,-771.064 573.4221,-760.4483"/>
<polygon fill="#ff0000" stroke="#ff0000" points="575.5811,-763.2347 582.3553,-755.0884 571.9796,-757.2322 575.5811,-763.2347"/>
</g>
<!-- spend_lovely_dkk -->
<g id="node28" class="node">
<title>spend_lovely_dkk</title>
<ellipse fill="none" stroke="#000000" cx="714.8697" cy="-889.4356" rx="99.0344" ry="18"/>
<text text-anchor="middle" x="714.8697" y="-885.2356" font-family="Times,serif" font-size="14.00" fill="#000000">Spend your lovely DKK!</text>
</g>
<!-- spend_lovely_dkk&#45;&gt;get_paid -->
<g id="edge45" class="edge">
<title>spend_lovely_dkk&#45;&gt;get_paid</title>
<path fill="none" stroke="#000000" d="M727.1231,-871.4059C734.2646,-860.8978 743.3916,-847.4683 751.2893,-835.8476"/>
<polygon fill="#000000" stroke="#000000" points="754.3096,-837.6302 757.0358,-827.3922 748.5201,-833.6955 754.3096,-837.6302"/>
</g>
<!-- spend_lovely_dkk&#45;&gt;danish_bank_card -->
<g id="edge46" class="edge">
<title>spend_lovely_dkk&#45;&gt;danish_bank_card</title>
<path fill="none" stroke="#000000" d="M669.5399,-873.3566C632.5346,-860.2303 580.2621,-841.6885 541.8141,-828.0505"/>
<polygon fill="#000000" stroke="#000000" points="542.9494,-824.7396 532.3547,-824.6951 540.6092,-831.3368 542.9494,-824.7396"/>
</g>
<!-- mobilepay -->
<g id="node29" class="node">
<title>mobilepay</title>
<ellipse fill="none" stroke="#000000" cx="628.8697" cy="-809.9798" rx="48.3427" ry="18"/>
<text text-anchor="middle" x="628.8697" y="-805.7798" font-family="Times,serif" font-size="14.00" fill="#000000">Mobilepay</text>
</g>
<!-- mobilepay&#45;&gt;danish_phone_number -->
<g id="edge48" class="edge">
<title>mobilepay&#45;&gt;danish_phone_number</title>
<path fill="none" stroke="#000000" d="M595.4942,-796.6686C572.7367,-786.9031 542.3976,-772.5021 517.8697,-755.9798 498.0329,-742.6175 495.9095,-735.6837 477.8697,-719.9798 466.3972,-709.9929 453.7642,-699.2647 442.2787,-689.6116"/>
<polygon fill="#000000" stroke="#000000" points="444.4508,-686.8652 434.5389,-683.1227 439.9535,-692.2295 444.4508,-686.8652"/>
</g>
<!-- mobilepay&#45;&gt;cpr_number -->
<g id="edge47" class="edge">
<title>mobilepay&#45;&gt;cpr_number</title>
<path fill="none" stroke="#000000" d="M660.5049,-796.0534C676.6304,-787.1231 694.7261,-773.8301 703.8697,-755.9798 711.1641,-741.7393 706.435,-735.7728 703.8697,-719.9798 691.4209,-643.3406 650.5559,-560.3233 628.0583,-518.8754"/>
<polygon fill="#000000" stroke="#000000" points="631.0449,-517.0428 623.1574,-509.969 624.912,-520.4175 631.0449,-517.0428"/>
</g>
<!-- mobilepay&#45;&gt;danish_bank_account -->
<g id="edge49" class="edge">
<title>mobilepay&#45;&gt;danish_bank_account</title>
<path fill="none" stroke="#000000" d="M624.3275,-791.8112C622.3813,-784.0261 620.0629,-774.7527 617.9034,-766.1145"/>
<polygon fill="#000000" stroke="#000000" points="621.2939,-765.2456 615.473,-756.3931 614.5029,-766.9434 621.2939,-765.2456"/>
</g>
<!-- hygge -->
<g id="node30" class="node">
<title>hygge</title>
<ellipse fill="none" stroke="#000000" cx="759.8697" cy="-1188.7897" rx="101.1913" ry="21.7969"/>
<text text-anchor="middle" x="759.8697" y="-1189.0741" font-family="Times,serif" font-size="14.00" fill="#000000">🇩🇰 😊 Hygge 😊 🇩🇰</text>
</g>
<!-- magi4 -->
<g id="node31" class="node">
<title>magi4</title>
<ellipse fill="none" stroke="#000000" cx="815.8697" cy="-968.8915" rx="27" ry="18"/>
<text text-anchor="middle" x="815.8697" y="-964.6915" font-family="Times,serif" font-size="14.00" fill="#000000">????</text>
</g>
<!-- hygge&#45;&gt;magi4 -->
<g id="edge50" class="edge">
<title>hygge&#45;&gt;magi4</title>
<path fill="none" stroke="#000000" stroke-dasharray="5,2" d="M765.4439,-1166.9011C775.6886,-1126.6725 797.4925,-1041.0542 808.7756,-996.7481"/>
<polygon fill="#000000" stroke="#000000" points="812.1989,-997.4879 811.2751,-986.9334 805.4154,-995.7603 812.1989,-997.4879"/>
</g>
<!-- magi1 -->
<g id="node32" class="node">
<title>magi1</title>
<ellipse fill="none" stroke="#000000" cx="732.8697" cy="-1112.8915" rx="27" ry="18"/>
<text text-anchor="middle" x="732.8697" y="-1108.6915" font-family="Times,serif" font-size="14.00" fill="#000000">?</text>
</g>
<!-- hygge&#45;&gt;magi1 -->
<g id="edge51" class="edge">
<title>hygge&#45;&gt;magi1</title>
<path fill="none" stroke="#000000" d="M752.0602,-1166.8368C749.0728,-1158.4391 745.6303,-1148.7623 742.4931,-1139.9434"/>
<polygon fill="#000000" stroke="#000000" points="745.7705,-1138.7135 739.1213,-1130.465 739.1754,-1141.0597 745.7705,-1138.7135"/>
</g>
<!-- helbred -->
<g id="node35" class="node">
<title>helbred</title>
<ellipse fill="none" stroke="#000000" cx="865.8697" cy="-889.4356" rx="33.8596" ry="18"/>
<text text-anchor="middle" x="865.8697" y="-885.2356" font-family="Times,serif" font-size="14.00" fill="#000000">Health</text>
</g>
<!-- magi4&#45;&gt;helbred -->
<g id="edge57" class="edge">
<title>magi4&#45;&gt;helbred</title>
<path fill="none" stroke="#000000" stroke-dasharray="1,5" d="M826.4734,-952.0409C833.1893,-941.3685 842.0079,-927.3548 849.5987,-915.2922"/>
<polygon fill="#000000" stroke="#000000" points="852.7451,-916.8636 855.1089,-906.5358 846.8205,-913.1354 852.7451,-916.8636"/>
</g>
<!-- magi2 -->
<g id="node33" class="node">
<title>magi2</title>
<ellipse fill="none" stroke="#000000" cx="601.8697" cy="-1040.8915" rx="27" ry="18"/>
<text text-anchor="middle" x="601.8697" y="-1036.6915" font-family="Times,serif" font-size="14.00" fill="#000000">??</text>
</g>
<!-- magi1&#45;&gt;magi2 -->
<g id="edge53" class="edge">
<title>magi1&#45;&gt;magi2</title>
<path fill="none" stroke="#000000" d="M711.8223,-1101.3234C690.1455,-1089.4095 656.1702,-1070.7361 631.7226,-1057.2992"/>
<polygon fill="#000000" stroke="#000000" points="633.3143,-1054.1802 622.8649,-1052.4308 629.9426,-1060.3147 633.3143,-1054.1802"/>
</g>
<!-- magi3 -->
<g id="node34" class="node">
<title>magi3</title>
<ellipse fill="none" stroke="#000000" cx="705.8697" cy="-1040.8915" rx="27" ry="18"/>
<text text-anchor="middle" x="705.8697" y="-1036.6915" font-family="Times,serif" font-size="14.00" fill="#000000">????</text>
</g>
<!-- magi1&#45;&gt;magi3 -->
<g id="edge54" class="edge">
<title>magi1&#45;&gt;magi3</title>
<path fill="none" stroke="#000000" stroke-dasharray="5,2" d="M726.1955,-1095.0937C723.1221,-1086.8978 719.4081,-1076.9939 716.0001,-1067.906"/>
<polygon fill="#000000" stroke="#000000" points="719.2555,-1066.6189 712.4671,-1058.4845 712.7012,-1069.0768 719.2555,-1066.6189"/>
</g>
<!-- magi1&#45;&gt;helbred -->
<g id="edge55" class="edge">
<title>magi1&#45;&gt;helbred</title>
<path fill="none" stroke="#000000" stroke-dasharray="1,5" d="M736.5513,-1094.7941C744.3514,-1057.6738 763.1951,-974.4292 779.8697,-950.8915 787.4683,-940.1653 813.4949,-922.1981 834.9447,-908.4533"/>
<polygon fill="#000000" stroke="#000000" points="836.9135,-911.3494 843.4898,-903.0426 833.1686,-905.4353 836.9135,-911.3494"/>
</g>
<!-- penge -->
<g id="node36" class="node">
<title>penge</title>
<ellipse fill="none" stroke="#000000" cx="658.8697" cy="-968.8915" rx="35.3216" ry="18"/>
<text text-anchor="middle" x="658.8697" y="-964.6915" font-family="Times,serif" font-size="14.00" fill="#000000">Money</text>
</g>
<!-- magi2&#45;&gt;penge -->
<g id="edge56" class="edge">
<title>magi2&#45;&gt;penge</title>
<path fill="none" stroke="#000000" stroke-dasharray="1,5" d="M614.5198,-1024.9124C621.8179,-1015.6937 631.1492,-1003.9068 639.368,-993.5252"/>
<polygon fill="#000000" stroke="#000000" points="642.1978,-995.5895 645.6607,-985.5765 636.7094,-991.2446 642.1978,-995.5895"/>
</g>
<!-- rejser -->
<g id="node37" class="node">
<title>rejser</title>
<ellipse fill="none" stroke="#000000" cx="235.8697" cy="-968.8915" rx="41.1266" ry="18"/>
<text text-anchor="middle" x="235.8697" y="-964.6915" font-family="Times,serif" font-size="14.00" fill="#000000">Mobility</text>
</g>
<!-- magi2&#45;&gt;rejser -->
<g id="edge63" class="edge">
<title>magi2&#45;&gt;rejser</title>
<path fill="none" stroke="#000000" stroke-dasharray="1,5" d="M575.8413,-1035.7711C514.808,-1023.7646 361.7412,-993.6531 283.5134,-978.264"/>
<polygon fill="#000000" stroke="#000000" points="283.9319,-974.7793 273.4443,-976.2832 282.5807,-981.6477 283.9319,-974.7793"/>
</g>
<!-- faa_ting_gjort -->
<g id="node38" class="node">
<title>faa_ting_gjort</title>
<ellipse fill="none" stroke="#000000" cx="485.8697" cy="-968.8915" rx="75.0675" ry="18"/>
<text text-anchor="middle" x="485.8697" y="-964.6915" font-family="Times,serif" font-size="14.00" fill="#000000">Can get stuff done</text>
</g>
<!-- magi2&#45;&gt;faa_ting_gjort -->
<g id="edge66" class="edge">
<title>magi2&#45;&gt;faa_ting_gjort</title>
<path fill="none" stroke="#000000" stroke-dasharray="1,5" d="M581.9286,-1028.5142C565.3389,-1018.2172 541.3117,-1003.3038 521.4382,-990.9685"/>
<polygon fill="#000000" stroke="#000000" points="523.268,-987.9849 512.9258,-985.685 519.5765,-993.9324 523.268,-987.9849"/>
</g>
<!-- magi3&#45;&gt;magi4 -->
<g id="edge52" class="edge">
<title>magi3&#45;&gt;magi4</title>
<path fill="none" stroke="#000000" d="M725.2823,-1028.1851C742.6117,-1016.8422 768.2014,-1000.0925 787.7669,-987.2861"/>
<polygon fill="#000000" stroke="#000000" points="789.8309,-990.1182 796.2812,-981.7131 785.9973,-984.2612 789.8309,-990.1182"/>
</g>
<!-- magi3&#45;&gt;penge -->
<g id="edge60" class="edge">
<title>magi3&#45;&gt;penge</title>
<path fill="none" stroke="#000000" stroke-dasharray="1,5" d="M694.9688,-1024.1923C689.2385,-1015.4139 682.0892,-1004.4618 675.6682,-994.6254"/>
<polygon fill="#000000" stroke="#000000" points="678.4349,-992.4607 670.0378,-986.0001 672.5732,-996.2871 678.4349,-992.4607"/>
</g>
<!-- helbred&#45;&gt;ehic -->
<g id="edge59" class="edge">
<title>helbred&#45;&gt;ehic</title>
<path fill="none" stroke="#000000" d="M879.0743,-872.7853C888.3085,-860.7326 900.5985,-843.8397 909.8697,-827.9798 921.6904,-807.7583 932.7924,-783.6554 940.6099,-765.4843"/>
<polygon fill="#000000" stroke="#000000" points="943.9234,-766.6351 944.5987,-756.0618 937.4772,-763.9062 943.9234,-766.6351"/>
</g>
<!-- helbred&#45;&gt;doctor -->
<g id="edge58" class="edge">
<title>helbred&#45;&gt;doctor</title>
<path fill="none" stroke="#000000" d="M865.8697,-871.4059C865.8697,-861.6211 865.8697,-849.3032 865.8697,-838.2714"/>
<polygon fill="#000000" stroke="#000000" points="869.3698,-838.2132 865.8697,-828.2132 862.3698,-838.2133 869.3698,-838.2132"/>
</g>
<!-- penge&#45;&gt;spend_lovely_dkk -->
<g id="edge61" class="edge">
<title>penge&#45;&gt;spend_lovely_dkk</title>
<path fill="none" stroke="#000000" d="M671.0208,-951.6508C678.424,-941.1467 688.0312,-927.5155 696.3653,-915.6906"/>
<polygon fill="#000000" stroke="#000000" points="699.259,-917.6603 702.1591,-907.4701 693.5373,-913.6276 699.259,-917.6603"/>
</g>
<!-- penge&#45;&gt;mobilepay -->
<g id="edge62" class="edge">
<title>penge&#45;&gt;mobilepay</title>
<path fill="none" stroke="#000000" d="M638.3439,-954.1507C626.7125,-944.4738 613.2454,-930.7042 606.8697,-914.8915 596.6102,-889.4468 605.4626,-858.5165 614.8174,-836.8566"/>
<polygon fill="#000000" stroke="#000000" points="618.0721,-838.1565 619.084,-827.6101 611.7162,-835.2237 618.0721,-838.1565"/>
</g>
<!-- rejser&#45;&gt;rejsekort -->
<g id="edge65" class="edge">
<title>rejser&#45;&gt;rejsekort</title>
<path fill="none" stroke="#000000" d="M235.8697,-950.8617C235.8697,-943.2268 235.8697,-934.0495 235.8697,-925.1444"/>
<polygon fill="#000000" stroke="#000000" points="239.3698,-924.9243 235.8697,-914.9243 232.3698,-924.9244 239.3698,-924.9243"/>
</g>
<!-- rejser&#45;&gt;pendlerkort -->
<g id="edge64" class="edge">
<title>rejser&#45;&gt;pendlerkort</title>
<path fill="none" stroke="#000000" d="M205.7895,-956.2852C158.4441,-934.1957 71.8697,-883.7215 71.8697,-809.9798 71.8697,-809.9798 71.8697,-809.9798 71.8697,-737.9798 71.8697,-689.1187 62.8434,-632.8165 56.6262,-599.8318"/>
<polygon fill="#000000" stroke="#000000" points="60.0563,-599.1344 54.7214,-589.9808 53.1836,-600.4634 60.0563,-599.1344"/>
</g>
<!-- faa_ting_gjort&#45;&gt;activated_nemid -->
<g id="edge67" class="edge">
<title>faa_ting_gjort&#45;&gt;activated_nemid</title>
<path fill="none" stroke="#000000" d="M453.116,-952.5407C438.5785,-943.509 422.7741,-930.8575 413.8697,-914.8915 387.6885,-867.9476 389.741,-802.9201 393.7181,-766.1936"/>
<polygon fill="#000000" stroke="#000000" points="397.2019,-766.5371 394.9268,-756.1894 390.2525,-765.6974 397.2019,-766.5371"/>
</g>
<!-- faa_ting_gjort&#45;&gt;danish_lessions -->
<g id="edge68" class="edge">
<title>faa_ting_gjort&#45;&gt;danish_lessions</title>
<path fill="none" stroke="#000000" d="M485.8697,-950.8617C485.8697,-941.077 485.8697,-928.759 485.8697,-917.7272"/>
<polygon fill="#000000" stroke="#000000" points="489.3698,-917.6691 485.8697,-907.6691 482.3698,-917.6691 489.3698,-917.6691"/>
</g>
</g>
</svg>
