<?xml version="1.0" encoding="UTF-8" standalone="no"?>
<!DOCTYPE svg PUBLIC "-//W3C//DTD SVG 1.1//EN"
 "http://www.w3.org/Graphics/SVG/1.1/DTD/svg11.dtd">
<!-- Generated by graphviz version 2.40.1 (20161225.0304)
 -->
<!-- Title: g Pages: 1 -->
<svg width="1563pt" height="1338pt"
 viewBox="0.00 0.00 1562.88 1337.73" xmlns="http://www.w3.org/2000/svg" xmlns:xlink="http://www.w3.org/1999/xlink">
<g id="graph0" class="graph" transform="scale(1 1) rotate(0) translate(4 1333.7316)">
<title>g</title>
<polygon fill="#ffffff" stroke="transparent" points="-4,4 -4,-1333.7316 1558.8786,-1333.7316 1558.8786,4 -4,4"/>
<!-- job -->
<g id="node1" class="node">
<title>job</title>
<ellipse fill="#00ff00" stroke="#000000" cx="337.3736" cy="-25.4558" rx="57.5098" ry="25.4118"/>
<text text-anchor="middle" x="337.3736" y="-28.2558" font-family="Times,serif" font-size="14.00" fill="#000000">A job</text>
<text text-anchor="middle" x="337.3736" y="-14.2558" font-family="Times,serif" font-size="14.00" fill="#000000">2018&#45;10&#45;19</text>
</g>
<!-- proof_of_work -->
<g id="node2" class="node">
<title>proof_of_work</title>
<ellipse fill="#00ff00" stroke="#000000" cx="456.3736" cy="-122.267" rx="66.707" ry="25.4118"/>
<text text-anchor="middle" x="456.3736" y="-125.067" font-family="Times,serif" font-size="14.00" fill="#000000">Proof of work</text>
<text text-anchor="middle" x="456.3736" y="-111.067" font-family="Times,serif" font-size="14.00" fill="#000000">2019&#45;01&#45;22</text>
</g>
<!-- proof_of_work&#45;&gt;job -->
<g id="edge1" class="edge">
<title>proof_of_work&#45;&gt;job</title>
<path fill="none" stroke="#000000" d="M427.8702,-99.0783C411.4129,-85.6897 390.5663,-68.7301 373.0303,-54.464"/>
<polygon fill="#000000" stroke="#000000" points="375.1999,-51.7171 365.2339,-48.1213 370.7824,-57.1471 375.1999,-51.7171"/>
</g>
<!-- passport -->
<g id="node3" class="node">
<title>passport</title>
<ellipse fill="#00ff00" stroke="#000000" cx="586.3736" cy="-122.267" rx="44.7298" ry="25.4118"/>
<text text-anchor="middle" x="586.3736" y="-125.067" font-family="Times,serif" font-size="14.00" fill="#000000">Passport</text>
<text text-anchor="middle" x="586.3736" y="-111.067" font-family="Times,serif" font-size="14.00" fill="#000000">2015</text>
</g>
<!-- danish_phone_number -->
<g id="node4" class="node">
<title>danish_phone_number</title>
<ellipse fill="#00ff00" stroke="#000000" cx="345.3736" cy="-519.4113" rx="98.9836" ry="25.4118"/>
<text text-anchor="middle" x="345.3736" y="-522.2113" font-family="Times,serif" font-size="14.00" fill="#000000">Danish phone number</text>
<text text-anchor="middle" x="345.3736" y="-508.2113" font-family="Times,serif" font-size="14.00" fill="#000000">2019&#45;01&#45;17</text>
</g>
<!-- rejsekort -->
<g id="node5" class="node">
<title>rejsekort</title>
<ellipse fill="#00ff00" stroke="#000000" cx="64.3736" cy="-993.5677" rx="64.2475" ry="25.4118"/>
<text text-anchor="middle" x="64.3736" y="-996.3677" font-family="Times,serif" font-size="14.00" fill="#000000">Rejsekort</text>
<text text-anchor="middle" x="64.3736" y="-982.3677" font-family="Times,serif" font-size="14.00" fill="#000000">2018&#45;10&#45;19 ?</text>
</g>
<!-- place_to_live -->
<g id="node6" class="node">
<title>place_to_live</title>
<ellipse fill="#00ff00" stroke="#000000" cx="1034.3736" cy="-25.4558" rx="68.5454" ry="25.4118"/>
<text text-anchor="middle" x="1034.3736" y="-28.2558" font-family="Times,serif" font-size="14.00" fill="#000000">A place to live</text>
<text text-anchor="middle" x="1034.3736" y="-14.2558" font-family="Times,serif" font-size="14.00" fill="#000000">2019&#45;01&#45;21</text>
</g>
<!-- name_on_postbox -->
<g id="node7" class="node">
<title>name_on_postbox</title>
<ellipse fill="#00ff00" stroke="#000000" cx="1082.3736" cy="-122.267" rx="66.9194" ry="35.2113"/>
<text text-anchor="middle" x="1082.3736" y="-132.067" font-family="Times,serif" font-size="14.00" fill="#000000">Your name on</text>
<text text-anchor="middle" x="1082.3736" y="-118.067" font-family="Times,serif" font-size="14.00" fill="#000000">your postbox</text>
<text text-anchor="middle" x="1082.3736" y="-104.067" font-family="Times,serif" font-size="14.00" fill="#000000">2019&#45;01&#45;22</text>
</g>
<!-- name_on_postbox&#45;&gt;place_to_live -->
<g id="edge2" class="edge">
<title>name_on_postbox&#45;&gt;place_to_live</title>
<path fill="none" stroke="#000000" d="M1065.3155,-87.8624C1060.7956,-78.7464 1055.9164,-68.9054 1051.3983,-59.7929"/>
<polygon fill="#000000" stroke="#000000" points="1054.4289,-58.0259 1046.851,-50.6214 1048.1574,-61.1354 1054.4289,-58.0259"/>
</g>
<!-- can_receive_post -->
<g id="node8" class="node">
<title>can_receive_post</title>
<ellipse fill="#00ff00" stroke="#000000" cx="1146.3736" cy="-228.9777" rx="99.6266" ry="25.4118"/>
<text text-anchor="middle" x="1146.3736" y="-231.7777" font-family="Times,serif" font-size="14.00" fill="#000000">Ability to receive post</text>
<text text-anchor="middle" x="1146.3736" y="-217.7777" font-family="Times,serif" font-size="14.00" fill="#000000">2019&#45;01&#45;22</text>
</g>
<!-- can_receive_post&#45;&gt;place_to_live -->
<g id="edge3" class="edge">
<title>can_receive_post&#45;&gt;place_to_live</title>
<path fill="none" stroke="#000000" d="M1157.1341,-203.4901C1168.061,-173.2835 1180.4933,-122.5617 1158.3736,-86.9117 1145.5716,-66.2787 1123.5523,-52.3587 1101.5884,-43.0672"/>
<polygon fill="#000000" stroke="#000000" points="1102.7924,-39.7796 1092.2057,-39.3623 1100.2215,-46.2905 1102.7924,-39.7796"/>
</g>
<!-- can_receive_post&#45;&gt;name_on_postbox -->
<g id="edge4" class="edge">
<title>can_receive_post&#45;&gt;name_on_postbox</title>
<path fill="none" stroke="#000000" d="M1131.2065,-203.6888C1124.2989,-192.1712 1115.9282,-178.2144 1108.0828,-165.1333"/>
<polygon fill="#000000" stroke="#000000" points="1110.9047,-163.0335 1102.7597,-156.2578 1104.9016,-166.6339 1110.9047,-163.0335"/>
</g>
<!-- pendlerkort -->
<g id="node9" class="node">
<title>pendlerkort</title>
<ellipse fill="#00ff00" stroke="#000000" cx="132.3736" cy="-422.6001" rx="57.5098" ry="25.4118"/>
<text text-anchor="middle" x="132.3736" y="-425.4001" font-family="Times,serif" font-size="14.00" fill="#000000">Pendlerkort</text>
<text text-anchor="middle" x="132.3736" y="-411.4001" font-family="Times,serif" font-size="14.00" fill="#000000">2019&#45;02&#45;05</text>
</g>
<!-- pendlerkort&#45;&gt;place_to_live -->
<g id="edge5" class="edge">
<title>pendlerkort&#45;&gt;place_to_live</title>
<path fill="none" stroke="#000000" d="M142.382,-397.1133C169.4141,-332.1124 250.7193,-160.1352 380.3736,-86.9117 429.4428,-59.1994 792.623,-37.6438 955.6049,-29.2585"/>
<polygon fill="#000000" stroke="#000000" points="956.2369,-32.7308 966.0453,-28.7252 955.8798,-25.7399 956.2369,-32.7308"/>
</g>
<!-- eu_residence_document_application -->
<g id="node10" class="node">
<title>eu_residence_document_application</title>
<ellipse fill="#00ff00" stroke="#000000" cx="785.3736" cy="-228.9777" rx="105.7427" ry="35.2113"/>
<text text-anchor="middle" x="785.3736" y="-238.7777" font-family="Times,serif" font-size="14.00" fill="#000000">Application for</text>
<text text-anchor="middle" x="785.3736" y="-224.7777" font-family="Times,serif" font-size="14.00" fill="#000000">EU residence document</text>
<text text-anchor="middle" x="785.3736" y="-210.7777" font-family="Times,serif" font-size="14.00" fill="#000000">2019&#45;01&#45;23</text>
</g>
<!-- eu_residence_document_application&#45;&gt;proof_of_work -->
<g id="edge7" class="edge">
<title>eu_residence_document_application&#45;&gt;proof_of_work</title>
<path fill="none" stroke="#000000" d="M699.0785,-208.3103C649.6526,-195.5655 586.8226,-177.8168 532.3736,-157.6224 523.7565,-154.4264 514.7656,-150.6555 506.1098,-146.7879"/>
<polygon fill="#000000" stroke="#000000" points="507.4328,-143.5445 496.8823,-142.5758 504.5259,-149.9124 507.4328,-143.5445"/>
</g>
<!-- eu_residence_document_application&#45;&gt;passport -->
<g id="edge8" class="edge">
<title>eu_residence_document_application&#45;&gt;passport</title>
<path fill="none" stroke="#000000" d="M722.2553,-200.3961C696.1857,-188.011 665.9161,-172.8705 639.3736,-157.6224 634.1511,-154.6221 628.7524,-151.2986 623.4887,-147.9251"/>
<polygon fill="#000000" stroke="#000000" points="625.0971,-144.7948 614.8127,-142.2487 621.2646,-150.6525 625.0971,-144.7948"/>
</g>
<!-- eu_residence_document_application&#45;&gt;place_to_live -->
<g id="edge6" class="edge">
<title>eu_residence_document_application&#45;&gt;place_to_live</title>
<path fill="none" stroke="#000000" d="M857.8487,-203.0444C882.7506,-191.7392 909.5677,-176.6534 930.3736,-157.6224 957.5141,-132.7973 950.7056,-115.878 973.3736,-86.9117 981.6344,-76.3557 991.5407,-65.6977 1000.9442,-56.2893"/>
<polygon fill="#000000" stroke="#000000" points="1003.6489,-58.539 1008.3367,-49.0377 998.747,-53.5418 1003.6489,-58.539"/>
</g>
<!-- od1_form -->
<g id="node11" class="node">
<title>od1_form</title>
<ellipse fill="#00ff00" stroke="#000000" cx="706.3736" cy="-122.267" rx="57.5098" ry="25.4118"/>
<text text-anchor="middle" x="706.3736" y="-125.067" font-family="Times,serif" font-size="14.00" fill="#000000">OD1 form</text>
<text text-anchor="middle" x="706.3736" y="-111.067" font-family="Times,serif" font-size="14.00" fill="#000000">2019&#45;01&#45;22</text>
</g>
<!-- eu_residence_document_application&#45;&gt;od1_form -->
<g id="edge9" class="edge">
<title>eu_residence_document_application&#45;&gt;od1_form</title>
<path fill="none" stroke="#000000" d="M759.9427,-194.6264C750.5607,-181.9535 739.9606,-167.6352 730.6805,-155.0999"/>
<polygon fill="#000000" stroke="#000000" points="733.261,-152.7033 724.4978,-146.7486 727.6349,-156.8684 733.261,-152.7033"/>
</g>
<!-- passport_photo -->
<g id="node12" class="node">
<title>passport_photo</title>
<ellipse fill="#00ff00" stroke="#000000" cx="851.3736" cy="-122.267" rx="69.7781" ry="25.4118"/>
<text text-anchor="middle" x="851.3736" y="-125.067" font-family="Times,serif" font-size="14.00" fill="#000000">Passport photo</text>
<text text-anchor="middle" x="851.3736" y="-111.067" font-family="Times,serif" font-size="14.00" fill="#000000">2019&#45;01&#45;23</text>
</g>
<!-- eu_residence_document_application&#45;&gt;passport_photo -->
<g id="edge10" class="edge">
<title>eu_residence_document_application&#45;&gt;passport_photo</title>
<path fill="none" stroke="#000000" d="M806.802,-194.3318C814.4346,-181.9911 823.0129,-168.1215 830.5905,-155.8698"/>
<polygon fill="#000000" stroke="#000000" points="833.62,-157.6255 835.9035,-147.2796 827.6666,-153.9433 833.62,-157.6255"/>
</g>
<!-- eu_residence_document -->
<g id="node13" class="node">
<title>eu_residence_document</title>
<ellipse fill="#00ff00" stroke="#000000" cx="890.3736" cy="-325.7889" rx="105.7427" ry="25.4118"/>
<text text-anchor="middle" x="890.3736" y="-328.5889" font-family="Times,serif" font-size="14.00" fill="#000000">EU residence document</text>
<text text-anchor="middle" x="890.3736" y="-314.5889" font-family="Times,serif" font-size="14.00" fill="#000000">2019&#45;01&#45;31</text>
</g>
<!-- eu_residence_document&#45;&gt;can_receive_post -->
<g id="edge12" class="edge">
<title>eu_residence_document&#45;&gt;can_receive_post</title>
<path fill="none" stroke="#000000" d="M947.1883,-304.3033C986.8195,-289.3161 1039.8,-269.2805 1081.1574,-253.6405"/>
<polygon fill="#000000" stroke="#000000" points="1082.4831,-256.8811 1090.5986,-250.0701 1080.007,-250.3336 1082.4831,-256.8811"/>
</g>
<!-- eu_residence_document&#45;&gt;eu_residence_document_application -->
<g id="edge11" class="edge">
<title>eu_residence_document&#45;&gt;eu_residence_document_application</title>
<path fill="none" stroke="#ff0000" d="M863.606,-301.1088C853.1393,-291.4584 840.8596,-280.1364 829.1718,-269.3601"/>
<polygon fill="#ff0000" stroke="#ff0000" points="831.3262,-266.5858 821.6017,-262.3804 826.5812,-271.7322 831.3262,-266.5858"/>
</g>
<!-- cpr_number_application -->
<g id="node14" class="node">
<title>cpr_number_application</title>
<ellipse fill="#00ff00" stroke="#000000" cx="690.3736" cy="-422.6001" rx="72.138" ry="35.2113"/>
<text text-anchor="middle" x="690.3736" y="-432.4001" font-family="Times,serif" font-size="14.00" fill="#000000">Application for</text>
<text text-anchor="middle" x="690.3736" y="-418.4001" font-family="Times,serif" font-size="14.00" fill="#000000">CPR number</text>
<text text-anchor="middle" x="690.3736" y="-404.4001" font-family="Times,serif" font-size="14.00" fill="#000000">2019&#45;02&#45;06</text>
</g>
<!-- cpr_number_application&#45;&gt;proof_of_work -->
<g id="edge14" class="edge">
<title>cpr_number_application&#45;&gt;proof_of_work</title>
<path fill="none" stroke="#000000" d="M641.0918,-396.576C621.5111,-384.5926 599.7898,-369.0608 583.3736,-351.2447 554.6187,-320.0376 500.2579,-212.5625 472.9336,-156.6611"/>
<polygon fill="#000000" stroke="#000000" points="475.9981,-154.9599 468.473,-147.5018 469.7047,-158.0248 475.9981,-154.9599"/>
</g>
<!-- cpr_number_application&#45;&gt;passport -->
<g id="edge16" class="edge">
<title>cpr_number_application&#45;&gt;passport</title>
<path fill="none" stroke="#000000" d="M644.9097,-395.1494C629.7362,-383.5713 614.4073,-368.6982 605.3736,-351.2447 573.2408,-289.1625 576.1977,-204.7751 581.2605,-157.7135"/>
<polygon fill="#000000" stroke="#000000" points="584.746,-158.0408 582.4311,-147.702 577.7934,-157.2278 584.746,-158.0408"/>
</g>
<!-- cpr_number_application&#45;&gt;eu_residence_document -->
<g id="edge13" class="edge">
<title>cpr_number_application&#45;&gt;eu_residence_document</title>
<path fill="none" stroke="#000000" d="M741.8786,-397.6688C770.0765,-384.0194 805.0623,-367.0843 833.9912,-353.0812"/>
<polygon fill="#000000" stroke="#000000" points="835.6786,-356.1529 843.1546,-348.6456 832.6287,-349.8523 835.6786,-356.1529"/>
</g>
<!-- proof_of_address -->
<g id="node15" class="node">
<title>proof_of_address</title>
<ellipse fill="#00ff00" stroke="#000000" cx="690.3736" cy="-325.7889" rx="76.3945" ry="25.4118"/>
<text text-anchor="middle" x="690.3736" y="-328.5889" font-family="Times,serif" font-size="14.00" fill="#000000">Proof of address</text>
<text text-anchor="middle" x="690.3736" y="-314.5889" font-family="Times,serif" font-size="14.00" fill="#000000">2019&#45;01&#45;21</text>
</g>
<!-- cpr_number_application&#45;&gt;proof_of_address -->
<g id="edge15" class="edge">
<title>cpr_number_application&#45;&gt;proof_of_address</title>
<path fill="none" stroke="#000000" d="M690.3736,-387.1009C690.3736,-378.7532 690.3736,-369.8531 690.3736,-361.4964"/>
<polygon fill="#000000" stroke="#000000" points="693.8737,-361.2842 690.3736,-351.2842 686.8737,-361.2843 693.8737,-361.2842"/>
</g>
<!-- proof_of_address&#45;&gt;place_to_live -->
<g id="edge21" class="edge">
<title>proof_of_address&#45;&gt;place_to_live</title>
<path fill="none" stroke="#000000" d="M747.0441,-308.7264C756.4993,-305.9057 766.21,-303.0247 775.3736,-300.333 830.8439,-284.0397 854.4211,-299.4155 900.3736,-264.333 918.5284,-250.4728 984.914,-122.8579 1016.9061,-60.0493"/>
<polygon fill="#000000" stroke="#000000" points="1020.1388,-61.4135 1021.5499,-50.913 1013.8987,-58.2416 1020.1388,-61.4135"/>
</g>
<!-- cpr_number -->
<g id="node16" class="node">
<title>cpr_number</title>
<ellipse fill="#00ff00" stroke="#000000" cx="780.3736" cy="-519.4113" rx="62.9806" ry="25.4118"/>
<text text-anchor="middle" x="780.3736" y="-522.2113" font-family="Times,serif" font-size="14.00" fill="#000000">CPR number</text>
<text text-anchor="middle" x="780.3736" y="-508.2113" font-family="Times,serif" font-size="14.00" fill="#000000">2019&#45;02&#45;06</text>
</g>
<!-- cpr_number&#45;&gt;can_receive_post -->
<g id="edge18" class="edge">
<title>cpr_number&#45;&gt;can_receive_post</title>
<path fill="none" stroke="#000000" d="M828.3799,-503.0044C856.6171,-492.2741 892.3581,-476.7684 921.3736,-457.9554 1006.0288,-403.0669 1083.4682,-311.3069 1121.5655,-262.2686"/>
<polygon fill="#000000" stroke="#000000" points="1124.4488,-264.2609 1127.7762,-254.2022 1118.9023,-259.9904 1124.4488,-264.2609"/>
</g>
<!-- cpr_number&#45;&gt;cpr_number_application -->
<g id="edge17" class="edge">
<title>cpr_number&#45;&gt;cpr_number_application</title>
<path fill="none" stroke="#ff0000" d="M758.1265,-495.4804C748.9064,-485.5626 737.957,-473.7846 727.5783,-462.6204"/>
<polygon fill="#ff0000" stroke="#ff0000" points="729.8846,-459.9608 720.5125,-455.0198 724.7578,-464.7269 729.8846,-459.9608"/>
</g>
<!-- cpr_card -->
<g id="node17" class="node">
<title>cpr_card</title>
<ellipse fill="#00ff00" stroke="#000000" cx="1208.3736" cy="-616.2224" rx="78.9044" ry="25.4118"/>
<text text-anchor="middle" x="1208.3736" y="-619.0224" font-family="Times,serif" font-size="14.00" fill="#000000">CPR yellow card</text>
<text text-anchor="middle" x="1208.3736" y="-605.0224" font-family="Times,serif" font-size="14.00" fill="#000000">2019&#45;02&#45;??</text>
</g>
<!-- cpr_card&#45;&gt;can_receive_post -->
<g id="edge20" class="edge">
<title>cpr_card&#45;&gt;can_receive_post</title>
<path fill="none" stroke="#000000" d="M1204.2576,-590.5143C1193.4862,-523.2371 1164.448,-341.8681 1152.0788,-264.6115"/>
<polygon fill="#000000" stroke="#000000" points="1155.4847,-263.7448 1150.4477,-254.4239 1148.5727,-264.8515 1155.4847,-263.7448"/>
</g>
<!-- cpr_card&#45;&gt;cpr_number -->
<g id="edge19" class="edge">
<title>cpr_card&#45;&gt;cpr_number</title>
<path fill="none" stroke="#000000" d="M1160.1821,-595.9951C1145.9319,-590.5358 1130.1801,-585.0026 1115.3736,-580.8671 1025.4517,-555.7517 919.015,-538.2389 850.6428,-528.5047"/>
<polygon fill="#000000" stroke="#000000" points="850.8115,-524.994 840.4215,-527.0671 849.8365,-531.9258 850.8115,-524.994"/>
</g>
<!-- skattekort -->
<g id="node18" class="node">
<title>skattekort</title>
<ellipse fill="#00ff00" stroke="#000000" cx="777.3736" cy="-819.7443" rx="57.5098" ry="25.4118"/>
<text text-anchor="middle" x="777.3736" y="-822.5443" font-family="Times,serif" font-size="14.00" fill="#000000">Skattekort</text>
<text text-anchor="middle" x="777.3736" y="-808.5443" font-family="Times,serif" font-size="14.00" fill="#000000">2019&#45;02&#45;07</text>
</g>
<!-- skattekort&#45;&gt;cpr_number -->
<g id="edge22" class="edge">
<title>skattekort&#45;&gt;cpr_number</title>
<path fill="none" stroke="#000000" stroke-dasharray="1,5" d="M749.8875,-797.2195C739.1405,-786.6604 728.0469,-773.1347 722.3736,-758.2885 695.3099,-687.4655 733.7414,-599.8987 759.7985,-552.9354"/>
<polygon fill="#000000" stroke="#000000" points="762.9214,-554.5241 764.8219,-544.1011 756.8363,-551.064 762.9214,-554.5241"/>
</g>
<!-- nemid_application -->
<g id="node19" class="node">
<title>nemid_application</title>
<ellipse fill="#00ff00" stroke="#000000" cx="902.3736" cy="-616.2224" rx="72.138" ry="35.2113"/>
<text text-anchor="middle" x="902.3736" y="-626.0224" font-family="Times,serif" font-size="14.00" fill="#000000">Application for</text>
<text text-anchor="middle" x="902.3736" y="-612.0224" font-family="Times,serif" font-size="14.00" fill="#000000">Nemid</text>
<text text-anchor="middle" x="902.3736" y="-598.0224" font-family="Times,serif" font-size="14.00" fill="#000000">2019&#45;02&#45;06</text>
</g>
<!-- nemid_application&#45;&gt;cpr_number -->
<g id="edge23" class="edge">
<title>nemid_application&#45;&gt;cpr_number</title>
<path fill="none" stroke="#000000" d="M864.4408,-586.1215C849.3321,-574.1321 832.0092,-560.3858 817.0294,-548.4988"/>
<polygon fill="#000000" stroke="#000000" points="818.9862,-545.5836 808.9772,-542.1092 814.635,-551.0669 818.9862,-545.5836"/>
</g>
<!-- nemid_userid -->
<g id="node20" class="node">
<title>nemid_userid</title>
<ellipse fill="#00ff00" stroke="#000000" cx="804.3736" cy="-722.9331" rx="72.7816" ry="25.4118"/>
<text text-anchor="middle" x="804.3736" y="-725.7331" font-family="Times,serif" font-size="14.00" fill="#000000">NemID user ID</text>
<text text-anchor="middle" x="804.3736" y="-711.7331" font-family="Times,serif" font-size="14.00" fill="#000000">2019&#45;02&#45;06</text>
</g>
<!-- nemid_userid&#45;&gt;nemid_application -->
<g id="edge24" class="edge">
<title>nemid_userid&#45;&gt;nemid_application</title>
<path fill="none" stroke="#000000" d="M826.8568,-698.4515C838.3,-685.9912 852.5043,-670.5244 865.4956,-656.3784"/>
<polygon fill="#000000" stroke="#000000" points="868.3767,-658.4156 872.5629,-648.6829 863.221,-653.6807 868.3767,-658.4156"/>
</g>
<!-- danish_bank_account -->
<g id="node21" class="node">
<title>danish_bank_account</title>
<ellipse fill="#00ff00" stroke="#000000" cx="467.3736" cy="-616.2224" rx="94.1666" ry="25.4118"/>
<text text-anchor="middle" x="467.3736" y="-619.0224" font-family="Times,serif" font-size="14.00" fill="#000000">Danish bank account</text>
<text text-anchor="middle" x="467.3736" y="-605.0224" font-family="Times,serif" font-size="14.00" fill="#000000">2019&#45;02&#45;07</text>
</g>
<!-- danish_bank_account&#45;&gt;proof_of_work -->
<g id="edge26" class="edge">
<title>danish_bank_account&#45;&gt;proof_of_work</title>
<path fill="none" stroke="#000000" d="M468.4586,-590.5456C469.9291,-553.472 472.3736,-482.791 472.3736,-422.6001 472.3736,-422.6001 472.3736,-422.6001 472.3736,-325.7889 472.3736,-266.7748 465.605,-198.4304 460.8726,-157.858"/>
<polygon fill="#000000" stroke="#000000" points="464.347,-157.4343 459.6889,-147.9185 457.3961,-158.2622 464.347,-157.4343"/>
</g>
<!-- danish_bank_account&#45;&gt;passport -->
<g id="edge27" class="edge">
<title>danish_bank_account&#45;&gt;passport</title>
<path fill="none" stroke="#000000" d="M473.8655,-590.8128C477.3235,-577.1967 481.6253,-560.1282 485.3736,-544.8671 520.6164,-401.3807 561.0544,-230.0742 578.1071,-157.5134"/>
<polygon fill="#000000" stroke="#000000" points="581.5705,-158.0747 580.45,-147.5392 574.756,-156.4739 581.5705,-158.0747"/>
</g>
<!-- danish_bank_account&#45;&gt;danish_phone_number -->
<g id="edge28" class="edge">
<title>danish_bank_account&#45;&gt;danish_phone_number</title>
<path fill="none" stroke="#000000" d="M436.9026,-592.0426C421.0117,-579.4326 401.3966,-563.8674 384.4058,-550.3846"/>
<polygon fill="#000000" stroke="#000000" points="386.3125,-547.4296 376.3035,-543.9552 381.9613,-552.9129 386.3125,-547.4296"/>
</g>
<!-- danish_bank_account&#45;&gt;cpr_number -->
<g id="edge25" class="edge">
<title>danish_bank_account&#45;&gt;cpr_number</title>
<path fill="none" stroke="#000000" d="M526.9874,-596.4106C542.6994,-591.2702 559.6543,-585.7954 575.3736,-580.8671 623.6843,-565.7207 678.6468,-549.2867 719.4922,-537.2271"/>
<polygon fill="#000000" stroke="#000000" points="720.6941,-540.5218 729.296,-534.3365 718.7144,-533.8075 720.6941,-540.5218"/>
</g>
<!-- activated_nemid -->
<g id="node22" class="node">
<title>activated_nemid</title>
<ellipse fill="#00ff00" stroke="#000000" cx="932.3736" cy="-819.7443" rx="79.427" ry="25.4118"/>
<text text-anchor="middle" x="932.3736" y="-822.5443" font-family="Times,serif" font-size="14.00" fill="#000000">Activated Nemid</text>
<text text-anchor="middle" x="932.3736" y="-808.5443" font-family="Times,serif" font-size="14.00" fill="#000000">2019&#45;02&#45;19</text>
</g>
<!-- activated_nemid&#45;&gt;danish_phone_number -->
<g id="edge30" class="edge">
<title>activated_nemid&#45;&gt;danish_phone_number</title>
<path fill="none" stroke="#000000" d="M876.4642,-801.6142C865.8991,-798.7478 854.8695,-796.1277 844.3736,-794.2885 784.0509,-783.7178 336.2401,-802.9849 294.3736,-758.2885 241.4552,-701.793 289.9337,-604.4116 322.1132,-553.1758"/>
<polygon fill="#000000" stroke="#000000" points="325.2487,-554.7704 327.7077,-544.4649 319.3588,-550.9876 325.2487,-554.7704"/>
</g>
<!-- activated_nemid&#45;&gt;nemid_userid -->
<g id="edge29" class="edge">
<title>activated_nemid&#45;&gt;nemid_userid</title>
<path fill="none" stroke="#000000" d="M901.3884,-796.309C883.8578,-783.05 861.7763,-766.3489 843.1101,-752.231"/>
<polygon fill="#000000" stroke="#000000" points="845.1605,-749.3934 835.0735,-746.1526 840.9379,-754.9764 845.1605,-749.3934"/>
</g>
<!-- noglekort -->
<g id="node23" class="node">
<title>noglekort</title>
<ellipse fill="#00ff00" stroke="#000000" cx="1237.3736" cy="-722.9331" rx="69.7588" ry="35.2113"/>
<text text-anchor="middle" x="1237.3736" y="-732.7331" font-family="Times,serif" font-size="14.00" fill="#000000">Nøglekort</text>
<text text-anchor="middle" x="1237.3736" y="-718.7331" font-family="Times,serif" font-size="14.00" fill="#000000">2019&#45;02&#45;06</text>
<text text-anchor="middle" x="1237.3736" y="-704.7331" font-family="Times,serif" font-size="14.00" fill="#000000">og 2019&#45;02&#45;07</text>
</g>
<!-- activated_nemid&#45;&gt;noglekort -->
<g id="edge31" class="edge">
<title>activated_nemid&#45;&gt;noglekort</title>
<path fill="none" stroke="#000000" d="M997,-805.0034C1042.6493,-793.9072 1104.9587,-777.3732 1158.3736,-758.2885 1164.3167,-756.1651 1170.4361,-753.7868 1176.514,-751.2944"/>
<polygon fill="#000000" stroke="#000000" points="1178.1391,-754.4079 1185.9995,-747.304 1175.4247,-747.9555 1178.1391,-754.4079"/>
</g>
<!-- midlertidlig_nemid_adgangskode -->
<g id="node24" class="node">
<title>midlertidlig_nemid_adgangskode</title>
<ellipse fill="#00ff00" stroke="#000000" cx="1022.3736" cy="-722.9331" rx="126.7645" ry="25.4118"/>
<text text-anchor="middle" x="1022.3736" y="-725.7331" font-family="Times,serif" font-size="14.00" fill="#000000">Temporary NemID password</text>
<text text-anchor="middle" x="1022.3736" y="-711.7331" font-family="Times,serif" font-size="14.00" fill="#000000">2019&#45;02&#45;19</text>
</g>
<!-- activated_nemid&#45;&gt;midlertidlig_nemid_adgangskode -->
<g id="edge32" class="edge">
<title>activated_nemid&#45;&gt;midlertidlig_nemid_adgangskode</title>
<path fill="none" stroke="#000000" d="M955.0844,-795.3148C966.3153,-783.234 980.0242,-768.4876 992.1307,-755.4649"/>
<polygon fill="#000000" stroke="#000000" points="994.7974,-757.7368 999.0428,-748.0297 989.6706,-752.9707 994.7974,-757.7368"/>
</g>
<!-- noglekort&#45;&gt;can_receive_post -->
<g id="edge35" class="edge">
<title>noglekort&#45;&gt;can_receive_post</title>
<path fill="none" stroke="#000000" stroke-dasharray="1,5" d="M1284.6265,-696.3465C1301.2407,-684.6963 1318.4689,-669.55 1329.3736,-651.5778 1360.3428,-600.5371 1353.3736,-579.1126 1353.3736,-519.4113 1353.3736,-519.4113 1353.3736,-519.4113 1353.3736,-422.6001 1353.3736,-367.2222 1364.8971,-342.8159 1329.3736,-300.333 1306.677,-273.1899 1272.3168,-256.3276 1239.476,-245.8712"/>
<polygon fill="#000000" stroke="#000000" points="1240.3923,-242.4919 1229.8077,-242.9582 1238.3728,-249.1943 1240.3923,-242.4919"/>
</g>
<!-- noglekort&#45;&gt;nemid_application -->
<g id="edge33" class="edge">
<title>noglekort&#45;&gt;nemid_application</title>
<path fill="none" stroke="#ff0000" stroke-dasharray="1,5" d="M1185.9821,-698.6105C1176.8798,-694.6839 1167.4194,-690.842 1158.3736,-687.5778 1098.4393,-665.9498 1028.6703,-646.8914 977.1186,-633.9241"/>
<polygon fill="#ff0000" stroke="#ff0000" points="977.9358,-630.5207 967.3857,-631.4937 976.2399,-637.3122 977.9358,-630.5207"/>
</g>
<!-- midlertidlig_nemid_adgangskode&#45;&gt;can_receive_post -->
<g id="edge36" class="edge">
<title>midlertidlig_nemid_adgangskode&#45;&gt;can_receive_post</title>
<path fill="none" stroke="#000000" stroke-dasharray="1,5" d="M1100.1188,-702.7205C1181.0899,-681.6642 1296.2674,-651.6966 1296.3736,-651.5778 1335.9225,-607.3323 1315.3736,-578.7558 1315.3736,-519.4113 1315.3736,-519.4113 1315.3736,-519.4113 1315.3736,-422.6001 1315.3736,-349.4203 1246.0061,-290.5348 1196.1545,-257.665"/>
<polygon fill="#000000" stroke="#000000" points="1198.0168,-254.7013 1187.7157,-252.2238 1194.2234,-260.5844 1198.0168,-254.7013"/>
</g>
<!-- midlertidlig_nemid_adgangskode&#45;&gt;nemid_application -->
<g id="edge34" class="edge">
<title>midlertidlig_nemid_adgangskode&#45;&gt;nemid_application</title>
<path fill="none" stroke="#ff0000" stroke-dasharray="1,5" d="M994.239,-697.9142C979.594,-684.8911 961.3809,-668.695 945.0431,-654.1665"/>
<polygon fill="#ff0000" stroke="#ff0000" points="946.9958,-651.2192 937.1972,-647.1895 942.3441,-656.4501 946.9958,-651.2192"/>
</g>
<!-- ehic -->
<g id="node25" class="node">
<title>ehic</title>
<ellipse fill="#00ff00" stroke="#000000" cx="1038.3736" cy="-906.656" rx="110.6617" ry="25.4118"/>
<text text-anchor="middle" x="1038.3736" y="-909.456" font-family="Times,serif" font-size="14.00" fill="#000000">Danish EHIC (&#39;blåt kort&#39;)</text>
<text text-anchor="middle" x="1038.3736" y="-895.456" font-family="Times,serif" font-size="14.00" fill="#000000">2019&#45;02&#45;26</text>
</g>
<!-- ehic&#45;&gt;place_to_live -->
<g id="edge39" class="edge">
<title>ehic&#45;&gt;place_to_live</title>
<path fill="none" stroke="#000000" d="M1117.5937,-888.7572C1171.6506,-875.8386 1237.898,-858.4162 1263.3736,-845.2001 1339.1098,-805.9103 1411.3736,-808.254 1411.3736,-722.9331 1411.3736,-722.9331 1411.3736,-722.9331 1411.3736,-228.9777 1411.3736,-93.9179 1221.7015,-48.0607 1111.4268,-32.8128"/>
<polygon fill="#000000" stroke="#000000" points="1111.7132,-29.3202 1101.3393,-31.4725 1110.7911,-36.2592 1111.7132,-29.3202"/>
</g>
<!-- ehic&#45;&gt;cpr_number -->
<g id="edge37" class="edge">
<title>ehic&#45;&gt;cpr_number</title>
<path fill="none" stroke="#000000" d="M1105.2472,-886.1888C1209.4207,-851.0137 1391.1319,-774.44 1316.3736,-687.5778 1281.3372,-646.8686 1126.902,-672.3559 1077.3736,-651.5778 1029.1656,-631.3536 1029.9965,-604.5177 983.3736,-580.8671 939.9908,-558.8601 887.3236,-543.2004 846.5073,-533.1976"/>
<polygon fill="#000000" stroke="#000000" points="847.205,-529.7658 836.6646,-530.8384 845.5733,-536.573 847.205,-529.7658"/>
</g>
<!-- ehic&#45;&gt;activated_nemid -->
<g id="edge38" class="edge">
<title>ehic&#45;&gt;activated_nemid</title>
<path fill="none" stroke="#000000" d="M1008.2818,-881.9831C996.1168,-872.0087 981.958,-860.3996 969.1864,-849.9279"/>
<polygon fill="#000000" stroke="#000000" points="971.3959,-847.2134 961.4437,-843.5795 966.9576,-852.6265 971.3959,-847.2134"/>
</g>
<!-- doctor -->
<g id="node26" class="node">
<title>doctor</title>
<ellipse fill="#00ff00" stroke="#000000" cx="1497.3736" cy="-819.7443" rx="57.5098" ry="25.4118"/>
<text text-anchor="middle" x="1497.3736" y="-822.5443" font-family="Times,serif" font-size="14.00" fill="#000000">Doctor</text>
<text text-anchor="middle" x="1497.3736" y="-808.5443" font-family="Times,serif" font-size="14.00" fill="#000000">2019&#45;02&#45;06</text>
</g>
<!-- doctor&#45;&gt;cpr_number -->
<g id="edge40" class="edge">
<title>doctor&#45;&gt;cpr_number</title>
<path fill="none" stroke="#000000" d="M1478.2202,-795.6496C1452.4479,-765.0758 1403.5426,-713.2409 1349.3736,-687.5778 1256.2663,-643.4672 1205.9732,-708.9139 1120.3736,-651.5778 1089.814,-631.1084 1107.4321,-602.0657 1077.3736,-580.8671 1041.5975,-555.6361 926.9901,-537.2536 851.0551,-527.468"/>
<polygon fill="#000000" stroke="#000000" points="851.4325,-523.9879 841.0716,-526.2021 850.5519,-530.9323 851.4325,-523.9879"/>
</g>
<!-- get_paid -->
<g id="node27" class="node">
<title>get_paid</title>
<ellipse fill="#00ff00" stroke="#000000" cx="447.3736" cy="-906.656" rx="57.5098" ry="25.4118"/>
<text text-anchor="middle" x="447.3736" y="-909.456" font-family="Times,serif" font-size="14.00" fill="#000000">Get paid</text>
<text text-anchor="middle" x="447.3736" y="-895.456" font-family="Times,serif" font-size="14.00" fill="#000000">2019&#45;02&#45;28</text>
</g>
<!-- get_paid&#45;&gt;job -->
<g id="edge41" class="edge">
<title>get_paid&#45;&gt;job</title>
<path fill="none" stroke="#000000" d="M399.6465,-892.2462C332.5332,-868.6833 218.3736,-815.0623 218.3736,-722.9331 218.3736,-722.9331 218.3736,-722.9331 218.3736,-228.9777 218.3736,-159.8135 270.2226,-93.2815 305.4716,-56.042"/>
<polygon fill="#000000" stroke="#000000" points="308.2813,-58.1714 312.7168,-48.5497 303.2492,-53.3053 308.2813,-58.1714"/>
</g>
<!-- get_paid&#45;&gt;skattekort -->
<g id="edge42" class="edge">
<title>get_paid&#45;&gt;skattekort</title>
<path fill="none" stroke="#000000" d="M499.0294,-895.4458C563.8795,-881.2224 671.3575,-857.1122 710.3736,-845.2001 715.2326,-843.7167 720.2458,-842.0589 725.2405,-840.3201"/>
<polygon fill="#000000" stroke="#000000" points="726.5453,-843.5706 734.7775,-836.9012 724.183,-836.9812 726.5453,-843.5706"/>
</g>
<!-- get_paid&#45;&gt;danish_bank_account -->
<g id="edge43" class="edge">
<title>get_paid&#45;&gt;danish_bank_account</title>
<path fill="none" stroke="#000000" d="M449.131,-881.1365C452.7008,-829.2962 460.809,-711.5528 464.9061,-652.056"/>
<polygon fill="#000000" stroke="#000000" points="468.4035,-652.2128 465.5988,-641.996 461.42,-651.7319 468.4035,-652.2128"/>
</g>
<!-- get_paid&#45;&gt;activated_nemid -->
<g id="edge44" class="edge">
<title>get_paid&#45;&gt;activated_nemid</title>
<path fill="none" stroke="#000000" d="M498.4482,-894.7699C519.4195,-890.1404 543.9885,-885.0372 566.3736,-881.2001 689.17,-860.1518 722.3998,-870.5842 844.3736,-845.2001 851.3317,-843.7521 858.5421,-842.0339 865.7046,-840.184"/>
<polygon fill="#000000" stroke="#000000" points="866.6545,-843.5531 875.4139,-837.5928 864.8495,-836.7898 866.6545,-843.5531"/>
</g>
<!-- danish_lessions -->
<g id="node28" class="node">
<title>danish_lessions</title>
<ellipse fill="#00ff00" stroke="#000000" cx="631.3736" cy="-819.7443" rx="70.3704" ry="25.4118"/>
<text text-anchor="middle" x="631.3736" y="-822.5443" font-family="Times,serif" font-size="14.00" fill="#000000">Danish lessons</text>
<text text-anchor="middle" x="631.3736" y="-808.5443" font-family="Times,serif" font-size="14.00" fill="#000000">2019&#45;03&#45;12</text>
</g>
<!-- danish_lessions&#45;&gt;cpr_number -->
<g id="edge45" class="edge">
<title>danish_lessions&#45;&gt;cpr_number</title>
<path fill="none" stroke="#000000" d="M638.9809,-794.1665C655.2298,-740.3936 693.7639,-617.5651 717.3736,-580.8671 724.752,-569.3985 734.643,-558.4569 744.3979,-549.0689"/>
<polygon fill="#000000" stroke="#000000" points="746.8393,-551.5781 751.7871,-542.2095 742.0769,-546.4478 746.8393,-551.5781"/>
</g>
<!-- danish_bank_card -->
<g id="node29" class="node">
<title>danish_bank_card</title>
<ellipse fill="#00ff00" stroke="#000000" cx="556.3736" cy="-722.9331" rx="80.6721" ry="25.4118"/>
<text text-anchor="middle" x="556.3736" y="-725.7331" font-family="Times,serif" font-size="14.00" fill="#000000">Danish bank card</text>
<text text-anchor="middle" x="556.3736" y="-711.7331" font-family="Times,serif" font-size="14.00" fill="#000000">2019&#45;02&#45;16</text>
</g>
<!-- danish_lessions&#45;&gt;danish_bank_card -->
<g id="edge46" class="edge">
<title>danish_lessions&#45;&gt;danish_bank_card</title>
<path fill="none" stroke="#000000" d="M612.2539,-795.0643C603.0688,-783.2079 591.9291,-768.8287 582.0202,-756.0381"/>
<polygon fill="#000000" stroke="#000000" points="584.6104,-753.6665 575.7192,-747.9047 579.0767,-757.9535 584.6104,-753.6665"/>
</g>
<!-- danish_bank_card&#45;&gt;can_receive_post -->
<g id="edge48" class="edge">
<title>danish_bank_card&#45;&gt;can_receive_post</title>
<path fill="none" stroke="#000000" d="M567.767,-697.4668C589.3769,-651.5815 640.3139,-554.2049 708.3736,-493.9554 728.1939,-476.4097 897.3645,-398.3917 921.3736,-387.2447 958.2141,-370.1404 973.4676,-376.38 1005.3736,-351.2447 1027.5532,-333.7719 1023.0587,-319.9427 1043.3736,-300.333 1059.6488,-284.6229 1079.6963,-269.9025 1097.7664,-257.9597"/>
<polygon fill="#000000" stroke="#000000" points="1099.9663,-260.7047 1106.4531,-252.3279 1096.1582,-254.8311 1099.9663,-260.7047"/>
</g>
<!-- danish_bank_card&#45;&gt;danish_bank_account -->
<g id="edge47" class="edge">
<title>danish_bank_card&#45;&gt;danish_bank_account</title>
<path fill="none" stroke="#ff0000" d="M535.7316,-698.1833C523.5751,-683.6078 508.0462,-664.9887 494.8623,-649.1813"/>
<polygon fill="#ff0000" stroke="#ff0000" points="497.305,-646.6455 488.2121,-641.2077 491.9293,-651.129 497.305,-646.6455"/>
</g>
<!-- spend_lovely_dkk -->
<g id="node30" class="node">
<title>spend_lovely_dkk</title>
<ellipse fill="#00ff00" stroke="#000000" cx="520.3736" cy="-993.5677" rx="111.2416" ry="25.4118"/>
<text text-anchor="middle" x="520.3736" y="-996.3677" font-family="Times,serif" font-size="14.00" fill="#000000">Spend your lovely DKK!</text>
<text text-anchor="middle" x="520.3736" y="-982.3677" font-family="Times,serif" font-size="14.00" fill="#000000">2019&#45;02&#45;28</text>
</g>
<!-- spend_lovely_dkk&#45;&gt;get_paid -->
<g id="edge49" class="edge">
<title>spend_lovely_dkk&#45;&gt;get_paid</title>
<path fill="none" stroke="#000000" d="M499.259,-968.4292C491.3511,-959.0143 482.2639,-948.1953 473.9264,-938.2689"/>
<polygon fill="#000000" stroke="#000000" points="476.5491,-935.9496 467.4374,-930.5433 471.189,-940.4517 476.5491,-935.9496"/>
</g>
<!-- spend_lovely_dkk&#45;&gt;danish_bank_card -->
<g id="edge50" class="edge">
<title>spend_lovely_dkk&#45;&gt;danish_bank_card</title>
<path fill="none" stroke="#000000" d="M523.7604,-968.107C530.2063,-919.6494 544.2519,-814.0597 551.63,-758.5941"/>
<polygon fill="#000000" stroke="#000000" points="555.1204,-758.8975 552.9696,-748.5233 548.1815,-757.9744 555.1204,-758.8975"/>
</g>
<!-- mobilepay -->
<g id="node31" class="node">
<title>mobilepay</title>
<ellipse fill="#00ff00" stroke="#000000" cx="361.3736" cy="-722.9331" rx="57.5098" ry="25.4118"/>
<text text-anchor="middle" x="361.3736" y="-725.7331" font-family="Times,serif" font-size="14.00" fill="#000000">Mobilepay</text>
<text text-anchor="middle" x="361.3736" y="-711.7331" font-family="Times,serif" font-size="14.00" fill="#000000">2019&#45;02&#45;18</text>
</g>
<!-- mobilepay&#45;&gt;danish_phone_number -->
<g id="edge52" class="edge">
<title>mobilepay&#45;&gt;danish_phone_number</title>
<path fill="none" stroke="#000000" d="M359.3472,-697.1569C356.516,-661.1435 351.3657,-595.6309 348.1707,-554.9901"/>
<polygon fill="#000000" stroke="#000000" points="351.6567,-554.673 347.3836,-544.9781 344.6782,-555.2217 351.6567,-554.673"/>
</g>
<!-- mobilepay&#45;&gt;cpr_number -->
<g id="edge51" class="edge">
<title>mobilepay&#45;&gt;cpr_number</title>
<path fill="none" stroke="#000000" d="M407.2381,-707.5192C467.6381,-687.1854 566.6895,-653.7036 570.3736,-651.5778 611.765,-627.6946 611.4309,-607.1012 651.3736,-580.8671 674.7127,-565.5382 702.4666,-551.8083 726.2411,-541.2347"/>
<polygon fill="#000000" stroke="#000000" points="727.7193,-544.4084 735.4788,-537.1945 724.9143,-537.9949 727.7193,-544.4084"/>
</g>
<!-- mobilepay&#45;&gt;danish_bank_account -->
<g id="edge53" class="edge">
<title>mobilepay&#45;&gt;danish_bank_account</title>
<path fill="none" stroke="#000000" d="M384.6358,-699.515C399.5392,-684.5117 419.0811,-664.8388 435.4305,-648.3798"/>
<polygon fill="#000000" stroke="#000000" points="438.1253,-650.6333 442.6896,-641.072 433.159,-645.7001 438.1253,-650.6333"/>
</g>
<!-- hygge -->
<g id="node32" class="node">
<title>hygge</title>
<ellipse fill="none" stroke="#000000" cx="734.3736" cy="-1307.8334" rx="101.1913" ry="21.7969"/>
<text text-anchor="middle" x="734.3736" y="-1308.1178" font-family="Times,serif" font-size="14.00" fill="#000000">🇩🇰 😊 Hygge 😊 🇩🇰</text>
</g>
<!-- magi4 -->
<g id="node33" class="node">
<title>magi4</title>
<ellipse fill="none" stroke="#000000" cx="794.3736" cy="-1080.4794" rx="27" ry="18"/>
<text text-anchor="middle" x="794.3736" y="-1076.2794" font-family="Times,serif" font-size="14.00" fill="#000000">????</text>
</g>
<!-- hygge&#45;&gt;magi4 -->
<g id="edge54" class="edge">
<title>hygge&#45;&gt;magi4</title>
<path fill="none" stroke="#000000" stroke-dasharray="5,2" d="M740.2359,-1285.6198C751.2606,-1243.8448 775.0523,-1153.6926 787.0866,-1108.0919"/>
<polygon fill="#000000" stroke="#000000" points="790.5055,-1108.8527 789.6732,-1098.2906 783.7373,-1107.0664 790.5055,-1108.8527"/>
</g>
<!-- magi1 -->
<g id="node34" class="node">
<title>magi1</title>
<ellipse fill="none" stroke="#000000" cx="707.3736" cy="-1231.9352" rx="27" ry="18"/>
<text text-anchor="middle" x="707.3736" y="-1227.7352" font-family="Times,serif" font-size="14.00" fill="#000000">?</text>
</g>
<!-- hygge&#45;&gt;magi1 -->
<g id="edge55" class="edge">
<title>hygge&#45;&gt;magi1</title>
<path fill="none" stroke="#000000" d="M726.5641,-1285.8805C723.5768,-1277.4829 720.1343,-1267.806 716.9971,-1258.9871"/>
<polygon fill="#000000" stroke="#000000" points="720.2745,-1257.7572 713.6252,-1249.5087 713.6794,-1260.1034 720.2745,-1257.7572"/>
</g>
<!-- helbred -->
<g id="node37" class="node">
<title>helbred</title>
<ellipse fill="#00ff00" stroke="#000000" cx="877.3736" cy="-993.5677" rx="57.5098" ry="25.4118"/>
<text text-anchor="middle" x="877.3736" y="-996.3677" font-family="Times,serif" font-size="14.00" fill="#000000">Health</text>
<text text-anchor="middle" x="877.3736" y="-982.3677" font-family="Times,serif" font-size="14.00" fill="#000000">2019&#45;02&#45;28</text>
</g>
<!-- magi4&#45;&gt;helbred -->
<g id="edge61" class="edge">
<title>magi4&#45;&gt;helbred</title>
<path fill="none" stroke="#000000" stroke-dasharray="1,5" d="M809.2124,-1064.9413C819.9136,-1053.7357 834.7164,-1038.2353 847.7936,-1024.5418"/>
<polygon fill="#000000" stroke="#000000" points="850.469,-1026.8081 854.8442,-1017.1589 845.4066,-1021.9736 850.469,-1026.8081"/>
</g>
<!-- magi2 -->
<g id="node35" class="node">
<title>magi2</title>
<ellipse fill="none" stroke="#000000" cx="566.3736" cy="-1159.9352" rx="27" ry="18"/>
<text text-anchor="middle" x="566.3736" y="-1155.7352" font-family="Times,serif" font-size="14.00" fill="#000000">??</text>
</g>
<!-- magi1&#45;&gt;magi2 -->
<g id="edge57" class="edge">
<title>magi1&#45;&gt;magi2</title>
<path fill="none" stroke="#000000" d="M685.6514,-1220.843C661.8804,-1208.7046 623.5976,-1189.1559 596.8331,-1175.489"/>
<polygon fill="#000000" stroke="#000000" points="598.387,-1172.3526 587.8892,-1170.9219 595.2035,-1178.5868 598.387,-1172.3526"/>
</g>
<!-- magi3 -->
<g id="node36" class="node">
<title>magi3</title>
<ellipse fill="none" stroke="#000000" cx="684.3736" cy="-1159.9352" rx="27" ry="18"/>
<text text-anchor="middle" x="684.3736" y="-1155.7352" font-family="Times,serif" font-size="14.00" fill="#000000">????</text>
</g>
<!-- magi1&#45;&gt;magi3 -->
<g id="edge58" class="edge">
<title>magi1&#45;&gt;magi3</title>
<path fill="none" stroke="#000000" stroke-dasharray="5,2" d="M701.6883,-1214.1375C699.1173,-1206.0893 696.0202,-1196.394 693.1605,-1187.4419"/>
<polygon fill="#000000" stroke="#000000" points="696.4504,-1186.2385 690.0734,-1177.7778 689.7824,-1188.3686 696.4504,-1186.2385"/>
</g>
<!-- magi1&#45;&gt;helbred -->
<g id="edge59" class="edge">
<title>magi1&#45;&gt;helbred</title>
<path fill="none" stroke="#000000" stroke-dasharray="1,5" d="M711.7029,-1213.9389C722.0429,-1171.4571 748.0806,-1067.5617 758.3736,-1055.0235 774.3815,-1035.5241 798.1962,-1021.5141 820.3247,-1011.8432"/>
<polygon fill="#000000" stroke="#000000" points="821.7835,-1015.0273 829.6775,-1007.9608 819.0997,-1008.5621 821.7835,-1015.0273"/>
</g>
<!-- penge -->
<g id="node38" class="node">
<title>penge</title>
<ellipse fill="#00ff00" stroke="#000000" cx="543.3736" cy="-1080.4794" rx="57.5098" ry="25.4118"/>
<text text-anchor="middle" x="543.3736" y="-1083.2794" font-family="Times,serif" font-size="14.00" fill="#000000">Money</text>
<text text-anchor="middle" x="543.3736" y="-1069.2794" font-family="Times,serif" font-size="14.00" fill="#000000">2019&#45;02&#45;28</text>
</g>
<!-- magi2&#45;&gt;penge -->
<g id="edge60" class="edge">
<title>magi2&#45;&gt;penge</title>
<path fill="none" stroke="#000000" stroke-dasharray="1,5" d="M561.1546,-1141.9054C558.8965,-1134.1045 556.1723,-1124.6935 553.5422,-1115.6078"/>
<polygon fill="#000000" stroke="#000000" points="556.8944,-1114.6005 550.7518,-1105.9681 550.1705,-1116.5469 556.8944,-1114.6005"/>
</g>
<!-- rejser -->
<g id="node39" class="node">
<title>rejser</title>
<ellipse fill="#00ff00" stroke="#000000" cx="156.3736" cy="-1080.4794" rx="41.1266" ry="18"/>
<text text-anchor="middle" x="156.3736" y="-1076.2794" font-family="Times,serif" font-size="14.00" fill="#000000">Mobility</text>
</g>
<!-- magi2&#45;&gt;rejser -->
<g id="edge67" class="edge">
<title>magi2&#45;&gt;rejser</title>
<path fill="none" stroke="#000000" stroke-dasharray="1,5" d="M540.4153,-1154.9046C472.8551,-1141.8118 290.7807,-1106.5268 203.8395,-1089.678"/>
<polygon fill="#000000" stroke="#000000" points="204.4561,-1086.2324 193.9728,-1087.7659 203.1243,-1093.1046 204.4561,-1086.2324"/>
</g>
<!-- faa_ting_gjort -->
<g id="node40" class="node">
<title>faa_ting_gjort</title>
<ellipse fill="#00ff00" stroke="#000000" cx="659.3736" cy="-906.656" rx="83.9876" ry="25.4118"/>
<text text-anchor="middle" x="659.3736" y="-909.456" font-family="Times,serif" font-size="14.00" fill="#000000">Can get stuff done</text>
<text text-anchor="middle" x="659.3736" y="-895.456" font-family="Times,serif" font-size="14.00" fill="#000000">2019&#45;03&#45;12</text>
</g>
<!-- magi2&#45;&gt;faa_ting_gjort -->
<g id="edge70" class="edge">
<title>magi2&#45;&gt;faa_ting_gjort</title>
<path fill="none" stroke="#000000" stroke-dasharray="1,5" d="M581.4569,-1144.4787C590.8047,-1134.2249 602.4906,-1120.0933 610.3736,-1105.9352 639.5507,-1053.5329 651.5436,-983.8742 656.3356,-942.3155"/>
<polygon fill="#000000" stroke="#000000" points="659.8414,-942.448 657.4299,-932.1312 652.8815,-941.7001 659.8414,-942.448"/>
</g>
<!-- magi3&#45;&gt;magi4 -->
<g id="edge56" class="edge">
<title>magi3&#45;&gt;magi4</title>
<path fill="none" stroke="#000000" d="M703.0336,-1146.4566C720.8401,-1133.5945 747.8449,-1114.0883 767.8777,-1099.6181"/>
<polygon fill="#000000" stroke="#000000" points="769.9322,-1102.4517 775.9892,-1093.7589 765.8334,-1096.7772 769.9322,-1102.4517"/>
</g>
<!-- magi3&#45;&gt;penge -->
<g id="edge64" class="edge">
<title>magi3&#45;&gt;penge</title>
<path fill="none" stroke="#000000" stroke-dasharray="1,5" d="M663.5686,-1148.2112C643.6963,-1137.0129 613.1058,-1119.7746 587.7597,-1105.4916"/>
<polygon fill="#000000" stroke="#000000" points="589.4696,-1102.4378 579.0393,-1100.5776 586.033,-1108.5361 589.4696,-1102.4378"/>
</g>
<!-- helbred&#45;&gt;ehic -->
<g id="edge63" class="edge">
<title>helbred&#45;&gt;ehic</title>
<path fill="none" stroke="#000000" d="M913.907,-973.8461C935.2142,-962.344 962.4494,-947.6418 986.0074,-934.9245"/>
<polygon fill="#000000" stroke="#000000" points="987.6991,-937.9888 994.8362,-930.1585 984.3739,-931.829 987.6991,-937.9888"/>
</g>
<!-- helbred&#45;&gt;doctor -->
<g id="edge62" class="edge">
<title>helbred&#45;&gt;doctor</title>
<path fill="none" stroke="#000000" d="M930.3195,-983.6205C987.093,-972.5751 1079.696,-953.4639 1158.3736,-932.1118 1278.8125,-899.4263 1307.2019,-885.3162 1425.3736,-845.2001 1431.0036,-843.2889 1436.8704,-841.2662 1442.7184,-839.2296"/>
<polygon fill="#000000" stroke="#000000" points="1444.2153,-842.414 1452.4972,-835.8065 1441.9024,-835.8071 1444.2153,-842.414"/>
</g>
<!-- penge&#45;&gt;spend_lovely_dkk -->
<g id="edge65" class="edge">
<title>penge&#45;&gt;spend_lovely_dkk</title>
<path fill="none" stroke="#000000" d="M536.5973,-1054.8731C534.4449,-1046.7395 532.0252,-1037.5962 529.7245,-1028.9026"/>
<polygon fill="#000000" stroke="#000000" points="533.0435,-1027.7627 527.1016,-1018.991 526.2764,-1029.5536 533.0435,-1027.7627"/>
</g>
<!-- penge&#45;&gt;mobilepay -->
<g id="edge66" class="edge">
<title>penge&#45;&gt;mobilepay</title>
<path fill="none" stroke="#000000" d="M490.6114,-1070.2692C459.971,-1061.6551 423.0572,-1046.1994 400.3736,-1019.0235 337.8725,-944.1443 346.1679,-819.4298 354.962,-758.5545"/>
<polygon fill="#000000" stroke="#000000" points="358.4242,-759.0672 356.4796,-748.6523 351.505,-758.0066 358.4242,-759.0672"/>
</g>
<!-- rejser&#45;&gt;rejsekort -->
<g id="edge69" class="edge">
<title>rejser&#45;&gt;rejsekort</title>
<path fill="none" stroke="#000000" d="M139.0692,-1064.1319C127.2113,-1052.9299 111.1176,-1037.7263 96.9052,-1024.3"/>
<polygon fill="#000000" stroke="#000000" points="98.9145,-1021.3834 89.2418,-1017.0604 94.1075,-1026.4718 98.9145,-1021.3834"/>
</g>
<!-- rejser&#45;&gt;pendlerkort -->
<g id="edge68" class="edge">
<title>rejser&#45;&gt;pendlerkort</title>
<path fill="none" stroke="#000000" d="M156.3736,-1062.2105C156.3736,-1030.54 156.3736,-963.39 156.3736,-906.656 156.3736,-906.656 156.3736,-906.656 156.3736,-616.2224 156.3736,-560.8016 146.57,-497.1308 139.4943,-458.3943"/>
<polygon fill="#000000" stroke="#000000" points="142.8587,-457.3443 137.5813,-448.1574 135.9778,-458.6302 142.8587,-457.3443"/>
</g>
<!-- faa_ting_gjort&#45;&gt;activated_nemid -->
<g id="edge71" class="edge">
<title>faa_ting_gjort&#45;&gt;activated_nemid</title>
<path fill="none" stroke="#000000" d="M717.6041,-888.1179C761.0797,-874.2771 820.5549,-855.3427 865.8953,-840.9082"/>
<polygon fill="#000000" stroke="#000000" points="867.1686,-844.176 875.6356,-837.8073 865.0451,-837.5058 867.1686,-844.176"/>
</g>
<!-- faa_ting_gjort&#45;&gt;danish_lessions -->
<g id="edge72" class="edge">
<title>faa_ting_gjort&#45;&gt;danish_lessions</title>
<path fill="none" stroke="#000000" d="M651.1242,-881.0497C648.4753,-872.8277 645.4941,-863.574 642.6661,-854.7959"/>
<polygon fill="#000000" stroke="#000000" points="645.9621,-853.6125 639.5642,-845.1676 639.2993,-855.7591 645.9621,-853.6125"/>
</g>
</g>
</svg>
